<svg width="56" height="22" viewBox="0 0 56 22" fill="none" xmlns="http://www.w3.org/2000/svg">
<path d="M36.0293 3.47706L26.3263 1.05784C25.7904 0.92423 25.2477 1.25033 25.1141 1.78621L21.2433 17.3109C21.1097 17.8468 21.4358 18.3896 21.9717 18.5232L31.6747 20.9424C32.2106 21.076 32.7533 20.7499 32.8869 20.214L36.7576 4.68928C36.8913 4.1534 36.5652 3.61067 36.0293 3.47706Z" fill="#FCCE00"/>
<path d="M30.0005 3H20.0005C19.4482 3 19.0005 3.44772 19.0005 4V20C19.0005 20.5523 19.4482 21 20.0005 21H30.0005C30.5528 21 31.0005 20.5523 31.0005 20V4C31.0005 3.44772 30.5528 3 30.0005 3Z" fill="#EA0B18"/>
</svg>
