<svg width="56" height="22" viewBox="0 0 56 22" fill="none" xmlns="http://www.w3.org/2000/svg">
<path d="M36.0287 3.39692L26.3258 0.977701C25.7899 0.844091 25.2472 1.17019 25.1135 1.70607L21.2428 17.2308C21.1092 17.7667 21.4353 18.3094 21.9712 18.443L31.6741 20.8622C32.21 20.9959 32.7527 20.6697 32.8863 20.1339L36.7571 4.60914C36.8907 4.07326 36.5646 3.53053 36.0287 3.39692Z" fill="#FCCE00"/>
<path d="M30 2.91998H20C19.4477 2.91998 19 3.3677 19 3.91998V19.92C19 20.4723 19.4477 20.92 20 20.92H30C30.5523 20.92 31 20.4723 31 19.92V3.91998C31 3.3677 30.5523 2.91998 30 2.91998Z" fill="#EA0B18"/>
</svg>
