<svg width="12" height="13" viewBox="0 0 12 13" fill="none" xmlns="http://www.w3.org/2000/svg">
<g clip-path="url(#clip0_2357_47196)">
<path d="M11.9992 6.63831C11.9888 6.41159 11.9149 6.17613 11.7407 6.01623L10.7741 5.04891L9.23008 3.50566L8.87608 3.15087C8.70916 2.9887 8.4867 2.89625 8.25401 2.89233C8.03843 2.89233 7.78069 2.98779 7.63273 3.15087C7.48 3.31872 7.36545 3.53827 7.3742 3.77294C7.38374 4.00682 7.46329 4.22558 7.63273 4.39422L8.60164 5.36313L8.99541 5.7577H2.13986C1.727 5.7577 1.31175 5.75292 0.898888 5.7577H0.880592C0.653877 5.7577 0.419207 5.85634 0.259313 6.01703C0.105783 6.16976 -0.00797263 6.41796 0.000777787 6.63831C0.0111192 6.86423 0.0851 7.10049 0.259313 7.25959C0.43273 7.41868 0.644331 7.51892 0.880592 7.51812H9.00018L7.98672 8.53078L7.63273 8.88478C7.47363 9.04388 7.37499 9.28252 7.3742 9.50685C7.3742 9.72243 7.46965 9.98017 7.63273 10.1281C7.79978 10.2809 8.01934 10.3962 8.2548 10.3867C8.48706 10.3818 8.70892 10.2894 8.87608 10.1281L9.84499 9.15922L11.389 7.61517L11.743 7.26118C11.8337 7.17129 11.8974 7.0639 11.9395 6.94934C11.9809 6.85066 12.0015 6.74451 12 6.63751L11.9992 6.63831Z" fill="#37003C"/>
</g>
<defs>
<clipPath id="clip0_2357_47196">
<rect width="12" height="12" fill="white" transform="translate(0 0.639893)"/>
</clipPath>
</defs>
</svg>
