<svg width="12" height="13" viewBox="0 0 12 13" fill="none" xmlns="http://www.w3.org/2000/svg">
<g clip-path="url(#clip0_2388_12077)">
<path d="M11.9989 6.3584C11.9885 6.13168 11.9146 5.89622 11.7403 5.73632L10.7738 4.76901L9.22977 3.22575L8.87578 2.87096C8.70885 2.70879 8.4864 2.61634 8.2537 2.61243C8.03813 2.61243 7.78039 2.70789 7.63242 2.87096C7.47969 3.03881 7.36514 3.25837 7.37389 3.49304C7.38344 3.72691 7.46299 3.94567 7.63242 4.11432L8.60133 5.08323L8.9951 5.47779H2.13955C1.72669 5.47779 1.31144 5.47302 0.898583 5.47779H0.880287C0.653572 5.47779 0.418902 5.57643 0.259008 5.73712C0.105478 5.88985 -0.0082778 6.13805 0.000472611 6.3584C0.010814 6.58432 0.0847948 6.82058 0.259008 6.97968C0.432425 7.13878 0.644026 7.23901 0.880287 7.23821H8.99988L7.98642 8.25088L7.63242 8.60487C7.47333 8.76397 7.37469 9.00262 7.37389 9.22694C7.37389 9.44252 7.46935 9.70026 7.63242 9.84822C7.79948 10.001 8.01903 10.1163 8.2545 10.1068C8.48675 10.1019 8.70861 10.0095 8.87578 9.84822L9.84469 8.87931L11.3887 7.33526L11.7427 6.98127C11.8334 6.89138 11.8971 6.78399 11.9392 6.66944C11.9806 6.57076 12.0012 6.4646 11.9997 6.3576L11.9989 6.3584Z" fill="#37003C"/>
</g>
<defs>
<clipPath id="clip0_2388_12077">
<rect width="12" height="12" fill="white" transform="translate(0 0.359985)"/>
</clipPath>
</defs>
</svg>
