<svg width="12" height="13" viewBox="0 0 12 13" fill="none" xmlns="http://www.w3.org/2000/svg">
<g clip-path="url(#clip0_2388_2346)">
<path d="M11.9989 6.65839C11.9885 6.43167 11.9146 6.19621 11.7403 6.03631L10.7738 5.06899L9.22977 3.52574L8.87578 3.17095C8.70885 3.00878 8.4864 2.91633 8.2537 2.91241C8.03813 2.91241 7.78039 3.00787 7.63242 3.17095C7.47969 3.3388 7.36514 3.55835 7.37389 3.79302C7.38344 4.0269 7.46299 4.24566 7.63242 4.4143L8.60133 5.38321L8.9951 5.77778H2.13955C1.72669 5.77778 1.31144 5.773 0.898583 5.77778H0.880287C0.653572 5.77778 0.418902 5.87642 0.259008 6.03711C0.105478 6.18984 -0.0082778 6.43804 0.000472611 6.65839C0.010814 6.88431 0.0847948 7.12057 0.259008 7.27967C0.432425 7.43877 0.644026 7.539 0.880287 7.5382H8.99988L7.98642 8.55086L7.63242 8.90486C7.47333 9.06396 7.37469 9.3026 7.37389 9.52693C7.37389 9.74251 7.46935 10.0003 7.63242 10.1482C7.79948 10.3009 8.01903 10.4163 8.2545 10.4067C8.48675 10.4018 8.70861 10.3095 8.87578 10.1482L9.84469 9.1793L11.3887 7.63525L11.7427 7.28126C11.8334 7.19137 11.8971 7.08398 11.9392 6.96942C11.9806 6.87074 12.0012 6.76459 11.9997 6.65759L11.9989 6.65839Z" fill="#37003C"/>
</g>
<defs>
<clipPath id="clip0_2388_2346">
<rect width="12" height="12" fill="white" transform="translate(0 0.659973)"/>
</clipPath>
</defs>
</svg>
