<svg width="12" height="13" viewBox="0 0 12 13" fill="none" xmlns="http://www.w3.org/2000/svg">
<g clip-path="url(#clip0_2388_2393)">
<path d="M11.9989 6.2584C11.9885 6.03169 11.9146 5.79622 11.7403 5.63633L10.7738 4.66901L9.22977 3.12575L8.87578 2.77097C8.70885 2.6088 8.4864 2.51634 8.2537 2.51243C8.03813 2.51243 7.78039 2.60789 7.63242 2.77097C7.47969 2.93881 7.36514 3.15837 7.37389 3.39304C7.38344 3.62691 7.46299 3.84568 7.63242 4.01432L8.60133 4.98323L8.9951 5.37779H2.13955C1.72669 5.37779 1.31144 5.37302 0.898583 5.37779H0.880287C0.653572 5.37779 0.418902 5.47643 0.259008 5.63712C0.105478 5.78986 -0.0082778 6.03805 0.000472611 6.2584C0.010814 6.48432 0.0847948 6.72058 0.259008 6.87968C0.432425 7.03878 0.644026 7.13901 0.880287 7.13822H8.99988L7.98642 8.15088L7.63242 8.50487C7.47333 8.66397 7.37469 8.90262 7.37389 9.12695C7.37389 9.34253 7.46935 9.60027 7.63242 9.74823C7.79948 9.90096 8.01903 10.0163 8.2545 10.0068C8.48675 10.0019 8.70861 9.90954 8.87578 9.74823L9.84469 8.77932L11.3887 7.23527L11.7427 6.88127C11.8334 6.79138 11.8971 6.68399 11.9392 6.56944C11.9806 6.47076 12.0012 6.3646 11.9997 6.25761L11.9989 6.2584Z" fill="#37003C"/>
</g>
<defs>
<clipPath id="clip0_2388_2393">
<rect width="12" height="12" fill="white" transform="translate(0 0.259995)"/>
</clipPath>
</defs>
</svg>
