<svg width="100" height="71" viewBox="0 0 100 71" fill="none" xmlns="http://www.w3.org/2000/svg">
<path d="M41.202 21.4682C41.4204 21.2391 41.9066 20.766 42.8044 20.7962C43.3661 20.5368 44.0084 20.639 44.2474 20.7793C44.2474 20.7793 44.6517 20.7697 44.9127 20.8953C48.2149 19.7921 51.7858 19.7921 55.0877 20.8953C55.3482 20.7697 55.7524 20.7793 55.7524 20.7793C55.9914 20.639 56.6337 20.5368 57.1955 20.7962C58.0919 20.766 58.5781 21.2409 58.7979 21.4682C58.9215 21.1208 59.1376 20.8265 59.6449 20.6555C59.828 19.7149 61.0486 19.2899 62.7718 20.1581C63.5409 19.4605 64.6691 20.204 65.0385 21.2125C65.6062 21.069 66.5063 21.598 66.4459 23.2931C67.0209 23.3233 67.2443 23.9293 67.0813 24.9112C67.4233 24.8383 69.1031 24.5257 70.3067 26.0572C70.8808 26.7879 70.5475 27.7211 69.9368 28.1768C69.896 28.2905 69.6405 29.3105 68.8696 29.7262C68.8238 30.2433 69.7184 31.3485 70.0549 32.0755C71.0008 34.1203 70.5306 37.5936 67.0246 38.1876C67.1798 38.3334 67.536 38.8225 67.6527 39.2286C67.8033 39.754 67.6898 40.2614 67.4238 40.6955C67.1344 41.1722 66.0503 41.8493 65.7834 42.1894C66.287 42.4869 66.8547 43.0947 66.5997 44.2416L65.6035 48.728C65.44 49.4586 64.9533 50.077 64.1595 50.2375C63.757 50.3186 63.3354 50.2333 63.0831 50.1664C61.3406 49.7043 60.0798 50.0628 58.1482 50.6894C57.141 51.0158 56.045 51.377 54.7438 51.6599C51.6151 52.3187 48.3838 52.3187 45.2551 51.6599C43.9553 51.3793 42.8565 51.0172 41.8493 50.6908C39.9178 50.0642 38.6569 49.7057 36.9145 50.1678C36.6608 50.2347 36.2405 50.32 35.8381 50.2388C35.0442 50.0784 34.5562 49.4596 34.3941 48.7293L33.3983 44.243C33.1433 43.097 33.7133 42.4883 34.2147 42.1908C33.9459 41.8506 32.8636 41.1736 32.5743 40.6969C32.3101 40.2619 32.1966 39.7545 32.3454 39.23C32.4621 38.8239 32.8183 38.3348 32.9735 38.189C29.4693 37.594 28.9991 34.1208 29.9459 32.0759C30.2824 31.3489 31.1769 30.2423 31.1312 29.7266C30.3579 29.3123 30.1038 28.291 30.0631 28.1773C29.4523 27.7216 29.119 26.7883 29.6931 26.0576C30.8968 24.5261 32.5774 24.8388 32.9185 24.9116C32.7555 23.9298 32.9789 23.3238 33.5539 23.2935C33.4935 21.5975 34.3936 21.0694 34.9613 21.2129C35.3308 20.2045 36.4589 19.4605 37.228 20.1586C38.9513 19.29 40.1741 19.7149 40.3549 20.6555C40.8622 20.8288 41.0784 21.1208 41.202 21.4682Z" fill="white"/>
<path d="M45.6097 49.9803C44.3695 49.7117 43.3252 49.3642 42.3656 49.053C40.4885 48.4438 38.8403 47.9354 36.6812 48.4456C36.2399 48.5552 36.086 48.5524 35.989 48.1041L35.093 44.0661C35.0111 43.6902 35.1214 43.6118 35.4836 43.5302C38.1527 42.9568 40.3534 43.3515 42.5673 43.9167C43.7274 44.2128 44.8789 44.5515 46.0852 44.8165C47.3127 45.086 48.5959 45.2795 49.9987 45.2795C51.4016 45.2795 52.6848 45.086 53.9122 44.8165C55.1186 44.5515 56.2701 44.2128 57.4302 43.9167C59.6442 43.3515 61.845 42.9568 64.5139 43.5302C64.8761 43.6118 64.9864 43.6902 64.9045 44.0661L64.008 48.1064C63.9096 48.5551 63.7567 48.5574 63.314 48.4474C61.154 47.9381 59.5095 48.4474 57.6315 49.0552C56.67 49.3665 55.6276 49.7139 54.3873 49.9825C51.4928 50.5907 48.5036 50.5907 45.6092 49.9825L45.6097 49.9803ZM45.5607 26.8315L45.444 26.7609L45.4733 26.6271C45.5511 26.2732 45.503 25.9578 44.9587 25.9395L44.8241 25.9349L44.412 24.6377L44.5256 24.557C44.8992 24.2916 44.8126 23.9579 44.3058 23.7778L44.1799 23.7319V23.5985C44.1799 23.3826 44.31 23.263 44.4024 23.1787L44.4734 23.114C44.4954 23.0929 44.5192 23.0682 44.5416 23.0448C44.5925 22.9894 44.6362 22.9278 44.6716 22.8614L44.7046 22.7996L44.7696 22.7739C48.1322 21.458 51.8665 21.458 55.229 22.7739L55.294 22.7996L55.327 22.8614C55.3624 22.9278 55.4061 22.9894 55.457 23.0448C55.4803 23.0705 55.5028 23.0906 55.5252 23.114L55.5962 23.1787C55.6877 23.263 55.8187 23.3826 55.8187 23.5985V23.7328L55.6928 23.7787C55.186 23.962 55.0976 24.2948 55.473 24.5579L55.5866 24.6386L55.1745 25.9359L55.0399 25.9404C54.4956 25.9579 54.4475 26.2732 54.5253 26.628L54.5546 26.7619L54.4379 26.8325C54.2744 26.9315 54.1311 27.3248 54.2259 27.6117L54.3674 28.0385L53.9613 27.8455C51.4558 26.6445 48.5418 26.6445 46.0363 27.8455L45.6311 28.0403L45.7726 27.6135C45.8673 27.3257 45.7236 26.9324 45.5606 26.8334L45.5607 26.8315Z" fill="#FFFF00"/>
<path d="M64.854 30.2828C64.842 30.2997 64.8288 30.3158 64.8146 30.3309C64.6667 30.4858 64.3746 30.6385 64.1192 30.6307L63.904 30.6243L63.9232 30.8388C64.0075 31.7666 64.5578 33.0088 65.1136 33.6524C65.6785 34.3052 65.978 35.0143 65.9468 35.6515L65.9377 35.8349L66.1208 35.8523C67.1935 35.9527 67.9416 35.4434 68.2089 34.7109C68.6159 33.597 67.823 32.3928 67.2841 31.5778C66.5736 30.5028 66.6922 29.2831 66.8547 28.513L66.8812 28.3869L66.7746 28.3149C66.5598 28.1705 66.4463 27.9262 66.4463 27.6466C66.4463 27.3358 66.5232 26.9966 66.8322 26.6867C67.1591 26.3599 67.5084 26.32 68.0157 26.32C68.2653 26.32 68.8856 26.5951 69.0687 26.866C69.0738 26.8727 69.0753 26.8814 69.0729 26.8894C69.0729 26.8967 69.0605 26.9191 69.0188 26.9416C68.8087 27.0535 68.692 27.2377 68.6128 27.4174C68.5404 27.582 68.4901 27.7699 68.4228 27.9469C68.306 28.2526 68.1572 28.4791 67.6724 28.4791H67.5277L67.4888 28.6166C67.4187 28.8707 67.3792 29.1323 67.3711 29.3958C67.3414 30.1921 67.5392 30.733 67.8317 31.2152C67.9315 31.3793 68.0867 31.6126 68.2497 31.8753C68.4161 32.137 68.5668 32.4084 68.7011 32.688C69.3956 34.1883 68.93 36.0343 67.236 36.572C66.965 36.6581 66.3561 36.7434 65.7115 36.6329L65.6034 36.6141L65.5334 36.698C65.4954 36.7439 65.4546 36.7874 65.4116 36.8305C65.347 36.8951 65.2688 36.9643 65.1827 37.0377L65.141 37.0739L65.125 37.1262C64.9794 37.6056 65.0257 38.1662 65.51 38.7268C65.7014 38.9482 65.8676 39.1284 65.9949 39.2842C66.1222 39.4401 66.1876 39.5469 66.2123 39.6322C66.2449 39.7458 66.2229 39.893 65.7582 40.2281C64.5747 41.0788 64.0963 41.8022 63.8353 42.3206C63.7149 42.5613 63.6476 42.7511 63.5711 42.8803C63.5167 42.972 63.4851 42.9885 63.4205 42.989C63.1875 42.9807 62.8469 42.9404 62.5965 42.835L62.4431 42.7699L62.3598 42.9115C62.2078 43.1673 61.6007 43.2145 61.3558 43.0541L61.2752 43.0014L61.1836 43.0353C60.68 43.2218 60.3435 43.1939 60.1398 43.1329C60.0613 43.1106 59.9867 43.0763 59.9187 43.0311C59.9027 43.0202 59.8874 43.0083 59.8729 42.9954C58.9806 42.9275 58.916 42.0135 59.3038 41.5175C59.3894 41.408 59.6573 41.0807 60.2158 41.0807C60.5963 41.0807 62.3965 39.9503 62.3965 39.3525C62.3965 39.215 62.3049 39.116 62.239 39.056C62.1522 38.9832 62.0592 38.9183 61.9611 38.8621C61.7569 38.7397 61.4849 38.5976 61.213 38.4202C60.6728 38.0686 60.2026 37.6212 60.2026 36.9652C60.2026 36.4385 60.3504 35.5327 61.8242 35.5327H62.0151V35.3416C62.0151 34.2735 60.9438 33.2068 60.4127 32.8021C60.1248 32.5751 59.895 32.2827 59.7425 31.949L59.7081 31.8761L59.6326 31.8496C59.0864 31.6579 58.5993 31.0364 58.1397 30.3071C57.9107 29.9468 57.702 29.5769 57.5028 29.2496C57.3037 28.9223 57.1059 28.6206 56.9077 28.4153L56.85 28.3553H56.7676C56.5268 28.358 56.2205 28.2636 55.9604 28.1641L55.8661 28.127L55.7824 28.1847C55.3122 28.5097 54.7985 28.2993 54.7752 28.0243L54.7587 27.8515H54.5852C54.3164 27.8515 54.2047 27.6878 54.1946 27.4412C54.1837 27.1662 54.3118 26.9072 54.4355 26.832L54.5522 26.7614L54.5229 26.6276C54.4501 26.2966 54.3164 25.295 57.1444 26.5336C57.2227 26.568 57.3028 26.6065 57.3848 26.6477L57.7437 26.8284L57.6563 26.4355C57.5468 25.9414 57.3257 25.4761 56.8624 25.0727L56.7653 24.9884L56.6518 25.0493C56.4659 25.1442 56.3363 25.1282 56.1779 25.0493C56.0743 24.9927 55.9752 24.9284 55.8813 24.8568C55.7645 24.772 55.6373 24.6734 55.4912 24.5763C55.092 24.304 55.1822 23.9652 55.6922 23.7814L55.8181 23.7355V23.5985C55.8192 23.503 55.7906 23.4096 55.7361 23.3312C55.7139 23.2985 55.6888 23.2678 55.6611 23.2396C55.6377 23.2157 55.6121 23.1937 55.5846 23.1671C55.5571 23.1406 55.5388 23.124 55.5114 23.0998C55.4839 23.0755 55.4656 23.0539 55.4408 23.0264C55.3884 22.9651 55.3442 22.8971 55.3095 22.8243C55.1671 22.5309 55.4926 22.1889 55.9046 22.3764L56.1725 22.2247C56.1868 22.2162 56.2022 22.2096 56.2182 22.205C56.3028 22.1767 56.392 22.1646 56.481 22.1692C56.7283 22.1752 56.9022 22.2559 56.9315 22.2999L57.252 22.2934C57.2417 22.2998 57.2336 22.309 57.2287 22.32C57.2403 22.3152 57.2527 22.3121 57.2653 22.3109C57.3315 22.306 57.3979 22.3184 57.458 22.3466C57.6219 22.4168 57.8586 22.6125 58.0601 23.0979L58.1246 23.2533L58.2867 23.2075C58.4251 23.1681 58.5662 23.139 58.7088 23.1204C58.8004 23.1099 59.1263 23.0856 59.2042 23.0746C59.2877 23.0611 59.3665 23.0265 59.4331 22.9742C59.4852 22.9326 59.5336 22.8866 59.5778 22.8366L59.6359 22.7752C59.6533 22.7578 59.6716 22.7399 59.6908 22.7239C59.7218 22.6957 59.7574 22.673 59.7961 22.657C59.8905 22.6331 59.9864 22.6163 60.0832 22.6065L60.2997 22.5781L60.243 22.3668C60.2274 22.309 60.2077 22.2293 60.1972 22.1573C60.1917 22.127 60.1881 22.0964 60.1862 22.0656C60.1853 22.0577 60.1853 22.0497 60.1862 22.0418C60.1954 22.012 60.232 21.968 60.3693 21.9249C60.5154 21.8791 60.677 21.858 60.7786 21.8227C60.8395 21.8021 60.9032 21.7805 60.9618 21.7571C61.0296 21.7322 61.0939 21.6986 61.1531 21.6572C61.3008 21.5597 61.353 21.3674 61.2749 21.2084C61.3129 21.2121 61.3665 21.2204 61.4347 21.2323C61.5671 21.2561 61.6969 21.2931 61.822 21.3427C61.8694 21.361 61.9153 21.3829 61.9594 21.4083C61.9658 21.4121 61.9721 21.4162 61.9781 21.4207C61.976 21.4391 61.972 21.4572 61.9662 21.4748C61.9502 21.5252 61.7547 21.8823 61.7547 21.8823C61.7547 21.8823 62.1466 21.8451 62.1961 21.8447C62.2597 21.8438 62.3232 21.8482 62.3861 21.858C62.4868 21.8745 62.5816 21.8947 62.6649 21.9079C62.757 21.9268 62.8518 21.9287 62.9446 21.9134C63.0702 21.8894 63.1684 21.7911 63.1927 21.6655C63.2063 21.5895 63.2044 21.5115 63.1873 21.4363C63.2823 21.4562 63.3746 21.4878 63.4619 21.5302C63.7824 21.6838 63.9024 21.8731 63.8548 22.0047C63.8168 22.1096 63.6716 22.2123 63.6666 22.216L63.4423 22.3663C63.4423 22.3663 63.6712 22.5364 63.6762 22.5414C63.6922 22.5535 63.7075 22.5665 63.722 22.5804C63.7714 22.6332 63.813 22.6928 63.8456 22.7573C63.983 23.0127 64.2682 22.9233 64.384 22.8564C64.5283 22.7763 64.6329 22.6398 64.6729 22.4796C64.8235 22.6377 64.9668 22.8985 64.9842 23.0892C64.9998 23.2561 64.9577 23.4459 64.8807 23.505C64.8542 23.5256 64.7068 23.5508 64.6825 23.5508L64.4078 23.582C64.4078 23.582 64.552 23.863 64.5658 23.9116C64.5906 24.0035 64.6008 24.0988 64.596 24.1939C64.5836 24.5148 64.8894 24.5712 65.0538 24.5442C65.1957 24.5194 65.3262 24.4502 65.4265 24.3466C65.4388 24.3704 65.4512 24.3979 65.464 24.4286C65.5505 24.64 65.5968 24.9173 65.5391 25.1162C65.5052 25.2322 65.339 25.3912 65.285 25.4022C65.2626 25.4061 65.2399 25.4072 65.2172 25.4054C65.182 25.4054 65.1472 25.3995 65.117 25.3958C65.0776 25.39 65.0378 25.3876 64.9979 25.3885C64.8235 25.3986 64.7745 25.5026 64.7892 25.6241C64.795 25.6654 64.7978 25.7071 64.7974 25.7488C64.7974 25.7946 64.7928 25.8432 64.7873 25.9198C64.7416 26.5106 65.242 26.5102 65.5657 26.3351C65.582 26.4353 65.588 26.537 65.5835 26.6385C65.5817 26.7881 65.5522 26.9361 65.4965 27.0749C65.4439 27.1923 65.3834 27.2363 65.3258 27.2463C65.1884 27.2693 65.133 27.2436 65.1156 27.2349C64.8615 27.1061 64.7951 27.1946 64.7635 27.3431C64.758 27.3683 64.7544 27.3926 64.7448 27.4242C64.7313 27.4672 64.7144 27.509 64.6944 27.5494C64.5534 27.8482 64.6839 28.0793 64.9453 28.1311C65.0772 28.1521 65.2122 28.1419 65.3395 28.1013C65.3367 28.1963 65.3225 28.2906 65.2974 28.3822C65.214 28.6894 65.052 28.8741 64.8368 28.8558C64.8272 28.8537 64.818 28.8503 64.8093 28.8457C64.786 28.8333 64.7635 28.8173 64.7416 28.8026C64.7079 28.7781 64.6726 28.7561 64.6358 28.7366C64.5828 28.7076 64.5236 28.6919 64.4632 28.6907C64.3991 28.6907 64.2911 28.7279 64.2439 28.8741C64.2273 28.932 64.2165 28.9914 64.2119 29.0515C64.2 29.2044 64.2046 29.358 64.2256 29.5099C64.244 29.6781 64.2929 29.8415 64.3698 29.9921C64.4495 30.1356 64.5882 30.2786 64.8038 30.2786C64.824 30.2805 64.8402 30.2814 64.854 30.2828ZM38.7196 21.2147C38.6451 21.3727 38.6982 21.5615 38.8441 21.6575C38.9033 21.6993 38.9677 21.7333 39.0355 21.7588C39.0946 21.7821 39.1582 21.8046 39.2186 21.8243C39.3203 21.8596 39.4819 21.8807 39.6279 21.9265C39.7653 21.9696 39.8042 22.0136 39.8111 22.0434C39.8119 22.0513 39.8119 22.0593 39.8111 22.0673C39.8092 22.098 39.8055 22.1286 39.8001 22.1589C39.7877 22.2327 39.768 22.3107 39.7543 22.3684L39.6975 22.5784L39.9141 22.6068C40.0109 22.6165 40.1068 22.6334 40.2011 22.6572C40.2409 22.6733 40.2774 22.6962 40.3092 22.7251C40.3284 22.7411 40.3467 22.759 40.3641 22.7764L40.4222 22.8378C40.4664 22.8878 40.5148 22.9338 40.5669 22.9753C40.6335 23.0277 40.7123 23.0623 40.7958 23.0757C40.8737 23.0881 41.1973 23.1124 41.2912 23.1216C41.4339 23.1402 41.5749 23.1693 41.7133 23.2087L41.8754 23.2545L41.9399 23.0991C42.1414 22.6137 42.3781 22.4179 42.542 22.3478C42.6021 22.3195 42.6685 22.3072 42.7347 22.312C42.7473 22.3133 42.7597 22.3163 42.7713 22.3212C42.7664 22.3102 42.7583 22.3009 42.748 22.2946L43.0685 22.301C43.0978 22.2552 43.2717 22.1764 43.519 22.1704C43.608 22.1658 43.6972 22.1779 43.7818 22.2062C43.7986 22.2121 43.8141 22.2211 43.8275 22.2327C44.5079 22.1901 44.832 22.5321 44.6896 22.8254C44.6544 22.8989 44.6096 22.9673 44.5564 23.029C44.5326 23.056 44.5106 23.0803 44.4859 23.1023C44.4612 23.1243 44.4355 23.1481 44.4126 23.1697C44.3897 23.1912 44.3595 23.2183 44.3362 23.2421C44.3084 23.2704 44.2833 23.301 44.2611 23.3338C44.2067 23.4122 44.178 23.5056 44.1791 23.601V23.7353L44.305 23.7812C44.8151 23.9645 44.9053 24.3038 44.506 24.5761C44.36 24.6751 44.2313 24.7718 44.116 24.8566C44.0221 24.9282 43.9229 24.9925 43.8193 25.0491C43.6609 25.1298 43.5313 25.1458 43.3454 25.0491L43.2305 24.9909L43.1335 25.0752C42.6702 25.4786 42.449 25.9462 42.3396 26.4381L42.2522 26.8309L42.6111 26.6503C42.693 26.609 42.7732 26.5705 42.8514 26.5362C45.6794 25.2985 45.5458 26.2992 45.4729 26.6301L45.4436 26.764L45.5604 26.8346C45.684 26.9097 45.8122 27.1706 45.8012 27.4438C45.7916 27.6904 45.6794 27.854 45.4107 27.854H45.2372L45.2212 28.0268C45.1951 28.3019 44.6814 28.5123 44.2112 28.1873L44.1274 28.1295L44.0331 28.1667C43.7731 28.2684 43.4668 28.3606 43.226 28.3578H43.1436L43.0854 28.4156C42.889 28.6209 42.6913 28.9225 42.4903 29.2498C42.2893 29.5771 42.0782 29.947 41.8535 30.3073C41.3956 31.0366 40.9066 31.6582 40.3605 31.8498L40.285 31.8764L40.2506 31.9493C40.0981 32.2829 39.8684 32.5754 39.5804 32.8023C39.0502 33.2071 37.978 34.2738 37.978 35.3418V35.533H38.1689C39.6427 35.533 39.7906 36.4388 39.7906 36.9655C39.7906 37.6214 39.3208 38.0689 38.7801 38.4204C38.5082 38.5978 38.2362 38.7413 38.0321 38.8623C37.9339 38.9186 37.8409 38.9835 37.7542 39.0562C37.6878 39.1163 37.5967 39.2162 37.5967 39.3528C37.5967 39.9487 39.3968 41.0809 39.7773 41.0809C40.3358 41.0809 40.6013 41.4082 40.6893 41.5178C41.0771 42.0138 41.0125 42.9278 40.2672 42.9278H40.2012L40.1252 42.9956C40.1108 43.0085 40.0955 43.0205 40.0795 43.0314C40.0115 43.0765 39.9368 43.1109 39.8583 43.1331C39.6546 43.1941 39.3158 43.2221 38.8145 43.0355L38.723 43.0016L38.6424 43.0543C38.3974 43.2147 37.7904 43.1675 37.6384 42.9117L37.5532 42.7687L37.3971 42.8352C37.1481 42.9406 36.8074 42.981 36.573 42.9892C36.5085 42.9892 36.4769 42.9732 36.4224 42.8806C36.346 42.7513 36.2787 42.5597 36.1583 42.3209C35.8987 41.8024 35.4203 41.0791 34.2354 40.2283C33.7707 39.8941 33.7487 39.747 33.7812 39.6324C33.8059 39.5471 33.8728 39.4399 33.9987 39.2845C34.1246 39.1291 34.2922 38.9485 34.4835 38.7271C34.9679 38.1665 35.0141 37.6058 34.8686 37.1264L34.8525 37.0741L34.8113 37.0379C34.7266 36.9646 34.6483 36.8954 34.5824 36.8307C34.5394 36.7876 34.4986 36.7432 34.4606 36.6982L34.3906 36.6144L34.2825 36.6332C33.6379 36.7436 33.029 36.6584 32.758 36.5722C31.064 36.0345 30.597 34.1886 31.2929 32.6882C31.4272 32.4086 31.5779 32.1373 31.7443 31.8755C31.9073 31.6128 32.0648 31.3795 32.1623 31.2154C32.4549 30.7332 32.6531 30.1923 32.6229 29.3961C32.6148 29.1325 32.5753 28.8709 32.5052 28.6168L32.4663 28.4793H32.3267C31.8418 28.4793 31.6931 28.2528 31.5763 27.9471C31.509 27.7702 31.4591 27.5804 31.3863 27.4177C31.3071 27.238 31.1904 27.0537 30.9802 26.9418C30.9386 26.9194 30.9285 26.896 30.9262 26.8896C30.9237 26.8816 30.9253 26.8729 30.9303 26.8662C31.1134 26.5939 31.7338 26.3203 31.9833 26.3203C32.4906 26.3203 32.8399 26.3597 33.1668 26.687C33.4763 26.9968 33.5528 27.336 33.5528 27.6469C33.5528 27.9265 33.4392 28.1708 33.2245 28.3152L33.1178 28.3871L33.1444 28.5132C33.3046 29.2824 33.4255 30.5044 32.7126 31.5771C32.1738 32.3921 31.3808 33.5963 31.7878 34.7102C32.0552 35.4436 32.8033 35.952 33.876 35.8516L34.0591 35.8341L34.0499 35.6508C34.0188 35.0136 34.3182 34.3045 34.8836 33.6517C35.4408 33.01 35.9911 31.7659 36.074 30.8381L36.0932 30.6236L35.878 30.63C35.6226 30.6378 35.3287 30.4851 35.1826 30.3302C35.1675 30.3145 35.1534 30.2978 35.1405 30.2802H35.1927C35.4083 30.2802 35.547 30.1372 35.6267 29.9937C35.7036 29.8431 35.7525 29.6797 35.7709 29.5115C35.7919 29.3597 35.7965 29.206 35.7846 29.0531C35.78 28.9931 35.7692 28.9336 35.7526 28.8757C35.7068 28.7281 35.5974 28.6924 35.5333 28.6924C35.4729 28.6935 35.4137 28.7092 35.3607 28.7382C35.3239 28.7577 35.2886 28.7798 35.2549 28.8042C35.233 28.8189 35.2092 28.8349 35.1872 28.8473C35.1785 28.8519 35.1693 28.8553 35.1597 28.8574C34.9445 28.8757 34.7825 28.691 34.6991 28.3839C34.674 28.2922 34.6598 28.1979 34.657 28.1029C34.7843 28.1435 34.9193 28.1537 35.0512 28.1327C35.3126 28.0809 35.4431 27.8498 35.3021 27.551C35.2821 27.5106 35.2653 27.4688 35.2517 27.4258C35.2421 27.3942 35.2385 27.3699 35.233 27.3447C35.2023 27.1962 35.135 27.1077 34.8809 27.2365C34.8635 27.2452 34.8067 27.2709 34.6708 27.248C34.6131 27.2379 34.5526 27.1939 34.5 27.0765C34.4443 26.9377 34.4148 26.7897 34.413 26.6401C34.4085 26.5386 34.4145 26.437 34.4309 26.3367C34.7559 26.5118 35.2549 26.5122 35.2092 25.9214C35.2037 25.8448 35.1996 25.7949 35.1991 25.7504C35.1988 25.7087 35.2015 25.667 35.2073 25.6257C35.222 25.5042 35.173 25.4002 34.9986 25.3901C34.9588 25.3892 34.9189 25.3917 34.8795 25.3974C34.8493 25.4011 34.8145 25.4057 34.7797 25.4071C34.7569 25.4088 34.734 25.4077 34.7115 25.4039C34.6575 25.3915 34.4913 25.2338 34.4574 25.1178C34.3997 24.918 34.446 24.6406 34.5325 24.4303C34.5453 24.3995 34.5577 24.372 34.57 24.3482C34.6703 24.4518 34.8008 24.521 34.9427 24.5458C35.1061 24.5728 35.412 24.5187 35.4005 24.1956C35.3957 24.1004 35.4059 24.0051 35.4307 23.9132C35.4445 23.8646 35.5887 23.5836 35.5887 23.5836L35.314 23.5524C35.2897 23.5497 35.1423 23.5263 35.1158 23.5066C35.0389 23.4475 34.9967 23.2577 35.0123 23.0908C35.0297 22.9001 35.173 22.6393 35.319 22.4858C35.3637 22.6439 35.4693 22.7778 35.6125 22.858C35.7283 22.9249 36.0154 23.0143 36.1509 22.759C36.1852 22.6941 36.2287 22.6345 36.28 22.582C36.2937 22.5682 36.3083 22.5552 36.3235 22.5431C36.3276 22.2139 36.183 22.1113 36.145 22.0063C36.0992 21.8747 36.2173 21.6854 36.5378 21.5318C36.6253 21.4884 36.7179 21.4559 36.8134 21.4351C36.7962 21.5104 36.7944 21.5883 36.8079 21.6643C36.8322 21.79 36.9305 21.8882 37.056 21.9123C37.1488 21.9276 37.2436 21.9257 37.3358 21.9068C37.4191 21.8935 37.5139 21.8733 37.6146 21.8568C37.6774 21.8471 37.741 21.8427 37.8046 21.8436C37.854 21.8436 38.2459 21.8811 38.2459 21.8811C38.2459 21.8811 38.0495 21.525 38.0321 21.4741C38.0249 21.4543 38.0204 21.4337 38.0188 21.4127C38.0243 21.4081 38.0225 21.4177 38.039 21.4076C38.083 21.3822 38.1289 21.3603 38.1763 21.3421C38.3014 21.2924 38.4312 21.2554 38.5636 21.2316C38.6152 21.2224 38.6672 21.2168 38.7196 21.2147Z" fill="#FF0000"/>
<path d="M31.7347 27.8853C31.872 28.2355 31.9581 28.3437 32.6014 28.3194C32.7117 28.666 32.7775 29.0251 32.7973 29.3884C32.8284 30.2231 32.6192 30.7966 32.312 31.3036C32.2118 31.4686 32.0566 31.7024 31.8931 31.9655C31.7302 32.2211 31.5827 32.4862 31.4513 32.7595C30.7866 34.1956 31.248 35.9105 32.8138 36.4078C33.0455 36.4811 33.5569 36.5549 34.1136 36.4843C34.033 36.3375 33.9724 36.1806 33.9336 36.0177C32.7781 36.1396 31.9316 35.6051 31.6266 34.769C31.3977 34.1479 31.5172 33.5185 31.7361 32.9675C31.9549 32.4165 32.2932 31.8994 32.5693 31.4819C33.2414 30.466 33.1571 29.2784 32.9255 28.2644C33.1489 28.1457 33.3797 28.054 33.3787 27.6456C33.3787 27.3559 33.3174 27.0653 33.0514 26.8155C32.4512 26.2516 31.5048 26.6106 31.1743 26.8613C31.3374 26.988 31.4638 27.1558 31.5406 27.3477C31.6148 27.515 31.666 27.7051 31.7347 27.8853ZM39.5234 31.5153C39.6356 31.6294 39.7954 31.6986 40.0188 31.6986C40.5082 31.6986 41.0004 31.2228 41.5351 30.4151C41.7915 30.0278 42.0268 29.6148 42.2475 29.2471C42.4682 28.8795 42.6989 28.5137 42.9342 28.269L43.0546 28.1434C43.4859 28.1965 44.1534 27.8912 44.1534 27.8912L44.3292 28.0123C44.4809 28.1106 44.6632 28.1502 44.842 28.1236C44.9426 28.118 45.0231 28.0378 45.0292 27.9371C45.0562 27.7345 44.8772 27.5823 44.7678 27.5245C44.5389 27.4145 44.7028 27.0698 44.9326 27.1798C44.9326 27.1798 45.1977 27.288 45.373 27.6419C45.5635 27.6602 45.5813 27.5575 45.5932 27.4388C45.6166 27.2096 45.4792 26.8062 44.869 26.8021C44.6154 26.8205 44.5879 26.4395 44.8415 26.4212C44.8415 26.4212 45.1094 26.4061 45.2842 26.4845C45.3154 26.3034 45.2476 26.2181 45.173 26.1892C44.9532 26.104 44.3531 26.1003 42.9342 26.7269C42.6138 26.8681 41.9403 27.277 41.2966 27.5241C41.4385 27.6937 41.6629 27.7908 41.8749 27.6157C42.2201 27.3306 42.1495 28.7915 41.6153 28.8694C41.4894 28.8844 41.3625 28.8517 41.2595 28.7778C41.2461 28.8736 41.2204 28.9672 41.1831 29.0565C41.0636 29.2856 41.113 29.5648 41.4866 29.5442C41.4917 29.9948 41.0897 30.6251 40.4387 30.3862C39.9809 30.218 40.1686 29.5204 39.6535 29.6042C39.6388 29.607 39.5853 29.8587 39.6109 30.1759C39.6874 31.1257 40.0646 30.9093 40.0857 31.0152C40.1328 31.2467 39.859 31.4566 39.5234 31.5153ZM39.9309 32.0984C39.4209 32.0718 39.1453 31.8123 39.0065 31.4731C38.7364 31.3718 38.5102 31.1284 38.4654 30.6741C38.4232 30.2487 38.6696 29.6968 38.2365 29.6968C38.1655 29.6968 38.084 30.0273 38.0492 30.1896C37.829 31.2072 38.3193 30.9423 38.1344 31.1581C37.8194 31.5248 36.738 31.446 36.8575 30.3816C36.8914 30.0777 37.1894 29.5006 36.8785 29.5006C36.6574 29.5006 36.6853 30.3258 36.2948 30.6677C36.2687 31.7463 35.5793 33.165 35.0413 33.7848C34.1257 34.8436 34.0007 35.9392 34.736 36.6758C34.8445 36.7845 34.9928 36.905 35.1439 37.0398C35.3233 37.1919 35.489 37.3594 35.6392 37.5403C35.9483 37.9295 36.1822 38.5199 35.653 39.0938C35.5257 39.2314 35.4154 39.3629 35.3142 39.4734C35.0761 39.7342 35.2382 39.8282 35.446 39.974C36.3159 40.5818 36.8282 41.1245 37.1697 41.61C37.3175 41.8211 37.4491 42.0432 37.5635 42.2741C37.6578 42.4625 37.7338 42.6354 37.8143 42.7944C37.8675 42.8994 38.3262 43.063 38.6508 42.7944C38.6586 42.5813 38.5711 42.336 38.4452 42.1559C38.2932 41.9358 38.6229 41.7076 38.7749 41.9267C38.9465 42.1751 39.0885 42.5725 39.0473 42.8856C39.4135 43.0135 39.7102 43.0007 39.9629 42.8531C40 42.4772 39.8979 42.2058 39.772 42.0399C39.6104 41.8272 39.9295 41.5842 40.0924 41.7969C40.2806 42.0608 40.3803 42.3776 40.3772 42.7018C40.5956 42.6789 40.6748 42.5354 40.7004 42.3685C40.7407 42.1045 40.6446 41.7868 40.5288 41.6388C40.4569 41.5471 40.2431 41.2826 39.7821 41.2826C39.3535 41.2826 37.3913 40.1165 37.3913 39.3446C37.3913 39.1122 37.5447 38.9581 37.6202 38.8917C37.7168 38.8098 37.8205 38.737 37.9302 38.6739C38.1325 38.5525 38.4022 38.4117 38.6723 38.2362C39.2034 37.8905 39.5879 37.4977 39.5879 36.9572C39.5879 36.4865 39.4465 35.8392 38.4864 35.7521C38.2809 35.7333 37.5804 35.665 37.1345 35.8928C36.8964 36.0143 36.6849 35.7196 36.9028 35.5651C36.9028 35.5651 37.1514 35.3817 37.7759 35.3231C37.7828 34.1482 38.931 33.0311 39.4598 32.6272C39.6467 32.48 39.8062 32.3011 39.9309 32.0984ZM35.1338 37.5592C35.1444 37.9717 35.0084 38.4136 34.6302 38.8514C34.4402 39.0709 34.2736 39.2483 34.149 39.4046C33.9201 39.6921 33.9037 39.7475 34.3491 40.0716C35.5527 40.9466 36.0568 41.687 36.3297 42.2338C36.5105 42.5964 36.5586 42.8036 36.6318 42.7972C36.7894 42.7863 36.9458 42.7631 37.0997 42.728C37.1767 42.7105 37.252 42.6866 37.325 42.6565C37.042 42.0606 36.6433 41.295 35.24 40.3077C34.4695 39.7635 34.8445 39.4106 35.3829 38.8275C35.8013 38.3737 35.5161 37.9351 35.1338 37.5592ZM41.5395 25.7161H40.2923V24.7461C40.2923 24.7461 41.2762 24.7507 41.5743 24.7149C41.685 24.7031 41.7969 24.7068 41.9066 24.7259C41.9259 24.7292 41.9749 24.72 41.9762 24.6893C42.0046 24.5178 41.9932 24.13 41.9932 24.13C42.139 23.9671 42.2183 23.7552 42.2152 23.5364C41.8815 23.4113 41.5385 23.3072 41.2712 23.2738C41.1764 23.2628 40.849 23.238 40.7698 23.2256C40.6629 23.2102 40.5617 23.1679 40.4755 23.1028C40.4187 23.0597 40.2388 22.8195 40.1449 22.7989C39.4316 22.6412 38.624 22.7159 38.4368 22.7581C38.2915 22.7924 38.1744 22.8998 38.1277 23.0418C37.9931 23.0418 37.6974 23.0418 37.5729 23.0657C37.4282 23.0959 37.3742 23.1051 37.3705 23.2032C37.3641 23.3755 37.794 23.6474 37.794 23.6474C37.7342 23.9692 37.6511 24.2864 37.5454 24.5962C37.5111 24.692 37.5092 24.7718 37.5912 24.9629C37.707 25.2306 37.9877 25.3755 38.3695 25.4365C38.6474 25.4823 38.9986 25.9205 39.1707 25.9897C39.2755 26.0319 39.9362 26.026 40.1912 26.0159C40.7017 25.9957 41.2259 25.9563 41.4012 25.9169C41.4547 25.9059 41.5102 25.7853 41.5395 25.7161ZM40.4778 26.3472C39.8647 26.3816 39.1785 26.3885 39.0127 26.2982C38.6689 26.1116 38.4729 25.8082 38.3026 25.7752C37.9066 25.6986 37.4648 25.5363 37.2766 25.1009C37.0523 24.581 37.2835 24.4784 37.4167 23.7917C36.9292 23.4153 36.9507 23.0582 37.1961 22.8442C37.3004 22.7525 37.631 22.7007 37.9433 22.7007C38.0293 22.3519 38.912 22.3303 39.5685 22.3798C39.5827 22.3285 39.6001 22.2671 39.6143 22.2194C39.6418 22.1277 39.6418 22.102 39.4985 22.0727C39.1913 22.0094 39.0173 21.9604 38.8044 21.8366C38.6213 21.7294 38.5132 21.5377 38.5489 21.4415C38.5897 21.3342 38.266 21.4438 38.2349 21.5034C38.1817 21.6042 38.4583 22.0159 38.4583 22.0159C38.2535 21.999 38.0479 21.9927 37.8425 21.9971C37.5092 22.0149 37.3078 22.1016 37.072 22.0759C36.7904 22.0447 36.6343 21.8229 36.6545 21.6634C36.6668 21.5653 36.2882 21.8348 36.2987 21.9476C36.3074 22.0351 36.4329 22.1878 36.7437 22.3904C36.203 22.7062 36.3381 23.0899 35.8739 23.1082C35.7365 23.1132 35.3703 23.0082 35.3327 22.8098C35.3094 22.6906 35.0548 23.1357 35.2063 23.3598C35.2856 23.4772 35.3702 23.4653 35.7557 23.4905C35.6001 23.7981 35.5749 23.9438 35.5749 24.2023C35.5749 24.4508 35.4948 24.5434 35.3057 24.6607C35.1683 24.7455 34.8593 24.7983 34.662 24.6021C34.6075 24.5475 34.5553 24.9518 34.6034 25.0733C34.6515 25.1948 34.7174 25.2566 34.9097 25.2507C35.2004 25.242 35.3648 25.1828 35.3602 25.2379C35.3427 25.5127 35.3456 25.7885 35.3689 26.063C35.4009 26.5214 34.906 26.7277 34.5677 26.5484C34.4812 26.5026 34.5613 27.0834 34.7211 27.0985C35.0196 27.1283 35.2975 26.8546 35.3098 26.9344C35.384 27.4047 35.4875 27.4537 35.5159 27.6798C35.5832 28.2106 35.0672 28.3486 34.885 28.2692C34.7591 28.2147 34.923 28.7872 35.1881 28.6818C35.2796 28.6447 35.4069 28.5301 35.5287 28.5301C35.7223 28.5301 35.84 28.5979 35.9197 28.8509C35.9604 28.9793 35.9815 29.2566 35.9393 29.5385C35.9193 29.7217 35.8658 29.8996 35.7814 30.0634C35.726 30.1628 35.6221 30.2733 35.5264 30.2976C35.3478 30.3434 35.8157 30.5557 36.0465 30.4205C36.2324 30.3114 36.3706 29.6036 36.4095 29.5069C36.5226 29.2241 36.7158 29.1402 36.8774 29.1402C37.1049 29.1327 37.3065 29.2856 37.3609 29.5069C37.388 29.6393 37.3844 29.7762 37.3504 29.9071C37.3288 30.0052 37.2286 30.3655 37.2162 30.4241C37.0876 31.0471 37.7743 31.07 37.6992 30.9921C37.5939 30.8793 37.6077 30.5066 37.6937 30.1129C37.7134 30.0212 37.7894 29.7003 37.8622 29.5784C37.9744 29.3868 38.1323 29.3341 38.2353 29.3341C38.7742 29.3341 38.8566 29.765 38.8539 30.0116C38.8539 30.1166 38.8255 30.5534 38.8255 30.6382C38.8255 31.3748 39.759 31.186 39.6001 31.114C39.417 31.032 39.3043 30.7423 39.2508 30.2041C39.205 29.7581 39.3245 29.3135 39.3602 29.3024C39.7351 29.1883 40.117 29.1777 40.3482 29.6398C40.4063 29.7557 40.4581 29.9584 40.5313 30.0198C40.6842 30.1468 40.996 30.0157 41.0679 29.8117C40.7286 29.6842 40.714 29.1938 40.8738 28.8674C40.9581 28.6818 41.0188 28.4864 41.0546 28.2857C41.1082 28.3448 41.4277 28.5854 41.5884 28.5323C41.7084 28.4928 41.8338 27.9794 41.7084 28.05C41.4392 28.2008 41.1132 27.8607 40.9942 27.7012C40.857 27.527 40.7793 27.3133 40.7726 27.0915C40.7593 26.8541 40.7378 26.5581 40.4778 26.3472ZM42.0976 26.7025C42.1869 26.0745 42.4052 25.4543 43.0082 24.9299L43.2023 24.7607L43.4312 24.8776C43.5553 24.9409 43.6203 24.9326 43.732 24.8776C43.8265 24.8252 43.9171 24.7661 44.0031 24.7007C44.1212 24.6145 44.2549 24.5173 44.4032 24.4151C44.6921 24.2207 44.5758 24.0736 44.2631 23.9668L43.9884 23.8637V23.6422C43.9884 23.2966 44.1473 23.1486 44.286 23.0253C44.3116 23.0023 44.5776 22.7869 44.5387 22.642C44.4929 22.4646 44.1267 22.5238 44.1267 22.5238C43.9623 22.5696 43.8318 22.8144 43.7819 22.9363C43.6798 23.1834 43.3095 23.028 43.4115 22.7828C43.4738 22.6408 43.5563 22.5086 43.6565 22.3904C43.6482 22.306 43.3182 22.3331 43.2161 22.4087C43.1292 22.5261 43.0669 22.6599 43.0329 22.802C42.9849 23.0656 42.5907 22.9936 42.6387 22.7305C42.6571 22.6473 42.684 22.5662 42.7189 22.4885C42.5357 22.4779 42.3068 22.7113 42.1237 23.138C42.2638 23.1866 42.4016 23.2389 42.5321 23.2907C42.598 23.6381 42.5321 23.9952 42.3343 24.2482C42.3343 24.615 42.3572 25.1426 41.9479 25.0802C41.8374 25.0602 41.725 25.0521 41.6128 25.056C41.3042 25.0931 40.8514 25.0857 40.6348 25.0871V25.3722H41.8948C42.0321 25.507 41.8133 26.1974 41.4598 26.2587C41.3646 26.2757 41.1728 26.2968 40.9365 26.316C41.1105 26.5984 41.1274 26.9491 41.148 27.1503C41.4737 27.0213 41.7909 26.8717 42.0976 26.7025ZM57.8988 26.7025C58.2063 26.8718 58.5242 27.0214 58.8506 27.1503C58.8712 26.9491 58.8882 26.6003 59.0622 26.3161C58.8259 26.2968 58.6341 26.2758 58.5389 26.2588C58.1854 26.1965 57.9675 25.507 58.1039 25.3723H59.3597V25.0872C59.1432 25.0872 58.6904 25.0931 58.3818 25.056C58.2695 25.0521 58.1572 25.0603 58.0467 25.0803C57.6374 25.1426 57.6603 24.6173 57.6603 24.2483C57.4607 23.9948 57.397 23.6382 57.4607 23.2907C57.5911 23.2389 57.7289 23.1867 57.869 23.1381C57.6859 22.7113 57.457 22.478 57.2739 22.4885C57.3089 22.5661 57.3359 22.647 57.3544 22.7301C57.4002 22.9932 57.0083 23.0652 56.9603 22.8016C56.9263 22.6595 56.864 22.5257 56.7771 22.4083C56.6755 22.3327 56.3449 22.3056 56.3367 22.39C56.4372 22.5076 56.5201 22.6391 56.583 22.7805C56.6851 23.0276 56.3147 23.1812 56.2126 22.9341C56.1627 22.8145 56.0327 22.5674 55.8679 22.5215C55.8679 22.5215 55.5016 22.4624 55.4558 22.6398C55.4169 22.7847 55.6848 23.0001 55.7086 23.023C55.8459 23.1463 56.0061 23.2944 56.0061 23.64V23.8619L55.7315 23.965C55.4188 24.0718 55.3025 24.219 55.5914 24.4133C55.7397 24.5133 55.8734 24.6127 55.9915 24.6989C56.0775 24.7643 56.1681 24.8234 56.2625 24.8758C56.3742 24.9327 56.4392 24.9409 56.5633 24.8758L56.7922 24.759L56.9864 24.9281C57.5911 25.4543 57.8096 26.0745 57.8988 26.7025ZM59.5209 26.3472C59.2608 26.5581 59.2393 26.8542 59.2256 27.0917C59.2189 27.3134 59.1412 27.5272 59.004 27.7013C58.8831 27.8609 58.559 28.201 58.2898 28.0502C58.1644 27.9796 58.2898 28.493 58.4098 28.5324C58.5705 28.5856 58.89 28.3449 58.9436 28.2858C58.9794 28.4865 59.0401 28.6819 59.1244 28.8675C59.2842 29.1939 59.2696 29.6844 58.9303 29.8118C59.0022 30.0158 59.314 30.1469 59.4669 30.0199C59.5406 29.9585 59.5923 29.7559 59.65 29.6399C59.8812 29.1779 60.263 29.1884 60.638 29.3025C60.6737 29.3135 60.7923 29.7582 60.7474 30.2042C60.6939 30.7424 60.5803 31.0321 60.3981 31.1142C60.2374 31.1861 61.1691 31.375 61.1691 30.6384C61.1691 30.5536 61.1416 30.1167 61.1407 30.0117C61.138 29.7651 61.2204 29.3342 61.7593 29.3342C61.8623 29.3342 62.0202 29.3869 62.1324 29.5786C62.2052 29.7023 62.2812 30.0223 62.3009 30.113C62.386 30.5068 62.4007 30.8795 62.2954 30.9922C62.2221 31.0702 62.9084 31.0472 62.7784 30.422C62.766 30.3638 62.6657 30.003 62.6442 29.9049C62.6102 29.7741 62.6066 29.6372 62.6337 29.5047C62.6881 29.2835 62.8897 29.1306 63.1172 29.138C63.2788 29.138 63.472 29.2228 63.5851 29.5047C63.624 29.6015 63.7622 30.3092 63.9481 30.4183C64.177 30.5535 64.6467 30.3413 64.4687 30.2955C64.3725 30.2712 64.2686 30.1607 64.2132 30.0612C64.1288 29.8975 64.0752 29.7195 64.0552 29.5364C64.0131 29.2531 64.0342 28.9758 64.0749 28.8488C64.1546 28.5967 64.2722 28.5279 64.4659 28.5279C64.5877 28.5279 64.714 28.6425 64.8065 28.6797C65.0716 28.7846 65.2355 28.2121 65.1096 28.2671C64.9265 28.3464 64.4114 28.2084 64.4787 27.6776C64.5071 27.4516 64.6106 27.4026 64.6847 26.9322C64.6971 26.8525 64.975 27.1261 65.2735 27.0963C65.4333 27.0808 65.5134 26.5004 65.4273 26.5463C65.0886 26.7255 64.5937 26.5188 64.6257 26.0608C64.649 25.7864 64.6519 25.5106 64.6344 25.2357C64.6298 25.1807 64.7942 25.2398 65.0849 25.2485C65.2772 25.254 65.345 25.1894 65.3912 25.0711C65.4374 24.9529 65.3889 24.5449 65.3353 24.5995C65.138 24.7957 64.8276 24.7429 64.6917 24.6581C64.5026 24.5403 64.4225 24.4477 64.4225 24.1997C64.4225 23.9412 64.3973 23.7954 64.2416 23.4879C64.6285 23.4627 64.7132 23.4746 64.791 23.3572C64.9425 23.134 64.6884 22.6889 64.6646 22.8072C64.6257 23.0056 64.2604 23.1106 64.1235 23.1056C63.6579 23.0872 63.7929 22.7036 63.2536 22.3878C63.5645 22.1851 63.6899 22.0325 63.6986 21.9449C63.7101 21.8322 63.3324 21.5626 63.3429 21.6607C63.363 21.8221 63.2055 22.044 62.9254 22.0733C62.6896 22.099 62.4881 22.0123 62.1549 21.9945C61.9494 21.9901 61.7439 21.9964 61.5391 22.0132C61.5391 22.0132 61.8138 21.6007 61.7625 21.5008C61.7314 21.4412 61.4077 21.3316 61.4484 21.4389C61.4841 21.5351 61.3779 21.7267 61.193 21.834C60.9801 21.9578 60.8061 22.0068 60.4989 22.0701C60.3556 22.0994 60.3556 22.1246 60.3831 22.2168C60.3973 22.2626 60.4147 22.3259 60.4288 22.3772C61.0853 22.3282 61.968 22.3497 62.0541 22.6981C62.3663 22.6981 62.695 22.7513 62.8013 22.8416C63.0467 23.0533 63.0682 23.4127 62.5806 23.7891C62.7138 24.4766 62.9469 24.5784 62.7207 25.0982C62.5325 25.5337 62.0908 25.6942 61.6947 25.7726C61.5244 25.8056 61.3284 26.109 60.9846 26.2956C60.8185 26.3886 60.1316 26.3816 59.5209 26.3472ZM58.4592 25.7161C58.4885 25.7853 58.5439 25.9058 58.5993 25.9182C58.7746 25.9576 59.2989 25.997 59.8093 26.0172C60.0643 26.0273 60.7249 26.0333 60.8298 25.9911C60.9996 25.92 61.3522 25.4818 61.6269 25.4378C62.0064 25.3782 62.287 25.232 62.4052 24.9643C62.4885 24.7718 62.4871 24.692 62.451 24.5976C62.3449 24.2882 62.2613 23.9716 62.201 23.6501C62.201 23.6501 62.6309 23.3783 62.6245 23.2059C62.6208 23.1064 62.5668 23.0973 62.4221 23.0684C62.2976 23.0422 62.0018 23.0445 61.8672 23.0445C61.8218 22.9014 61.7049 22.7924 61.5591 22.7571C61.3719 22.715 60.5642 22.6402 59.851 22.7979C59.7571 22.8186 59.5763 23.0587 59.5204 23.1018C59.4343 23.1667 59.3332 23.2088 59.2265 23.2242C59.1473 23.2366 58.82 23.2614 58.7229 23.2724C58.4555 23.3035 58.1126 23.4099 57.7788 23.535C57.7753 23.7546 57.8548 23.9675 58.0013 24.1309C58.0013 24.1309 57.9899 24.5187 58.0183 24.6902C58.0183 24.7209 58.0686 24.73 58.0879 24.7268C58.1976 24.7077 58.3095 24.704 58.4203 24.7158C58.7169 24.7516 59.7022 24.747 59.7022 24.747V25.7169L58.4592 25.7161ZM64.863 37.5592C64.4807 37.9351 64.1955 38.3737 64.6139 38.8276C65.1518 39.4106 65.5295 39.7654 64.7567 40.3077C63.3535 41.2951 62.9547 42.0592 62.6718 42.6565C62.7447 42.6866 62.8201 42.7105 62.8971 42.728C63.0516 42.7632 63.2086 42.7864 63.3668 42.7972C63.4419 42.8036 63.4881 42.5964 63.6689 42.2339C63.9436 41.687 64.4473 40.9467 65.6495 40.0716C66.095 39.7475 66.078 39.6921 65.8496 39.4047C65.725 39.2484 65.5584 39.071 65.3684 38.8514C64.9889 38.4136 64.8529 37.9699 64.863 37.5592ZM60.0659 32.0984C60.1918 32.3028 60.353 32.4832 60.542 32.631C61.0708 33.0339 62.219 34.152 62.2259 35.3268C62.8504 35.3873 63.099 35.5689 63.099 35.5689C63.3169 35.7233 63.1054 36.0181 62.8673 35.8966C62.4214 35.6674 61.7227 35.7371 61.5154 35.7559C60.5539 35.843 60.4139 36.4893 60.4139 36.961C60.4139 37.5015 60.7971 37.8943 61.3295 38.2399C61.5996 38.4155 61.8693 38.5562 62.0716 38.6777C62.1813 38.7407 62.285 38.8136 62.3816 38.8954C62.4557 38.9619 62.6105 39.1159 62.6105 39.3483C62.6105 40.1203 60.6482 41.2864 60.2197 41.2864C59.7592 41.2864 59.5449 41.5504 59.473 41.6426C59.3577 41.7906 59.2611 42.1083 59.3014 42.3723C59.327 42.5392 59.4062 42.6827 59.6246 42.7056C59.6215 42.3814 59.7212 42.0646 59.9094 41.8007C60.071 41.588 60.3901 41.831 60.2298 42.0436C60.1039 42.2096 60.0009 42.481 60.0389 42.8568C60.2916 43.0044 60.5883 43.0173 60.9545 42.8894C60.9133 42.5763 61.0553 42.1789 61.227 41.9304C61.379 41.7104 61.7086 41.9387 61.5566 42.1596C61.4307 42.343 61.3432 42.585 61.351 42.7982C61.6756 43.0654 62.1343 42.9018 62.1875 42.7982C62.268 42.6391 62.344 42.4663 62.4383 42.2779C62.5527 42.0469 62.6843 41.8249 62.8321 41.6137C63.1741 41.1283 63.6868 40.5855 64.5558 39.9777C64.7636 39.832 64.9257 39.738 64.6876 39.4772C64.5864 39.3667 64.4761 39.2361 64.3488 39.0976C63.8196 38.5237 64.0535 37.9333 64.3626 37.5441C64.5128 37.3631 64.6786 37.1956 64.8579 37.0436C65.009 36.9102 65.1574 36.7882 65.2659 36.6796C66.0011 35.9438 65.878 34.846 64.9605 33.7885C64.4225 33.1674 63.7331 31.7487 63.707 30.6715C63.3165 30.3309 63.3444 29.5044 63.1233 29.5044C62.8124 29.5044 63.1104 30.0815 63.1443 30.3854C63.2638 31.4498 62.1829 31.5291 61.8674 31.1619C61.6843 30.946 62.1728 31.211 61.9526 30.1933C61.9178 30.0311 61.8363 29.7006 61.7654 29.7006C61.3313 29.7006 61.5776 30.2506 61.5364 30.6779C61.4907 31.1322 61.2654 31.3756 60.9953 31.4769C60.8515 31.8124 60.5741 32.0718 60.0659 32.0984ZM60.4734 31.5153C60.1378 31.4566 59.864 31.2467 59.9098 31.0143C59.9308 30.9084 60.3081 31.1247 60.3845 30.175C60.4102 29.8577 60.3566 29.6061 60.342 29.6033C59.8269 29.5195 60.016 30.2171 59.5568 30.3853C58.9058 30.6242 58.5038 29.9939 58.5088 29.5433C58.8824 29.5639 58.9319 29.2866 58.8124 29.0555C58.7751 28.9663 58.7494 28.8726 58.7359 28.7768C58.6329 28.8508 58.506 28.8835 58.3802 28.8685C57.845 28.7906 57.7754 27.3297 58.1206 27.6148C58.3326 27.7899 58.5569 27.6928 58.6988 27.5232C58.0551 27.2761 57.3808 26.8672 57.0612 26.726C55.642 26.0994 55.0422 26.1031 54.8225 26.1883C54.7478 26.2172 54.6801 26.3025 54.7112 26.4835C54.8861 26.4052 55.1539 26.4203 55.1539 26.4203C55.4076 26.4386 55.3801 26.8196 55.1265 26.8012C54.5162 26.8053 54.3788 27.2092 54.4022 27.4379C54.4141 27.5566 54.432 27.6593 54.6224 27.641C54.7978 27.2871 55.0628 27.1789 55.0628 27.1789C55.2918 27.0689 55.457 27.4136 55.2277 27.5236C55.1182 27.5814 54.9392 27.7336 54.9662 27.9362C54.9724 28.0369 55.0528 28.1171 55.1535 28.1227C55.3324 28.1493 55.5148 28.1097 55.6667 28.0114L55.8421 27.8903C55.8421 27.8903 56.5105 28.1956 56.9408 28.1425L57.0612 28.2681C57.297 28.5142 57.5277 28.8796 57.748 29.2462C57.9682 29.6129 58.2058 30.0255 58.4603 30.4142C58.9951 31.2224 59.4872 31.6978 59.9766 31.6978C60.2014 31.6996 60.3612 31.6294 60.4734 31.5153ZM68.2621 27.8853C68.3308 27.7051 68.3821 27.5149 68.4558 27.3476C68.5325 27.1558 68.659 26.9879 68.822 26.8612C68.4906 26.6105 67.5442 26.2516 66.945 26.8154C66.6794 27.0661 66.6172 27.3558 66.6172 27.6455C66.6172 28.054 66.8461 28.1456 67.0704 28.2644C66.8388 29.2783 66.7545 30.4647 67.4266 31.4818C67.7013 31.8994 68.0415 32.4183 68.2598 32.9674C68.4782 33.5166 68.5963 34.1478 68.3697 34.7689C68.0644 35.6037 67.2178 36.1395 66.0623 36.0176C66.0242 36.1804 65.9645 36.3374 65.8846 36.4843C66.4414 36.5548 66.9528 36.481 67.1844 36.4077C68.7501 35.9103 69.2116 34.1955 68.5469 32.7594C68.4155 32.4862 68.268 32.2211 68.1051 31.9655C67.9421 31.7023 67.7846 31.4686 67.6862 31.3035C67.379 30.7965 67.1698 30.2231 67.2009 29.3883C67.2202 29.0252 67.2856 28.666 67.3955 28.3193C68.0387 28.3445 68.1279 28.2355 68.2621 27.8853ZM49.9984 50.2459C51.4602 50.253 52.9185 50.1015 54.3477 49.7939C55.581 49.5267 56.6189 49.1811 57.5735 48.8716C59.4505 48.2624 61.1445 47.7362 63.3604 48.2601C63.7564 48.3582 63.7577 48.3569 63.8223 48.0635L64.7178 44.0269C64.77 43.7876 64.77 43.7857 64.4729 43.7188C61.8468 43.1545 59.6813 43.541 57.4766 44.1039C56.3142 44.4005 55.1609 44.7397 53.9514 45.0051C52.7107 45.2773 51.4141 45.4726 49.9967 45.4726C48.5792 45.4726 47.2827 45.2773 46.042 45.0051C44.8338 44.7397 43.6805 44.4004 42.5167 44.1039C40.3119 43.541 38.1464 43.1546 35.5205 43.7188C35.2234 43.7857 35.2234 43.7876 35.2755 44.0269L36.1715 48.0653C36.236 48.3587 36.2374 48.36 36.6334 48.2619C38.8511 47.738 40.5414 48.2619 42.4203 48.8734C43.3781 49.181 44.416 49.5276 45.6489 49.7939C47.0781 50.1014 48.5365 50.253 49.9984 50.2459ZM45.4082 44.2667C42.6301 42.6984 40.8421 39.8203 40.6652 36.6317C40.4882 33.4434 41.9467 30.3847 44.5342 28.5179C44.3796 28.4909 44.2324 28.4314 44.1025 28.3433C43.8392 28.4464 43.5037 28.5509 43.2235 28.5473C42.5066 29.2954 41.6737 31.5584 40.4559 32.0168C40.2902 32.3829 40.0389 32.7038 39.7234 32.9524C39.1928 33.3567 38.1971 34.3734 38.1971 35.3401C39.8237 35.3401 40.0096 36.3857 40.0096 36.9633C40.0096 38.4852 37.8157 38.9532 37.8157 39.3511C37.8157 39.7902 39.4684 40.8876 39.8054 40.8876C40.4522 40.8876 40.77 41.2722 40.868 41.3978C41.2045 41.8286 41.335 42.8908 40.5635 43.0856C42.2108 43.3679 43.772 43.8647 45.4082 44.2667ZM59.3457 36.1117C59.3472 39.4908 57.5285 42.6079 54.588 44.2667C56.2266 43.8647 57.7859 43.3682 59.4337 43.0877C58.6622 42.8928 58.7927 41.8307 59.1292 41.3999C59.2272 41.2743 59.5449 40.8897 60.1918 40.8897C60.5288 40.8897 62.1815 39.7923 62.1815 39.3532C62.1815 38.9553 59.9876 38.4873 59.9876 36.9654C59.9876 36.3878 60.1735 35.3422 61.8001 35.3422C61.8001 34.375 60.8044 33.3588 60.2738 32.9545C59.9583 32.7059 59.707 32.385 59.5413 32.0189C58.3235 31.5605 57.4906 29.2956 56.7737 28.5475C56.4935 28.5512 56.1579 28.4467 55.8947 28.3436C55.7648 28.4317 55.6176 28.4912 55.463 28.5182C57.9028 30.276 59.348 33.1021 59.3457 36.1117ZM41.517 36.1117C41.517 39.1455 43.1335 41.9488 45.7576 43.4654C48.3817 44.9823 51.6147 44.9823 54.2389 43.4654C56.8629 41.9485 58.4795 39.1452 58.4795 36.1117C58.4795 31.4209 54.6823 27.6198 49.9982 27.6198C45.3142 27.6198 41.517 31.4208 41.517 36.1117ZM55.8507 25.0667L55.614 25.8097C56.021 25.8922 56.5466 26.0641 57.2219 26.3598C57.3034 26.3956 57.3863 26.4354 57.4714 26.4781C57.3684 26.016 57.1651 25.5902 56.7389 25.2184C56.3965 25.3921 56.1561 25.2812 55.8507 25.0667ZM44.3826 25.8097L44.1459 25.0667C43.8405 25.2812 43.6002 25.3921 43.2587 25.2184C42.8315 25.5901 42.6282 26.016 42.5262 26.4781C42.6113 26.4354 42.6942 26.3956 42.7757 26.3598C43.4514 26.0642 43.9756 25.8922 44.3826 25.8097ZM55.1582 22.9517C51.8406 21.6535 48.1564 21.6535 44.8389 22.9517C44.642 23.3211 44.37 23.3486 44.37 23.5985C44.9103 23.7933 45.2212 24.2994 44.6351 24.7156L44.9648 25.7511C45.6918 25.7749 45.7472 26.2714 45.6593 26.6702C45.9152 26.8251 46.0713 27.3211 45.9532 27.6722C48.5111 26.4465 51.4859 26.4465 54.0438 27.6722C53.9275 27.3206 54.0818 26.8247 54.3377 26.6697C54.2498 26.2709 54.3052 25.7745 55.0322 25.7507L55.3619 24.7152C54.7758 24.2989 55.0872 23.7929 55.6269 23.598C55.6269 23.3487 55.3551 23.3211 55.1582 22.9517ZM44.8114 22.348C48.1549 21.0907 51.8401 21.0907 55.1839 22.348C55.3697 22.1495 55.7355 22.0913 55.9809 22.2022C56.0194 21.8772 56.913 21.9331 57.0875 22.1935C57.1699 22.0587 57.8054 21.9913 58.232 23.0245C58.3798 22.9831 58.5304 22.9525 58.6825 22.9329C58.7741 22.9223 59.0946 22.8985 59.1706 22.887C59.3848 22.8536 59.4709 22.579 59.7232 22.48C59.8321 22.4501 59.9432 22.4294 60.0556 22.4181C60.0212 22.2925 59.9713 22.0789 59.997 21.9904C60.0739 21.7273 60.512 21.7154 60.713 21.6443C60.9483 21.5655 61.2244 21.483 61.0779 21.2446C60.8055 20.8004 62.027 21.1227 62.1469 21.3216C62.2151 21.4344 62.0924 21.6558 62.0924 21.6558C62.1993 21.647 62.3069 21.6509 62.4129 21.6673C62.8135 21.7328 63.1253 21.8612 62.9623 21.3464C62.857 21.0104 64.2442 21.4642 64.0267 22.0665C63.9645 22.2379 63.7649 22.3713 63.7649 22.3713C63.8678 22.4491 63.9516 22.5494 64.0098 22.6647C64.1073 22.8481 64.4873 22.6354 64.4873 22.3846C64.4873 21.8721 65.1241 22.5753 65.1699 23.0686C65.1864 23.2409 65.1557 23.527 64.9927 23.6535C64.9135 23.7144 64.6997 23.7383 64.6997 23.7383C64.6997 23.7383 64.7941 23.9005 64.7826 24.1967C64.773 24.4552 65.2281 24.3823 65.3599 24.1004C65.4693 23.8666 65.8672 24.6505 65.7175 25.1657C65.6717 25.3307 65.4607 25.554 65.3219 25.5847C65.1731 25.6181 64.9671 25.5388 64.974 25.5971C64.9876 25.7077 64.9876 25.8196 64.974 25.9303C64.947 26.297 65.3119 26.3479 65.5911 26.0793C65.804 25.8748 65.9391 27.3325 65.3549 27.4311C65.0092 27.4893 64.9616 27.3119 64.9479 27.3784C64.9328 27.4651 64.9047 27.549 64.8646 27.6273C64.6814 28.0174 65.1713 27.994 65.4204 27.8565C65.6438 27.735 65.5541 29.1038 64.8183 29.0405C64.6782 29.0286 64.5784 28.8768 64.4608 28.8768C64.3431 28.8768 64.3353 30.0916 64.8046 30.0916C65.4913 30.0916 64.7345 30.8626 64.0881 30.8223C64.1678 31.7088 64.702 32.9148 65.2327 33.5268C65.8173 34.2015 66.1483 34.956 66.1126 35.6578C67.1248 35.7619 67.7933 35.2911 68.029 34.6439C68.3953 33.6386 67.6811 32.5238 67.1243 31.6818C66.3698 30.5413 66.5017 29.2564 66.6665 28.473C66.3918 28.2869 66.2545 27.978 66.2545 27.6479C66.2545 27.3009 66.3309 26.8961 66.6967 26.5533C67.6124 25.6951 69.0042 26.4277 69.2267 26.7618C69.2999 26.8714 69.2679 27.0263 69.1076 27.1116C68.4827 27.4453 68.8572 28.6702 67.6714 28.6702C67.6058 28.9094 67.5687 29.1556 67.5606 29.4036C67.5323 30.1581 67.7181 30.6623 67.9937 31.1166C68.1924 31.4448 68.6132 32.0472 68.8732 32.6082C69.6012 34.18 69.1264 36.1722 67.2914 36.7548C66.9879 36.8511 66.3373 36.9382 65.6547 36.8181C65.6126 36.8685 65.5668 36.918 65.5173 36.9666C65.4592 37.0248 65.3901 37.0872 65.315 37.1527C65.1776 37.579 65.2028 38.0819 65.6524 38.6026C66.4238 39.4951 66.786 39.7229 65.8676 40.3835C64.0939 41.6587 63.9626 42.6204 63.7204 43.0014C64.0955 43.0557 64.4794 43.1292 64.8723 43.2218C65.0613 43.2677 65.4473 43.3722 65.3205 43.942L64.3228 48.4342C64.1741 49.0984 63.6819 48.9384 63.4433 48.8734C59.1325 47.7287 57.0515 50.8188 49.9983 50.8188C42.9452 50.8188 40.8646 47.7288 36.5508 48.872C36.3142 48.9348 35.8183 49.097 35.6713 48.4328L34.6737 43.9406C34.5469 43.3708 34.9329 43.2654 35.1219 43.2205C35.5157 43.1288 35.8996 43.0553 36.2738 43C36.0316 42.6191 35.9002 41.6574 34.1266 40.3821C33.2082 39.7215 33.5704 39.4937 34.3418 38.6012C34.7914 38.0805 34.8175 37.5777 34.6792 37.1514C34.6041 37.0858 34.535 37.0235 34.4769 36.9652C34.4283 36.9167 34.3825 36.8671 34.3395 36.8167C33.6569 36.9382 33.0063 36.8497 32.7028 36.7535C30.8692 36.1708 30.3944 34.1787 31.1223 32.6068C31.3824 32.0458 31.8031 31.4435 32.0018 31.1152C32.2765 30.6609 32.4633 30.1567 32.4349 29.4022C32.4275 29.1549 32.3911 28.9094 32.3264 28.6706C31.1407 28.6706 31.5152 27.4439 30.8902 27.112C30.73 27.0268 30.6979 26.8718 30.7712 26.7623C30.9914 26.4244 32.3855 25.691 33.2988 26.551C33.6651 26.8938 33.7411 27.2986 33.7411 27.6456C33.7411 27.9775 33.6037 28.2873 33.329 28.4707C33.4943 29.255 33.6262 30.5399 32.8712 31.6795C32.3145 32.5215 31.5994 33.6363 31.9665 34.6416C32.2023 35.2898 32.8707 35.7623 33.883 35.6583C33.8495 34.9565 34.1783 34.202 34.7629 33.5272C35.2949 32.913 35.8291 31.707 35.9075 30.8227C35.261 30.863 34.5061 30.092 35.191 30.092C35.6602 30.092 35.6488 28.8851 35.5316 28.8851C35.4144 28.8851 35.3141 29.0368 35.174 29.0487C34.4383 29.112 34.3499 27.7432 34.572 27.8647C34.821 27.9999 35.3118 28.0238 35.1278 27.6355C35.0877 27.5572 35.0596 27.4733 35.0444 27.3866C35.0307 27.3202 34.9831 27.4976 34.6374 27.4393C34.0533 27.3408 34.1883 25.8808 34.4012 26.0875C34.6805 26.3561 35.0454 26.3053 35.0184 25.9386C35.0048 25.8279 35.0048 25.716 35.0184 25.6053C35.0252 25.5475 34.8192 25.6264 34.6704 25.5929C34.5331 25.5622 34.3229 25.339 34.2748 25.174C34.1251 24.6573 34.523 23.8749 34.6324 24.1086C34.7643 24.3906 35.2198 24.4634 35.2097 24.2049C35.1983 23.9065 35.2931 23.7465 35.2931 23.7465C35.2931 23.7465 35.0788 23.7227 34.9996 23.6617C34.8366 23.5361 34.8064 23.2492 34.8224 23.0768C34.8682 22.5836 35.505 21.8804 35.505 22.3929C35.505 22.6436 35.8855 22.8563 35.9825 22.6729C36.0407 22.5577 36.1245 22.4573 36.2275 22.3796C36.2275 22.3796 36.0279 22.2462 35.9656 22.0747C35.7472 21.4724 37.1354 21.0204 37.03 21.3546C36.868 21.8694 37.1798 21.741 37.5794 21.6755C37.6854 21.6591 37.793 21.6553 37.8999 21.664C37.8999 21.664 37.7772 21.4426 37.8454 21.3299C37.9654 21.1309 39.1869 20.8087 38.9144 21.2529C38.7698 21.4894 39.0458 21.5696 39.2779 21.6494C39.4789 21.7186 39.9189 21.7323 39.994 21.9954C40.0196 22.0839 39.9697 22.2975 39.9354 22.4231C40.0477 22.4345 40.1589 22.4552 40.2678 22.485C40.52 22.584 40.6061 22.8586 40.8204 22.8921C40.8973 22.904 41.2159 22.9278 41.3084 22.9379C41.4606 22.9575 41.6112 22.9881 41.7589 23.0296C42.1879 21.9964 42.8234 22.0638 42.9058 22.1985C43.0802 21.9382 43.9739 21.8822 44.0124 22.2072C44.2605 22.0913 44.6263 22.1495 44.8122 22.348L44.8114 22.348ZM52.4907 24.8833L53.1477 25.0594L53.3167 24.4286C53.3565 24.2792 53.4037 24.1279 53.454 23.9702L53.4398 23.9652C53.3116 24.1073 53.2031 24.2324 53.0772 24.3617L52.4944 24.8765L52.4907 24.8833ZM53.4022 26.2411L52.8707 26.0985L53.0373 25.4751L51.847 25.1542L51.9431 24.7949L53.3866 23.5155L54.082 23.702L53.6805 25.2019L54.0051 25.289L53.8943 25.7016L53.5697 25.6145L53.4022 26.2411ZM50.5417 25.3408C50.826 25.3559 50.9968 25.0387 51.0289 24.4272C51.06 23.8281 50.9286 23.4967 50.6429 23.4815C50.381 23.4678 50.1892 23.7763 50.1581 24.3813C50.1205 24.9997 50.278 25.3243 50.5417 25.3398V25.3408ZM50.5179 25.7685C49.8481 25.7336 49.5478 25.1414 49.584 24.3626C49.6252 23.5755 50.0043 23.0168 50.6791 23.052C51.37 23.0882 51.6502 23.6906 51.6108 24.4488C51.5687 25.2486 51.2111 25.8042 50.518 25.7676L50.5179 25.7685ZM48.0914 23.6103C47.8488 23.6443 47.705 23.8744 47.7448 24.1531C47.7783 24.3905 47.9527 24.5693 48.2269 24.5308C48.4238 24.5028 48.5474 24.396 48.6028 24.2759C48.6186 24.2343 48.6227 24.1891 48.6147 24.1453C48.5749 23.8478 48.4142 23.564 48.0905 23.6094L48.0914 23.6103ZM47.6684 25.9775L47.6061 25.5337C47.6987 25.5296 47.7907 25.5166 47.8808 25.4948C48.0794 25.4601 48.2643 25.3706 48.4146 25.2362C48.5746 25.0904 48.6719 24.8881 48.6861 24.672H48.6761C48.5662 24.8278 48.3885 24.9296 48.1331 24.9658C47.6661 25.0313 47.249 24.7659 47.1795 24.269C47.1071 23.7543 47.4706 23.2697 48.0493 23.1882C48.7223 23.0933 49.1261 23.5549 49.2131 24.1724C49.2891 24.7155 49.1674 25.135 48.9183 25.4325C48.6963 25.6938 48.3643 25.8657 47.9601 25.9367C47.8637 25.9577 47.7659 25.971 47.6675 25.9766L47.6684 25.9775ZM46.7326 26.2328L46.1141 24.209H46.1063L45.6984 24.5853L45.4795 24.2012L46.0426 23.6928L46.4964 23.5553L47.2637 26.0682L46.7326 26.2328ZM39.6782 23.284C39.6585 23.284 39.5409 23.3857 39.4919 23.509C39.5651 23.4921 39.7441 23.4366 39.9039 23.3834C39.8419 23.326 39.7624 23.2909 39.6782 23.284ZM40.2702 23.4774C40.2702 23.4774 39.4584 23.7983 39.3142 23.6654C39.1412 23.5072 39.5056 23.0782 39.6553 23.0782C40.0229 23.0782 40.2702 23.4774 40.2702 23.4774ZM59.7277 23.4774C59.7277 23.4774 59.9749 23.0782 60.3425 23.0782C60.4922 23.0782 60.8567 23.509 60.6836 23.6672C60.5394 23.7969 59.7277 23.4774 59.7277 23.4774ZM60.3196 23.284C60.2343 23.2902 60.1536 23.3253 60.0907 23.3834C60.2519 23.4366 60.4309 23.4921 60.5028 23.509C60.4561 23.3857 60.3393 23.284 60.3196 23.284ZM60.1118 47.3327V45.7962C60.1118 45.5212 60.104 45.292 60.0935 45.0953H60.6635L60.6941 45.4291H60.7093C60.8696 45.1814 61.147 45.0348 61.4418 45.0422C61.8735 45.0422 62.2819 45.3172 62.2819 46.0309V47.3327H61.6276V46.1148C61.6276 45.7939 61.5054 45.5698 61.2124 45.5698C61.0219 45.5721 60.8537 45.6945 60.7926 45.8751C60.7748 45.9296 60.7665 45.9868 60.7683 46.0442V47.3328L60.1118 47.3327ZM37.7374 47.3666L37.6298 44.2803L38.285 44.2574L38.3733 46.795L39.7065 46.7492L39.7253 47.2993L37.7374 47.3666ZM42.1952 46.895L40.6917 46.5429C40.6386 46.8638 40.9087 47.093 41.2562 47.1709C41.4725 47.2248 41.6966 47.2403 41.9182 47.2168L41.9086 47.6687C41.6251 47.71 41.3363 47.6953 41.0584 47.6256C40.3053 47.4515 39.9665 46.9096 40.1222 46.2363C40.2476 45.6917 40.743 45.1485 41.5222 45.3286C42.2776 45.5033 42.3889 46.1597 42.2762 46.6488C42.2577 46.7334 42.2305 46.8159 42.1952 46.895ZM40.7888 46.1028L41.7232 46.3187C41.7603 46.1647 41.7566 45.8283 41.389 45.7435C41.0571 45.6674 40.857 45.9167 40.7888 46.1028ZM42.8916 45.7531L43.5605 45.9979L43.522 47.1439C43.5156 47.3474 43.4987 47.5257 43.4762 47.7008L43.49 47.7063C43.5884 47.5527 43.6887 47.4106 43.8104 47.2479L44.5049 46.3407L45.1587 46.5791L43.5563 48.3765L42.9378 48.1523L42.8916 45.7531ZM47.1897 48.3389L45.6752 48.0396C45.633 48.3627 45.9109 48.5795 46.2607 48.6474C46.4788 48.6939 46.7032 48.7021 46.9241 48.6717L46.9305 49.1237C46.6485 49.1747 46.3592 49.17 46.0789 49.1099C45.3203 48.9623 44.9633 48.4328 45.0946 47.754C45.2013 47.2039 45.6774 46.6456 46.4626 46.7982C47.2235 46.9463 47.3577 47.5986 47.262 48.0913C47.2462 48.1761 47.222 48.259 47.1897 48.3389ZM45.7562 47.5968L46.6975 47.7801C46.7296 47.6252 46.7145 47.2892 46.3441 47.2172C46.0094 47.1517 45.818 47.4079 45.7562 47.5968ZM47.8311 49.3845L47.9652 47.898C47.9945 47.5633 48.0083 47.3479 48.011 47.1544L48.5723 47.2035L48.5568 47.6404H48.5732C48.7193 47.3126 49.0146 47.1875 49.2522 47.2085C49.3013 47.211 49.3499 47.2198 49.3969 47.2347L49.3437 47.843C49.2813 47.8238 49.217 47.8114 49.1519 47.8058C48.8681 47.7811 48.6735 47.9241 48.6071 48.1537C48.5945 48.2024 48.5863 48.2521 48.5824 48.3023L48.483 49.4405L47.8311 49.3845ZM50.5552 46.1716L50.6243 48.1578H50.6335C50.6856 48.0707 50.7461 47.9745 50.8028 47.8924L51.3065 47.1792L52.1045 47.1512L51.2712 48.0854L52.3136 49.3822L51.4978 49.4111L50.8326 48.4824L50.643 48.7189L50.6682 49.44L50.0135 49.4629L49.8995 46.195L50.5552 46.1716ZM54.6554 46.6539L54.9484 48.1611C55.0029 48.4434 55.0556 48.6712 55.1 48.8486L54.5405 48.9573L54.4457 48.6258L54.4311 48.6286C54.3716 48.7899 54.2022 49.0774 53.7764 49.1603C53.3506 49.2433 52.9212 49.0641 52.782 48.3481L52.5339 47.0687L53.1748 46.9436L53.4037 48.1116C53.4715 48.4604 53.6326 48.6502 53.9133 48.5956C54.0942 48.5591 54.2344 48.4155 54.2667 48.2335C54.276 48.1819 54.2751 48.1289 54.264 48.0776L54.0122 46.7772L54.6554 46.6539ZM55.6709 48.4732L55.6608 47.9874C55.8735 48.0364 56.0947 48.035 56.3068 47.9832C56.5357 47.9172 56.6089 47.8063 56.5746 47.6857C56.538 47.5583 56.4409 47.5212 56.1502 47.5157C55.6567 47.5102 55.4021 47.3227 55.3293 47.0573C55.2162 46.6621 55.4694 46.2624 56.0096 46.107C56.2232 46.042 56.4488 46.0263 56.6694 46.0612L56.6781 46.5269C56.5028 46.4913 56.3217 46.4957 56.1484 46.5397C55.9653 46.5915 55.8838 46.6965 55.9195 46.8184C55.9552 46.9404 56.0728 46.9688 56.3773 46.9771C56.8351 46.9876 57.0759 47.1375 57.1725 47.4639C57.2838 47.8526 57.0613 48.2431 56.4336 48.4233C56.1867 48.4993 55.9255 48.5164 55.6709 48.4732ZM59.5903 46.5196L58.074 46.8102C58.1559 47.1256 58.4947 47.2227 58.8445 47.154C59.0641 47.1155 59.2753 47.0388 59.4685 46.9275L59.6434 47.3442C59.401 47.4972 59.1312 47.6015 58.8491 47.6513C58.0904 47.7989 57.5608 47.4418 57.4298 46.763C57.3231 46.2129 57.5548 45.5166 58.3404 45.364C59.1009 45.2159 59.4694 45.7701 59.5651 46.2629C59.5823 46.3475 59.5907 46.4332 59.5903 46.5196ZM57.9838 46.3687L58.9251 46.1854C58.8963 46.0295 58.7566 45.7238 58.3862 45.7958C58.052 45.8604 57.9705 46.1707 57.9838 46.3687ZM49.4357 29.5419H50.5225C50.6426 29.5419 50.74 29.4444 50.74 29.3241C50.74 29.2039 50.6426 29.1064 50.5225 29.1064H49.4357V29.5419ZM49.4357 30.5994H50.5546C50.6919 30.5994 50.8032 30.4879 50.8032 30.3505C50.8032 30.213 50.6919 30.1016 50.5546 30.1016H49.4357V30.5994ZM51.1832 29.7981C51.4138 30.0228 51.4858 30.3649 51.3652 30.6636C51.2447 30.9624 50.9556 31.1584 50.6338 31.1595H48.8139V28.5467H50.6017C50.8973 28.5472 51.1659 28.719 51.2905 28.9873C51.4151 29.2557 51.3733 29.5715 51.1832 29.7981ZM51.6012 34.2721H50.9341L50.7244 33.8366H49.2662L49.0561 34.2721H48.3868L49.6916 31.6592H50.2964L51.6012 34.2721ZM49.9942 32.328L49.5364 33.2773H50.452L49.9942 32.328ZM50.8806 34.8322H51.6282L50.3051 36.5332V37.445H49.6834V36.5332L48.3602 34.8322H49.1079L49.9942 36.024L50.8806 34.8322ZM54.36 34.8322V35.3923H52.6203V35.8278H54.2978V36.3875H52.6194V36.8853H54.3592V37.445H51.9982V34.8322L54.36 34.8322ZM56.3168 36.4499H55.8503V37.4451H55.229V34.8322H56.8162C57.2177 34.8336 57.5572 35.1297 57.6139 35.5276C57.6705 35.9254 57.427 36.3047 57.0419 36.4182L57.8074 37.4451H57.0621L56.3168 36.4499ZM56.7531 35.3924H55.8503V35.8902H56.7527C56.89 35.8902 57.0013 35.7787 57.0013 35.6413C57.0013 35.5038 56.8904 35.3924 56.7531 35.3924ZM48.6493 37.4451H47.9841L47.7739 37.0091H46.3135L46.1034 37.4451H45.4354L46.7402 34.8322H47.3432L48.6493 37.4451ZM47.0428 35.501L46.585 36.4499H47.5006L47.0428 35.501ZM43.1023 35.8297H44.1892C44.3056 35.8243 44.3972 35.7283 44.3972 35.6117C44.3972 35.4951 44.3056 35.3991 44.1892 35.3937H43.1023V35.8297ZM43.1023 36.8872H44.2213C44.3586 36.8872 44.4699 36.7757 44.4699 36.6383C44.4699 36.5008 44.3586 36.3893 44.2213 36.3893H43.1023V36.8872ZM44.8498 36.0854C45.0806 36.3105 45.1524 36.6531 45.0313 36.952C44.9102 37.251 44.6204 37.4468 44.2981 37.4473H42.4806V34.8345H44.2661C44.5617 34.8349 44.8302 35.0067 44.9548 35.2751C45.0795 35.5434 45.0376 35.8597 44.8475 36.0863L44.8498 36.0854ZM51.1748 38.0047V38.5649H49.4351V39.0004H51.1126V39.56H49.4351V40.0583H51.1748V40.618H48.8138V38.0052L51.1748 38.0047ZM50.7385 42.0491C50.7388 41.9123 50.6288 41.801 50.4922 41.7997H49.4351V42.2971H50.4922C50.6284 42.2961 50.7383 42.1854 50.7385 42.0491ZM48.8157 43.8524V41.2396H50.5586C50.943 41.2437 51.2715 41.5181 51.3443 41.8961C51.4172 42.2741 51.2143 42.6512 50.8589 42.7982L51.6427 43.8525H50.8951L50.1493 42.8573H49.4351V43.8525L48.8157 43.8524Z" fill="black"/>
</svg>
