<svg width="56" height="37" viewBox="0 0 56 37" fill="none" xmlns="http://www.w3.org/2000/svg">
<g clip-path="url(#clip0_2388_10266)">
<g clip-path="url(#clip1_2388_10266)">
<path fill-rule="evenodd" clip-rule="evenodd" d="M24.3333 15.4215C24.497 15.4215 24.6331 15.5394 24.6613 15.6949L24.6667 15.7548V24.4215C24.6667 24.5851 24.5487 24.7212 24.3932 24.7495L24.3333 24.7548H21C20.8363 24.7548 20.7003 24.6369 20.672 24.4814L20.6667 24.4215V15.7548C20.6667 15.5912 20.7846 15.4551 20.9401 15.4269L21 15.4215H24.3333ZM31.66 15.4148C33.862 15.4148 35.2697 17.0618 35.3312 19.7967L35.3333 19.9848V24.4215C35.3333 24.5851 35.2154 24.7212 35.0599 24.7495L35 24.7548H31.6667C31.503 24.7548 31.3669 24.6369 31.3387 24.4814L31.3333 24.4215V19.7548C31.3333 19.2025 30.8856 18.7548 30.3333 18.7548C29.8135 18.7548 29.3864 19.1514 29.3379 19.6585L29.3333 19.7548V24.4215C29.3333 24.5851 29.2154 24.7212 29.0599 24.7495L29 24.7548H25.6667C25.503 24.7548 25.3669 24.6369 25.3387 24.4814L25.3333 24.4215V15.7548C25.3333 15.5912 25.4512 15.4551 25.6067 15.4269L25.6667 15.4215H29C29.1636 15.4215 29.2997 15.5394 29.328 15.6949L29.3333 15.7548V16.0922L29.4238 16.0373C29.9796 15.7116 30.5998 15.5071 31.2432 15.4394L31.4584 15.4219L31.66 15.4148ZM24 16.0882H21.3333V24.0882H24V16.0882ZM31.6646 16.0815C30.7665 16.094 29.9007 16.4184 29.2155 16.9991C29.0134 17.1704 28.7104 17.0478 28.671 16.7998L28.6667 16.7448V16.0875H26V24.0882H28.6667V19.7548C28.6667 18.908 29.2982 18.2087 30.116 18.1022L30.2237 18.0917L30.3333 18.0882C31.217 18.0882 31.94 18.7758 31.9964 19.6452L32 19.7548V24.0882H34.6667V19.9848C34.6667 17.6073 33.6265 16.2261 31.9361 16.0922L31.7976 16.0841L31.6646 16.0815ZM22.6667 10.7548C23.1971 10.7548 23.7058 10.9655 24.0809 11.3406C24.4559 11.7157 24.6667 12.2244 24.6667 12.7548C24.6667 13.8594 23.7712 14.7548 22.6667 14.7548C21.5621 14.7548 20.6667 13.8594 20.6667 12.7548C20.6667 11.6503 21.5621 10.7548 22.6667 10.7548ZM22.6667 11.4215C21.9303 11.4215 21.3333 12.0184 21.3333 12.7548C21.3333 13.4912 21.9303 14.0882 22.6667 14.0882C23.403 14.0882 24 13.4912 24 12.7548C24 12.4012 23.8595 12.0621 23.6095 11.812C23.3594 11.562 23.0203 11.4215 22.6667 11.4215Z" fill="#C9CCCF"/>
</g>
</g>
<defs>
<clipPath id="clip0_2388_10266">
<rect width="16" height="16" fill="white" transform="translate(20 10.0881)"/>
</clipPath>
<clipPath id="clip1_2388_10266">
<rect width="16" height="16" fill="white" transform="translate(20 10.0881)"/>
</clipPath>
</defs>
</svg>
