<svg width="56" height="37" viewBox="0 0 56 37" fill="none" xmlns="http://www.w3.org/2000/svg">
<g clip-path="url(#clip0_2388_7227)">
<g clip-path="url(#clip1_2388_7227)">
<path fill-rule="evenodd" clip-rule="evenodd" d="M30.6667 11.5679C33.0599 11.5679 35 13.508 35 15.9012V21.2345C35 23.6278 33.0599 25.5679 30.6667 25.5679H25.3333C22.9401 25.5679 21 23.6278 21 21.2345V15.9012C21 13.508 22.9401 11.5679 25.3333 11.5679H30.6667ZM30.6667 12.2345H25.3333C23.3083 12.2345 21.6667 13.8762 21.6667 15.9012V21.2345C21.6667 23.2596 23.3083 24.9012 25.3333 24.9012H30.6667C32.6917 24.9012 34.3333 23.2596 34.3333 21.2345V15.9012C34.3333 13.8762 32.6917 12.2345 30.6667 12.2345ZM28 14.9012C30.025 14.9012 31.6667 16.5428 31.6667 18.5679C31.6667 20.5929 30.025 22.2345 28 22.2345C25.975 22.2345 24.3333 20.5929 24.3333 18.5679C24.3333 16.5428 25.975 14.9012 28 14.9012ZM28 15.5679C26.3431 15.5679 25 16.911 25 18.5679C25 20.2247 26.3431 21.5679 28 21.5679C29.6569 21.5679 31 20.2247 31 18.5679C31 16.911 29.6569 15.5679 28 15.5679ZM32 13.2345C32.7364 13.2345 33.3333 13.8315 33.3333 14.5679C33.3333 15.3043 32.7364 15.9012 32 15.9012C31.2636 15.9012 30.6667 15.3043 30.6667 14.5679C30.6667 13.8315 31.2636 13.2345 32 13.2345ZM32 13.9012C31.6318 13.9012 31.3333 14.1997 31.3333 14.5679C31.3333 14.9361 31.6318 15.2345 32 15.2345C32.3682 15.2345 32.6667 14.9361 32.6667 14.5679C32.6667 14.1997 32.3682 13.9012 32 13.9012Z" fill="#C9CCCF"/>
</g>
</g>
<defs>
<clipPath id="clip0_2388_7227">
<rect width="16" height="16" fill="white" transform="translate(20 10.5679)"/>
</clipPath>
<clipPath id="clip1_2388_7227">
<rect width="16" height="16" fill="white" transform="translate(20 10.5679)"/>
</clipPath>
</defs>
</svg>
