<svg width="56" height="37" viewBox="0 0 56 37" fill="none" xmlns="http://www.w3.org/2000/svg">
<g clip-path="url(#clip0_2388_435)">
<g clip-path="url(#clip1_2388_435)">
<path fill-rule="evenodd" clip-rule="evenodd" d="M33.3747 12.5281C34.0711 12.5281 34.739 12.8048 35.2313 13.2973C35.6885 13.7546 35.9596 14.3632 35.9958 15.0054L36 15.1541V21.2345C36.0004 21.9311 35.724 22.5993 35.2316 23.0919C34.7744 23.5494 34.1657 23.8208 33.5234 23.8572L33.3747 23.8614H22.6246C21.9282 23.8612 21.2604 23.5843 20.7681 23.0917C20.3111 22.6342 20.0402 22.0255 20.0041 21.3834L20 21.2347V15.1542C19.9998 14.4579 20.2762 13.79 20.7684 13.2976C21.2254 12.8402 21.8338 12.5689 22.4759 12.5323L22.6246 12.5281H33.3747ZM22.6248 13.1947C22.1053 13.1949 21.6072 13.4014 21.2399 13.7688C20.9061 14.1029 20.7053 14.545 20.6717 15.013L20.6667 15.1541V21.2349C20.6664 21.7545 20.8725 22.2529 21.2397 22.6205C21.5736 22.9546 22.0157 23.1557 22.4836 23.1896L22.6247 23.1947H33.3747C33.8943 23.1947 34.3927 22.9882 34.7601 22.6207C35.094 22.2865 35.2948 21.8442 35.3283 21.3759L35.3333 21.2347V15.154C35.3335 14.6344 35.1272 14.1361 34.7599 13.7686C34.4259 13.4346 33.9838 13.2336 33.5158 13.1998L33.3747 13.1947H22.6248ZM26.4645 14.7408L26.513 14.7666L31.0257 17.654C31.212 17.7732 31.2289 18.0314 31.0764 18.1759L31.0256 18.2156L26.5129 21.1016C26.3069 21.2333 26.0412 21.1053 26.0043 20.8755L26 20.8207V15.0474C26 14.8232 26.2109 14.6744 26.4105 14.7226L26.4645 14.7408ZM26.6667 15.6567V20.2114L30.2267 17.9341L26.6667 15.6567Z" fill="#C9CCCF"/>
</g>
</g>
<defs>
<clipPath id="clip0_2388_435">
<rect width="16" height="16" fill="white" transform="translate(20 10.5281)"/>
</clipPath>
<clipPath id="clip1_2388_435">
<rect width="16" height="16" fill="white" transform="translate(20 10.5281)"/>
</clipPath>
</defs>
</svg>
