<svg width="56" height="37" viewBox="0 0 56 37" fill="none" xmlns="http://www.w3.org/2000/svg">
<g clip-path="url(#clip0_2388_5948)">
<g clip-path="url(#clip1_2388_5948)">
<path fill-rule="evenodd" clip-rule="evenodd" d="M24.3337 15.9474C24.4973 15.9474 24.6334 16.0653 24.6616 16.2208L24.667 16.2808V24.9474C24.667 25.1111 24.5491 25.2472 24.3936 25.2754L24.3337 25.2808H21.0003C20.8367 25.2808 20.7006 25.1628 20.6724 25.0073L20.667 24.9474V16.2808C20.667 16.1171 20.7849 15.981 20.9404 15.9528L21.0003 15.9474H24.3337ZM31.6603 15.9408C33.8624 15.9408 35.2701 17.5877 35.3316 20.3226L35.3337 20.5108V24.9474C35.3337 25.1111 35.2157 25.2472 35.0602 25.2754L35.0003 25.2808H31.667C31.5034 25.2808 31.3673 25.1628 31.339 25.0073L31.3337 24.9474V20.2808C31.3337 19.7285 30.8859 19.2808 30.3337 19.2808C29.8139 19.2808 29.3867 19.6774 29.3382 20.1845L29.3337 20.2808V24.9474C29.3337 25.1111 29.2157 25.2472 29.0602 25.2754L29.0003 25.2808H25.667C25.5034 25.2808 25.3673 25.1628 25.339 25.0073L25.3337 24.9474V16.2808C25.3337 16.1171 25.4516 15.981 25.6071 15.9528L25.667 15.9474H29.0003C29.164 15.9474 29.3001 16.0653 29.3283 16.2208L29.3337 16.2808V16.6181L29.4242 16.5633C29.9799 16.2375 30.6001 16.0331 31.2435 15.9653L31.4588 15.9478L31.6603 15.9408ZM24.0003 16.6141H21.3337V24.6141H24.0003V16.6141ZM31.665 16.6074C30.7669 16.6199 29.901 16.9443 29.2158 17.5251C29.0137 17.6964 28.7108 17.5737 28.6713 17.3257L28.667 17.2708V16.6134H26.0003V24.6141H28.667V20.2808C28.667 19.4339 29.2986 18.7346 30.1164 18.6281L30.2241 18.6176L30.3337 18.6141C31.2173 18.6141 31.9404 19.3018 31.9968 20.1712L32.0003 20.2808V24.6141H34.667V20.5108C34.667 18.1332 33.6268 16.752 31.9364 16.6182L31.7979 16.61L31.665 16.6074ZM22.667 11.2808C23.1974 11.2808 23.7061 11.4915 24.0812 11.8665C24.4563 12.2416 24.667 12.7503 24.667 13.2808C24.667 14.3853 23.7716 15.2808 22.667 15.2808C21.5624 15.2808 20.667 14.3853 20.667 13.2808C20.667 12.1762 21.5624 11.2808 22.667 11.2808ZM22.667 11.9474C21.9306 11.9474 21.3337 12.5444 21.3337 13.2808C21.3337 14.0171 21.9306 14.6141 22.667 14.6141C23.4034 14.6141 24.0003 14.0171 24.0003 13.2808C24.0003 12.9271 23.8598 12.588 23.6098 12.338C23.3598 12.0879 23.0206 11.9474 22.667 11.9474Z" fill="#C9CCCF"/>
</g>
</g>
<defs>
<clipPath id="clip0_2388_5948">
<rect width="16" height="16" fill="white" transform="translate(20 10.614)"/>
</clipPath>
<clipPath id="clip1_2388_5948">
<rect width="16" height="16" fill="white" transform="translate(20 10.614)"/>
</clipPath>
</defs>
</svg>
