<svg width="56" height="37" viewBox="0 0 56 37" fill="none" xmlns="http://www.w3.org/2000/svg">
<g clip-path="url(#clip0_2388_7966)">
<g clip-path="url(#clip1_2388_7966)">
<path fill-rule="evenodd" clip-rule="evenodd" d="M28.9188 11.2241L28.7456 11.227C26.6997 11.297 25.7933 12.6155 25.7933 14.3719L25.7927 15.2815L24.3333 15.2821C24.1492 15.2821 24 15.4313 24 15.6154V17.9343L24.0054 17.9942C24.0336 18.1497 24.1697 18.2676 24.3333 18.2676L25.7927 18.2675L25.7933 24.8908C25.7933 25.0749 25.9425 25.2241 26.1266 25.2241H29.1154L29.1753 25.2188C29.3308 25.1905 29.4488 25.0544 29.4488 24.8908L29.4487 18.2675L31.4174 18.2676C31.5877 18.2676 31.7306 18.1392 31.7488 17.9699L31.9981 15.6511L31.9993 15.5928C31.988 15.4213 31.845 15.2821 31.6667 15.2821L29.4487 15.2815L29.4488 14.514C29.4366 14.4031 29.4581 14.337 29.5055 14.287C29.5553 14.2345 29.6283 14.2055 29.7042 14.2092L31.5052 14.2154C31.6898 14.2161 31.8398 14.0667 31.8398 13.8821V11.5575C31.8398 11.3734 31.6906 11.2241 31.5065 11.2241H28.9188ZM31.1727 11.8908V13.5468L29.721 13.543C29.4676 13.5303 29.2059 13.6342 29.0219 13.8281C28.8355 14.0246 28.7483 14.2929 28.7852 14.5596L28.7821 15.6154L28.7875 15.6753C28.8157 15.8308 28.9518 15.9488 29.1154 15.9488L31.2953 15.9481L31.1173 17.6008L29.1154 17.6009L29.0555 17.6063C28.9 17.6345 28.7821 17.7706 28.7821 17.9343L28.782 24.5575H26.4593L26.4599 17.9343L26.4546 17.8743C26.4264 17.7188 26.2903 17.6009 26.1266 17.6009L24.6667 17.6008V15.9481L26.1266 15.9488C26.3107 15.9488 26.4599 15.7995 26.4599 15.6154V14.3719C26.4599 12.8959 27.1768 11.8908 28.9188 11.8908H31.1727Z" fill="#C9CCCF"/>
</g>
</g>
<defs>
<clipPath id="clip0_2388_7966">
<rect width="16" height="16" fill="white" transform="translate(20 10.2241)"/>
</clipPath>
<clipPath id="clip1_2388_7966">
<rect width="16" height="16" fill="white" transform="translate(20 10.2241)"/>
</clipPath>
</defs>
</svg>
