<svg width="56" height="37" viewBox="0 0 56 37" fill="none" xmlns="http://www.w3.org/2000/svg">
<g clip-path="url(#clip0_2388_7357)">
<g clip-path="url(#clip1_2388_7357)">
<path fill-rule="evenodd" clip-rule="evenodd" d="M28.9188 11.2239L28.7456 11.2268C26.6997 11.2968 25.7933 12.6152 25.7933 14.3717L25.7927 15.2812L24.3333 15.2818C24.1492 15.2818 24 15.4311 24 15.6152V17.934L24.0054 17.9939C24.0336 18.1494 24.1697 18.2674 24.3333 18.2674L25.7927 18.2672L25.7933 24.8905C25.7933 25.0746 25.9425 25.2239 26.1266 25.2239H29.1154L29.1753 25.2185C29.3308 25.1903 29.4488 25.0542 29.4488 24.8905L29.4487 18.2672L31.4174 18.2674C31.5877 18.2674 31.7306 18.139 31.7488 17.9696L31.9981 15.6508L31.9993 15.5926C31.988 15.4211 31.845 15.2818 31.6667 15.2818L29.4487 15.2812L29.4488 14.5137C29.4366 14.4029 29.4581 14.3367 29.5055 14.2867C29.5553 14.2343 29.6283 14.2053 29.7042 14.209L31.5052 14.2152C31.6898 14.2159 31.8398 14.0664 31.8398 13.8818V11.5572C31.8398 11.3731 31.6906 11.2239 31.5065 11.2239H28.9188ZM31.1727 11.8905V13.5465L29.721 13.5427C29.4676 13.53 29.2059 13.6339 29.0219 13.8279C28.8355 14.0243 28.7483 14.2927 28.7852 14.5594L28.7821 15.6152L28.7875 15.6751C28.8157 15.8306 28.9518 15.9485 29.1154 15.9485L31.2953 15.9479L31.1173 17.6005L29.1154 17.6007L29.0555 17.6061C28.9 17.6343 28.7821 17.7704 28.7821 17.934L28.782 24.5572H26.4593L26.4599 17.934L26.4546 17.8741C26.4264 17.7186 26.2903 17.6007 26.1266 17.6007L24.6667 17.6005V15.9479L26.1266 15.9485C26.3107 15.9485 26.4599 15.7993 26.4599 15.6152V14.3717C26.4599 12.8956 27.1768 11.8905 28.9188 11.8905H31.1727Z" fill="#C9CCCF"/>
</g>
</g>
<defs>
<clipPath id="clip0_2388_7357">
<rect width="16" height="16" fill="white" transform="translate(20 10.2239)"/>
</clipPath>
<clipPath id="clip1_2388_7357">
<rect width="16" height="16" fill="white" transform="translate(20 10.2239)"/>
</clipPath>
</defs>
</svg>
