<svg width="56" height="37" viewBox="0 0 56 37" fill="none" xmlns="http://www.w3.org/2000/svg">
<g clip-path="url(#clip0_2388_10949)">
<g clip-path="url(#clip1_2388_10949)">
<path fill-rule="evenodd" clip-rule="evenodd" d="M24.3334 15.5573C24.4971 15.5573 24.6332 15.6752 24.6614 15.8307L24.6667 15.8907V24.5573C24.6667 24.721 24.5488 24.8571 24.3933 24.8853L24.3334 24.8907H21.0001C20.8364 24.8907 20.7003 24.7727 20.6721 24.6172L20.6667 24.5573V15.8907C20.6667 15.727 20.7847 15.5909 20.9402 15.5627L21.0001 15.5573H24.3334ZM31.6601 15.5507C33.8621 15.5507 35.2698 17.1976 35.3313 19.9325L35.3334 20.1207V24.5573C35.3334 24.721 35.2155 24.8571 35.06 24.8853L35.0001 24.8907H31.6667C31.5031 24.8907 31.367 24.7727 31.3388 24.6172L31.3334 24.5573V19.8907C31.3334 19.3384 30.8857 18.8907 30.3334 18.8907C29.8136 18.8907 29.3864 19.2873 29.338 19.7944L29.3334 19.8907V24.5573C29.3334 24.721 29.2155 24.8571 29.06 24.8853L29.0001 24.8907H25.6667C25.5031 24.8907 25.367 24.7727 25.3388 24.6172L25.3334 24.5573V15.8907C25.3334 15.727 25.4513 15.5909 25.6068 15.5627L25.6667 15.5573H29.0001C29.1637 15.5573 29.2998 15.6752 29.328 15.8307L29.3334 15.8907V16.228L29.4239 16.1732C29.9797 15.8474 30.5999 15.643 31.2433 15.5752L31.4585 15.5577L31.6601 15.5507ZM24.0001 16.224H21.3334V24.224H24.0001V16.224ZM31.6647 16.2173C30.7666 16.2298 29.9008 16.5542 29.2156 17.135C29.0135 17.3063 28.7105 17.1836 28.671 16.9357L28.6667 16.8807V16.2233H26.0001V24.224H28.6667V19.8907C28.6667 19.0438 29.2983 18.3445 30.1161 18.238L30.2238 18.2275L30.3334 18.224C31.2171 18.224 31.9401 18.9117 31.9965 19.7811L32.0001 19.8907V24.224H34.6667V20.1207C34.6667 17.7431 33.6266 16.3619 31.9362 16.2281L31.7977 16.2199L31.6647 16.2173ZM22.6667 10.8907C23.1972 10.8907 23.7059 11.1014 24.081 11.4764C24.456 11.8515 24.6667 12.3602 24.6667 12.8907C24.6667 13.9952 23.7713 14.8907 22.6667 14.8907C21.5622 14.8907 20.6667 13.9952 20.6667 12.8907C20.6667 11.7861 21.5622 10.8907 22.6667 10.8907ZM22.6667 11.5573C21.9304 11.5573 21.3334 12.1543 21.3334 12.8907C21.3334 13.627 21.9304 14.224 22.6667 14.224C23.4031 14.224 24.0001 13.627 24.0001 12.8907C24.0001 12.537 23.8596 12.1979 23.6096 11.9479C23.3595 11.6978 23.0204 11.5573 22.6667 11.5573Z" fill="#C9CCCF"/>
</g>
</g>
<defs>
<clipPath id="clip0_2388_10949">
<rect width="16" height="16" fill="white" transform="translate(20 10.224)"/>
</clipPath>
<clipPath id="clip1_2388_10949">
<rect width="16" height="16" fill="white" transform="translate(20 10.224)"/>
</clipPath>
</defs>
</svg>
