<svg width="56" height="37" viewBox="0 0 56 37" fill="none" xmlns="http://www.w3.org/2000/svg">
<g clip-path="url(#clip0_2388_9447)">
<g clip-path="url(#clip1_2388_9447)">
<path fill-rule="evenodd" clip-rule="evenodd" d="M33.3747 12.528C34.0711 12.528 34.739 12.8047 35.2313 13.2972C35.6885 13.7545 35.9596 14.3631 35.9958 15.0052L36 15.154V21.2344C36.0004 21.931 35.724 22.5991 35.2316 23.0918C34.7744 23.5493 34.1657 23.8206 33.5234 23.8571L33.3747 23.8613H22.6246C21.9282 23.8611 21.2604 23.5842 20.7681 23.0915C20.3111 22.6341 20.0402 22.0254 20.0041 21.3833L20 21.2346V15.1541C19.9998 14.4578 20.2762 13.7899 20.7684 13.2974C21.2254 12.8401 21.8338 12.5688 22.4759 12.5322L22.6246 12.528H33.3747ZM22.6248 13.1946C22.1053 13.1948 21.6072 13.4013 21.2399 13.7687C20.9061 14.1027 20.7053 14.5449 20.6717 15.0129L20.6667 15.154V21.2348C20.6664 21.7544 20.8725 22.2528 21.2397 22.6203C21.5736 22.9545 22.0157 23.1556 22.4836 23.1895L22.6247 23.1946H33.3747C33.8943 23.1946 34.3927 22.9881 34.7601 22.6205C35.094 22.2864 35.2948 21.844 35.3283 21.3758L35.3333 21.2346V15.1539C35.3335 14.6343 35.1272 14.1359 34.7599 13.7685C34.4259 13.4345 33.9838 13.2335 33.5158 13.1997L33.3747 13.1946H22.6248ZM26.4645 14.7406L26.513 14.7665L31.0257 17.6538C31.212 17.773 31.2289 18.0313 31.0764 18.1758L31.0256 18.2154L26.5129 21.1014C26.3069 21.2332 26.0412 21.1052 26.0043 20.8754L26 20.8206V15.0473C26 14.8231 26.2109 14.6743 26.4105 14.7225L26.4645 14.7406ZM26.6667 15.6566V20.2113L30.2267 17.934L26.6667 15.6566Z" fill="#C9CCCF"/>
</g>
</g>
<defs>
<clipPath id="clip0_2388_9447">
<rect width="16" height="16" fill="white" transform="translate(20 10.528)"/>
</clipPath>
<clipPath id="clip1_2388_9447">
<rect width="16" height="16" fill="white" transform="translate(20 10.528)"/>
</clipPath>
</defs>
</svg>
