<svg width="56" height="37" viewBox="0 0 56 37" fill="none" xmlns="http://www.w3.org/2000/svg">
<g clip-path="url(#clip0_2388_4146)">
<g clip-path="url(#clip1_2388_4146)">
<path fill-rule="evenodd" clip-rule="evenodd" d="M33.3747 12.224C34.0711 12.224 34.739 12.5007 35.2313 12.9932C35.6885 13.4505 35.9596 14.0592 35.9958 14.7013L36 14.85V20.9305C36.0004 21.627 35.724 22.2952 35.2316 22.7879C34.7744 23.2453 34.1657 23.5167 33.5234 23.5531L33.3747 23.5573H22.6246C21.9282 23.5571 21.2604 23.2802 20.7681 22.7876C20.3111 22.3301 20.0402 21.7214 20.0041 21.0794L20 20.9307V14.8501C19.9998 14.1538 20.2762 13.486 20.7684 12.9935C21.2254 12.5362 21.8338 12.2648 22.4759 12.2283L22.6246 12.224H33.3747ZM22.6248 12.8907C22.1053 12.8908 21.6072 13.0973 21.2399 13.4647C20.9061 13.7988 20.7053 14.2409 20.6717 14.7089L20.6667 14.85V20.9309C20.6664 21.4504 20.8725 21.9488 21.2397 22.3164C21.5736 22.6505 22.0157 22.8516 22.4836 22.8855L22.6247 22.8907H33.3747C33.8943 22.8907 34.3927 22.6841 34.7601 22.3166C35.094 21.9824 35.2948 21.5401 35.3283 21.0718L35.3333 20.9307V14.8499C35.3335 14.3303 35.1272 13.832 34.7599 13.4645C34.4259 13.1305 33.9838 12.9295 33.5158 12.8957L33.3747 12.8907H22.6248ZM26.4645 14.4367L26.513 14.4626L31.0257 17.3499C31.212 17.4691 31.2289 17.7274 31.0764 17.8718L31.0256 17.9115L26.5129 20.7975C26.3069 20.9292 26.0412 20.8013 26.0043 20.5714L26 20.5167V14.7433C26 14.5191 26.2109 14.3703 26.4105 14.4185L26.4645 14.4367ZM26.6667 15.3527V19.9073L30.2267 17.63L26.6667 15.3527Z" fill="#C9CCCF"/>
</g>
</g>
<defs>
<clipPath id="clip0_2388_4146">
<rect width="16" height="16" fill="white" transform="translate(20 10.224)"/>
</clipPath>
<clipPath id="clip1_2388_4146">
<rect width="16" height="16" fill="white" transform="translate(20 10.224)"/>
</clipPath>
</defs>
</svg>
