<svg width="56" height="37" viewBox="0 0 56 37" fill="none" xmlns="http://www.w3.org/2000/svg">
<g clip-path="url(#clip0_2388_3962)">
<g clip-path="url(#clip1_2388_3962)">
<path fill-rule="evenodd" clip-rule="evenodd" d="M30.6667 11.2239C33.0599 11.2239 35 13.164 35 15.5573V20.8906C35 23.2838 33.0599 25.2239 30.6667 25.2239H25.3333C22.9401 25.2239 21 23.2838 21 20.8906V15.5573C21 13.164 22.9401 11.2239 25.3333 11.2239H30.6667ZM30.6667 11.8906H25.3333C23.3083 11.8906 21.6667 13.5322 21.6667 15.5573V20.8906C21.6667 22.9156 23.3083 24.5573 25.3333 24.5573H30.6667C32.6917 24.5573 34.3333 22.9156 34.3333 20.8906V15.5573C34.3333 13.5322 32.6917 11.8906 30.6667 11.8906ZM28 14.5573C30.025 14.5573 31.6667 16.1989 31.6667 18.2239C31.6667 20.249 30.025 21.8906 28 21.8906C25.975 21.8906 24.3333 20.249 24.3333 18.2239C24.3333 16.1989 25.975 14.5573 28 14.5573ZM28 15.2239C26.3431 15.2239 25 16.5671 25 18.2239C25 19.8808 26.3431 21.2239 28 21.2239C29.6569 21.2239 31 19.8808 31 18.2239C31 16.5671 29.6569 15.2239 28 15.2239ZM32 12.8906C32.7364 12.8906 33.3333 13.4876 33.3333 14.2239C33.3333 14.9603 32.7364 15.5573 32 15.5573C31.2636 15.5573 30.6667 14.9603 30.6667 14.2239C30.6667 13.4876 31.2636 12.8906 32 12.8906ZM32 13.5573C31.6318 13.5573 31.3333 13.8557 31.3333 14.2239C31.3333 14.5921 31.6318 14.8906 32 14.8906C32.3682 14.8906 32.6667 14.5921 32.6667 14.2239C32.6667 13.8557 32.3682 13.5573 32 13.5573Z" fill="#C9CCCF"/>
</g>
</g>
<defs>
<clipPath id="clip0_2388_3962">
<rect width="16" height="16" fill="white" transform="translate(20 10.2239)"/>
</clipPath>
<clipPath id="clip1_2388_3962">
<rect width="16" height="16" fill="white" transform="translate(20 10.2239)"/>
</clipPath>
</defs>
</svg>
