<svg width="56" height="37" viewBox="0 0 56 37" fill="none" xmlns="http://www.w3.org/2000/svg">
<g clip-path="url(#clip0_2388_8159)">
<g clip-path="url(#clip1_2388_8159)">
<path fill-rule="evenodd" clip-rule="evenodd" d="M24.3327 15.5574C24.4963 15.5574 24.6324 15.6753 24.6606 15.8308L24.666 15.8907V24.5574C24.666 24.7211 24.5481 24.8572 24.3926 24.8854L24.3327 24.8907H20.9993C20.8357 24.8907 20.6996 24.7728 20.6714 24.6173L20.666 24.5574V15.8907C20.666 15.7271 20.7839 15.591 20.9394 15.5628L20.9993 15.5574H24.3327ZM31.6593 15.5507C33.8614 15.5507 35.2691 17.1977 35.3306 19.9326L35.3327 20.1207V24.5574C35.3327 24.7211 35.2148 24.8572 35.0593 24.8854L34.9993 24.8907H31.666C31.5024 24.8907 31.3663 24.7728 31.3381 24.6173L31.3327 24.5574V19.8907C31.3327 19.3385 30.885 18.8907 30.3327 18.8907C29.8129 18.8907 29.3857 19.2873 29.3373 19.7944L29.3327 19.8907V24.5574C29.3327 24.7211 29.2148 24.8572 29.0593 24.8854L28.9993 24.8907H25.666C25.5024 24.8907 25.3663 24.7728 25.3381 24.6173L25.3327 24.5574V15.8907C25.3327 15.7271 25.4506 15.591 25.6061 15.5628L25.666 15.5574H28.9993C29.163 15.5574 29.2991 15.6753 29.3273 15.8308L29.3327 15.8907V16.2281L29.4232 16.1733C29.979 15.8475 30.5991 15.6431 31.2425 15.5753L31.4578 15.5578L31.6593 15.5507ZM23.9993 16.2241H21.3327V24.2241H23.9993V16.2241ZM31.664 16.2174C30.7659 16.2299 29.9001 16.5543 29.2149 17.135C29.0127 17.3064 28.7098 17.1837 28.6703 16.9357L28.666 16.8807V16.2234H25.9993V24.2241H28.666V19.8907C28.666 19.0439 29.2976 18.3446 30.1154 18.2381L30.2231 18.2276L30.3327 18.2241C31.2163 18.2241 31.9394 18.9118 31.9958 19.7812L31.9993 19.8907V24.2241H34.666V20.1207C34.666 17.7432 33.6259 16.362 31.9355 16.2281L31.797 16.22L31.664 16.2174ZM22.666 10.8907C23.1964 10.8907 23.7052 11.1015 24.0802 11.4765C24.4553 11.8516 24.666 12.3603 24.666 12.8907C24.666 13.9953 23.7706 14.8907 22.666 14.8907C21.5614 14.8907 20.666 13.9953 20.666 12.8907C20.666 11.7862 21.5614 10.8907 22.666 10.8907ZM22.666 11.5574C21.9296 11.5574 21.3327 12.1544 21.3327 12.8907C21.3327 13.6271 21.9296 14.2241 22.666 14.2241C23.4024 14.2241 23.9993 13.6271 23.9993 12.8907C23.9993 12.5371 23.8589 12.198 23.6088 11.9479C23.3588 11.6979 23.0196 11.5574 22.666 11.5574Z" fill="#C9CCCF"/>
</g>
</g>
<defs>
<clipPath id="clip0_2388_8159">
<rect width="16" height="16" fill="white" transform="translate(20 10.2241)"/>
</clipPath>
<clipPath id="clip1_2388_8159">
<rect width="16" height="16" fill="white" transform="translate(20 10.2241)"/>
</clipPath>
</defs>
</svg>
