<svg width="56" height="37" viewBox="0 0 56 37" fill="none" xmlns="http://www.w3.org/2000/svg">
<g clip-path="url(#clip0_2388_13775)">
<g clip-path="url(#clip1_2388_13775)">
<path fill-rule="evenodd" clip-rule="evenodd" d="M30.6667 11.7439C33.0599 11.7439 35 13.684 35 16.0772V21.4106C35 23.8038 33.0599 25.7439 30.6667 25.7439H25.3333C22.9401 25.7439 21 23.8038 21 21.4106V16.0772C21 13.684 22.9401 11.7439 25.3333 11.7439H30.6667ZM30.6667 12.4106H25.3333C23.3083 12.4106 21.6667 14.0522 21.6667 16.0772V21.4106C21.6667 23.4356 23.3083 25.0772 25.3333 25.0772H30.6667C32.6917 25.0772 34.3333 23.4356 34.3333 21.4106V16.0772C34.3333 14.0522 32.6917 12.4106 30.6667 12.4106ZM28 15.0772C30.025 15.0772 31.6667 16.7189 31.6667 18.7439C31.6667 20.7689 30.025 22.4106 28 22.4106C25.975 22.4106 24.3333 20.7689 24.3333 18.7439C24.3333 16.7189 25.975 15.0772 28 15.0772ZM28 15.7439C26.3431 15.7439 25 17.087 25 18.7439C25 20.4008 26.3431 21.7439 28 21.7439C29.6569 21.7439 31 20.4008 31 18.7439C31 17.087 29.6569 15.7439 28 15.7439ZM32 13.4106C32.7364 13.4106 33.3333 14.0075 33.3333 14.7439C33.3333 15.4803 32.7364 16.0772 32 16.0772C31.2636 16.0772 30.6667 15.4803 30.6667 14.7439C30.6667 14.0075 31.2636 13.4106 32 13.4106ZM32 14.0772C31.6318 14.0772 31.3333 14.3757 31.3333 14.7439C31.3333 15.1121 31.6318 15.4106 32 15.4106C32.3682 15.4106 32.6667 15.1121 32.6667 14.7439C32.6667 14.3757 32.3682 14.0772 32 14.0772Z" fill="#C9CCCF"/>
</g>
</g>
<defs>
<clipPath id="clip0_2388_13775">
<rect width="16" height="16" fill="white" transform="translate(20 10.7439)"/>
</clipPath>
<clipPath id="clip1_2388_13775">
<rect width="16" height="16" fill="white" transform="translate(20 10.7439)"/>
</clipPath>
</defs>
</svg>
