<svg width="56" height="37" viewBox="0 0 56 37" fill="none" xmlns="http://www.w3.org/2000/svg">
<g clip-path="url(#clip0_2388_12232)">
<g clip-path="url(#clip1_2388_12232)">
<path fill-rule="evenodd" clip-rule="evenodd" d="M28.9188 11.7841L28.7456 11.787C26.6997 11.857 25.7933 13.1755 25.7933 14.9319L25.7927 15.8415L24.3333 15.8421C24.1492 15.8421 24 15.9913 24 16.1754V18.4943L24.0054 18.5542C24.0336 18.7097 24.1697 18.8276 24.3333 18.8276L25.7927 18.8275L25.7933 25.4508C25.7933 25.6349 25.9425 25.7841 26.1266 25.7841H29.1154L29.1753 25.7787C29.3308 25.7505 29.4488 25.6144 29.4488 25.4508L29.4487 18.8275L31.4174 18.8276C31.5877 18.8276 31.7306 18.6992 31.7488 18.5299L31.9981 16.2111L31.9993 16.1528C31.988 15.9813 31.845 15.8421 31.6667 15.8421L29.4487 15.8415L29.4488 15.074C29.4366 14.9631 29.4581 14.897 29.5055 14.847C29.5553 14.7945 29.6283 14.7655 29.7042 14.7692L31.5052 14.7754C31.6898 14.7761 31.8398 14.6267 31.8398 14.4421V12.1175C31.8398 11.9334 31.6906 11.7841 31.5065 11.7841H28.9188ZM31.1727 12.4508V14.1068L29.721 14.103C29.4676 14.0903 29.2059 14.1942 29.0219 14.3881C28.8355 14.5846 28.7483 14.8529 28.7852 15.1196L28.7821 16.1754L28.7875 16.2353C28.8157 16.3908 28.9518 16.5088 29.1154 16.5088L31.2953 16.5081L31.1173 18.1608L29.1154 18.1609L29.0555 18.1663C28.9 18.1945 28.7821 18.3306 28.7821 18.4943L28.782 25.1175H26.4593L26.4599 18.4943L26.4546 18.4343C26.4264 18.2788 26.2903 18.1609 26.1266 18.1609L24.6667 18.1608V16.5081L26.1266 16.5088C26.3107 16.5088 26.4599 16.3595 26.4599 16.1754V14.9319C26.4599 13.4559 27.1768 12.4508 28.9188 12.4508H31.1727Z" fill="#C9CCCF"/>
</g>
</g>
<defs>
<clipPath id="clip0_2388_12232">
<rect width="16" height="16" fill="white" transform="translate(20 10.7841)"/>
</clipPath>
<clipPath id="clip1_2388_12232">
<rect width="16" height="16" fill="white" transform="translate(20 10.7841)"/>
</clipPath>
</defs>
</svg>
