<svg width="56" height="37" viewBox="0 0 56 37" fill="none" xmlns="http://www.w3.org/2000/svg">
<g clip-path="url(#clip0_2388_7369)">
<g clip-path="url(#clip1_2388_7369)">
<path fill-rule="evenodd" clip-rule="evenodd" d="M33.3747 12.2239C34.0711 12.2239 34.739 12.5006 35.2313 12.9931C35.6885 13.4504 35.9596 14.059 35.9958 14.7012L36 14.8499V20.9303C36.0004 21.6269 35.724 22.2951 35.2316 22.7877C34.7744 23.2452 34.1657 23.5166 33.5234 23.553L33.3747 23.5572H22.6246C21.9282 23.557 21.2604 23.2801 20.7681 22.7875C20.3111 22.33 20.0402 21.7213 20.0041 21.0792L20 20.9305V14.85C19.9998 14.1537 20.2762 13.4858 20.7684 12.9934C21.2254 12.536 21.8338 12.2647 22.4759 12.2281L22.6246 12.2239H33.3747ZM22.6248 12.8905C22.1053 12.8907 21.6072 13.0972 21.2399 13.4646C20.9061 13.7987 20.7053 14.2408 20.6717 14.7088L20.6667 14.8499V20.9307C20.6664 21.4503 20.8725 21.9487 21.2397 22.3163C21.5736 22.6504 22.0157 22.8515 22.4836 22.8854L22.6247 22.8905H33.3747C33.8943 22.8905 34.3927 22.684 34.7601 22.3165C35.094 21.9823 35.2948 21.54 35.3283 21.0717L35.3333 20.9305V14.8498C35.3335 14.3302 35.1272 13.8319 34.7599 13.4644C34.4259 13.1304 33.9838 12.9294 33.5158 12.8956L33.3747 12.8905H22.6248ZM26.4645 14.4366L26.513 14.4624L31.0257 17.3498C31.212 17.469 31.2289 17.7272 31.0764 17.8717L31.0256 17.9114L26.5129 20.7974C26.3069 20.9291 26.0412 20.8011 26.0043 20.5713L26 20.5165V14.7432C26 14.519 26.2109 14.3702 26.4105 14.4184L26.4645 14.4366ZM26.6667 15.3525V19.9072L30.2267 17.6299L26.6667 15.3525Z" fill="#C9CCCF"/>
</g>
</g>
<defs>
<clipPath id="clip0_2388_7369">
<rect width="16" height="16" fill="white" transform="translate(20 10.2239)"/>
</clipPath>
<clipPath id="clip1_2388_7369">
<rect width="16" height="16" fill="white" transform="translate(20 10.2239)"/>
</clipPath>
</defs>
</svg>
