<svg width="56" height="37" viewBox="0 0 56 37" fill="none" xmlns="http://www.w3.org/2000/svg">
<g clip-path="url(#clip0_2388_9460)">
<g clip-path="url(#clip1_2388_9460)">
<path fill-rule="evenodd" clip-rule="evenodd" d="M24.3333 15.8612C24.4969 15.8612 24.633 15.9792 24.6613 16.1347L24.6666 16.1946V24.8612C24.6666 25.0249 24.5487 25.161 24.3932 25.1892L24.3333 25.1946H21C20.8363 25.1946 20.7002 25.0767 20.672 24.9212L20.6666 24.8612V16.1946C20.6666 16.0309 20.7845 15.8948 20.94 15.8666L21 15.8612H24.3333ZM31.66 15.8546C33.862 15.8546 35.2697 17.5015 35.3312 20.2364L35.3333 20.4246V24.8612C35.3333 25.0249 35.2154 25.161 35.0599 25.1892L35 25.1946H31.6666C31.503 25.1946 31.3669 25.0767 31.3387 24.9212L31.3333 24.8612V20.1946C31.3333 19.6423 30.8856 19.1946 30.3333 19.1946C29.8135 19.1946 29.3863 19.5912 29.3379 20.0983L29.3333 20.1946V24.8612C29.3333 25.0249 29.2154 25.161 29.0599 25.1892L29 25.1946H25.6666C25.503 25.1946 25.3669 25.0767 25.3387 24.9212L25.3333 24.8612V16.1946C25.3333 16.0309 25.4512 15.8948 25.6067 15.8666L25.6666 15.8612H29C29.1636 15.8612 29.2997 15.9792 29.3279 16.1347L29.3333 16.1946V16.5319L29.4238 16.4771C29.9796 16.1514 30.5997 15.9469 31.2431 15.8791L31.4584 15.8616L31.66 15.8546ZM24 16.5279H21.3333V24.5279H24V16.5279ZM31.6646 16.5212C30.7665 16.5337 29.9007 16.8581 29.2155 17.4389C29.0133 17.6102 28.7104 17.4875 28.6709 17.2396L28.6666 17.1846V16.5272H26V24.5279H28.6666V20.1946C28.6666 19.3477 29.2982 18.6484 30.116 18.5419L30.2237 18.5315L30.3333 18.5279C31.2169 18.5279 31.94 19.2156 31.9964 20.085L32 20.1946V24.5279H34.6666V20.4246C34.6666 18.047 33.6265 16.6658 31.9361 16.532L31.7976 16.5239L31.6646 16.5212ZM22.6666 11.1946C23.1971 11.1946 23.7058 11.4053 24.0808 11.7804C24.4559 12.1554 24.6666 12.6641 24.6666 13.1946C24.6666 14.2991 23.7712 15.1946 22.6666 15.1946C21.5621 15.1946 20.6666 14.2991 20.6666 13.1946C20.6666 12.09 21.5621 11.1946 22.6666 11.1946ZM22.6666 11.8612C21.9302 11.8612 21.3333 12.4582 21.3333 13.1946C21.3333 13.931 21.9302 14.5279 22.6666 14.5279C23.403 14.5279 24 13.931 24 13.1946C24 12.841 23.8595 12.5018 23.6094 12.2518C23.3594 12.0017 23.0202 11.8612 22.6666 11.8612Z" fill="#C9CCCF"/>
</g>
</g>
<defs>
<clipPath id="clip0_2388_9460">
<rect width="16" height="16" fill="white" transform="translate(20 10.528)"/>
</clipPath>
<clipPath id="clip1_2388_9460">
<rect width="16" height="16" fill="white" transform="translate(20 10.528)"/>
</clipPath>
</defs>
</svg>
