<svg width="56" height="37" viewBox="0 0 56 37" fill="none" xmlns="http://www.w3.org/2000/svg">
<g clip-path="url(#clip0_2388_3936)">
<g clip-path="url(#clip1_2388_3936)">
<path fill-rule="evenodd" clip-rule="evenodd" d="M33.3747 12.2239C34.0711 12.2239 34.739 12.5006 35.2313 12.9932C35.6885 13.4505 35.9596 14.0591 35.9958 14.7012L36 14.8499V20.9304C36.0004 21.627 35.724 22.2951 35.2316 22.7878C34.7744 23.2453 34.1657 23.5166 33.5234 23.5531L33.3747 23.5573H22.6246C21.9282 23.5571 21.2604 23.2802 20.7681 22.7875C20.3111 22.3301 20.0402 21.7214 20.0041 21.0793L20 20.9306V14.85C19.9998 14.1538 20.2762 13.4859 20.7684 12.9934C21.2254 12.5361 21.8338 12.2648 22.4759 12.2282L22.6246 12.2239H33.3747ZM22.6248 12.8906C22.1053 12.8908 21.6072 13.0973 21.2399 13.4647C20.9061 13.7987 20.7053 14.2409 20.6717 14.7088L20.6667 14.8499V20.9308C20.6664 21.4504 20.8725 21.9488 21.2397 22.3163C21.5736 22.6505 22.0157 22.8516 22.4836 22.8855L22.6247 22.8906H33.3747C33.8943 22.8906 34.3927 22.6841 34.7601 22.3165C35.094 21.9824 35.2948 21.54 35.3283 21.0718L35.3333 20.9306V14.8498C35.3335 14.3303 35.1272 13.8319 34.7599 13.4645C34.4259 13.1304 33.9838 12.9295 33.5158 12.8957L33.3747 12.8906H22.6248ZM26.4645 14.4366L26.513 14.4625L31.0257 17.3498C31.212 17.469 31.2289 17.7273 31.0764 17.8718L31.0256 17.9114L26.5129 20.7974C26.3069 20.9292 26.0412 20.8012 26.0043 20.5714L26 20.5166V14.7433C26 14.5191 26.2109 14.3703 26.4105 14.4185L26.4645 14.4366ZM26.6667 15.3526V19.9073L30.2267 17.6299L26.6667 15.3526Z" fill="#C9CCCF"/>
</g>
</g>
<defs>
<clipPath id="clip0_2388_3936">
<rect width="16" height="16" fill="white" transform="translate(20 10.2239)"/>
</clipPath>
<clipPath id="clip1_2388_3936">
<rect width="16" height="16" fill="white" transform="translate(20 10.2239)"/>
</clipPath>
</defs>
</svg>
