<svg width="56" height="37" viewBox="0 0 56 37" fill="none" xmlns="http://www.w3.org/2000/svg">
<g clip-path="url(#clip0_2388_14014)">
<g clip-path="url(#clip1_2388_14014)">
<path fill-rule="evenodd" clip-rule="evenodd" d="M30.6667 11.5281C33.0599 11.5281 35 13.4682 35 15.8614V21.1947C35 23.588 33.0599 25.5281 30.6667 25.5281H25.3333C22.9401 25.5281 21 23.588 21 21.1947V15.8614C21 13.4682 22.9401 11.5281 25.3333 11.5281H30.6667ZM30.6667 12.1947H25.3333C23.3083 12.1947 21.6667 13.8364 21.6667 15.8614V21.1947C21.6667 23.2198 23.3083 24.8614 25.3333 24.8614H30.6667C32.6917 24.8614 34.3333 23.2198 34.3333 21.1947V15.8614C34.3333 13.8364 32.6917 12.1947 30.6667 12.1947ZM28 14.8614C30.025 14.8614 31.6667 16.503 31.6667 18.5281C31.6667 20.5531 30.025 22.1947 28 22.1947C25.975 22.1947 24.3333 20.5531 24.3333 18.5281C24.3333 16.503 25.975 14.8614 28 14.8614ZM28 15.5281C26.3431 15.5281 25 16.8712 25 18.5281C25 20.1849 26.3431 21.5281 28 21.5281C29.6569 21.5281 31 20.1849 31 18.5281C31 16.8712 29.6569 15.5281 28 15.5281ZM32 13.1947C32.7364 13.1947 33.3333 13.7917 33.3333 14.5281C33.3333 15.2645 32.7364 15.8614 32 15.8614C31.2636 15.8614 30.6667 15.2645 30.6667 14.5281C30.6667 13.7917 31.2636 13.1947 32 13.1947ZM32 13.8614C31.6318 13.8614 31.3333 14.1599 31.3333 14.5281C31.3333 14.8963 31.6318 15.1947 32 15.1947C32.3682 15.1947 32.6667 14.8963 32.6667 14.5281C32.6667 14.1599 32.3682 13.8614 32 13.8614Z" fill="#C9CCCF"/>
</g>
</g>
<defs>
<clipPath id="clip0_2388_14014">
<rect width="16" height="16" fill="white" transform="translate(20 10.5281)"/>
</clipPath>
<clipPath id="clip1_2388_14014">
<rect width="16" height="16" fill="white" transform="translate(20 10.5281)"/>
</clipPath>
</defs>
</svg>
