<svg width="56" height="37" viewBox="0 0 56 37" fill="none" xmlns="http://www.w3.org/2000/svg">
<g clip-path="url(#clip0_2388_4792)">
<g clip-path="url(#clip1_2388_4792)">
<path fill-rule="evenodd" clip-rule="evenodd" d="M33.3747 12.7439C34.0711 12.7439 34.739 13.0206 35.2313 13.5131C35.6885 13.9704 35.9596 14.5791 35.9958 15.2212L36 15.3699V21.4504C36.0004 22.1469 35.724 22.8151 35.2316 23.3077C34.7744 23.7652 34.1657 24.0366 33.5234 24.073L33.3747 24.0772H22.6246C21.9282 24.077 21.2604 23.8001 20.7681 23.3075C20.3111 22.85 20.0402 22.2413 20.0041 21.5993L20 21.4506V15.37C19.9998 14.6737 20.2762 14.0059 20.7684 13.5134C21.2254 13.0561 21.8338 12.7847 22.4759 12.7482L22.6246 12.7439H33.3747ZM22.6248 13.4106C22.1053 13.4107 21.6072 13.6172 21.2399 13.9846C20.9061 14.3187 20.7053 14.7608 20.6717 15.2288L20.6667 15.3699V21.4508C20.6664 21.9703 20.8725 22.4687 21.2397 22.8363C21.5736 23.1704 22.0157 23.3715 22.4836 23.4054L22.6247 23.4106H33.3747C33.8943 23.4106 34.3927 23.204 34.7601 22.8365C35.094 22.5023 35.2948 22.06 35.3283 21.5917L35.3333 21.4506V15.3698C35.3335 14.8502 35.1272 14.3519 34.7599 13.9844C34.4259 13.6504 33.9838 13.4494 33.5158 13.4156L33.3747 13.4106H22.6248ZM26.4645 14.9566L26.513 14.9825L31.0257 17.8698C31.212 17.989 31.2289 18.2473 31.0764 18.3917L31.0256 18.4314L26.5129 21.3174C26.3069 21.4491 26.0412 21.3212 26.0043 21.0913L26 21.0366V15.2632C26 15.039 26.2109 14.8902 26.4105 14.9384L26.4645 14.9566ZM26.6667 15.8726V20.4272L30.2267 18.1499L26.6667 15.8726Z" fill="#C9CCCF"/>
</g>
</g>
<defs>
<clipPath id="clip0_2388_4792">
<rect width="16" height="16" fill="white" transform="translate(20 10.7439)"/>
</clipPath>
<clipPath id="clip1_2388_4792">
<rect width="16" height="16" fill="white" transform="translate(20 10.7439)"/>
</clipPath>
</defs>
</svg>
