<svg width="56" height="37" viewBox="0 0 56 37" fill="none" xmlns="http://www.w3.org/2000/svg">
<g clip-path="url(#clip0_2388_1763)">
<g clip-path="url(#clip1_2388_1763)">
<path fill-rule="evenodd" clip-rule="evenodd" d="M24.3337 16.0773C24.4973 16.0773 24.6334 16.1952 24.6616 16.3507L24.667 16.4106V25.0773C24.667 25.241 24.5491 25.377 24.3936 25.4053L24.3337 25.4106H21.0003C20.8367 25.4106 20.7006 25.2927 20.6724 25.1372L20.667 25.0773V16.4106C20.667 16.247 20.7849 16.1109 20.9404 16.0827L21.0003 16.0773H24.3337ZM31.6603 16.0706C33.8624 16.0706 35.2701 17.7176 35.3316 20.4525L35.3337 20.6406V25.0773C35.3337 25.241 35.2157 25.377 35.0602 25.4053L35.0003 25.4106H31.667C31.5034 25.4106 31.3673 25.2927 31.339 25.1372L31.3337 25.0773V20.4106C31.3337 19.8584 30.8859 19.4106 30.3337 19.4106C29.8139 19.4106 29.3867 19.8072 29.3382 20.3143L29.3337 20.4106V25.0773C29.3337 25.241 29.2157 25.377 29.0602 25.4053L29.0003 25.4106H25.667C25.5034 25.4106 25.3673 25.2927 25.339 25.1372L25.3337 25.0773V16.4106C25.3337 16.247 25.4516 16.1109 25.6071 16.0827L25.667 16.0773H29.0003C29.164 16.0773 29.3001 16.1952 29.3283 16.3507L29.3337 16.4106V16.748L29.4242 16.6932C29.9799 16.3674 30.6001 16.163 31.2435 16.0952L31.4588 16.0777L31.6603 16.0706ZM24.0003 16.744H21.3337V24.744H24.0003V16.744ZM31.665 16.7373C30.7669 16.7498 29.901 17.0742 29.2158 17.6549C29.0137 17.8263 28.7108 17.7036 28.6713 17.4556L28.667 17.4006V16.7433H26.0003V24.744H28.667V20.4106C28.667 19.5638 29.2986 18.8645 30.1164 18.758L30.2241 18.7475L30.3337 18.744C31.2173 18.744 31.9404 19.4317 31.9968 20.3011L32.0003 20.4106V24.744H34.667V20.6406C34.667 18.2631 33.6268 16.8819 31.9364 16.748L31.7979 16.7399L31.665 16.7373ZM22.667 11.4106C23.1974 11.4106 23.7061 11.6214 24.0812 11.9964C24.4563 12.3715 24.667 12.8802 24.667 13.4106C24.667 14.5152 23.7716 15.4106 22.667 15.4106C21.5624 15.4106 20.667 14.5152 20.667 13.4106C20.667 12.3061 21.5624 11.4106 22.667 11.4106ZM22.667 12.0773C21.9306 12.0773 21.3337 12.6743 21.3337 13.4106C21.3337 14.147 21.9306 14.744 22.667 14.744C23.4034 14.744 24.0003 14.147 24.0003 13.4106C24.0003 13.057 23.8598 12.7179 23.6098 12.4678C23.3598 12.2178 23.0206 12.0773 22.667 12.0773Z" fill="#C9CCCF"/>
</g>
</g>
<defs>
<clipPath id="clip0_2388_1763">
<rect width="16" height="16" fill="white" transform="translate(20 10.7439)"/>
</clipPath>
<clipPath id="clip1_2388_1763">
<rect width="16" height="16" fill="white" transform="translate(20 10.7439)"/>
</clipPath>
</defs>
</svg>
