<svg width="56" height="37" viewBox="0 0 56 37" fill="none" xmlns="http://www.w3.org/2000/svg">
<g clip-path="url(#clip0_2388_5749)">
<g clip-path="url(#clip1_2388_5749)">
<path fill-rule="evenodd" clip-rule="evenodd" d="M33.3747 12.2241C34.0711 12.2241 34.739 12.5008 35.2313 12.9933C35.6885 13.4507 35.9596 14.0593 35.9958 14.7014L36 14.8501V20.9306C36.0004 21.6271 35.724 22.2953 35.2316 22.788C34.7744 23.2455 34.1657 23.5168 33.5234 23.5532L33.3747 23.5575H22.6246C21.9282 23.5573 21.2604 23.2804 20.7681 22.7877C20.3111 22.3302 20.0402 21.7215 20.0041 21.0795L20 20.9308V14.8502C19.9998 14.1539 20.2762 13.4861 20.7684 12.9936C21.2254 12.5363 21.8338 12.265 22.4759 12.2284L22.6246 12.2241H33.3747ZM22.6248 12.8908C22.1053 12.8909 21.6072 13.0974 21.2399 13.4649C20.9061 13.7989 20.7053 14.241 20.6717 14.709L20.6667 14.8501V20.931C20.6664 21.4506 20.8725 21.949 21.2397 22.3165C21.5736 22.6506 22.0157 22.8517 22.4836 22.8857L22.6247 22.8908H33.3747C33.8943 22.8908 34.3927 22.6843 34.7601 22.3167C35.094 21.9826 35.2948 21.5402 35.3283 21.072L35.3333 20.9308V14.85C35.3335 14.3305 35.1272 13.8321 34.7599 13.4647C34.4259 13.1306 33.9838 12.9297 33.5158 12.8959L33.3747 12.8908H22.6248ZM26.4645 14.4368L26.513 14.4627L31.0257 17.35C31.212 17.4692 31.2289 17.7275 31.0764 17.8719L31.0256 17.9116L26.5129 20.7976C26.3069 20.9294 26.0412 20.8014 26.0043 20.5716L26 20.5168V14.7435C26 14.5193 26.2109 14.3704 26.4105 14.4187L26.4645 14.4368ZM26.6667 15.3528V19.9075L30.2267 17.6301L26.6667 15.3528Z" fill="#C9CCCF"/>
</g>
</g>
<defs>
<clipPath id="clip0_2388_5749">
<rect width="16" height="16" fill="white" transform="translate(20 10.2241)"/>
</clipPath>
<clipPath id="clip1_2388_5749">
<rect width="16" height="16" fill="white" transform="translate(20 10.2241)"/>
</clipPath>
</defs>
</svg>
