<svg width="56" height="37" viewBox="0 0 56 37" fill="none" xmlns="http://www.w3.org/2000/svg">
<g clip-path="url(#clip0_2388_965)">
<g clip-path="url(#clip1_2388_965)">
<path fill-rule="evenodd" clip-rule="evenodd" d="M33.3747 12.1281C34.0711 12.1281 34.739 12.4048 35.2313 12.8973C35.6885 13.3546 35.9596 13.9632 35.9958 14.6053L36 14.7541V20.8345C36.0004 21.5311 35.724 22.1992 35.2316 22.6919C34.7744 23.1494 34.1657 23.4207 33.5234 23.4572L33.3747 23.4614H22.6246C21.9282 23.4612 21.2604 23.1843 20.7681 22.6916C20.3111 22.2342 20.0402 21.6255 20.0041 20.9834L20 20.8347V14.7541C19.9998 14.0579 20.2762 13.39 20.7684 12.8975C21.2254 12.4402 21.8338 12.1689 22.4759 12.1323L22.6246 12.1281H33.3747ZM22.6248 12.7947C22.1053 12.7949 21.6072 13.0014 21.2399 13.3688C20.9061 13.7028 20.7053 14.145 20.6717 14.613L20.6667 14.7541V20.8349C20.6664 21.3545 20.8725 21.8529 21.2397 22.2204C21.5736 22.5546 22.0157 22.7557 22.4836 22.7896L22.6247 22.7947H33.3747C33.8943 22.7947 34.3927 22.5882 34.7601 22.2206C35.094 21.8865 35.2948 21.4441 35.3283 20.9759L35.3333 20.8347V14.754C35.3335 14.2344 35.1272 13.736 34.7599 13.3686C34.4259 13.0346 33.9838 12.8336 33.5158 12.7998L33.3747 12.7947H22.6248ZM26.4645 14.3407L26.513 14.3666L31.0257 17.2539C31.212 17.3731 31.2289 17.6314 31.0764 17.7759L31.0256 17.8155L26.5129 20.7015C26.3069 20.8333 26.0412 20.7053 26.0043 20.4755L26 20.4207V14.6474C26 14.4232 26.2109 14.2744 26.4105 14.3226L26.4645 14.3407ZM26.6667 15.2567V19.8114L30.2267 17.5341L26.6667 15.2567Z" fill="#C9CCCF"/>
</g>
</g>
<defs>
<clipPath id="clip0_2388_965">
<rect width="16" height="16" fill="white" transform="translate(20 10.1281)"/>
</clipPath>
<clipPath id="clip1_2388_965">
<rect width="16" height="16" fill="white" transform="translate(20 10.1281)"/>
</clipPath>
</defs>
</svg>
