<svg width="56" height="37" viewBox="0 0 56 37" fill="none" xmlns="http://www.w3.org/2000/svg">
<g clip-path="url(#clip0_2388_12244)">
<g clip-path="url(#clip1_2388_12244)">
<path fill-rule="evenodd" clip-rule="evenodd" d="M33.3747 12.7841C34.0711 12.7841 34.739 13.0608 35.2313 13.5533C35.6885 14.0107 35.9596 14.6193 35.9958 15.2614L36 15.4101V21.4906C36.0004 22.1871 35.724 22.8553 35.2316 23.348C34.7744 23.8055 34.1657 24.0768 33.5234 24.1132L33.3747 24.1175H22.6246C21.9282 24.1172 21.2604 23.8404 20.7681 23.3477C20.3111 22.8902 20.0402 22.2815 20.0041 21.6395L20 21.4908V15.4102C19.9998 14.7139 20.2762 14.0461 20.7684 13.5536C21.2254 13.0963 21.8338 12.825 22.4759 12.7884L22.6246 12.7841H33.3747ZM22.6248 13.4508C22.1053 13.4509 21.6072 13.6574 21.2399 14.0249C20.9061 14.3589 20.7053 14.801 20.6717 15.269L20.6667 15.4101V21.491C20.6664 22.0105 20.8725 22.5089 21.2397 22.8765C21.5736 23.2106 22.0157 23.4117 22.4836 23.4457L22.6247 23.4508H33.3747C33.8943 23.4508 34.3927 23.2443 34.7601 22.8767C35.094 22.5425 35.2948 22.1002 35.3283 21.632L35.3333 21.4908V15.41C35.3335 14.8905 35.1272 14.3921 34.7599 14.0247C34.4259 13.6906 33.9838 13.4896 33.5158 13.4559L33.3747 13.4508H22.6248ZM26.4645 14.9968L26.513 15.0227L31.0257 17.91C31.212 18.0292 31.2289 18.2875 31.0764 18.4319L31.0256 18.4716L26.5129 21.3576C26.3069 21.4894 26.0412 21.3614 26.0043 21.1316L26 21.0768V15.3035C26 15.0792 26.2109 14.9304 26.4105 14.9787L26.4645 14.9968ZM26.6667 15.9128V20.4675L30.2267 18.1901L26.6667 15.9128Z" fill="#C9CCCF"/>
</g>
</g>
<defs>
<clipPath id="clip0_2388_12244">
<rect width="16" height="16" fill="white" transform="translate(20 10.7841)"/>
</clipPath>
<clipPath id="clip1_2388_12244">
<rect width="16" height="16" fill="white" transform="translate(20 10.7841)"/>
</clipPath>
</defs>
</svg>
