<svg width="56" height="37" viewBox="0 0 56 37" fill="none" xmlns="http://www.w3.org/2000/svg">
<g clip-path="url(#clip0_2388_2820)">
<g clip-path="url(#clip1_2388_2820)">
<path fill-rule="evenodd" clip-rule="evenodd" d="M30.6667 11.3281C33.0599 11.3281 35 13.2682 35 15.6615V20.9948C35 23.388 33.0599 25.3281 30.6667 25.3281H25.3333C22.9401 25.3281 21 23.388 21 20.9948V15.6615C21 13.2682 22.9401 11.3281 25.3333 11.3281H30.6667ZM30.6667 11.9948H25.3333C23.3083 11.9948 21.6667 13.6364 21.6667 15.6615V20.9948C21.6667 23.0198 23.3083 24.6615 25.3333 24.6615H30.6667C32.6917 24.6615 34.3333 23.0198 34.3333 20.9948V15.6615C34.3333 13.6364 32.6917 11.9948 30.6667 11.9948ZM28 14.6615C30.025 14.6615 31.6667 16.3031 31.6667 18.3281C31.6667 20.3532 30.025 21.9948 28 21.9948C25.975 21.9948 24.3333 20.3532 24.3333 18.3281C24.3333 16.3031 25.975 14.6615 28 14.6615ZM28 15.3281C26.3431 15.3281 25 16.6713 25 18.3281C25 19.985 26.3431 21.3281 28 21.3281C29.6569 21.3281 31 19.985 31 18.3281C31 16.6713 29.6569 15.3281 28 15.3281ZM32 12.9948C32.7364 12.9948 33.3333 13.5917 33.3333 14.3281C33.3333 15.0645 32.7364 15.6615 32 15.6615C31.2636 15.6615 30.6667 15.0645 30.6667 14.3281C30.6667 13.5917 31.2636 12.9948 32 12.9948ZM32 13.6615C31.6318 13.6615 31.3333 13.9599 31.3333 14.3281C31.3333 14.6963 31.6318 14.9948 32 14.9948C32.3682 14.9948 32.6667 14.6963 32.6667 14.3281C32.6667 13.9599 32.3682 13.6615 32 13.6615Z" fill="#C9CCCF"/>
</g>
</g>
<defs>
<clipPath id="clip0_2388_2820">
<rect width="16" height="16" fill="white" transform="translate(20 10.3281)"/>
</clipPath>
<clipPath id="clip1_2388_2820">
<rect width="16" height="16" fill="white" transform="translate(20 10.3281)"/>
</clipPath>
</defs>
</svg>
