<svg width="25" height="25" viewBox="0 0 25 25" fill="none" xmlns="http://www.w3.org/2000/svg">
<g clip-path="url(#clip0_2388_2963)">
<g clip-path="url(#clip1_2388_2963)">
<g clip-path="url(#clip2_2388_2963)">
<path fill-rule="evenodd" clip-rule="evenodd" d="M12.666 0.460022C19.2934 0.460022 24.666 5.8326 24.666 12.46C24.666 19.0874 19.2934 24.46 12.666 24.46C6.0386 24.46 0.666016 19.0874 0.666016 12.46C0.666016 5.8326 6.0386 0.460022 12.666 0.460022ZM12.6934 6.95939C11.7456 6.93335 10.8321 7.31473 10.1843 8.00696C9.5364 8.69918 9.21626 9.63587 9.3071 10.6266C9.3071 12.8301 9.73561 13.9102 10.7771 15.0562C11.6273 15.9915 11.4246 18.3178 10.2241 18.7601C8.56832 19.262 6.96938 19.9337 5.45272 20.7641C7.38359 22.4436 9.9061 23.46 12.666 23.46C15.4411 23.46 17.9762 22.4324 19.9115 20.7369C18.4093 19.9188 16.8244 19.2554 15.1619 18.7506C13.9896 18.3178 13.7869 15.9915 14.6371 15.0563C15.6799 13.9087 16.1071 12.8326 16.1093 10.5798C16.1979 9.63587 15.8778 8.69918 15.2299 8.00696C14.6319 7.36798 13.8075 6.99386 12.9172 6.96057L12.6934 6.95939ZM12.666 1.46002C6.59088 1.46002 1.66602 6.38489 1.66602 12.46C1.66602 15.3997 2.81913 18.07 4.69771 20.0433L4.41529 20.201C6.15624 19.1915 8.00814 18.3869 9.90593 17.8125C10.3288 17.6564 10.4565 16.1902 10.0371 15.7288C8.83036 14.4009 8.3071 13.082 8.30929 10.6733C8.19387 9.44436 8.61068 8.22486 9.45416 7.32363C10.2414 6.48248 11.3299 5.99387 12.4524 5.96002H12.9395C14.0843 5.99387 15.1728 6.48248 15.96 7.32363C16.8035 8.22486 17.2203 9.44436 17.1071 10.6266C17.1071 13.0847 16.5851 14.3995 15.3771 15.7289C14.9577 16.1902 15.0854 17.6564 15.4801 17.8031C17.2829 18.3496 19.0209 19.0896 20.6637 20.01C22.5246 18.0429 23.666 15.3848 23.666 12.46C23.666 6.38489 18.7411 1.46002 12.666 1.46002Z" fill="#000E14"/>
</g>
</g>
</g>
<defs>
<clipPath id="clip0_2388_2963">
<rect width="24" height="24" fill="white" transform="translate(0.666016 0.460022)"/>
</clipPath>
<clipPath id="clip1_2388_2963">
<rect width="24" height="24" fill="white" transform="translate(0.666016 0.460022)"/>
</clipPath>
<clipPath id="clip2_2388_2963">
<rect width="24" height="24" fill="white" transform="translate(0.666016 0.460022)"/>
</clipPath>
</defs>
</svg>
