<svg width="25" height="25" viewBox="0 0 25 25" fill="none" xmlns="http://www.w3.org/2000/svg">
<g clip-path="url(#clip0_2388_13116)">
<g clip-path="url(#clip1_2388_13116)">
<g clip-path="url(#clip2_2388_13116)">
<path fill-rule="evenodd" clip-rule="evenodd" d="M12.3335 0.460022C18.9609 0.460022 24.3335 5.8326 24.3335 12.46C24.3335 19.0874 18.9609 24.46 12.3335 24.46C5.70608 24.46 0.333496 19.0874 0.333496 12.46C0.333496 5.8326 5.70608 0.460022 12.3335 0.460022ZM12.3608 6.95939C11.4131 6.93335 10.4996 7.31473 9.85175 8.00696C9.20388 8.69918 8.88374 9.63587 8.97458 10.6266C8.97458 12.8301 9.40309 13.9102 10.4445 15.0562C11.2948 15.9915 11.0921 18.3178 9.89163 18.7601C8.2358 19.262 6.63686 19.9337 5.1202 20.7641C7.05107 22.4436 9.57358 23.46 12.3335 23.46C15.1086 23.46 17.6437 22.4324 19.579 20.7369C18.0768 19.9188 16.4919 19.2554 14.8294 18.7506C13.6571 18.3178 13.4544 15.9915 14.3045 15.0563C15.3474 13.9087 15.7746 12.8326 15.7768 10.5798C15.8654 9.63587 15.5453 8.69918 14.8974 8.00696C14.2994 7.36798 13.475 6.99386 12.5847 6.96057L12.3608 6.95939ZM12.3335 1.46002C6.25836 1.46002 1.3335 6.38489 1.3335 12.46C1.3335 15.3997 2.48661 18.07 4.36519 20.0433L4.08277 20.201C5.82372 19.1915 7.67562 18.3869 9.57341 17.8125C9.99624 17.6564 10.124 16.1902 9.70454 15.7288C8.49784 14.4009 7.97458 13.082 7.97677 10.6733C7.86135 9.44436 8.27816 8.22486 9.12164 7.32363C9.90889 6.48248 10.9974 5.99387 12.1199 5.96002H12.6069C13.7518 5.99387 14.8403 6.48248 15.6275 7.32363C16.471 8.22486 16.8878 9.44436 16.7746 10.6266C16.7746 13.0847 16.2526 14.3995 15.0445 15.7289C14.6252 16.1902 14.7529 17.6564 15.1476 17.8031C16.9504 18.3496 18.6884 19.0896 20.3312 20.01C22.192 18.0429 23.3335 15.3848 23.3335 12.46C23.3335 6.38489 18.4086 1.46002 12.3335 1.46002Z" fill="#000E14"/>
</g>
</g>
</g>
<defs>
<clipPath id="clip0_2388_13116">
<rect width="24" height="24" fill="white" transform="translate(0.333496 0.460022)"/>
</clipPath>
<clipPath id="clip1_2388_13116">
<rect width="24" height="24" fill="white" transform="translate(0.333496 0.460022)"/>
</clipPath>
<clipPath id="clip2_2388_13116">
<rect width="24" height="24" fill="white" transform="translate(0.333496 0.460022)"/>
</clipPath>
</defs>
</svg>
