<svg width="120" height="45" viewBox="0 0 120 45" fill="none" xmlns="http://www.w3.org/2000/svg">
<path d="M0.199009 0.282715C-0.263078 1.53307 0.082516 2.99311 1.20473 4.09202C2.76961 5.62584 4.36167 7.12859 5.93821 8.64688C8.38843 11.0117 10.8425 13.3726 13.2811 15.7452C14.0306 16.4713 14.2364 17.1935 13.9645 18.0168C10.264 14.456 6.57892 10.9146 2.77738 7.25673C2.47061 8.90316 2.90164 10.0797 3.96172 11.0893C6.74977 13.7492 9.51841 16.4325 12.2909 19.104C12.9278 19.7176 13.2462 20.4476 13.1103 21.5154C10.4814 18.9953 7.94964 16.5684 5.32468 14.0482C5.03345 15.5355 5.38681 16.646 6.3537 17.5741C8.29136 19.4419 10.229 21.3135 12.1667 23.1774C12.5705 23.5657 12.9899 23.9346 13.4714 24.3772C14.2946 22.1755 15.1217 20.1214 15.8245 18.0284C16.2711 16.7004 15.9255 15.4462 14.912 14.4637C10.0154 9.72249 5.09169 4.9929 0.199009 0.282715Z" fill="#13110D"/>
<path d="M18.3989 9.24102C17.5097 8.28967 16.5273 7.42762 15.5837 6.52675C15.5177 6.55393 15.4517 6.58111 15.3856 6.60829C15.4478 7.00825 15.5099 7.41209 15.5565 7.70332C14.543 8.07998 13.5489 8.45276 12.5355 8.8333C12.2753 7.23347 11.188 6.09961 10.0192 5.0007C9.51054 4.52308 9.00574 4.03769 8.50094 3.55231C7.42921 2.52329 6.36136 1.48651 5.28575 0.449723C4.65669 1.69231 4.88191 3.10575 6.02353 4.23185C6.38854 4.58909 6.75744 4.94633 7.12245 5.30358C8.88925 7.02378 10.6716 8.73234 12.4462 10.4448C13.4791 11.4427 14.5197 12.4329 15.5526 13.4231C15.7118 12.7669 15.739 12.1223 16.0302 11.633C16.2826 11.2059 16.7952 10.7671 17.2573 10.6894C17.6029 10.6312 18.0456 11.1321 18.4727 11.3961C18.9037 10.9535 18.9775 9.85067 18.4028 9.23326L18.3989 9.24102Z" fill="#13110D"/>
<path d="M7.86802 20.366C7.58067 21.694 7.75152 22.6415 8.54367 23.4336C9.32417 24.2141 10.1435 24.9597 10.9201 25.7479C11.4094 26.2488 11.7627 26.8197 11.289 27.8487C10.7027 27.1031 10.2095 26.4741 9.71636 25.845C9.64259 25.9071 9.57269 25.9654 9.49891 26.0275C10.0542 27.4526 10.6056 28.8738 11.1609 30.2989C11.223 30.2989 11.2851 30.2989 11.3434 30.3028C11.7822 29.0796 12.2598 27.8681 12.652 26.6294C12.885 25.8916 12.586 25.2431 12.0501 24.6956C10.6988 23.3094 9.35524 21.9114 7.86413 20.3699L7.86802 20.366Z" fill="#13110D"/>
<path d="M10.757 36.4498L11.7628 35.4519L13.0675 35.8751L12.3802 34.7801L12.9432 33.953L11.6968 34.0112L10.8852 33.2113L10.7454 34.1937L9.48728 34.5937L10.6872 35.1218L10.757 36.4498Z" fill="#13110D"/>
<path d="M8.7651 36.3915L8.21371 35.6421L7.84093 36.7099L6.74202 37.2613L7.62348 37.6729L7.573 39.0048L8.50494 38.0224L9.80577 38.3331L9.21554 37.1604L10.0659 36.0925L8.7651 36.3915Z" fill="#13110D"/>
<path d="M6.5012 35.9489L7.09143 34.8694L8.09327 34.648L7.5807 34.1277L8.08162 33.2967L7.24287 33.8792L6.84292 33.7394L6.5711 34.4073L5.91098 35.1101L6.47014 35.0208L6.5012 35.9489Z" fill="#13110D"/>
<path d="M9.96886 32.3647L9.26991 32.2638L9.18448 32.6793L8.27972 33.2074L9.20778 33.1685L9.40193 33.8908L10.0698 33.0831L11.3085 33.0287L10.5241 32.5628L10.9358 32.0851L9.96886 32.3647Z" fill="#13110D"/>
<path d="M5.77508 38.0614L5.36347 37.4789L5.3557 38.5312L5.04506 39.1059L5.46443 39.3622L5.73625 40.4611L5.93817 39.5175L6.74973 39.603L6.17115 38.6477L6.43132 37.4867L5.77508 38.0614Z" fill="#13110D"/>
<path d="M8.57858 40.9349L7.66605 41.2999L6.95933 40.4378L7.08359 41.6183L6.62539 41.96L7.33211 42.4531L7.75148 43.4627L8.0466 42.7871L9.03678 43.0434L8.27182 42.0842L8.57858 40.9349Z" fill="#13110D"/>
<path d="M11.1842 39.7893L10.5474 38.4691L10.0775 39.8903L8.85825 40.1155L9.79019 40.9737L9.68923 42.3289L10.7493 41.6105L12.0152 42.2978L11.6114 40.865L12.6326 39.8515L11.1842 39.7893Z" fill="#13110D"/>
<path d="M14.3256 36.9935L13.584 35.6577L13.1957 37.0595L11.7511 37.2925L12.8967 38.1972L12.718 39.6223L13.9101 38.7914L15.0401 39.3816L14.7023 38.0264L15.5527 37.0401L14.3256 36.9935Z" fill="#13110D"/>
<path d="M13.5372 33.1181L12.6752 33.4559L13.8751 33.786L14.3721 34.7917L14.7449 34.0112L15.6846 34.3024L14.873 33.5064L14.8342 32.9822L14.1391 33.0055L13.1916 32.5007L13.5372 33.1181Z" fill="#13110D"/>
<path d="M16.6089 35.2499L16.0226 35.4519L15.1527 34.6325L15.4983 35.7742L14.6945 36.2634L15.7818 36.6478L16.1856 37.9526C16.1856 37.9526 16.4924 37.1798 16.5312 36.8653L17.1991 37.0323L16.6361 36.1081L16.6128 35.2461L16.6089 35.2499Z" fill="#13110D"/>
<path d="M4.89759 37.8166L5.16552 36.8963L5.66256 36.7332L5.42957 36.1585L5.81788 35.2227L5.30143 35.8051L5.2859 35.6071C5.12281 35.8983 4.81605 36.8963 4.81605 36.8963L4.90147 36.8808L4.89371 37.8166H4.89759Z" fill="#13110D"/>
<path d="M4.90526 39.8514L4.87808 38.9234L4.68004 39.269C4.72275 39.9835 4.91302 40.3174 4.91302 40.3174L5.19649 40.5387L4.90526 39.8514Z" fill="#13110D"/>
<path d="M5.86833 41.8861L5.81785 41.2959L5.54215 41.424L5.13831 40.8571C5.13831 40.8571 5.52662 42.0764 6.05472 42.6006L6.07802 42.488L6.50516 42.8064L5.87222 41.8861H5.86833Z" fill="#13110D"/>
<path d="M7.44477 43.4627L6.99822 43.4432L6.35362 42.8763C6.35362 42.8763 7.46807 44.1655 8.18256 44.3169L7.48748 43.8432L7.44477 43.4665V43.4627Z" fill="#13110D"/>
<path d="M7.46821 33.2386L7.31289 33.1881L7.62742 32.8231C7.49151 32.9124 7.36337 33.0056 7.24688 33.0988C6.54792 33.6657 6.22174 34.252 6.22174 34.252C6.6217 33.623 7.46821 33.2386 7.46821 33.2386Z" fill="#13110D"/>
<path d="M8.49324 32.6328C9.13006 32.0581 9.98046 31.9959 9.98046 31.9959C9.10677 31.9144 8.12046 32.5202 8.12046 32.5202L8.47771 32.4153L8.49324 32.6289V32.6328Z" fill="#13110D"/>
<path d="M12.0773 32.159L12.4656 32.6832L12.9083 32.2872C13.219 32.291 13.7975 32.4541 13.7975 32.4541C13.6927 32.3337 13.0481 32.0891 13.0481 32.0891L13.1374 31.9571C12.9782 31.8678 11.7279 31.7358 11.7279 31.7358L11.8094 31.9299C11.4017 31.9532 11.0677 32.0969 11.0677 32.0969C11.4444 32.0814 12.0773 32.1629 12.0773 32.1629V32.159Z" fill="#13110D"/>
<path d="M16.1778 34.1239L16.1895 33.8443L16.5195 34.1006C16.3137 33.8133 15.0595 32.7532 15.0595 32.7532L15.2731 33.0561L15.0362 33.0444C15.7235 33.2813 16.1817 34.1239 16.1817 34.1239H16.1778Z" fill="#13110D"/>
<path d="M17.9369 36.314C17.7 35.5956 16.8535 34.586 16.8535 34.586L17.1952 35.2345L16.97 35.483C17.7156 35.8869 17.867 36.8033 17.867 36.8033C17.8864 36.547 17.8398 36.2325 17.8398 36.2325L17.9369 36.3101V36.314Z" fill="#13110D"/>
<path d="M26.3788 18.9371V18.7468C26.3788 16.782 27.6602 15.3491 29.7183 15.3491C31.7763 15.3491 33.0655 16.782 33.0655 18.7468V18.9371C33.0655 20.902 31.7841 22.3348 29.7183 22.3348C27.6525 22.3348 26.3788 20.902 26.3788 18.9371ZM27.8195 14.755V13.295H29.3183V14.755H27.8195ZM31.4035 18.9371V18.7468C31.4035 17.4771 30.8055 16.6694 29.7144 16.6694C28.6232 16.6694 28.0369 17.4771 28.0369 18.7468V18.9371C28.0369 20.2069 28.6427 21.0146 29.7144 21.0146C30.7861 21.0146 31.4035 20.2069 31.4035 18.9371ZM30.1338 14.755V13.295H31.6326V14.755H30.1338Z" fill="#13110D"/>
<path d="M33.4655 20.0087H35.0498C35.143 20.7194 35.6555 21.0805 36.4555 21.0805C37.1661 21.0805 37.5854 20.8164 37.5854 20.3582V20.3194C37.5854 19.8651 37.2825 19.6632 36.0128 19.4379C34.3896 19.1428 33.6985 18.5371 33.6985 17.4265V17.3605C33.6985 16.1257 34.7974 15.349 36.3157 15.349C37.8339 15.349 38.9523 16.1179 39.0649 17.5313H37.4806C37.4146 16.8945 36.9874 16.5916 36.2846 16.5916C35.5818 16.5916 35.2789 16.8945 35.2789 17.2945V17.3217C35.2789 17.71 35.4692 17.9274 36.7506 18.1371C38.296 18.3934 39.1775 18.972 39.1775 20.1408V20.2184C39.1775 21.527 38.0203 22.3347 36.4166 22.3347C34.6343 22.3347 33.5626 21.461 33.4655 20.0087Z" fill="#13110D"/>
<path d="M41.1773 22.2105V16.7741H39.3173V15.4733H44.6293V16.7741H42.781V22.2105H41.1773Z" fill="#13110D"/>
<path d="M45.3206 22.2104V15.4772H50.2909V16.778H46.8932V18.1526H49.9376V19.4146H46.8932V20.9135H50.3647V22.2143H45.3167L45.3206 22.2104Z" fill="#13110D"/>
<path d="M51.1491 15.4772H54.2051C55.638 15.4772 56.7097 16.2344 56.7097 17.6595V17.7565C56.7097 18.7817 56.1699 19.4535 55.3234 19.7563L56.9077 22.2143H55.1526L53.7469 19.9388H52.7334V22.2143H51.1491V15.4772ZM52.7295 18.6341H54.0304C54.6361 18.6341 55.0555 18.3701 55.0555 17.7527V17.6556C55.0555 17.0382 54.64 16.7741 54.0304 16.7741H52.7295V18.6341Z" fill="#13110D"/>
<path d="M57.4668 15.4772H60.5228C61.9557 15.4772 63.0274 16.2344 63.0274 17.6595V17.7565C63.0274 18.7817 62.4876 19.4535 61.6411 19.7563L63.2254 22.2143H61.4703L60.0646 19.9388H59.0511V22.2143H57.4668V15.4772ZM59.0472 18.6341H60.3481C60.9538 18.6341 61.3732 18.3701 61.3732 17.7527V17.6556C61.3732 17.0382 60.9577 16.7741 60.3481 16.7741H59.0472V18.6341Z" fill="#13110D"/>
<path d="M63.7845 22.2104V15.4772H68.7549V16.778H65.3572V18.1526H68.4015V19.4146H65.3572V20.9135H68.8286V22.2143H63.7806L63.7845 22.2104Z" fill="#13110D"/>
<path d="M69.6559 22.2104V15.4772H71.2674V22.2104H69.6559Z" fill="#13110D"/>
<path d="M72.075 18.937V18.7467C72.075 16.7625 73.3836 15.349 75.3951 15.349C77.1425 15.349 78.2996 16.4402 78.3928 18.0827H76.7813C76.7153 17.1819 76.1833 16.6693 75.3679 16.6693C74.3156 16.6693 73.737 17.5042 73.737 18.7467V18.937C73.737 20.1796 74.3233 21.0067 75.3795 21.0067C76.195 21.0067 76.7347 20.4747 76.7736 19.535H78.3851C78.2996 21.2125 77.1813 22.3347 75.3873 22.3347C73.337 22.3347 72.075 20.9213 72.075 18.937Z" fill="#13110D"/>
<path d="M79.0955 22.2104V15.4772H80.6992V18.106H83.3941V15.4772H84.9978V22.2104H83.3941V19.4107H80.6992V22.2104H79.0955Z" fill="#13110D"/>
<path d="M85.9921 22.2104V15.4772H87.6036V22.2104H85.9921Z" fill="#13110D"/>
<path d="M88.3607 20.0087H89.945C90.0382 20.7194 90.5508 21.0805 91.3507 21.0805C92.0613 21.0805 92.4807 20.8164 92.4807 20.3582V20.3194C92.4807 19.8651 92.1778 19.6632 90.908 19.4379C89.2849 19.1428 88.5937 18.5371 88.5937 17.4265V17.3605C88.5937 16.1257 89.6926 15.349 91.2109 15.349C92.7292 15.349 93.8475 16.1179 93.9602 17.5313H92.3758C92.3098 16.8945 91.8827 16.5916 91.1799 16.5916C90.477 16.5916 90.1741 16.8945 90.1741 17.2945V17.3217C90.1741 17.71 90.3644 17.9274 91.6458 18.1371C93.1913 18.3934 94.0728 18.972 94.0728 20.1408V20.2184C94.0728 21.527 92.9156 22.3347 91.3119 22.3347C89.5295 22.3347 88.4578 21.461 88.3607 20.0087Z" fill="#13110D"/>
<path d="M94.5463 18.937V18.7467C94.5463 16.7625 95.8549 15.349 97.8663 15.349C99.6137 15.349 100.771 16.4402 100.864 18.0827H99.2526C99.1866 17.1819 98.6546 16.6693 97.8392 16.6693C96.7868 16.6693 96.2083 17.5042 96.2083 18.7467V18.937C96.2083 20.1796 96.7946 21.0067 97.8508 21.0067C98.6663 21.0067 99.206 20.4747 99.2448 19.535H100.856C100.771 21.2125 99.6526 22.3347 97.8586 22.3347C95.8083 22.3347 94.5463 20.9213 94.5463 18.937Z" fill="#13110D"/>
<path d="M101.567 22.2104V15.4772H103.171V18.106H105.866V15.4772H107.469V22.2104H105.866V19.4107H103.171V22.2104H101.567Z" fill="#13110D"/>
<path d="M108.417 22.2104V15.4772H113.387V16.778H109.989V18.1526H113.034V19.4146H109.989V20.9135H113.461V22.2143H108.413L108.417 22.2104Z" fill="#13110D"/>
<path d="M114.241 15.4772H117.297C118.73 15.4772 119.802 16.2344 119.802 17.6595V17.7565C119.802 18.7817 119.262 19.4535 118.416 19.7563L120 22.2143H118.245L116.839 19.9388H115.826V22.2143H114.241V15.4772ZM115.826 18.6341H117.127C117.732 18.6341 118.152 18.3701 118.152 17.7527V17.6556C118.152 17.0382 117.736 16.7741 117.127 16.7741H115.826V18.6341Z" fill="#13110D"/>
<path d="M27.6524 29.643V24.331H27.967V27.4064L30.9298 24.331H31.3491L29.1358 26.6142L31.4268 29.643H31.0385L28.9144 26.8356L27.9709 27.8063V29.6392H27.6563L27.6524 29.643Z" fill="#13110D"/>
<path d="M32.1142 29.643V24.331H32.4287V29.3596H34.9216V29.643H32.1142Z" fill="#13110D"/>
<path d="M35.6632 29.643V24.331H38.9483V24.6144H35.9777V26.7773H38.6881V27.0608H35.9777V29.3596H38.9638V29.643H35.6632Z" fill="#13110D"/>
<path d="M39.9268 29.643V24.331H40.2413V29.643H39.9268Z" fill="#13110D"/>
<path d="M41.418 29.643V24.331H41.7791L45.0254 29.1499V24.331H45.3399V29.643H44.9943L41.7325 24.7931V29.643H41.418Z" fill="#13110D"/>
<path d="M46.5048 29.643V24.331H49.5957V24.6144H46.8193V26.7929H49.3122V27.0763H46.8193V29.643H46.5048Z" fill="#13110D"/>
<path d="M50.4656 29.643V24.331H53.7507V24.6144H50.7801V26.7773H53.4905V27.0608H50.7801V29.3596H53.7662V29.643H50.4656Z" fill="#13110D"/>
<path d="M54.7254 29.643V24.331H55.04V29.3596H57.5329V29.643H54.7254Z" fill="#13110D"/>
<path d="M58.2706 29.643V24.331H59.8588C61.3266 24.331 62.3362 25.2202 62.3362 26.8666V27.1074C62.3362 28.746 61.3344 29.643 59.8588 29.643H58.2706ZM58.5851 29.3596H59.8044C61.1829 29.3596 62.0061 28.5674 62.0061 27.1074V26.8666C62.0061 25.4066 61.1907 24.6144 59.8044 24.6144H58.5851V29.3596Z" fill="#13110D"/>
<path d="M64.5729 29.643V24.331H67.6639V24.6144H64.8875V26.7929H67.3804V27.0763H64.8875V29.643H64.5729Z" fill="#13110D"/>
<path d="M68.3745 27.6899V24.331H68.689V27.6743C68.689 28.8509 69.3026 29.4334 70.3354 29.4334C71.3683 29.4334 71.9819 28.8431 71.9819 27.6666V24.331H72.2964V27.6899C72.2964 28.948 71.6246 29.7324 70.3354 29.7324C69.0463 29.7324 68.3745 28.948 68.3745 27.6899Z" fill="#13110D"/>
<path d="M73.069 28.0664H73.399C73.4806 29.0411 74.1912 29.4449 75.0688 29.4449C75.9463 29.4449 76.5948 29.0178 76.5948 28.2917V28.2256C76.5948 27.5073 75.9425 27.2393 74.9717 27.0801C73.8572 26.9015 73.2709 26.5171 73.2709 25.7249V25.6512C73.2709 24.8745 73.9582 24.2455 74.9756 24.2455C75.9425 24.2455 76.6725 24.7464 76.8084 25.7327H76.4783C76.3579 24.9406 75.791 24.5367 74.9756 24.5367C74.1601 24.5367 73.5854 24.9872 73.5854 25.6512V25.7172C73.5854 26.3851 74.1407 26.6375 75.0532 26.7889C76.1599 26.9753 76.9093 27.3209 76.9093 28.2101V28.2839C76.9093 29.1382 76.1599 29.7362 75.0532 29.7362C73.9465 29.7362 73.1311 29.1731 73.069 28.0664Z" fill="#13110D"/>
<path d="M77.3947 28.0664H77.7248C77.8063 29.0411 78.5169 29.4449 79.3945 29.4449C80.2721 29.4449 80.9205 29.0178 80.9205 28.2917V28.2256C80.9205 27.5073 80.2682 27.2393 79.2974 27.0801C78.183 26.9015 77.5966 26.5171 77.5966 25.7249V25.6512C77.5966 24.8745 78.2839 24.2455 79.3013 24.2455C80.2682 24.2455 80.9982 24.7464 81.1341 25.7327H80.804C80.6837 24.9406 80.1167 24.5367 79.3013 24.5367C78.4858 24.5367 77.9111 24.9872 77.9111 25.6512V25.7172C77.9111 26.3851 78.4664 26.6375 79.379 26.7889C80.4856 26.9753 81.2351 27.3209 81.2351 28.2101V28.2839C81.2351 29.1382 80.4856 29.7362 79.379 29.7362C78.2723 29.7362 77.4568 29.1731 77.3947 28.0664Z" fill="#13110D"/>
<path d="M82.1167 29.643V24.331H83.9961C84.9397 24.331 85.6037 24.7193 85.6037 25.6241V25.7056C85.6037 26.358 85.161 26.6841 84.796 26.82C85.3707 26.9559 85.86 27.3947 85.86 28.1209V28.218C85.86 29.1227 85.1882 29.6392 84.198 29.6392H82.1167V29.643ZM82.4312 26.7191H84.031C84.7805 26.7191 85.2814 26.3735 85.2814 25.7095V25.6279C85.2814 24.9484 84.8115 24.6183 84 24.6183H82.4273V26.723L82.4312 26.7191ZM84.2252 29.3596C84.9979 29.3596 85.5416 28.9557 85.5416 28.2218V28.1248C85.5416 27.3909 85.0096 26.9948 84.1786 26.9948H82.4273V29.3596H84.2252Z" fill="#13110D"/>
<path d="M90.4613 29.643L89.7973 27.9656H87.2151L86.5472 29.643H86.2249L88.3412 24.331H88.679L90.7875 29.643H90.4574H90.4613ZM87.3277 27.6821H89.6847L88.5081 24.7115L87.3277 27.6821Z" fill="#13110D"/>
<path d="M91.4943 29.643V24.331H91.8088V29.3596H94.3018V29.643H91.4943Z" fill="#13110D"/>
<path d="M95.0435 29.643V24.331H95.358V29.3596H97.8509V29.643H95.0435Z" fill="#13110D"/>
<path d="M99.909 29.643V24.331H101.788C102.732 24.331 103.396 24.7193 103.396 25.6241V25.7056C103.396 26.358 102.953 26.6841 102.588 26.82C103.163 26.9559 103.652 27.3947 103.652 28.1209V28.218C103.652 29.1227 102.98 29.6392 101.99 29.6392H99.909V29.643ZM100.223 26.7191H101.823C102.573 26.7191 103.074 26.3735 103.074 25.7095V25.6279C103.074 24.9484 102.604 24.6183 101.792 24.6183H100.22V26.723L100.223 26.7191ZM102.017 29.3596C102.79 29.3596 103.334 28.9557 103.334 28.2218V28.1248C103.334 27.3909 102.802 26.9948 101.971 26.9948H100.22V29.3596H102.017Z" fill="#13110D"/>
<path d="M104.511 27.6899V24.331H104.825V27.6743C104.825 28.8509 105.439 29.4334 106.472 29.4334C107.504 29.4334 108.118 28.8431 108.118 27.6666V24.331H108.432V27.6899C108.432 28.948 107.761 29.7324 106.472 29.7324C105.182 29.7324 104.511 28.948 104.511 27.6899Z" fill="#13110D"/>
<path d="M109.57 29.643V24.331H109.931L113.177 29.1499V24.331H113.492V29.643H113.146L109.885 24.7931V29.643H109.57Z" fill="#13110D"/>
<path d="M114.661 29.643V24.331H116.249C117.717 24.331 118.726 25.2202 118.726 26.8666V27.1074C118.726 28.746 117.724 29.643 116.249 29.643H114.661ZM114.975 29.3596H116.194C117.573 29.3596 118.396 28.5674 118.396 27.1074V26.8666C118.396 25.4066 117.581 24.6144 116.194 24.6144H114.975V29.3596Z" fill="#13110D"/>
</svg>
