<svg width="120" height="45" viewBox="0 0 120 45" fill="none" xmlns="http://www.w3.org/2000/svg">
<path d="M0.199009 0.362793C-0.263078 1.61315 0.082516 3.07319 1.20473 4.1721C2.76961 5.70592 4.36167 7.20867 5.93821 8.72696C8.38843 11.0918 10.8425 13.4527 13.2811 15.8252C14.0306 16.5514 14.2364 17.2736 13.9645 18.0968C10.264 14.536 6.57892 10.9947 2.77738 7.33681C2.47061 8.98324 2.90164 10.1598 3.96172 11.1694C6.74977 13.8293 9.51841 16.5125 12.2909 19.1841C12.9278 19.7976 13.2462 20.5276 13.1103 21.5955C10.4814 19.0754 7.94964 16.6484 5.32468 14.1283C5.03345 15.6155 5.38681 16.7261 6.3537 17.6542C8.29136 19.5219 10.229 21.3936 12.1667 23.2575C12.5705 23.6458 12.9899 24.0147 13.4714 24.4573C14.2946 22.2556 15.1217 20.2015 15.8245 18.1085C16.2711 16.7805 15.9255 15.5262 14.912 14.5438C10.0154 9.80257 5.09169 5.07297 0.199009 0.362793Z" fill="#13110D"/>
<path d="M18.3989 9.3211C17.5097 8.36975 16.5273 7.5077 15.5837 6.60683C15.5177 6.63401 15.4517 6.66119 15.3856 6.68837C15.4478 7.08833 15.5099 7.49217 15.5565 7.7834C14.543 8.16006 13.5489 8.53284 12.5355 8.91338C12.2753 7.31355 11.188 6.17969 10.0192 5.08077C9.51054 4.60316 9.00574 4.11777 8.50094 3.63239C7.42921 2.60337 6.36136 1.56658 5.28575 0.529801C4.65669 1.77239 4.88191 3.18583 6.02353 4.31192C6.38854 4.66917 6.75744 5.02641 7.12245 5.38366C8.88925 7.10386 10.6716 8.81242 12.4462 10.5249C13.4791 11.5228 14.5197 12.513 15.5526 13.5032C15.7118 12.8469 15.739 12.2023 16.0302 11.7131C16.2826 11.2859 16.7952 10.8472 17.2573 10.7695C17.6029 10.7112 18.0456 11.2122 18.4727 11.4762C18.9037 11.0335 18.9775 9.93075 18.4028 9.31334L18.3989 9.3211Z" fill="#13110D"/>
<path d="M7.86802 20.4461C7.58067 21.7741 7.75152 22.7215 8.54367 23.5137C9.32417 24.2942 10.1435 25.0397 10.9201 25.828C11.4094 26.3289 11.7627 26.8997 11.289 27.9288C10.7027 27.1832 10.2095 26.5541 9.71636 25.9251C9.64259 25.9872 9.57269 26.0455 9.49891 26.1076C10.0542 27.5327 10.6056 28.9539 11.1609 30.379C11.223 30.379 11.2851 30.379 11.3434 30.3829C11.7822 29.1597 12.2598 27.9482 12.652 26.7095C12.885 25.9717 12.586 25.3232 12.0501 24.7757C10.6988 23.3894 9.35524 21.9915 7.86413 20.4499L7.86802 20.4461Z" fill="#13110D"/>
<path d="M10.757 36.5299L11.7628 35.5319L13.0675 35.9552L12.3802 34.8602L12.9432 34.0331L11.6968 34.0913L10.8852 33.2914L10.7454 34.2738L9.48728 34.6738L10.6872 35.2019L10.757 36.5299Z" fill="#13110D"/>
<path d="M8.7651 36.4716L8.21371 35.7222L7.84093 36.79L6.74202 37.3414L7.62348 37.753L7.573 39.0849L8.50494 38.1025L9.80577 38.4131L9.21554 37.2404L10.0659 36.1726L8.7651 36.4716Z" fill="#13110D"/>
<path d="M6.5012 36.0289L7.09143 34.9494L8.09327 34.7281L7.5807 34.2078L8.08162 33.3768L7.24287 33.9593L6.84292 33.8195L6.5711 34.4874L5.91098 35.1902L6.47014 35.1009L6.5012 36.0289Z" fill="#13110D"/>
<path d="M9.96886 32.4448L9.26991 32.3438L9.18448 32.7593L8.27972 33.2874L9.20778 33.2486L9.40193 33.9709L10.0698 33.1632L11.3085 33.1088L10.5241 32.6428L10.9358 32.1652L9.96886 32.4448Z" fill="#13110D"/>
<path d="M5.77508 38.1415L5.36347 37.559L5.3557 38.6113L5.04506 39.186L5.46443 39.4423L5.73625 40.5412L5.93817 39.5976L6.74973 39.683L6.17115 38.7278L6.43132 37.5668L5.77508 38.1415Z" fill="#13110D"/>
<path d="M8.57858 41.0149L7.66605 41.3799L6.95933 40.5179L7.08359 41.6984L6.62539 42.0401L7.33211 42.5332L7.75148 43.5428L8.0466 42.8672L9.03678 43.1234L8.27182 42.1643L8.57858 41.0149Z" fill="#13110D"/>
<path d="M11.1842 39.8694L10.5474 38.5492L10.0775 39.9704L8.85825 40.1956L9.79019 41.0538L9.68923 42.409L10.7493 41.6906L12.0152 42.3779L11.6114 40.945L12.6326 39.9316L11.1842 39.8694Z" fill="#13110D"/>
<path d="M14.3256 37.0736L13.584 35.7378L13.1957 37.1396L11.7511 37.3726L12.8967 38.2773L12.718 39.7024L13.9101 38.8714L15.0401 39.4617L14.7023 38.1065L15.5527 37.1202L14.3256 37.0736Z" fill="#13110D"/>
<path d="M13.5372 33.1982L12.6752 33.536L13.8751 33.866L14.3721 34.8718L14.7449 34.0913L15.6846 34.3825L14.873 33.5865L14.8342 33.0622L14.1391 33.0855L13.1916 32.5807L13.5372 33.1982Z" fill="#13110D"/>
<path d="M16.6089 35.33L16.0226 35.5319L15.1527 34.7126L15.4983 35.8542L14.6945 36.3435L15.7818 36.7279L16.1856 38.0326C16.1856 38.0326 16.4924 37.2599 16.5312 36.9454L17.1991 37.1124L16.6361 36.1882L16.6128 35.3261L16.6089 35.33Z" fill="#13110D"/>
<path d="M4.89759 37.8967L5.16552 36.9764L5.66256 36.8133L5.42957 36.2386L5.81788 35.3028L5.30143 35.8852L5.2859 35.6872C5.12281 35.9784 4.81605 36.9764 4.81605 36.9764L4.90147 36.9608L4.89371 37.8967H4.89759Z" fill="#13110D"/>
<path d="M4.90526 39.9315L4.87808 39.0034L4.68004 39.349C4.72275 40.0635 4.91302 40.3975 4.91302 40.3975L5.19649 40.6188L4.90526 39.9315Z" fill="#13110D"/>
<path d="M5.86833 41.9662L5.81785 41.376L5.54215 41.5041L5.13831 40.9372C5.13831 40.9372 5.52662 42.1565 6.05472 42.6807L6.07802 42.5681L6.50516 42.8865L5.87222 41.9662H5.86833Z" fill="#13110D"/>
<path d="M7.44477 43.5427L6.99822 43.5233L6.35362 42.9564C6.35362 42.9564 7.46807 44.2456 8.18256 44.397L7.48748 43.9233L7.44477 43.5466V43.5427Z" fill="#13110D"/>
<path d="M7.46821 33.3186L7.31289 33.2681L7.62742 32.9031C7.49151 32.9924 7.36337 33.0856 7.24688 33.1788C6.54792 33.7458 6.22174 34.3321 6.22174 34.3321C6.6217 33.7031 7.46821 33.3186 7.46821 33.3186Z" fill="#13110D"/>
<path d="M8.49324 32.7128C9.13006 32.1382 9.98046 32.076 9.98046 32.076C9.10677 31.9945 8.12046 32.6002 8.12046 32.6002L8.47771 32.4954L8.49324 32.709V32.7128Z" fill="#13110D"/>
<path d="M12.0773 32.2391L12.4656 32.7633L12.9083 32.3672C13.219 32.3711 13.7975 32.5342 13.7975 32.5342C13.6927 32.4138 13.0481 32.1692 13.0481 32.1692L13.1374 32.0372C12.9782 31.9479 11.7279 31.8158 11.7279 31.8158L11.8094 32.01C11.4017 32.0333 11.0677 32.177 11.0677 32.177C11.4444 32.1614 12.0773 32.243 12.0773 32.243V32.2391Z" fill="#13110D"/>
<path d="M16.1778 34.204L16.1895 33.9244L16.5195 34.1807C16.3137 33.8933 15.0595 32.8333 15.0595 32.8333L15.2731 33.1361L15.0362 33.1245C15.7235 33.3614 16.1817 34.204 16.1817 34.204H16.1778Z" fill="#13110D"/>
<path d="M17.9369 36.3941C17.7 35.6757 16.8535 34.6661 16.8535 34.6661L17.1952 35.3146L16.97 35.5631C17.7156 35.9669 17.867 36.8833 17.867 36.8833C17.8864 36.6271 17.8398 36.3125 17.8398 36.3125L17.9369 36.3902V36.3941Z" fill="#13110D"/>
<path d="M26.3788 19.0172V18.8269C26.3788 16.8621 27.6602 15.4292 29.7183 15.4292C31.7763 15.4292 33.0655 16.8621 33.0655 18.8269V19.0172C33.0655 20.982 31.7841 22.4149 29.7183 22.4149C27.6525 22.4149 26.3788 20.982 26.3788 19.0172ZM27.8195 14.8351V13.3751H29.3183V14.8351H27.8195ZM31.4035 19.0172V18.8269C31.4035 17.5572 30.8055 16.7495 29.7144 16.7495C28.6232 16.7495 28.0369 17.5572 28.0369 18.8269V19.0172C28.0369 20.287 28.6427 21.0946 29.7144 21.0946C30.7861 21.0946 31.4035 20.287 31.4035 19.0172ZM30.1338 14.8351V13.3751H31.6326V14.8351H30.1338Z" fill="#13110D"/>
<path d="M33.4655 20.0888H35.0498C35.143 20.7994 35.6555 21.1606 36.4555 21.1606C37.1661 21.1606 37.5854 20.8965 37.5854 20.4383V20.3995C37.5854 19.9452 37.2825 19.7432 36.0128 19.518C34.3896 19.2229 33.6985 18.6171 33.6985 17.5066V17.4406C33.6985 16.2057 34.7974 15.4291 36.3157 15.4291C37.8339 15.4291 38.9523 16.198 39.0649 17.6114H37.4806C37.4146 16.9746 36.9874 16.6717 36.2846 16.6717C35.5818 16.6717 35.2789 16.9746 35.2789 17.3746V17.4017C35.2789 17.79 35.4692 18.0075 36.7506 18.2172C38.296 18.4735 39.1775 19.052 39.1775 20.2209V20.2985C39.1775 21.6071 38.0203 22.4148 36.4166 22.4148C34.6343 22.4148 33.5626 21.5411 33.4655 20.0888Z" fill="#13110D"/>
<path d="M41.1773 22.2905V16.8542H39.3173V15.5534H44.6293V16.8542H42.781V22.2905H41.1773Z" fill="#13110D"/>
<path d="M45.3206 22.2905V15.5573H50.2909V16.8581H46.8932V18.2327H49.9376V19.4947H46.8932V20.9936H50.3647V22.2944H45.3167L45.3206 22.2905Z" fill="#13110D"/>
<path d="M51.1491 15.5573H54.2051C55.638 15.5573 56.7097 16.3145 56.7097 17.7396V17.8366C56.7097 18.8618 56.1699 19.5335 55.3234 19.8364L56.9077 22.2944H55.1526L53.7469 20.0189H52.7334V22.2944H51.1491V15.5573ZM52.7295 18.7142H54.0304C54.6361 18.7142 55.0555 18.4502 55.0555 17.8327V17.7357C55.0555 17.1183 54.64 16.8542 54.0304 16.8542H52.7295V18.7142Z" fill="#13110D"/>
<path d="M57.4668 15.5573H60.5228C61.9557 15.5573 63.0274 16.3145 63.0274 17.7396V17.8366C63.0274 18.8618 62.4876 19.5335 61.6411 19.8364L63.2254 22.2944H61.4703L60.0646 20.0189H59.0511V22.2944H57.4668V15.5573ZM59.0472 18.7142H60.3481C60.9538 18.7142 61.3732 18.4502 61.3732 17.8327V17.7357C61.3732 17.1183 60.9577 16.8542 60.3481 16.8542H59.0472V18.7142Z" fill="#13110D"/>
<path d="M63.7845 22.2905V15.5573H68.7549V16.8581H65.3572V18.2327H68.4015V19.4947H65.3572V20.9936H68.8286V22.2944H63.7806L63.7845 22.2905Z" fill="#13110D"/>
<path d="M69.6559 22.2905V15.5573H71.2674V22.2905H69.6559Z" fill="#13110D"/>
<path d="M72.075 19.0171V18.8268C72.075 16.8426 73.3836 15.4291 75.3951 15.4291C77.1425 15.4291 78.2996 16.5203 78.3928 18.1628H76.7813C76.7153 17.2619 76.1833 16.7494 75.3679 16.7494C74.3156 16.7494 73.737 17.5842 73.737 18.8268V19.0171C73.737 20.2597 74.3233 21.0868 75.3795 21.0868C76.195 21.0868 76.7347 20.5548 76.7736 19.6151H78.3851C78.2996 21.2926 77.1813 22.4148 75.3873 22.4148C73.337 22.4148 72.075 21.0014 72.075 19.0171Z" fill="#13110D"/>
<path d="M79.0955 22.2905V15.5573H80.6992V18.1861H83.3941V15.5573H84.9978V22.2905H83.3941V19.4908H80.6992V22.2905H79.0955Z" fill="#13110D"/>
<path d="M85.9921 22.2905V15.5573H87.6036V22.2905H85.9921Z" fill="#13110D"/>
<path d="M88.3607 20.0888H89.945C90.0382 20.7994 90.5508 21.1606 91.3507 21.1606C92.0613 21.1606 92.4807 20.8965 92.4807 20.4383V20.3995C92.4807 19.9452 92.1778 19.7432 90.908 19.518C89.2849 19.2229 88.5937 18.6171 88.5937 17.5066V17.4406C88.5937 16.2057 89.6926 15.4291 91.2109 15.4291C92.7292 15.4291 93.8475 16.198 93.9602 17.6114H92.3758C92.3098 16.9746 91.8827 16.6717 91.1799 16.6717C90.477 16.6717 90.1741 16.9746 90.1741 17.3746V17.4017C90.1741 17.79 90.3644 18.0075 91.6458 18.2172C93.1913 18.4735 94.0728 19.052 94.0728 20.2209V20.2985C94.0728 21.6071 92.9156 22.4148 91.3119 22.4148C89.5295 22.4148 88.4578 21.5411 88.3607 20.0888Z" fill="#13110D"/>
<path d="M94.5463 19.0171V18.8268C94.5463 16.8426 95.8549 15.4291 97.8663 15.4291C99.6137 15.4291 100.771 16.5203 100.864 18.1628H99.2526C99.1866 17.2619 98.6546 16.7494 97.8392 16.7494C96.7868 16.7494 96.2083 17.5842 96.2083 18.8268V19.0171C96.2083 20.2597 96.7946 21.0868 97.8508 21.0868C98.6663 21.0868 99.206 20.5548 99.2448 19.6151H100.856C100.771 21.2926 99.6526 22.4148 97.8586 22.4148C95.8083 22.4148 94.5463 21.0014 94.5463 19.0171Z" fill="#13110D"/>
<path d="M101.567 22.2905V15.5573H103.171V18.1861H105.866V15.5573H107.469V22.2905H105.866V19.4908H103.171V22.2905H101.567Z" fill="#13110D"/>
<path d="M108.417 22.2905V15.5573H113.387V16.8581H109.989V18.2327H113.034V19.4947H109.989V20.9936H113.461V22.2944H108.413L108.417 22.2905Z" fill="#13110D"/>
<path d="M114.241 15.5573H117.297C118.73 15.5573 119.802 16.3145 119.802 17.7396V17.8366C119.802 18.8618 119.262 19.5335 118.416 19.8364L120 22.2944H118.245L116.839 20.0189H115.826V22.2944H114.241V15.5573ZM115.826 18.7142H117.127C117.732 18.7142 118.152 18.4502 118.152 17.8327V17.7357C118.152 17.1183 117.736 16.8542 117.127 16.8542H115.826V18.7142Z" fill="#13110D"/>
<path d="M27.6524 29.7231V24.4111H27.967V27.4865L30.9298 24.4111H31.3491L29.1358 26.6943L31.4268 29.7231H31.0385L28.9144 26.9156L27.9709 27.8864V29.7192H27.6563L27.6524 29.7231Z" fill="#13110D"/>
<path d="M32.1142 29.7231V24.4111H32.4287V29.4397H34.9216V29.7231H32.1142Z" fill="#13110D"/>
<path d="M35.6632 29.7231V24.4111H38.9483V24.6945H35.9777V26.8574H38.6881V27.1409H35.9777V29.4397H38.9638V29.7231H35.6632Z" fill="#13110D"/>
<path d="M39.9268 29.7231V24.4111H40.2413V29.7231H39.9268Z" fill="#13110D"/>
<path d="M41.418 29.7231V24.4111H41.7791L45.0254 29.23V24.4111H45.3399V29.7231H44.9943L41.7325 24.8731V29.7231H41.418Z" fill="#13110D"/>
<path d="M46.5048 29.7231V24.4111H49.5957V24.6945H46.8193V26.8729H49.3122V27.1564H46.8193V29.7231H46.5048Z" fill="#13110D"/>
<path d="M50.4656 29.7231V24.4111H53.7507V24.6945H50.7801V26.8574H53.4905V27.1409H50.7801V29.4397H53.7662V29.7231H50.4656Z" fill="#13110D"/>
<path d="M54.7254 29.7231V24.4111H55.04V29.4397H57.5329V29.7231H54.7254Z" fill="#13110D"/>
<path d="M58.2706 29.7231V24.4111H59.8588C61.3266 24.4111 62.3362 25.3003 62.3362 26.9467V27.1875C62.3362 28.8261 61.3344 29.7231 59.8588 29.7231H58.2706ZM58.5851 29.4397H59.8044C61.1829 29.4397 62.0061 28.6475 62.0061 27.1875V26.9467C62.0061 25.4867 61.1907 24.6945 59.8044 24.6945H58.5851V29.4397Z" fill="#13110D"/>
<path d="M64.5729 29.7231V24.4111H67.6639V24.6945H64.8875V26.8729H67.3804V27.1564H64.8875V29.7231H64.5729Z" fill="#13110D"/>
<path d="M68.3745 27.7699V24.4111H68.689V27.7544C68.689 28.931 69.3026 29.5134 70.3354 29.5134C71.3683 29.5134 71.9819 28.9232 71.9819 27.7466V24.4111H72.2964V27.7699C72.2964 29.028 71.6246 29.8124 70.3354 29.8124C69.0463 29.8124 68.3745 29.028 68.3745 27.7699Z" fill="#13110D"/>
<path d="M73.069 28.1465H73.399C73.4806 29.1212 74.1912 29.525 75.0688 29.525C75.9463 29.525 76.5948 29.0979 76.5948 28.3717V28.3057C76.5948 27.5873 75.9425 27.3194 74.9717 27.1602C73.8572 26.9816 73.2709 26.5972 73.2709 25.805V25.7312C73.2709 24.9546 73.9582 24.3256 74.9756 24.3256C75.9425 24.3256 76.6725 24.8265 76.8084 25.8128H76.4783C76.3579 25.0206 75.791 24.6168 74.9756 24.6168C74.1601 24.6168 73.5854 25.0672 73.5854 25.7312V25.7972C73.5854 26.4651 74.1407 26.7175 75.0532 26.869C76.1599 27.0554 76.9093 27.401 76.9093 28.2902V28.364C76.9093 29.2182 76.1599 29.8162 75.0532 29.8162C73.9465 29.8162 73.1311 29.2532 73.069 28.1465Z" fill="#13110D"/>
<path d="M77.3947 28.1465H77.7248C77.8063 29.1212 78.5169 29.525 79.3945 29.525C80.2721 29.525 80.9205 29.0979 80.9205 28.3717V28.3057C80.9205 27.5873 80.2682 27.3194 79.2974 27.1602C78.183 26.9816 77.5966 26.5972 77.5966 25.805V25.7312C77.5966 24.9546 78.2839 24.3256 79.3013 24.3256C80.2682 24.3256 80.9982 24.8265 81.1341 25.8128H80.804C80.6837 25.0206 80.1167 24.6168 79.3013 24.6168C78.4858 24.6168 77.9111 25.0672 77.9111 25.7312V25.7972C77.9111 26.4651 78.4664 26.7175 79.379 26.869C80.4856 27.0554 81.2351 27.401 81.2351 28.2902V28.364C81.2351 29.2182 80.4856 29.8162 79.379 29.8162C78.2723 29.8162 77.4568 29.2532 77.3947 28.1465Z" fill="#13110D"/>
<path d="M82.1167 29.7231V24.4111H83.9961C84.9397 24.4111 85.6037 24.7994 85.6037 25.7041V25.7857C85.6037 26.438 85.161 26.7642 84.796 26.9001C85.3707 27.036 85.86 27.4748 85.86 28.201V28.298C85.86 29.2028 85.1882 29.7192 84.198 29.7192H82.1167V29.7231ZM82.4312 26.7992H84.031C84.7805 26.7992 85.2814 26.4536 85.2814 25.7896V25.708C85.2814 25.0285 84.8115 24.6984 84 24.6984H82.4273V26.803L82.4312 26.7992ZM84.2252 29.4397C84.9979 29.4397 85.5416 29.0358 85.5416 28.3019V28.2048C85.5416 27.4709 85.0096 27.0749 84.1786 27.0749H82.4273V29.4397H84.2252Z" fill="#13110D"/>
<path d="M90.4613 29.7231L89.7973 28.0456H87.2151L86.5472 29.7231H86.2249L88.3412 24.4111H88.679L90.7875 29.7231H90.4574H90.4613ZM87.3277 27.7622H89.6847L88.5081 24.7916L87.3277 27.7622Z" fill="#13110D"/>
<path d="M91.4943 29.7231V24.4111H91.8088V29.4397H94.3018V29.7231H91.4943Z" fill="#13110D"/>
<path d="M95.0435 29.7231V24.4111H95.358V29.4397H97.8509V29.7231H95.0435Z" fill="#13110D"/>
<path d="M99.909 29.7231V24.4111H101.788C102.732 24.4111 103.396 24.7994 103.396 25.7041V25.7857C103.396 26.438 102.953 26.7642 102.588 26.9001C103.163 27.036 103.652 27.4748 103.652 28.201V28.298C103.652 29.2028 102.98 29.7192 101.99 29.7192H99.909V29.7231ZM100.223 26.7992H101.823C102.573 26.7992 103.074 26.4536 103.074 25.7896V25.708C103.074 25.0285 102.604 24.6984 101.792 24.6984H100.22V26.803L100.223 26.7992ZM102.017 29.4397C102.79 29.4397 103.334 29.0358 103.334 28.3019V28.2048C103.334 27.4709 102.802 27.0749 101.971 27.0749H100.22V29.4397H102.017Z" fill="#13110D"/>
<path d="M104.511 27.7699V24.4111H104.825V27.7544C104.825 28.931 105.439 29.5134 106.472 29.5134C107.504 29.5134 108.118 28.9232 108.118 27.7466V24.4111H108.432V27.7699C108.432 29.028 107.761 29.8124 106.472 29.8124C105.182 29.8124 104.511 29.028 104.511 27.7699Z" fill="#13110D"/>
<path d="M109.57 29.7231V24.4111H109.931L113.177 29.23V24.4111H113.492V29.7231H113.146L109.885 24.8731V29.7231H109.57Z" fill="#13110D"/>
<path d="M114.661 29.7231V24.4111H116.249C117.717 24.4111 118.726 25.3003 118.726 26.9467V27.1875C118.726 28.8261 117.724 29.7231 116.249 29.7231H114.661ZM114.975 29.4397H116.194C117.573 29.4397 118.396 28.6475 118.396 27.1875V26.9467C118.396 25.4867 117.581 24.6945 116.194 24.6945H114.975V29.4397Z" fill="#13110D"/>
</svg>
