<svg width="120" height="45" viewBox="0 0 120 45" fill="none" xmlns="http://www.w3.org/2000/svg">
<path d="M0.199009 0.442871C-0.263078 1.69322 0.082516 3.15326 1.20473 4.25218C2.76961 5.78599 4.36167 7.28875 5.93821 8.80703C8.38843 11.1718 10.8425 13.5327 13.2811 15.9053C14.0306 16.6314 14.2364 17.3537 13.9645 18.1769C10.264 14.6161 6.57892 11.0748 2.77738 7.41689C2.47061 9.06332 2.90164 10.2399 3.96172 11.2495C6.74977 13.9094 9.51841 16.5926 12.2909 19.2642C12.9278 19.8777 13.2462 20.6077 13.1103 21.6756C10.4814 19.1555 7.94964 16.7285 5.32468 14.2084C5.03345 15.6956 5.38681 16.8062 6.3537 17.7342C8.29136 19.602 10.229 21.4737 12.1667 23.3375C12.5705 23.7258 12.9899 24.0947 13.4714 24.5374C14.2946 22.3357 15.1217 20.2815 15.8245 18.1886C16.2711 16.8605 15.9255 15.6063 14.912 14.6239C10.0154 9.88265 5.09169 5.15305 0.199009 0.442871Z" fill="#13110D"/>
<path d="M18.3989 9.40118C17.5097 8.44983 16.5273 7.58778 15.5837 6.6869C15.5177 6.71409 15.4517 6.74127 15.3856 6.76845C15.4478 7.16841 15.5099 7.57225 15.5565 7.86348C14.543 8.24014 13.5489 8.61292 12.5355 8.99346C12.2753 7.39363 11.188 6.25977 10.0192 5.16085C9.51054 4.68323 9.00574 4.19785 8.50094 3.71246C7.42921 2.68345 6.36136 1.64666 5.28575 0.609879C4.65669 1.85247 4.88191 3.26591 6.02353 4.392C6.38854 4.74925 6.75744 5.10649 7.12245 5.46373C8.88925 7.18394 10.6716 8.8925 12.4462 10.6049C13.4791 11.6029 14.5197 12.5931 15.5526 13.5833C15.7118 12.927 15.739 12.2824 16.0302 11.7932C16.2826 11.366 16.7952 10.9272 17.2573 10.8496C17.6029 10.7913 18.0456 11.2922 18.4727 11.5563C18.9037 11.1136 18.9775 10.0108 18.4028 9.39341L18.3989 9.40118Z" fill="#13110D"/>
<path d="M7.86802 20.5261C7.58067 21.8541 7.75152 22.8016 8.54367 23.5938C9.32417 24.3743 10.1435 25.1198 10.9201 25.9081C11.4094 26.409 11.7627 26.9798 11.289 28.0088C10.7027 27.2633 10.2095 26.6342 9.71636 26.0052C9.64259 26.0673 9.57269 26.1255 9.49891 26.1877C10.0542 27.6128 10.6056 29.034 11.1609 30.4591C11.223 30.4591 11.2851 30.4591 11.3434 30.4629C11.7822 29.2398 12.2598 28.0283 12.652 26.7895C12.885 26.0518 12.586 25.4033 12.0501 24.8558C10.6988 23.4695 9.35524 22.0716 7.86413 20.53L7.86802 20.5261Z" fill="#13110D"/>
<path d="M10.757 36.61L11.7628 35.612L13.0675 36.0353L12.3802 34.9403L12.9432 34.1132L11.6968 34.1714L10.8852 33.3715L10.7454 34.3539L9.48728 34.7539L10.6872 35.282L10.757 36.61Z" fill="#13110D"/>
<path d="M8.7651 36.5517L8.21371 35.8022L7.84093 36.8701L6.74202 37.4215L7.62348 37.8331L7.573 39.165L8.50494 38.1826L9.80577 38.4932L9.21554 37.3205L10.0659 36.2527L8.7651 36.5517Z" fill="#13110D"/>
<path d="M6.5012 36.109L7.09143 35.0295L8.09327 34.8082L7.5807 34.2878L8.08162 33.4569L7.24287 34.0393L6.84292 33.8995L6.5711 34.5674L5.91098 35.2703L6.47014 35.181L6.5012 36.109Z" fill="#13110D"/>
<path d="M9.96886 32.5249L9.26991 32.4239L9.18448 32.8394L8.27972 33.3675L9.20778 33.3287L9.40193 34.0509L10.0698 33.2433L11.3085 33.1889L10.5241 32.7229L10.9358 32.2453L9.96886 32.5249Z" fill="#13110D"/>
<path d="M5.77508 38.2215L5.36347 37.6391L5.3557 38.6914L5.04506 39.2661L5.46443 39.5224L5.73625 40.6213L5.93817 39.6777L6.74973 39.7631L6.17115 38.8079L6.43132 37.6468L5.77508 38.2215Z" fill="#13110D"/>
<path d="M8.57858 41.095L7.66605 41.46L6.95933 40.598L7.08359 41.7784L6.62539 42.1201L7.33211 42.6133L7.75148 43.6229L8.0466 42.9472L9.03678 43.2035L8.27182 42.2444L8.57858 41.095Z" fill="#13110D"/>
<path d="M11.1842 39.9495L10.5474 38.6292L10.0775 40.0505L8.85825 40.2757L9.79019 41.1338L9.68923 42.489L10.7493 41.7707L12.0152 42.458L11.6114 41.0251L12.6326 40.0116L11.1842 39.9495Z" fill="#13110D"/>
<path d="M14.3256 37.1536L13.584 35.8179L13.1957 37.2197L11.7511 37.4526L12.8967 38.3574L12.718 39.7825L13.9101 38.9515L15.0401 39.5417L14.7023 38.1865L15.5527 37.2002L14.3256 37.1536Z" fill="#13110D"/>
<path d="M13.5372 33.2782L12.6752 33.6161L13.8751 33.9461L14.3721 34.9518L14.7449 34.1713L15.6846 34.4626L14.873 33.6665L14.8342 33.1423L14.1391 33.1656L13.1916 32.6608L13.5372 33.2782Z" fill="#13110D"/>
<path d="M16.6089 35.4101L16.0226 35.612L15.1527 34.7927L15.4983 35.9343L14.6945 36.4236L15.7818 36.808L16.1856 38.1127C16.1856 38.1127 16.4924 37.34 16.5312 37.0255L17.1991 37.1924L16.6361 36.2683L16.6128 35.4062L16.6089 35.4101Z" fill="#13110D"/>
<path d="M4.89759 37.9767L5.16552 37.0564L5.66256 36.8934L5.42957 36.3187L5.81788 35.3828L5.30143 35.9653L5.2859 35.7673C5.12281 36.0585 4.81605 37.0564 4.81605 37.0564L4.90147 37.0409L4.89371 37.9767H4.89759Z" fill="#13110D"/>
<path d="M4.90526 40.0116L4.87808 39.0835L4.68004 39.4291C4.72275 40.1436 4.91302 40.4776 4.91302 40.4776L5.19649 40.6989L4.90526 40.0116Z" fill="#13110D"/>
<path d="M5.86833 42.0463L5.81785 41.456L5.54215 41.5842L5.13831 41.0172C5.13831 41.0172 5.52662 42.2365 6.05472 42.7608L6.07802 42.6481L6.50516 42.9666L5.87222 42.0463H5.86833Z" fill="#13110D"/>
<path d="M7.44477 43.6228L6.99822 43.6034L6.35362 43.0365C6.35362 43.0365 7.46807 44.3257 8.18256 44.4771L7.48748 44.0034L7.44477 43.6267V43.6228Z" fill="#13110D"/>
<path d="M7.46821 33.3987L7.31289 33.3482L7.62742 32.9832C7.49151 33.0725 7.36337 33.1657 7.24688 33.2589C6.54792 33.8258 6.22174 34.4122 6.22174 34.4122C6.6217 33.7831 7.46821 33.3987 7.46821 33.3987Z" fill="#13110D"/>
<path d="M8.49324 32.7929C9.13006 32.2182 9.98046 32.1561 9.98046 32.1561C9.10677 32.0746 8.12046 32.6803 8.12046 32.6803L8.47771 32.5755L8.49324 32.789V32.7929Z" fill="#13110D"/>
<path d="M12.0773 32.3192L12.4656 32.8434L12.9083 32.4473C13.219 32.4512 13.7975 32.6143 13.7975 32.6143C13.6927 32.4939 13.0481 32.2493 13.0481 32.2493L13.1374 32.1172C12.9782 32.0279 11.7279 31.8959 11.7279 31.8959L11.8094 32.0901C11.4017 32.1134 11.0677 32.257 11.0677 32.257C11.4444 32.2415 12.0773 32.3231 12.0773 32.3231V32.3192Z" fill="#13110D"/>
<path d="M16.1778 34.2841L16.1895 34.0045L16.5195 34.2608C16.3137 33.9734 15.0595 32.9133 15.0595 32.9133L15.2731 33.2162L15.0362 33.2046C15.7235 33.4414 16.1817 34.2841 16.1817 34.2841H16.1778Z" fill="#13110D"/>
<path d="M17.9369 36.4742C17.7 35.7558 16.8535 34.7462 16.8535 34.7462L17.1952 35.3947L16.97 35.6432C17.7156 36.047 17.867 36.9634 17.867 36.9634C17.8864 36.7071 17.8398 36.3926 17.8398 36.3926L17.9369 36.4703V36.4742Z" fill="#13110D"/>
<path d="M26.3788 19.0973V18.907C26.3788 16.9422 27.6602 15.5093 29.7183 15.5093C31.7763 15.5093 33.0655 16.9422 33.0655 18.907V19.0973C33.0655 21.0621 31.7841 22.495 29.7183 22.495C27.6525 22.495 26.3788 21.0621 26.3788 19.0973ZM27.8195 14.9152V13.4552H29.3183V14.9152H27.8195ZM31.4035 19.0973V18.907C31.4035 17.6372 30.8055 16.8296 29.7144 16.8296C28.6232 16.8296 28.0369 17.6372 28.0369 18.907V19.0973C28.0369 20.367 28.6427 21.1747 29.7144 21.1747C30.7861 21.1747 31.4035 20.367 31.4035 19.0973ZM30.1338 14.9152V13.4552H31.6326V14.9152H30.1338Z" fill="#13110D"/>
<path d="M33.4655 20.1689H35.0498C35.143 20.8795 35.6555 21.2406 36.4555 21.2406C37.1661 21.2406 37.5854 20.9766 37.5854 20.5184V20.4796C37.5854 20.0252 37.2825 19.8233 36.0128 19.5981C34.3896 19.303 33.6985 18.6972 33.6985 17.5867V17.5206C33.6985 16.2858 34.7974 15.5092 36.3157 15.5092C37.8339 15.5092 38.9523 16.2781 39.0649 17.6915H37.4806C37.4146 17.0547 36.9874 16.7518 36.2846 16.7518C35.5818 16.7518 35.2789 17.0547 35.2789 17.4546V17.4818C35.2789 17.8701 35.4692 18.0876 36.7506 18.2973C38.296 18.5535 39.1775 19.1321 39.1775 20.3009V20.3786C39.1775 21.6872 38.0203 22.4949 36.4166 22.4949C34.6343 22.4949 33.5626 21.6212 33.4655 20.1689Z" fill="#13110D"/>
<path d="M41.1773 22.3706V16.9343H39.3173V15.6335H44.6293V16.9343H42.781V22.3706H41.1773Z" fill="#13110D"/>
<path d="M45.3206 22.3706V15.6373H50.2909V16.9382H46.8932V18.3128H49.9376V19.5748H46.8932V21.0737H50.3647V22.3745H45.3167L45.3206 22.3706Z" fill="#13110D"/>
<path d="M51.1491 15.6373H54.2051C55.638 15.6373 56.7097 16.3945 56.7097 17.8196V17.9167C56.7097 18.9418 56.1699 19.6136 55.3234 19.9165L56.9077 22.3745H55.1526L53.7469 20.099H52.7334V22.3745H51.1491V15.6373ZM52.7295 18.7943H54.0304C54.6361 18.7943 55.0555 18.5302 55.0555 17.9128V17.8157C55.0555 17.1983 54.64 16.9343 54.0304 16.9343H52.7295V18.7943Z" fill="#13110D"/>
<path d="M57.4668 15.6373H60.5228C61.9557 15.6373 63.0274 16.3945 63.0274 17.8196V17.9167C63.0274 18.9418 62.4876 19.6136 61.6411 19.9165L63.2254 22.3745H61.4703L60.0646 20.099H59.0511V22.3745H57.4668V15.6373ZM59.0472 18.7943H60.3481C60.9538 18.7943 61.3732 18.5302 61.3732 17.9128V17.8157C61.3732 17.1983 60.9577 16.9343 60.3481 16.9343H59.0472V18.7943Z" fill="#13110D"/>
<path d="M63.7845 22.3706V15.6373H68.7549V16.9382H65.3572V18.3128H68.4015V19.5748H65.3572V21.0737H68.8286V22.3745H63.7806L63.7845 22.3706Z" fill="#13110D"/>
<path d="M69.6559 22.3706V15.6373H71.2674V22.3706H69.6559Z" fill="#13110D"/>
<path d="M72.075 19.0972V18.9069C72.075 16.9226 73.3836 15.5092 75.3951 15.5092C77.1425 15.5092 78.2996 16.6004 78.3928 18.2429H76.7813C76.7153 17.342 76.1833 16.8295 75.3679 16.8295C74.3156 16.8295 73.737 17.6643 73.737 18.9069V19.0972C73.737 20.3398 74.3233 21.1669 75.3795 21.1669C76.195 21.1669 76.7347 20.6349 76.7736 19.6952H78.3851C78.2996 21.3727 77.1813 22.4949 75.3873 22.4949C73.337 22.4949 72.075 21.0814 72.075 19.0972Z" fill="#13110D"/>
<path d="M79.0955 22.3706V15.6373H80.6992V18.2662H83.3941V15.6373H84.9978V22.3706H83.3941V19.5709H80.6992V22.3706H79.0955Z" fill="#13110D"/>
<path d="M85.9921 22.3706V15.6373H87.6036V22.3706H85.9921Z" fill="#13110D"/>
<path d="M88.3607 20.1689H89.945C90.0382 20.8795 90.5508 21.2406 91.3507 21.2406C92.0613 21.2406 92.4807 20.9766 92.4807 20.5184V20.4796C92.4807 20.0252 92.1778 19.8233 90.908 19.5981C89.2849 19.303 88.5937 18.6972 88.5937 17.5867V17.5206C88.5937 16.2858 89.6926 15.5092 91.2109 15.5092C92.7292 15.5092 93.8475 16.2781 93.9602 17.6915H92.3758C92.3098 17.0547 91.8827 16.7518 91.1799 16.7518C90.477 16.7518 90.1741 17.0547 90.1741 17.4546V17.4818C90.1741 17.8701 90.3644 18.0876 91.6458 18.2973C93.1913 18.5535 94.0728 19.1321 94.0728 20.3009V20.3786C94.0728 21.6872 92.9156 22.4949 91.3119 22.4949C89.5295 22.4949 88.4578 21.6212 88.3607 20.1689Z" fill="#13110D"/>
<path d="M94.5463 19.0972V18.9069C94.5463 16.9226 95.8549 15.5092 97.8663 15.5092C99.6137 15.5092 100.771 16.6004 100.864 18.2429H99.2526C99.1866 17.342 98.6546 16.8295 97.8392 16.8295C96.7868 16.8295 96.2083 17.6643 96.2083 18.9069V19.0972C96.2083 20.3398 96.7946 21.1669 97.8508 21.1669C98.6663 21.1669 99.206 20.6349 99.2448 19.6952H100.856C100.771 21.3727 99.6526 22.4949 97.8586 22.4949C95.8083 22.4949 94.5463 21.0814 94.5463 19.0972Z" fill="#13110D"/>
<path d="M101.567 22.3706V15.6373H103.171V18.2662H105.866V15.6373H107.469V22.3706H105.866V19.5709H103.171V22.3706H101.567Z" fill="#13110D"/>
<path d="M108.417 22.3706V15.6373H113.387V16.9382H109.989V18.3128H113.034V19.5748H109.989V21.0737H113.461V22.3745H108.413L108.417 22.3706Z" fill="#13110D"/>
<path d="M114.241 15.6373H117.297C118.73 15.6373 119.802 16.3945 119.802 17.8196V17.9167C119.802 18.9418 119.262 19.6136 118.416 19.9165L120 22.3745H118.245L116.839 20.099H115.826V22.3745H114.241V15.6373ZM115.826 18.7943H117.127C117.732 18.7943 118.152 18.5302 118.152 17.9128V17.8157C118.152 17.1983 117.736 16.9343 117.127 16.9343H115.826V18.7943Z" fill="#13110D"/>
<path d="M27.6524 29.8032V24.4911H27.967V27.5665L30.9298 24.4911H31.3491L29.1358 26.7744L31.4268 29.8032H31.0385L28.9144 26.9957L27.9709 27.9665V29.7993H27.6563L27.6524 29.8032Z" fill="#13110D"/>
<path d="M32.1142 29.8032V24.4911H32.4287V29.5197H34.9216V29.8032H32.1142Z" fill="#13110D"/>
<path d="M35.6632 29.8032V24.4911H38.9483V24.7746H35.9777V26.9375H38.6881V27.2209H35.9777V29.5197H38.9638V29.8032H35.6632Z" fill="#13110D"/>
<path d="M39.9268 29.8032V24.4911H40.2413V29.8032H39.9268Z" fill="#13110D"/>
<path d="M41.418 29.8032V24.4911H41.7791L45.0254 29.31V24.4911H45.3399V29.8032H44.9943L41.7325 24.9532V29.8032H41.418Z" fill="#13110D"/>
<path d="M46.5048 29.8032V24.4911H49.5957V24.7746H46.8193V26.953H49.3122V27.2365H46.8193V29.8032H46.5048Z" fill="#13110D"/>
<path d="M50.4656 29.8032V24.4911H53.7507V24.7746H50.7801V26.9375H53.4905V27.2209H50.7801V29.5197H53.7662V29.8032H50.4656Z" fill="#13110D"/>
<path d="M54.7254 29.8032V24.4911H55.04V29.5197H57.5329V29.8032H54.7254Z" fill="#13110D"/>
<path d="M58.2706 29.8032V24.4911H59.8588C61.3266 24.4911 62.3362 25.3804 62.3362 27.0268V27.2675C62.3362 28.9062 61.3344 29.8032 59.8588 29.8032H58.2706ZM58.5851 29.5197H59.8044C61.1829 29.5197 62.0061 28.7276 62.0061 27.2675V27.0268C62.0061 25.5668 61.1907 24.7746 59.8044 24.7746H58.5851V29.5197Z" fill="#13110D"/>
<path d="M64.5729 29.8032V24.4911H67.6639V24.7746H64.8875V26.953H67.3804V27.2365H64.8875V29.8032H64.5729Z" fill="#13110D"/>
<path d="M68.3745 27.85V24.4911H68.689V27.8345C68.689 29.0111 69.3026 29.5935 70.3354 29.5935C71.3683 29.5935 71.9819 29.0033 71.9819 27.8267V24.4911H72.2964V27.85C72.2964 29.1081 71.6246 29.8925 70.3354 29.8925C69.0463 29.8925 68.3745 29.1081 68.3745 27.85Z" fill="#13110D"/>
<path d="M73.069 28.2266H73.399C73.4806 29.2012 74.1912 29.6051 75.0688 29.6051C75.9463 29.6051 76.5948 29.1779 76.5948 28.4518V28.3858C76.5948 27.6674 75.9425 27.3995 74.9717 27.2403C73.8572 27.0617 73.2709 26.6772 73.2709 25.8851V25.8113C73.2709 25.0347 73.9582 24.4056 74.9756 24.4056C75.9425 24.4056 76.6725 24.9066 76.8084 25.8929H76.4783C76.3579 25.1007 75.791 24.6969 74.9756 24.6969C74.1601 24.6969 73.5854 25.1473 73.5854 25.8113V25.8773C73.5854 26.5452 74.1407 26.7976 75.0532 26.9491C76.1599 27.1354 76.9093 27.481 76.9093 28.3703V28.444C76.9093 29.2983 76.1599 29.8963 75.0532 29.8963C73.9465 29.8963 73.1311 29.3333 73.069 28.2266Z" fill="#13110D"/>
<path d="M77.3947 28.2266H77.7248C77.8063 29.2012 78.5169 29.6051 79.3945 29.6051C80.2721 29.6051 80.9205 29.1779 80.9205 28.4518V28.3858C80.9205 27.6674 80.2682 27.3995 79.2974 27.2403C78.183 27.0617 77.5966 26.6772 77.5966 25.8851V25.8113C77.5966 25.0347 78.2839 24.4056 79.3013 24.4056C80.2682 24.4056 80.9982 24.9066 81.1341 25.8929H80.804C80.6837 25.1007 80.1167 24.6969 79.3013 24.6969C78.4858 24.6969 77.9111 25.1473 77.9111 25.8113V25.8773C77.9111 26.5452 78.4664 26.7976 79.379 26.9491C80.4856 27.1354 81.2351 27.481 81.2351 28.3703V28.444C81.2351 29.2983 80.4856 29.8963 79.379 29.8963C78.2723 29.8963 77.4568 29.3333 77.3947 28.2266Z" fill="#13110D"/>
<path d="M82.1167 29.8032V24.4911H83.9961C84.9397 24.4911 85.6037 24.8794 85.6037 25.7842V25.8658C85.6037 26.5181 85.161 26.8443 84.796 26.9802C85.3707 27.1161 85.86 27.5549 85.86 28.281V28.3781C85.86 29.2829 85.1882 29.7993 84.198 29.7993H82.1167V29.8032ZM82.4312 26.8792H84.031C84.7805 26.8792 85.2814 26.5336 85.2814 25.8696V25.7881C85.2814 25.1086 84.8115 24.7785 84 24.7785H82.4273V26.8831L82.4312 26.8792ZM84.2252 29.5197C84.9979 29.5197 85.5416 29.1159 85.5416 28.382V28.2849C85.5416 27.551 85.0096 27.1549 84.1786 27.1549H82.4273V29.5197H84.2252Z" fill="#13110D"/>
<path d="M90.4613 29.8032L89.7973 28.1257H87.2151L86.5472 29.8032H86.2249L88.3412 24.4911H88.679L90.7875 29.8032H90.4574H90.4613ZM87.3277 27.8422H89.6847L88.5081 24.8717L87.3277 27.8422Z" fill="#13110D"/>
<path d="M91.4943 29.8032V24.4911H91.8088V29.5197H94.3018V29.8032H91.4943Z" fill="#13110D"/>
<path d="M95.0435 29.8032V24.4911H95.358V29.5197H97.8509V29.8032H95.0435Z" fill="#13110D"/>
<path d="M99.909 29.8032V24.4911H101.788C102.732 24.4911 103.396 24.8794 103.396 25.7842V25.8658C103.396 26.5181 102.953 26.8443 102.588 26.9802C103.163 27.1161 103.652 27.5549 103.652 28.281V28.3781C103.652 29.2829 102.98 29.7993 101.99 29.7993H99.909V29.8032ZM100.223 26.8792H101.823C102.573 26.8792 103.074 26.5336 103.074 25.8696V25.7881C103.074 25.1086 102.604 24.7785 101.792 24.7785H100.22V26.8831L100.223 26.8792ZM102.017 29.5197C102.79 29.5197 103.334 29.1159 103.334 28.382V28.2849C103.334 27.551 102.802 27.1549 101.971 27.1549H100.22V29.5197H102.017Z" fill="#13110D"/>
<path d="M104.511 27.85V24.4911H104.825V27.8345C104.825 29.0111 105.439 29.5935 106.472 29.5935C107.504 29.5935 108.118 29.0033 108.118 27.8267V24.4911H108.432V27.85C108.432 29.1081 107.761 29.8925 106.472 29.8925C105.182 29.8925 104.511 29.1081 104.511 27.85Z" fill="#13110D"/>
<path d="M109.57 29.8032V24.4911H109.931L113.177 29.31V24.4911H113.492V29.8032H113.146L109.885 24.9532V29.8032H109.57Z" fill="#13110D"/>
<path d="M114.661 29.8032V24.4911H116.249C117.717 24.4911 118.726 25.3804 118.726 27.0268V27.2675C118.726 28.9062 117.724 29.8032 116.249 29.8032H114.661ZM114.975 29.5197H116.194C117.573 29.5197 118.396 28.7276 118.396 27.2675V27.0268C118.396 25.5668 117.581 24.7746 116.194 24.7746H114.975V29.5197Z" fill="#13110D"/>
</svg>
