<svg width="21" height="15" viewBox="0 0 21 15" fill="none" xmlns="http://www.w3.org/2000/svg">
<path fill-rule="evenodd" clip-rule="evenodd" d="M20.471 8.56875V9.1549L11.2982 13.4447V12.8586L20.471 8.56875ZM9.58471 11.9124L11.0608 12.8568V13.4322L9.58471 12.4829V11.9124ZM0.490234 8.52403L6.81122 12.6493V13.2354L0.490234 9.09264V8.52403ZM8.90653 11.8976V12.4565L7.16037 13.2354V12.6766L8.90653 11.8976ZM20.471 7.157V7.74313L11.2982 12.033V11.4469L20.471 7.157ZM9.58471 10.5026L11.0608 11.448V12.0234L9.58471 11.0741V10.5026ZM0.490234 7.04224L6.81122 11.1665V11.7537L0.490234 7.60986V7.04224ZM8.90653 10.4159V10.9747L7.16037 11.7536V11.1938L8.90653 10.4159ZM9.93598 0.753357L11.5693 1.83117L13.5875 0.905251L20.3802 4.31501L18.2549 5.23217L20.4902 6.31179L11.2809 10.5286L9.24628 9.15385L6.8663 10.2726L0.527033 6.11131L2.94271 5.15812L1.17146 4.09881L9.93598 0.753357ZM11.3886 2.84871L5.3215 5.3237L9.31748 7.68867L15.5486 5.06665L11.3886 2.84871ZM20.4892 4.9868V5.54567L20.0165 5.75695L19.428 5.46L20.4892 4.9868ZM1.17141 4.63632L2.06765 5.18059L1.45986 5.43471L1.16755 5.27114L1.17141 4.63632Z" fill="black"/>
</svg>
