<svg width="20" height="14" viewBox="0 0 20 14" fill="none" xmlns="http://www.w3.org/2000/svg">
<path fill-rule="evenodd" clip-rule="evenodd" d="M19.9808 8.14864V8.73479L10.808 13.0246V12.4385L19.9808 8.14864ZM9.09447 11.4923L10.5705 12.4367V13.0121L9.09447 12.0628V11.4923ZM0 8.10393L6.32099 12.2292V12.8153L0 8.67253V8.10393ZM8.4163 11.4775V12.0364L6.67014 12.8153V12.2565L8.4163 11.4775ZM19.9808 6.73689V7.32303L10.808 11.6129V11.0268L19.9808 6.73689ZM9.09447 10.0825L10.5705 11.0279V11.6033L9.09447 10.654V10.0825ZM0 6.62213L6.32099 10.7464V11.3336L0 7.18975V6.62213ZM8.4163 9.99575V10.5546L6.67014 11.3335V10.7737L8.4163 9.99575ZM9.44575 0.333252L11.079 1.41107L13.0972 0.485146L19.89 3.89491L17.7646 4.81207L20 5.89168L10.7907 10.1085L8.75605 8.73374L6.37606 9.85246L0.0367987 5.69121L2.45248 4.73802L0.681221 3.67871L9.44575 0.333252ZM10.8984 2.42861L4.83126 4.90359L8.82725 7.26857L15.0584 4.64654L10.8984 2.42861ZM19.999 4.56669V5.12557L19.5263 5.33684L18.9377 5.03989L19.999 4.56669ZM0.681173 4.21622L1.57741 4.76048L0.969627 5.01461L0.677312 4.85103L0.681173 4.21622Z" fill="black"/>
</svg>
