<svg width="25" height="24" viewBox="0 0 25 24" fill="none" xmlns="http://www.w3.org/2000/svg">
<g clip-path="url(#clip0_2347_41841)">
<g clip-path="url(#clip1_2347_41841)">
<g clip-path="url(#clip2_2347_41841)">
<path fill-rule="evenodd" clip-rule="evenodd" d="M12.5 0C19.1274 0 24.5 5.37258 24.5 12C24.5 18.6274 19.1274 24 12.5 24C5.87258 24 0.5 18.6274 0.5 12C0.5 5.37258 5.87258 0 12.5 0ZM12.5273 6.49937C11.5796 6.47333 10.6661 6.85471 10.0183 7.54693C9.37038 8.23916 9.05024 9.17585 9.14108 10.1666C9.14108 12.37 9.5696 13.4501 10.6111 14.5962C11.4613 15.5315 11.2586 17.8578 10.0581 18.3001C8.4023 18.802 6.80336 19.4737 5.2867 20.3041C7.21757 21.9836 9.74009 23 12.5 23C15.2751 23 17.8102 21.9724 19.7455 20.2768C18.2433 19.4588 16.6584 18.7954 14.9959 18.2906C13.8236 17.8578 13.6209 15.5315 14.471 14.5963C15.5139 13.4487 15.9411 12.3726 15.9433 10.1198C16.0319 9.17585 15.7118 8.23916 15.0639 7.54693C14.4659 6.90796 13.6415 6.53384 12.7512 6.50055L12.5273 6.49937ZM12.5 1C6.42487 1 1.5 5.92487 1.5 12C1.5 14.9396 2.65312 17.61 4.5317 19.5833L4.24927 19.741C5.99022 18.7315 7.84212 17.9269 9.73992 17.3525C10.1627 17.1964 10.2905 15.7302 9.87104 15.2688C8.66434 13.9409 8.14108 12.622 8.14327 10.2133C8.02785 8.98434 8.44466 7.76484 9.28815 6.8636C10.0754 6.02246 11.1639 5.53384 12.2864 5.5H12.7734C13.9183 5.53384 15.0068 6.02246 15.794 6.8636C16.6375 7.76484 17.0543 8.98434 16.9411 10.1666C16.9411 12.6246 16.4191 13.9395 15.2111 15.2689C14.7917 15.7302 14.9194 17.1964 15.3141 17.3431C17.1169 17.8895 18.8549 18.6295 20.4977 19.5499C22.3586 17.5829 23.5 14.9247 23.5 12C23.5 5.92487 18.5751 1 12.5 1Z" fill="#F0E3DE"/>
</g>
</g>
</g>
<defs>
<clipPath id="clip0_2347_41841">
<rect width="24" height="24" fill="white" transform="translate(0.5)"/>
</clipPath>
<clipPath id="clip1_2347_41841">
<rect width="24" height="24" fill="white" transform="translate(0.5)"/>
</clipPath>
<clipPath id="clip2_2347_41841">
<rect width="24" height="24" fill="white" transform="translate(0.5)"/>
</clipPath>
</defs>
</svg>
