<svg width="56" height="18" viewBox="0 0 56 18" fill="none" xmlns="http://www.w3.org/2000/svg">
<g clip-path="url(#clip0_2379_8220)">
<g clip-path="url(#clip1_2379_8220)">
<path d="M28.1503 16.9238C32.3582 16.9238 35.7693 13.4389 35.7693 9.13998C35.7693 4.8411 32.3582 1.35617 28.1503 1.35617C23.9424 1.35617 20.5312 4.8411 20.5312 9.13998C20.5312 13.4389 23.9424 16.9238 28.1503 16.9238Z" fill="white"/>
<mask id="mask0_2379_8220" style="mask-type:luminance" maskUnits="userSpaceOnUse" x="20" y="1" width="16" height="16">
<path d="M20.5312 1.35617H35.7693V16.9238H20.5312V1.35617Z" fill="white"/>
</mask>
<g mask="url(#mask0_2379_8220)">
<path fill-rule="evenodd" clip-rule="evenodd" d="M33.5246 12.9257L30.9417 13.0828L30.3112 15.4362C29.6178 15.6857 28.8863 15.813 28.1493 15.8124C27.3984 15.8127 26.6534 15.6805 25.9484 15.4219L25.3227 13.0828L22.777 12.9286C22.0418 11.8416 21.6399 10.5636 21.6208 9.25141L23.617 7.74188L22.837 5.26379C23.6452 4.10468 24.8059 3.23728 26.1465 2.79046L28.1474 4.26474L30.1636 2.79427C31.5231 3.25043 32.6961 4.13878 33.5036 5.32379L32.7417 7.74284L34.6798 9.20569C34.6693 10.5325 34.268 11.8267 33.5246 12.9257ZM28.1503 1.35617C23.9493 1.35617 20.5312 4.8476 20.5312 9.13998C20.5312 13.4324 23.9493 16.9238 28.1503 16.9238C32.3512 16.9238 35.7693 13.4324 35.7693 9.13998C35.7693 4.8476 32.3503 1.35617 28.1503 1.35617Z" fill="#222222"/>
</g>
<path fill-rule="evenodd" clip-rule="evenodd" d="M25.293 8.45141L26.3844 12.059H29.9158L31.0073 8.45141L28.1501 6.22093L25.293 8.45141Z" fill="#222222"/>
</g>
</g>
<defs>
<clipPath id="clip0_2379_8220">
<rect width="20" height="17" fill="white" transform="translate(18 0.419983)"/>
</clipPath>
<clipPath id="clip1_2379_8220">
<rect width="20" height="17" fill="white" transform="translate(18 0.419983)"/>
</clipPath>
</defs>
</svg>
