<svg width="56" height="18" viewBox="0 0 56 18" fill="none" xmlns="http://www.w3.org/2000/svg">
<g clip-path="url(#clip0_2370_210501)">
<g clip-path="url(#clip1_2370_210501)">
<g clip-path="url(#clip2_2370_210501)">
<path d="M28.1505 17.0039C32.3584 17.0039 35.7695 13.519 35.7695 9.22009C35.7695 4.92121 32.3584 1.43628 28.1505 1.43628C23.9426 1.43628 20.5314 4.92121 20.5314 9.22009C20.5314 13.519 23.9426 17.0039 28.1505 17.0039Z" fill="white"/>
<mask id="mask0_2370_210501" style="mask-type:luminance" maskUnits="userSpaceOnUse" x="20" y="1" width="16" height="17">
<path d="M20.5314 1.43628H35.7695V17.0039H20.5314V1.43628Z" fill="white"/>
</mask>
<g mask="url(#mask0_2370_210501)">
<path fill-rule="evenodd" clip-rule="evenodd" d="M33.5248 13.0058L30.9419 13.1629L30.3114 15.5163C29.618 15.7658 28.8865 15.8931 28.1495 15.8925C27.3986 15.8928 26.6535 15.7606 25.9486 15.502L25.3229 13.1629L22.7771 13.0087C22.0419 11.9217 21.6401 10.6437 21.621 9.33152L23.6171 7.82199L22.8371 5.3439C23.6454 4.18479 24.8061 3.31739 26.1467 2.87057L28.1476 4.34485L30.1638 2.87437C31.5233 3.33054 32.6963 4.21889 33.5038 5.4039L32.7419 7.82295L34.68 9.2858C34.6694 10.6126 34.2682 11.9068 33.5248 13.0058ZM28.1505 1.43628C23.9495 1.43628 20.5314 4.92771 20.5314 9.22009C20.5314 13.5125 23.9495 17.0039 28.1505 17.0039C32.3514 17.0039 35.7695 13.5125 35.7695 9.22009C35.7695 4.92771 32.3505 1.43628 28.1505 1.43628Z" fill="#222222"/>
</g>
<path fill-rule="evenodd" clip-rule="evenodd" d="M25.2933 8.5315L26.3848 12.1391H29.9162L31.0076 8.5315L28.1505 6.30103L25.2933 8.5315Z" fill="#222222"/>
</g>
</g>
</g>
<defs>
<clipPath id="clip0_2370_210501">
<rect width="20" height="17" fill="white" transform="translate(18 0.5)"/>
</clipPath>
<clipPath id="clip1_2370_210501">
<rect width="20" height="17" fill="white" transform="translate(18 0.5)"/>
</clipPath>
<clipPath id="clip2_2370_210501">
<rect width="20" height="16.1905" fill="white" transform="translate(18 0.904785)"/>
</clipPath>
</defs>
</svg>
