<svg width="12" height="13" viewBox="0 0 12 13" fill="none" xmlns="http://www.w3.org/2000/svg">
<g clip-path="url(#clip0_2388_6047)">
<path d="M11.9989 6.8584C11.9885 6.63168 11.9146 6.39622 11.7403 6.23632L10.7738 5.26901L9.22977 3.72575L8.87578 3.37096C8.70885 3.20879 8.4864 3.11634 8.2537 3.11243C8.03813 3.11243 7.78039 3.20789 7.63242 3.37096C7.47969 3.53881 7.36514 3.75837 7.37389 3.99304C7.38344 4.22691 7.46299 4.44567 7.63242 4.61432L8.60133 5.58323L8.9951 5.97779H2.13955C1.72669 5.97779 1.31144 5.97302 0.898583 5.97779H0.880287C0.653572 5.97779 0.418902 6.07643 0.259008 6.23712C0.105478 6.38985 -0.0082778 6.63805 0.000472611 6.8584C0.010814 7.08432 0.0847948 7.32058 0.259008 7.47968C0.432425 7.63878 0.644026 7.73901 0.880287 7.73821H8.99988L7.98642 8.75088L7.63242 9.10487C7.47333 9.26397 7.37469 9.50262 7.37389 9.72694C7.37389 9.94252 7.46935 10.2003 7.63242 10.3482C7.79948 10.501 8.01903 10.6163 8.2545 10.6068C8.48675 10.6019 8.70861 10.5095 8.87578 10.3482L9.84469 9.37931L11.3887 7.83526L11.7427 7.48127C11.8334 7.39138 11.8971 7.28399 11.9392 7.16944C11.9806 7.07076 12.0012 6.9646 11.9997 6.8576L11.9989 6.8584Z" fill="#37003C"/>
</g>
<defs>
<clipPath id="clip0_2388_6047">
<rect width="12" height="12" fill="white" transform="translate(0 0.859985)"/>
</clipPath>
</defs>
</svg>
