<svg width="12" height="13" viewBox="0 0 12 13" fill="none" xmlns="http://www.w3.org/2000/svg">
<g clip-path="url(#clip0_2388_3125)">
<path d="M11.9989 6.05841C11.9885 5.8317 11.9146 5.59623 11.7403 5.43634L10.7738 4.46902L9.22977 2.92576L8.87578 2.57097C8.70885 2.40881 8.4864 2.31635 8.2537 2.31244C8.03813 2.31244 7.78039 2.4079 7.63242 2.57097C7.47969 2.73882 7.36514 2.95838 7.37389 3.19305C7.38344 3.42692 7.46299 3.64568 7.63242 3.81433L8.60133 4.78324L8.9951 5.1778H2.13955C1.72669 5.1778 1.31144 5.17303 0.898583 5.1778H0.880287C0.653572 5.1778 0.418902 5.27644 0.259008 5.43713C0.105478 5.58987 -0.0082778 5.83806 0.000472611 6.05841C0.010814 6.28433 0.0847948 6.52059 0.259008 6.67969C0.432425 6.83879 0.644026 6.93902 0.880287 6.93823H8.99988L7.98642 7.95089L7.63242 8.30488C7.47333 8.46398 7.37469 8.70263 7.37389 8.92696C7.37389 9.14253 7.46935 9.40027 7.63242 9.54824C7.79948 9.70097 8.01903 9.81632 8.2545 9.80677C8.48675 9.80187 8.70861 9.70954 8.87578 9.54824L9.84469 8.57933L11.3887 7.03528L11.7427 6.68128C11.8334 6.59139 11.8971 6.484 11.9392 6.36945C11.9806 6.27077 12.0012 6.16461 11.9997 6.05762L11.9989 6.05841Z" fill="#37003C"/>
</g>
<defs>
<clipPath id="clip0_2388_3125">
<rect width="12" height="12" fill="white" transform="translate(0 0.0599976)"/>
</clipPath>
</defs>
</svg>
