<svg width="12" height="13" viewBox="0 0 12 13" fill="none" xmlns="http://www.w3.org/2000/svg">
<g clip-path="url(#clip0_2388_5511)">
<path d="M11.9989 6.45844C11.9885 6.23172 11.9146 5.99626 11.7403 5.83636L10.7738 4.86904L9.22977 3.32579L8.87578 2.971C8.70885 2.80883 8.4864 2.71638 8.2537 2.71246C8.03813 2.71246 7.78039 2.80792 7.63242 2.971C7.47969 3.13885 7.36514 3.3584 7.37389 3.59307C7.38344 3.82695 7.46299 4.04571 7.63242 4.21435L8.60133 5.18326L8.9951 5.57783H2.13955C1.72669 5.57783 1.31144 5.57305 0.898583 5.57783H0.880287C0.653572 5.57783 0.418902 5.67647 0.259008 5.83716C0.105478 5.98989 -0.0082778 6.23809 0.000472611 6.45844C0.010814 6.68436 0.0847948 6.92062 0.259008 7.07972C0.432425 7.23881 0.644026 7.33905 0.880287 7.33825H8.99988L7.98642 8.35091L7.63242 8.70491C7.47333 8.864 7.37469 9.10265 7.37389 9.32698C7.37389 9.54256 7.46935 9.8003 7.63242 9.94826C7.79948 10.101 8.01903 10.2163 8.2545 10.2068C8.48675 10.2019 8.70861 10.1096 8.87578 9.94826L9.84469 8.97935L11.3887 7.4353L11.7427 7.08131C11.8334 6.99142 11.8971 6.88402 11.9392 6.76947C11.9806 6.67079 12.0012 6.56464 11.9997 6.45764L11.9989 6.45844Z" fill="#37003C"/>
</g>
<defs>
<clipPath id="clip0_2388_5511">
<rect width="12" height="12" fill="white" transform="translate(0 0.460022)"/>
</clipPath>
</defs>
</svg>
