<svg width="12" height="13" viewBox="0 0 12 13" fill="none" xmlns="http://www.w3.org/2000/svg">
<g clip-path="url(#clip0_2372_35787)">
<path d="M11.9992 6.13831C11.9889 5.91159 11.9149 5.67613 11.7407 5.51623L10.7741 4.54891L9.23009 3.00566L8.8761 2.65087C8.70918 2.4887 8.48672 2.39625 8.25402 2.39233C8.03845 2.39233 7.78071 2.48779 7.63275 2.65087C7.48001 2.81872 7.36546 3.03827 7.37421 3.27294C7.38376 3.50682 7.46331 3.72558 7.63275 3.89422L8.60166 4.86313L8.99542 5.2577H2.13987C1.72701 5.2577 1.31176 5.25292 0.898904 5.2577H0.880607C0.653892 5.2577 0.419222 5.35634 0.259328 5.51703C0.105798 5.66976 -0.00795737 5.91796 0.000793045 6.13831C0.0111344 6.36423 0.0851152 6.60049 0.259328 6.75959C0.432745 6.91868 0.644346 7.01892 0.880607 7.01812H9.0002L7.98674 8.03078L7.63275 8.38478C7.47365 8.54388 7.37501 8.78252 7.37421 9.00685C7.37421 9.22243 7.46967 9.48017 7.63275 9.62813C7.7998 9.78087 8.01935 9.89621 8.25482 9.88667C8.48707 9.88176 8.70893 9.78944 8.8761 9.62813L9.84501 8.65922L11.3891 7.11517L11.7431 6.76118C11.8337 6.67129 11.8974 6.5639 11.9395 6.44934C11.9809 6.35066 12.0015 6.24451 12 6.13751L11.9992 6.13831Z" fill="#37003C"/>
</g>
<defs>
<clipPath id="clip0_2372_35787">
<rect width="12" height="12" fill="white" transform="translate(0 0.139893)"/>
</clipPath>
</defs>
</svg>
