<svg width="12" height="13" viewBox="0 0 12 13" fill="none" xmlns="http://www.w3.org/2000/svg">
<g clip-path="url(#clip0_2388_2410)">
<path d="M11.9989 6.5584C11.9885 6.33168 11.9146 6.09622 11.7403 5.93632L10.7738 4.969L9.22977 3.42575L8.87578 3.07096C8.70885 2.90879 8.4864 2.81634 8.2537 2.81242C8.03813 2.81242 7.78039 2.90788 7.63242 3.07096C7.47969 3.23881 7.36514 3.45836 7.37389 3.69303C7.38344 3.92691 7.46299 4.14567 7.63242 4.31431L8.60133 5.28322L8.9951 5.67779H2.13955C1.72669 5.67779 1.31144 5.67301 0.898583 5.67779H0.880287C0.653572 5.67779 0.418902 5.77643 0.259008 5.93712C0.105478 6.08985 -0.0082778 6.33805 0.000472611 6.5584C0.010814 6.78432 0.0847948 7.02058 0.259008 7.17968C0.432425 7.33877 0.644026 7.43901 0.880287 7.43821H8.99988L7.98642 8.45087L7.63242 8.80487C7.47333 8.96396 7.37469 9.20261 7.37389 9.42694C7.37389 9.64252 7.46935 9.90026 7.63242 10.0482C7.79948 10.201 8.01903 10.3163 8.2545 10.3068C8.48675 10.3019 8.70861 10.2095 8.87578 10.0482L9.84469 9.07931L11.3887 7.53526L11.7427 7.18127C11.8334 7.09138 11.8971 6.98398 11.9392 6.86943C11.9806 6.77075 12.0012 6.6646 11.9997 6.5576L11.9989 6.5584Z" fill="#37003C"/>
</g>
<defs>
<clipPath id="clip0_2388_2410">
<rect width="12" height="12" fill="white" transform="translate(0 0.559982)"/>
</clipPath>
</defs>
</svg>
