<svg width="12" height="13" viewBox="0 0 12 13" fill="none" xmlns="http://www.w3.org/2000/svg">
<g clip-path="url(#clip0_2388_2374)">
<path d="M11.9989 6.95842C11.9885 6.73171 11.9146 6.49624 11.7403 6.33635L10.7738 5.36903L9.22977 3.82577L8.87578 3.47098C8.70885 3.30881 8.4864 3.21636 8.2537 3.21245C8.03813 3.21245 7.78039 3.30791 7.63242 3.47098C7.47969 3.63883 7.36514 3.85839 7.37389 4.09306C7.38344 4.32693 7.46299 4.54569 7.63242 4.71434L8.60133 5.68325L8.9951 6.07781H2.13955C1.72669 6.07781 1.31144 6.07304 0.898583 6.07781H0.880287C0.653572 6.07781 0.418902 6.17645 0.259008 6.33714C0.105478 6.48988 -0.0082778 6.73807 0.000472611 6.95842C0.010814 7.18434 0.0847948 7.4206 0.259008 7.5797C0.432425 7.7388 0.644026 7.83903 0.880287 7.83824H8.99988L7.98642 8.8509L7.63242 9.20489C7.47333 9.36399 7.37469 9.60264 7.37389 9.82697C7.37389 10.0425 7.46935 10.3003 7.63242 10.4482C7.79948 10.601 8.01903 10.7163 8.2545 10.7068C8.48675 10.7019 8.70861 10.6096 8.87578 10.4482L9.84469 9.47934L11.3887 7.93529L11.7427 7.58129C11.8334 7.4914 11.8971 7.38401 11.9392 7.26946C11.9806 7.17078 12.0012 7.06462 11.9997 6.95763L11.9989 6.95842Z" fill="#37003C"/>
</g>
<defs>
<clipPath id="clip0_2388_2374">
<rect width="12" height="12" fill="white" transform="translate(0 0.960007)"/>
</clipPath>
</defs>
</svg>
