<svg width="12" height="13" viewBox="0 0 12 13" fill="none" xmlns="http://www.w3.org/2000/svg">
<g clip-path="url(#clip0_2388_6331)">
<path d="M11.9989 6.15839C11.9885 5.93167 11.9146 5.69621 11.7403 5.53631L10.7738 4.56899L9.22977 3.02574L8.87578 2.67095C8.70885 2.50878 8.4864 2.41633 8.2537 2.41241C8.03813 2.41241 7.78039 2.50787 7.63242 2.67095C7.47969 2.8388 7.36514 3.05835 7.37389 3.29302C7.38344 3.5269 7.46299 3.74566 7.63242 3.9143L8.60133 4.88321L8.9951 5.27778H2.13955C1.72669 5.27778 1.31144 5.273 0.898583 5.27778H0.880287C0.653572 5.27778 0.418902 5.37642 0.259008 5.53711C0.105478 5.68984 -0.0082778 5.93804 0.000472611 6.15839C0.010814 6.38431 0.0847948 6.62057 0.259008 6.77967C0.432425 6.93877 0.644026 7.039 0.880287 7.0382H8.99988L7.98642 8.05086L7.63242 8.40486C7.47333 8.56396 7.37469 8.8026 7.37389 9.02693C7.37389 9.24251 7.46935 9.50025 7.63242 9.64821C7.79948 9.80095 8.01903 9.91629 8.2545 9.90675C8.48675 9.90184 8.70861 9.80952 8.87578 9.64821L9.84469 8.6793L11.3887 7.13525L11.7427 6.78126C11.8334 6.69137 11.8971 6.58398 11.9392 6.46942C11.9806 6.37074 12.0012 6.26459 11.9997 6.15759L11.9989 6.15839Z" fill="#37003C"/>
</g>
<defs>
<clipPath id="clip0_2388_6331">
<rect width="12" height="12" fill="white" transform="translate(0 0.159973)"/>
</clipPath>
</defs>
</svg>
