<svg width="12" height="13" viewBox="0 0 12 13" fill="none" xmlns="http://www.w3.org/2000/svg">
<g clip-path="url(#clip0_2388_2320)">
<path d="M11.9989 6.75842C11.9885 6.53171 11.9146 6.29624 11.7403 6.13635L10.7738 5.16903L9.22977 3.62578L8.87578 3.27099C8.70885 3.10882 8.4864 3.01636 8.2537 3.01245C8.03813 3.01245 7.78039 3.10791 7.63242 3.27099C7.47969 3.43883 7.36514 3.65839 7.37389 3.89306C7.38344 4.12694 7.46299 4.3457 7.63242 4.51434L8.60133 5.48325L8.9951 5.87781H2.13955C1.72669 5.87781 1.31144 5.87304 0.898583 5.87781H0.880287C0.653572 5.87781 0.418902 5.97646 0.259008 6.13714C0.105478 6.28988 -0.0082778 6.53807 0.000472611 6.75842C0.010814 6.98434 0.0847948 7.2206 0.259008 7.3797C0.432425 7.5388 0.644026 7.63903 0.880287 7.63824H8.99988L7.98642 8.6509L7.63242 9.00489C7.47333 9.16399 7.37469 9.40264 7.37389 9.62697C7.37389 9.84255 7.46935 10.1003 7.63242 10.2482C7.79948 10.401 8.01903 10.5163 8.2545 10.5068C8.48675 10.5019 8.70861 10.4096 8.87578 10.2482L9.84469 9.27934L11.3887 7.73529L11.7427 7.38129C11.8334 7.2914 11.8971 7.18401 11.9392 7.06946C11.9806 6.97078 12.0012 6.86462 11.9997 6.75763L11.9989 6.75842Z" fill="#37003C"/>
</g>
<defs>
<clipPath id="clip0_2388_2320">
<rect width="12" height="12" fill="white" transform="translate(0 0.76001)"/>
</clipPath>
</defs>
</svg>
