<svg width="12" height="13" viewBox="0 0 12 13" fill="none" xmlns="http://www.w3.org/2000/svg">
<g clip-path="url(#clip0_2388_10348)">
<path d="M11.9989 6.55841C11.9885 6.3317 11.9146 6.09623 11.7403 5.93634L10.7738 4.96902L9.22977 3.42576L8.87578 3.07097C8.70885 2.90881 8.4864 2.81635 8.2537 2.81244C8.03813 2.81244 7.78039 2.9079 7.63242 3.07097C7.47969 3.23882 7.36514 3.45838 7.37389 3.69305C7.38344 3.92692 7.46299 4.14568 7.63242 4.31433L8.60133 5.28324L8.9951 5.6778H2.13955C1.72669 5.6778 1.31144 5.67303 0.898583 5.6778H0.880287C0.653572 5.6778 0.418902 5.77644 0.259008 5.93713C0.105478 6.08987 -0.0082778 6.33806 0.000472611 6.55841C0.010814 6.78433 0.0847948 7.02059 0.259008 7.17969C0.432425 7.33879 0.644026 7.43902 0.880287 7.43823H8.99988L7.98642 8.45089L7.63242 8.80488C7.47333 8.96398 7.37469 9.20263 7.37389 9.42696C7.37389 9.64253 7.46935 9.90027 7.63242 10.0482C7.79948 10.201 8.01903 10.3163 8.2545 10.3068C8.48675 10.3019 8.70861 10.2095 8.87578 10.0482L9.84469 9.07933L11.3887 7.53528L11.7427 7.18128C11.8334 7.09139 11.8971 6.984 11.9392 6.86945C11.9806 6.77077 12.0012 6.66461 11.9997 6.55762L11.9989 6.55841Z" fill="#37003C"/>
</g>
<defs>
<clipPath id="clip0_2388_10348">
<rect width="12" height="12" fill="white" transform="translate(0 0.559998)"/>
</clipPath>
</defs>
</svg>
