<svg width="56" height="37" viewBox="0 0 56 37" fill="none" xmlns="http://www.w3.org/2000/svg">
<g clip-path="url(#clip0_2388_13762)">
<g clip-path="url(#clip1_2388_13762)">
<path fill-rule="evenodd" clip-rule="evenodd" d="M24.3334 16.0773C24.4971 16.0773 24.6332 16.1952 24.6614 16.3507L24.6667 16.4106V25.0773C24.6667 25.241 24.5488 25.377 24.3933 25.4053L24.3334 25.4106H21.0001C20.8364 25.4106 20.7003 25.2927 20.6721 25.1372L20.6667 25.0773V16.4106C20.6667 16.247 20.7847 16.1109 20.9402 16.0827L21.0001 16.0773H24.3334ZM31.6601 16.0706C33.8621 16.0706 35.2698 17.7176 35.3313 20.4525L35.3334 20.6406V25.0773C35.3334 25.241 35.2155 25.377 35.06 25.4053L35.0001 25.4106H31.6667C31.5031 25.4106 31.367 25.2927 31.3388 25.1372L31.3334 25.0773V20.4106C31.3334 19.8584 30.8857 19.4106 30.3334 19.4106C29.8136 19.4106 29.3864 19.8072 29.338 20.3143L29.3334 20.4106V25.0773C29.3334 25.241 29.2155 25.377 29.06 25.4053L29.0001 25.4106H25.6667C25.5031 25.4106 25.367 25.2927 25.3388 25.1372L25.3334 25.0773V16.4106C25.3334 16.247 25.4513 16.1109 25.6068 16.0827L25.6667 16.0773H29.0001C29.1637 16.0773 29.2998 16.1952 29.328 16.3507L29.3334 16.4106V16.748L29.4239 16.6932C29.9797 16.3674 30.5999 16.163 31.2433 16.0952L31.4585 16.0777L31.6601 16.0706ZM24.0001 16.744H21.3334V24.744H24.0001V16.744ZM31.6647 16.7373C30.7666 16.7498 29.9008 17.0742 29.2156 17.6549C29.0135 17.8263 28.7105 17.7036 28.671 17.4556L28.6667 17.4006V16.7433H26.0001V24.744H28.6667V20.4106C28.6667 19.5638 29.2983 18.8645 30.1161 18.758L30.2238 18.7475L30.3334 18.744C31.2171 18.744 31.9401 19.4317 31.9965 20.3011L32.0001 20.4106V24.744H34.6667V20.6406C34.6667 18.2631 33.6266 16.8819 31.9362 16.748L31.7977 16.7399L31.6647 16.7373ZM22.6667 11.4106C23.1972 11.4106 23.7059 11.6214 24.081 11.9964C24.456 12.3715 24.6667 12.8802 24.6667 13.4106C24.6667 14.5152 23.7713 15.4106 22.6667 15.4106C21.5622 15.4106 20.6667 14.5152 20.6667 13.4106C20.6667 12.3061 21.5622 11.4106 22.6667 11.4106ZM22.6667 12.0773C21.9304 12.0773 21.3334 12.6743 21.3334 13.4106C21.3334 14.147 21.9304 14.744 22.6667 14.744C23.4031 14.744 24.0001 14.147 24.0001 13.4106C24.0001 13.057 23.8596 12.7179 23.6096 12.4678C23.3595 12.2178 23.0204 12.0773 22.6667 12.0773Z" fill="#C9CCCF"/>
</g>
</g>
<defs>
<clipPath id="clip0_2388_13762">
<rect width="16" height="16" fill="white" transform="translate(20 10.7439)"/>
</clipPath>
<clipPath id="clip1_2388_13762">
<rect width="16" height="16" fill="white" transform="translate(20 10.7439)"/>
</clipPath>
</defs>
</svg>
