<svg width="56" height="37" viewBox="0 0 56 37" fill="none" xmlns="http://www.w3.org/2000/svg">
<g clip-path="url(#clip0_2388_7382)">
<g clip-path="url(#clip1_2388_7382)">
<path fill-rule="evenodd" clip-rule="evenodd" d="M24.3337 15.5573C24.4973 15.5573 24.6334 15.6752 24.6616 15.8307L24.667 15.8906V24.5573C24.667 24.7209 24.5491 24.857 24.3936 24.8853L24.3337 24.8906H21.0003C20.8367 24.8906 20.7006 24.7727 20.6724 24.6172L20.667 24.5573V15.8906C20.667 15.727 20.7849 15.5909 20.9404 15.5627L21.0003 15.5573H24.3337ZM31.6603 15.5506C33.8624 15.5506 35.2701 17.1976 35.3316 19.9325L35.3337 20.1206V24.5573C35.3337 24.7209 35.2157 24.857 35.0602 24.8853L35.0003 24.8906H31.667C31.5034 24.8906 31.3673 24.7727 31.339 24.6172L31.3337 24.5573V19.8906C31.3337 19.3383 30.8859 18.8906 30.3337 18.8906C29.8139 18.8906 29.3867 19.2872 29.3382 19.7943L29.3337 19.8906V24.5573C29.3337 24.7209 29.2157 24.857 29.0602 24.8853L29.0003 24.8906H25.667C25.5034 24.8906 25.3673 24.7727 25.339 24.6172L25.3337 24.5573V15.8906C25.3337 15.727 25.4516 15.5909 25.6071 15.5627L25.667 15.5573H29.0003C29.164 15.5573 29.3001 15.6752 29.3283 15.8307L29.3337 15.8906V16.228L29.4242 16.1731C29.9799 15.8474 30.6001 15.6429 31.2435 15.5752L31.4588 15.5577L31.6603 15.5506ZM24.0003 16.224H21.3337V24.224H24.0003V16.224ZM31.665 16.2173C30.7669 16.2298 29.901 16.5542 29.2158 17.1349C29.0137 17.3062 28.7108 17.1836 28.6713 16.9356L28.667 16.8806V16.2233H26.0003V24.224H28.667V19.8906C28.667 19.0438 29.2986 18.3445 30.1164 18.238L30.2241 18.2275L30.3337 18.224C31.2173 18.224 31.9404 18.9116 31.9968 19.781L32.0003 19.8906V24.224H34.667V20.1206C34.667 17.7431 33.6268 16.3619 31.9364 16.228L31.7979 16.2199L31.665 16.2173ZM22.667 10.8906C23.1974 10.8906 23.7061 11.1013 24.0812 11.4764C24.4563 11.8515 24.667 12.3602 24.667 12.8906C24.667 13.9952 23.7716 14.8906 22.667 14.8906C21.5624 14.8906 20.667 13.9952 20.667 12.8906C20.667 11.7861 21.5624 10.8906 22.667 10.8906ZM22.667 11.5573C21.9306 11.5573 21.3337 12.1542 21.3337 12.8906C21.3337 13.627 21.9306 14.224 22.667 14.224C23.4034 14.224 24.0003 13.627 24.0003 12.8906C24.0003 12.537 23.8598 12.1979 23.6098 11.9478C23.3598 11.6978 23.0206 11.5573 22.667 11.5573Z" fill="#C9CCCF"/>
</g>
</g>
<defs>
<clipPath id="clip0_2388_7382">
<rect width="16" height="16" fill="white" transform="translate(20 10.2239)"/>
</clipPath>
<clipPath id="clip1_2388_7382">
<rect width="16" height="16" fill="white" transform="translate(20 10.2239)"/>
</clipPath>
</defs>
</svg>
