<svg width="56" height="37" viewBox="0 0 56 37" fill="none" xmlns="http://www.w3.org/2000/svg">
<g clip-path="url(#clip0_2388_3398)">
<g clip-path="url(#clip1_2388_3398)">
<path fill-rule="evenodd" clip-rule="evenodd" d="M24.3327 15.5573C24.4963 15.5573 24.6324 15.6752 24.6606 15.8307L24.666 15.8907V24.5573C24.666 24.721 24.5481 24.8571 24.3926 24.8853L24.3327 24.8907H20.9993C20.8357 24.8907 20.6996 24.7727 20.6714 24.6172L20.666 24.5573V15.8907C20.666 15.727 20.7839 15.5909 20.9394 15.5627L20.9993 15.5573H24.3327ZM31.6593 15.5507C33.8614 15.5507 35.2691 17.1976 35.3306 19.9325L35.3327 20.1207V24.5573C35.3327 24.721 35.2148 24.8571 35.0593 24.8853L34.9993 24.8907H31.666C31.5024 24.8907 31.3663 24.7727 31.3381 24.6172L31.3327 24.5573V19.8907C31.3327 19.3384 30.885 18.8907 30.3327 18.8907C29.8129 18.8907 29.3857 19.2872 29.3373 19.7943L29.3327 19.8907V24.5573C29.3327 24.721 29.2148 24.8571 29.0593 24.8853L28.9993 24.8907H25.666C25.5024 24.8907 25.3663 24.7727 25.3381 24.6172L25.3327 24.5573V15.8907C25.3327 15.727 25.4506 15.5909 25.6061 15.5627L25.666 15.5573H28.9993C29.163 15.5573 29.2991 15.6752 29.3273 15.8307L29.3327 15.8907V16.228L29.4232 16.1732C29.979 15.8474 30.5991 15.643 31.2425 15.5752L31.4578 15.5577L31.6593 15.5507ZM23.9993 16.224H21.3327V24.224H23.9993V16.224ZM31.664 16.2173C30.7659 16.2298 29.9001 16.5542 29.2149 17.1349C29.0127 17.3063 28.7098 17.1836 28.6703 16.9356L28.666 16.8807V16.2233H25.9993V24.224H28.666V19.8907C28.666 19.0438 29.2976 18.3445 30.1154 18.238L30.2231 18.2275L30.3327 18.224C31.2163 18.224 31.9394 18.9117 31.9958 19.7811L31.9993 19.8907V24.224H34.666V20.1207C34.666 17.7431 33.6259 16.3619 31.9355 16.2281L31.797 16.2199L31.664 16.2173ZM22.666 10.8907C23.1964 10.8907 23.7052 11.1014 24.0802 11.4764C24.4553 11.8515 24.666 12.3602 24.666 12.8907C24.666 13.9952 23.7706 14.8907 22.666 14.8907C21.5614 14.8907 20.666 13.9952 20.666 12.8907C20.666 11.7861 21.5614 10.8907 22.666 10.8907ZM22.666 11.5573C21.9296 11.5573 21.3327 12.1543 21.3327 12.8907C21.3327 13.627 21.9296 14.224 22.666 14.224C23.4024 14.224 23.9993 13.627 23.9993 12.8907C23.9993 12.537 23.8589 12.1979 23.6088 11.9478C23.3588 11.6978 23.0196 11.5573 22.666 11.5573Z" fill="#C9CCCF"/>
</g>
</g>
<defs>
<clipPath id="clip0_2388_3398">
<rect width="16" height="16" fill="white" transform="translate(20 10.224)"/>
</clipPath>
<clipPath id="clip1_2388_3398">
<rect width="16" height="16" fill="white" transform="translate(20 10.224)"/>
</clipPath>
</defs>
</svg>
