<svg width="56" height="37" viewBox="0 0 56 37" fill="none" xmlns="http://www.w3.org/2000/svg">
<g clip-path="url(#clip0_2388_12490)">
<g clip-path="url(#clip1_2388_12490)">
<path fill-rule="evenodd" clip-rule="evenodd" d="M24.3333 15.5574C24.4969 15.5574 24.633 15.6753 24.6613 15.8308L24.6666 15.8907V24.5574C24.6666 24.7211 24.5487 24.8572 24.3932 24.8854L24.3333 24.8907H21C20.8363 24.8907 20.7002 24.7728 20.672 24.6173L20.6666 24.5574V15.8907C20.6666 15.7271 20.7845 15.591 20.94 15.5628L21 15.5574H24.3333ZM31.66 15.5507C33.862 15.5507 35.2697 17.1977 35.3312 19.9326L35.3333 20.1207V24.5574C35.3333 24.7211 35.2154 24.8572 35.0599 24.8854L35 24.8907H31.6666C31.503 24.8907 31.3669 24.7728 31.3387 24.6173L31.3333 24.5574V19.8907C31.3333 19.3385 30.8856 18.8907 30.3333 18.8907C29.8135 18.8907 29.3863 19.2873 29.3379 19.7944L29.3333 19.8907V24.5574C29.3333 24.7211 29.2154 24.8572 29.0599 24.8854L29 24.8907H25.6666C25.503 24.8907 25.3669 24.7728 25.3387 24.6173L25.3333 24.5574V15.8907C25.3333 15.7271 25.4512 15.591 25.6067 15.5628L25.6666 15.5574H29C29.1636 15.5574 29.2997 15.6753 29.3279 15.8308L29.3333 15.8907V16.2281L29.4238 16.1733C29.9796 15.8475 30.5997 15.6431 31.2431 15.5753L31.4584 15.5578L31.66 15.5507ZM24 16.2241H21.3333V24.2241H24V16.2241ZM31.6646 16.2174C30.7665 16.2299 29.9007 16.5543 29.2155 17.135C29.0133 17.3064 28.7104 17.1837 28.6709 16.9357L28.6666 16.8807V16.2234H26V24.2241H28.6666V19.8907C28.6666 19.0439 29.2982 18.3446 30.116 18.2381L30.2237 18.2276L30.3333 18.2241C31.2169 18.2241 31.94 18.9118 31.9964 19.7812L32 19.8907V24.2241H34.6666V20.1207C34.6666 17.7432 33.6265 16.362 31.9361 16.2281L31.7976 16.22L31.6646 16.2174ZM22.6666 10.8907C23.1971 10.8907 23.7058 11.1015 24.0808 11.4765C24.4559 11.8516 24.6666 12.3603 24.6666 12.8907C24.6666 13.9953 23.7712 14.8907 22.6666 14.8907C21.5621 14.8907 20.6666 13.9953 20.6666 12.8907C20.6666 11.7862 21.5621 10.8907 22.6666 10.8907ZM22.6666 11.5574C21.9302 11.5574 21.3333 12.1544 21.3333 12.8907C21.3333 13.6271 21.9302 14.2241 22.6666 14.2241C23.403 14.2241 24 13.6271 24 12.8907C24 12.5371 23.8595 12.198 23.6094 11.9479C23.3594 11.6979 23.0202 11.5574 22.6666 11.5574Z" fill="#C9CCCF"/>
</g>
</g>
<defs>
<clipPath id="clip0_2388_12490">
<rect width="16" height="16" fill="white" transform="translate(20 10.2241)"/>
</clipPath>
<clipPath id="clip1_2388_12490">
<rect width="16" height="16" fill="white" transform="translate(20 10.2241)"/>
</clipPath>
</defs>
</svg>
