<svg width="56" height="37" viewBox="0 0 56 37" fill="none" xmlns="http://www.w3.org/2000/svg">
<g clip-path="url(#clip0_2388_11881)">
<g clip-path="url(#clip1_2388_11881)">
<path fill-rule="evenodd" clip-rule="evenodd" d="M33.3747 12.5679C34.0711 12.5679 34.739 12.8446 35.2313 13.3371C35.6885 13.7944 35.9596 14.403 35.9958 15.0451L36 15.1939V21.2743C36.0004 21.9709 35.724 22.639 35.2316 23.1317C34.7744 23.5892 34.1657 23.8606 33.5234 23.897L33.3747 23.9012H22.6246C21.9282 23.901 21.2604 23.6241 20.7681 23.1315C20.3111 22.674 20.0402 22.0653 20.0041 21.4232L20 21.2745V15.194C19.9998 14.4977 20.2762 13.8298 20.7684 13.3374C21.2254 12.88 21.8338 12.6087 22.4759 12.5721L22.6246 12.5679H33.3747ZM22.6248 13.2345C22.1053 13.2347 21.6072 13.4412 21.2399 13.8086C20.9061 14.1426 20.7053 14.5848 20.6717 15.0528L20.6667 15.1939V21.2747C20.6664 21.7943 20.8725 22.2927 21.2397 22.6603C21.5736 22.9944 22.0157 23.1955 22.4836 23.2294L22.6247 23.2345H33.3747C33.8943 23.2345 34.3927 23.028 34.7601 22.6605C35.094 22.3263 35.2948 21.884 35.3283 21.4157L35.3333 21.2745V15.1938C35.3335 14.6742 35.1272 14.1759 34.7599 13.8084C34.4259 13.4744 33.9838 13.2734 33.5158 13.2396L33.3747 13.2345H22.6248ZM26.4645 14.7805L26.513 14.8064L31.0257 17.6938C31.212 17.813 31.2289 18.0712 31.0764 18.2157L31.0256 18.2554L26.5129 21.1414C26.3069 21.2731 26.0412 21.1451 26.0043 20.9153L26 20.8605V15.0872C26 14.863 26.2109 14.7142 26.4105 14.7624L26.4645 14.7805ZM26.6667 15.6965V20.2512L30.2267 17.9739L26.6667 15.6965Z" fill="#C9CCCF"/>
</g>
</g>
<defs>
<clipPath id="clip0_2388_11881">
<rect width="16" height="16" fill="white" transform="translate(20 10.5679)"/>
</clipPath>
<clipPath id="clip1_2388_11881">
<rect width="16" height="16" fill="white" transform="translate(20 10.5679)"/>
</clipPath>
</defs>
</svg>
