<svg width="56" height="37" viewBox="0 0 56 37" fill="none" xmlns="http://www.w3.org/2000/svg">
<g clip-path="url(#clip0_2388_2246)">
<g clip-path="url(#clip1_2388_2246)">
<path fill-rule="evenodd" clip-rule="evenodd" d="M30.6667 11.528C33.0599 11.528 35 13.4681 35 15.8613V21.1946C35 23.5879 33.0599 25.528 30.6667 25.528H25.3333C22.9401 25.528 21 23.5879 21 21.1946V15.8613C21 13.4681 22.9401 11.528 25.3333 11.528H30.6667ZM30.6667 12.1946H25.3333C23.3083 12.1946 21.6667 13.8362 21.6667 15.8613V21.1946C21.6667 23.2197 23.3083 24.8613 25.3333 24.8613H30.6667C32.6917 24.8613 34.3333 23.2197 34.3333 21.1946V15.8613C34.3333 13.8362 32.6917 12.1946 30.6667 12.1946ZM28 14.8613C30.025 14.8613 31.6667 16.5029 31.6667 18.528C31.6667 20.553 30.025 22.1946 28 22.1946C25.975 22.1946 24.3333 20.553 24.3333 18.528C24.3333 16.5029 25.975 14.8613 28 14.8613ZM28 15.528C26.3431 15.528 25 16.8711 25 18.528C25 20.1848 26.3431 21.528 28 21.528C29.6569 21.528 31 20.1848 31 18.528C31 16.8711 29.6569 15.528 28 15.528ZM32 13.1946C32.7364 13.1946 33.3333 13.7916 33.3333 14.528C33.3333 15.2643 32.7364 15.8613 32 15.8613C31.2636 15.8613 30.6667 15.2643 30.6667 14.528C30.6667 13.7916 31.2636 13.1946 32 13.1946ZM32 13.8613C31.6318 13.8613 31.3333 14.1598 31.3333 14.528C31.3333 14.8961 31.6318 15.1946 32 15.1946C32.3682 15.1946 32.6667 14.8961 32.6667 14.528C32.6667 14.1598 32.3682 13.8613 32 13.8613Z" fill="#C9CCCF"/>
</g>
</g>
<defs>
<clipPath id="clip0_2388_2246">
<rect width="16" height="16" fill="white" transform="translate(20 10.528)"/>
</clipPath>
<clipPath id="clip1_2388_2246">
<rect width="16" height="16" fill="white" transform="translate(20 10.528)"/>
</clipPath>
</defs>
</svg>
