<svg width="56" height="37" viewBox="0 0 56 37" fill="none" xmlns="http://www.w3.org/2000/svg">
<g clip-path="url(#clip0_2370_46954)">
<g clip-path="url(#clip1_2370_46954)">
<path fill-rule="evenodd" clip-rule="evenodd" d="M28.9188 11.304L28.7456 11.3069C26.6997 11.3769 25.7933 12.6953 25.7933 14.4518L25.7927 15.3613L24.3333 15.3619C24.1492 15.3619 24 15.5112 24 15.6953V18.0141L24.0054 18.074C24.0336 18.2295 24.1697 18.3474 24.3333 18.3474L25.7927 18.3473L25.7933 24.9706C25.7933 25.1547 25.9425 25.304 26.1266 25.304H29.1154L29.1753 25.2986C29.3308 25.2704 29.4488 25.1343 29.4488 24.9706L29.4487 18.3473L31.4174 18.3474C31.5877 18.3474 31.7306 18.2191 31.7488 18.0497L31.9981 15.7309L31.9993 15.6727C31.988 15.5012 31.845 15.3619 31.6667 15.3619L29.4487 15.3613L29.4488 14.5938C29.4366 14.483 29.4581 14.4168 29.5055 14.3668C29.5553 14.3144 29.6283 14.2854 29.7042 14.2891L31.5052 14.2953C31.6898 14.2959 31.8398 14.1465 31.8398 13.9619V11.6373C31.8398 11.4532 31.6906 11.304 31.5065 11.304H28.9188ZM31.1727 11.9706V13.6266L29.721 13.6228C29.4676 13.6101 29.2059 13.714 29.0219 13.908C28.8355 14.1044 28.7483 14.3728 28.7852 14.6395L28.7821 15.6953L28.7875 15.7552C28.8157 15.9107 28.9518 16.0286 29.1154 16.0286L31.2953 16.028L31.1173 17.6806L29.1154 17.6808L29.0555 17.6861C28.9 17.7144 28.7821 17.8505 28.7821 18.0141L28.782 24.6373H26.4593L26.4599 18.0141L26.4546 17.9542C26.4264 17.7987 26.2903 17.6808 26.1266 17.6808L24.6667 17.6806V16.028L26.1266 16.0286C26.3107 16.0286 26.4599 15.8794 26.4599 15.6953V14.4518C26.4599 12.9757 27.1768 11.9706 28.9188 11.9706H31.1727Z" fill="#C9CCCF"/>
</g>
</g>
<defs>
<clipPath id="clip0_2370_46954">
<rect width="16" height="16" fill="white" transform="translate(20 10.304)"/>
</clipPath>
<clipPath id="clip1_2370_46954">
<rect width="16" height="16" fill="white" transform="translate(20 10.304)"/>
</clipPath>
</defs>
</svg>
