<svg width="56" height="37" viewBox="0 0 56 37" fill="none" xmlns="http://www.w3.org/2000/svg">
<g clip-path="url(#clip0_2388_7189)">
<g clip-path="url(#clip1_2388_7189)">
<path fill-rule="evenodd" clip-rule="evenodd" d="M28.9188 11.5679L28.7456 11.5708C26.6997 11.6408 25.7933 12.9592 25.7933 14.7157L25.7927 15.6252L24.3333 15.6258C24.1492 15.6258 24 15.7751 24 15.9592V18.278L24.0054 18.3379C24.0336 18.4934 24.1697 18.6113 24.3333 18.6113L25.7927 18.6112L25.7933 25.2345C25.7933 25.4186 25.9425 25.5679 26.1266 25.5679H29.1154L29.1753 25.5625C29.3308 25.5343 29.4488 25.3982 29.4488 25.2345L29.4487 18.6112L31.4174 18.6113C31.5877 18.6113 31.7306 18.483 31.7488 18.3136L31.9981 15.9948L31.9993 15.9366C31.988 15.7651 31.845 15.6258 31.6667 15.6258L29.4487 15.6252L29.4488 14.8577C29.4366 14.7469 29.4581 14.6807 29.5055 14.6307C29.5553 14.5783 29.6283 14.5493 29.7042 14.553L31.5052 14.5592C31.6898 14.5599 31.8398 14.4104 31.8398 14.2258V11.9012C31.8398 11.7171 31.6906 11.5679 31.5065 11.5679H28.9188ZM31.1727 12.2345V13.8905L29.721 13.8867C29.4676 13.874 29.2059 13.9779 29.0219 14.1719C28.8355 14.3683 28.7483 14.6367 28.7852 14.9034L28.7821 15.9592L28.7875 16.0191C28.8157 16.1746 28.9518 16.2925 29.1154 16.2925L31.2953 16.2919L31.1173 17.9445L29.1154 17.9447L29.0555 17.9501C28.9 17.9783 28.7821 18.1144 28.7821 18.278L28.782 24.9012H26.4593L26.4599 18.278L26.4546 18.2181C26.4264 18.0626 26.2903 17.9447 26.1266 17.9447L24.6667 17.9445V16.2919L26.1266 16.2925C26.3107 16.2925 26.4599 16.1433 26.4599 15.9592V14.7157C26.4599 13.2396 27.1768 12.2345 28.9188 12.2345H31.1727Z" fill="#C9CCCF"/>
</g>
</g>
<defs>
<clipPath id="clip0_2388_7189">
<rect width="16" height="16" fill="white" transform="translate(20 10.5679)"/>
</clipPath>
<clipPath id="clip1_2388_7189">
<rect width="16" height="16" fill="white" transform="translate(20 10.5679)"/>
</clipPath>
</defs>
</svg>
