<svg width="56" height="37" viewBox="0 0 56 37" fill="none" xmlns="http://www.w3.org/2000/svg">
<g clip-path="url(#clip0_2388_2233)">
<g clip-path="url(#clip1_2388_2233)">
<path fill-rule="evenodd" clip-rule="evenodd" d="M24.3334 15.8612C24.4971 15.8612 24.6332 15.9792 24.6614 16.1347L24.6667 16.1946V24.8612C24.6667 25.0249 24.5488 25.161 24.3933 25.1892L24.3334 25.1946H21.0001C20.8364 25.1946 20.7003 25.0767 20.6721 24.9212L20.6667 24.8612V16.1946C20.6667 16.0309 20.7847 15.8948 20.9402 15.8666L21.0001 15.8612H24.3334ZM31.6601 15.8546C33.8621 15.8546 35.2698 17.5015 35.3313 20.2364L35.3334 20.4246V24.8612C35.3334 25.0249 35.2155 25.161 35.06 25.1892L35.0001 25.1946H31.6667C31.5031 25.1946 31.367 25.0767 31.3388 24.9212L31.3334 24.8612V20.1946C31.3334 19.6423 30.8857 19.1946 30.3334 19.1946C29.8136 19.1946 29.3864 19.5912 29.338 20.0983L29.3334 20.1946V24.8612C29.3334 25.0249 29.2155 25.161 29.06 25.1892L29.0001 25.1946H25.6667C25.5031 25.1946 25.367 25.0767 25.3388 24.9212L25.3334 24.8612V16.1946C25.3334 16.0309 25.4513 15.8948 25.6068 15.8666L25.6667 15.8612H29.0001C29.1637 15.8612 29.2998 15.9792 29.328 16.1347L29.3334 16.1946V16.5319L29.4239 16.4771C29.9797 16.1514 30.5999 15.9469 31.2433 15.8791L31.4585 15.8616L31.6601 15.8546ZM24.0001 16.5279H21.3334V24.5279H24.0001V16.5279ZM31.6647 16.5212C30.7666 16.5337 29.9008 16.8581 29.2156 17.4389C29.0135 17.6102 28.7105 17.4875 28.671 17.2396L28.6667 17.1846V16.5272H26.0001V24.5279H28.6667V20.1946C28.6667 19.3477 29.2983 18.6484 30.1161 18.5419L30.2238 18.5315L30.3334 18.5279C31.2171 18.5279 31.9401 19.2156 31.9965 20.085L32.0001 20.1946V24.5279H34.6667V20.4246C34.6667 18.047 33.6266 16.6658 31.9362 16.532L31.7977 16.5239L31.6647 16.5212ZM22.6667 11.1946C23.1972 11.1946 23.7059 11.4053 24.081 11.7804C24.456 12.1554 24.6667 12.6641 24.6667 13.1946C24.6667 14.2991 23.7713 15.1946 22.6667 15.1946C21.5622 15.1946 20.6667 14.2991 20.6667 13.1946C20.6667 12.09 21.5622 11.1946 22.6667 11.1946ZM22.6667 11.8612C21.9304 11.8612 21.3334 12.4582 21.3334 13.1946C21.3334 13.931 21.9304 14.5279 22.6667 14.5279C23.4031 14.5279 24.0001 13.931 24.0001 13.1946C24.0001 12.841 23.8596 12.5018 23.6096 12.2518C23.3595 12.0017 23.0204 11.8612 22.6667 11.8612Z" fill="#C9CCCF"/>
</g>
</g>
<defs>
<clipPath id="clip0_2388_2233">
<rect width="16" height="16" fill="white" transform="translate(20 10.528)"/>
</clipPath>
<clipPath id="clip1_2388_2233">
<rect width="16" height="16" fill="white" transform="translate(20 10.528)"/>
</clipPath>
</defs>
</svg>
