<svg width="56" height="37" viewBox="0 0 56 37" fill="none" xmlns="http://www.w3.org/2000/svg">
<g clip-path="url(#clip0_2388_8172)">
<g clip-path="url(#clip1_2388_8172)">
<path fill-rule="evenodd" clip-rule="evenodd" d="M30.6667 11.2241C33.0599 11.2241 35 13.1642 35 15.5574V20.8907C35 23.284 33.0599 25.2241 30.6667 25.2241H25.3333C22.9401 25.2241 21 23.284 21 20.8907V15.5574C21 13.1642 22.9401 11.2241 25.3333 11.2241H30.6667ZM30.6667 11.8907H25.3333C23.3083 11.8907 21.6667 13.5323 21.6667 15.5574V20.8907C21.6667 22.9158 23.3083 24.5574 25.3333 24.5574H30.6667C32.6917 24.5574 34.3333 22.9158 34.3333 20.8907V15.5574C34.3333 13.5323 32.6917 11.8907 30.6667 11.8907ZM28 14.5574C30.025 14.5574 31.6667 16.199 31.6667 18.2241C31.6667 20.2491 30.025 21.8907 28 21.8907C25.975 21.8907 24.3333 20.2491 24.3333 18.2241C24.3333 16.199 25.975 14.5574 28 14.5574ZM28 15.2241C26.3431 15.2241 25 16.5672 25 18.2241C25 19.8809 26.3431 21.2241 28 21.2241C29.6569 21.2241 31 19.8809 31 18.2241C31 16.5672 29.6569 15.2241 28 15.2241ZM32 12.8907C32.7364 12.8907 33.3333 13.4877 33.3333 14.2241C33.3333 14.9604 32.7364 15.5574 32 15.5574C31.2636 15.5574 30.6667 14.9604 30.6667 14.2241C30.6667 13.4877 31.2636 12.8907 32 12.8907ZM32 13.5574C31.6318 13.5574 31.3333 13.8559 31.3333 14.2241C31.3333 14.5923 31.6318 14.8907 32 14.8907C32.3682 14.8907 32.6667 14.5923 32.6667 14.2241C32.6667 13.8559 32.3682 13.5574 32 13.5574Z" fill="#C9CCCF"/>
</g>
</g>
<defs>
<clipPath id="clip0_2388_8172">
<rect width="16" height="16" fill="white" transform="translate(20 10.2241)"/>
</clipPath>
<clipPath id="clip1_2388_8172">
<rect width="16" height="16" fill="white" transform="translate(20 10.2241)"/>
</clipPath>
</defs>
</svg>
