<svg width="56" height="37" viewBox="0 0 56 37" fill="none" xmlns="http://www.w3.org/2000/svg">
<g clip-path="url(#clip0_2388_2782)">
<g clip-path="url(#clip1_2388_2782)">
<path fill-rule="evenodd" clip-rule="evenodd" d="M28.9188 11.3281L28.7456 11.331C26.6997 11.401 25.7933 12.7195 25.7933 14.476L25.7927 15.3855L24.3333 15.3861C24.1492 15.3861 24 15.5353 24 15.7194V18.0383L24.0054 18.0982C24.0336 18.2537 24.1697 18.3716 24.3333 18.3716L25.7927 18.3715L25.7933 24.9948C25.7933 25.1789 25.9425 25.3281 26.1266 25.3281H29.1154L29.1753 25.3228C29.3308 25.2945 29.4488 25.1584 29.4488 24.9948L29.4487 18.3715L31.4174 18.3716C31.5877 18.3716 31.7306 18.2432 31.7488 18.0739L31.9981 15.7551L31.9993 15.6968C31.988 15.5253 31.845 15.3861 31.6667 15.3861L29.4487 15.3855L29.4488 14.618C29.4366 14.5071 29.4581 14.441 29.5055 14.391C29.5553 14.3385 29.6283 14.3096 29.7042 14.3132L31.5052 14.3194C31.6898 14.3201 31.8398 14.1707 31.8398 13.9861V11.6615C31.8398 11.4774 31.6906 11.3281 31.5065 11.3281H28.9188ZM31.1727 11.9948V13.6508L29.721 13.647C29.4676 13.6343 29.2059 13.7382 29.0219 13.9322C28.8355 14.1286 28.7483 14.3969 28.7852 14.6636L28.7821 15.7194L28.7875 15.7793C28.8157 15.9348 28.9518 16.0528 29.1154 16.0528L31.2953 16.0521L31.1173 17.7048L29.1154 17.7049L29.0555 17.7103C28.9 17.7385 28.7821 17.8746 28.7821 18.0383L28.782 24.6615H26.4593L26.4599 18.0383L26.4546 17.9784C26.4264 17.8229 26.2903 17.7049 26.1266 17.7049L24.6667 17.7048V16.0521L26.1266 16.0528C26.3107 16.0528 26.4599 15.9035 26.4599 15.7194V14.476C26.4599 12.9999 27.1768 11.9948 28.9188 11.9948H31.1727Z" fill="#C9CCCF"/>
</g>
</g>
<defs>
<clipPath id="clip0_2388_2782">
<rect width="16" height="16" fill="white" transform="translate(20 10.3281)"/>
</clipPath>
<clipPath id="clip1_2388_2782">
<rect width="16" height="16" fill="white" transform="translate(20 10.3281)"/>
</clipPath>
</defs>
</svg>
