<svg width="56" height="37" viewBox="0 0 56 37" fill="none" xmlns="http://www.w3.org/2000/svg">
<g clip-path="url(#clip0_2388_1456)">
<g clip-path="url(#clip1_2388_1456)">
<path fill-rule="evenodd" clip-rule="evenodd" d="M33.3747 12.024C34.0711 12.024 34.739 12.3007 35.2313 12.7932C35.6885 13.2505 35.9596 13.8591 35.9958 14.5013L36 14.65V20.7305C36.0004 21.427 35.724 22.0952 35.2316 22.5878C34.7744 23.0453 34.1657 23.3167 33.5234 23.3531L33.3747 23.3573H22.6246C21.9282 23.3571 21.2604 23.0802 20.7681 22.5876C20.3111 22.1301 20.0402 21.5214 20.0041 20.8794L20 20.7307V14.6501C19.9998 13.9538 20.2762 13.286 20.7684 12.7935C21.2254 12.3362 21.8338 12.0648 22.4759 12.0282L22.6246 12.024H33.3747ZM22.6248 12.6907C22.1053 12.6908 21.6072 12.8973 21.2399 13.2647C20.9061 13.5988 20.7053 14.0409 20.6717 14.5089L20.6667 14.65V20.7308C20.6664 21.2504 20.8725 21.7488 21.2397 22.1164C21.5736 22.4505 22.0157 22.6516 22.4836 22.6855L22.6247 22.6907H33.3747C33.8943 22.6907 34.3927 22.4841 34.7601 22.1166C35.094 21.7824 35.2948 21.3401 35.3283 20.8718L35.3333 20.7307V14.6499C35.3335 14.1303 35.1272 13.632 34.7599 13.2645C34.4259 12.9305 33.9838 12.7295 33.5158 12.6957L33.3747 12.6907H22.6248ZM26.4645 14.2367L26.513 14.2625L31.0257 17.1499C31.212 17.2691 31.2289 17.5273 31.0764 17.6718L31.0256 17.7115L26.5129 20.5975C26.3069 20.7292 26.0412 20.6012 26.0043 20.3714L26 20.3167V14.5433C26 14.3191 26.2109 14.1703 26.4105 14.2185L26.4645 14.2367ZM26.6667 15.1527V19.7073L30.2267 17.43L26.6667 15.1527Z" fill="#C9CCCF"/>
</g>
</g>
<defs>
<clipPath id="clip0_2388_1456">
<rect width="16" height="16" fill="white" transform="translate(20 10.024)"/>
</clipPath>
<clipPath id="clip1_2388_1456">
<rect width="16" height="16" fill="white" transform="translate(20 10.024)"/>
</clipPath>
</defs>
</svg>
