<svg width="56" height="37" viewBox="0 0 56 37" fill="none" xmlns="http://www.w3.org/2000/svg">
<g clip-path="url(#clip0_2370_49959)">
<g clip-path="url(#clip1_2370_49959)">
<path fill-rule="evenodd" clip-rule="evenodd" d="M33.3747 12.304C34.0711 12.304 34.739 12.5807 35.2313 13.0732C35.6885 13.5305 35.9596 14.1391 35.9958 14.7812L36 14.93V21.0104C36.0004 21.707 35.724 22.3751 35.2316 22.8678C34.7744 23.3253 34.1657 23.5966 33.5234 23.6331L33.3747 23.6373H22.6246C21.9282 23.6371 21.2604 23.3602 20.7681 22.8675C20.3111 22.4101 20.0402 21.8014 20.0041 21.1593L20 21.0106V14.9301C19.9998 14.2338 20.2762 13.5659 20.7684 13.0734C21.2254 12.6161 21.8338 12.3448 22.4759 12.3082L22.6246 12.304H33.3747ZM22.6248 12.9706C22.1053 12.9708 21.6072 13.1773 21.2399 13.5447C20.9061 13.8787 20.7053 14.3209 20.6717 14.7889L20.6667 14.93V21.0108C20.6664 21.5304 20.8725 22.0288 21.2397 22.3963C21.5736 22.7305 22.0157 22.9316 22.4836 22.9655L22.6247 22.9706H33.3747C33.8943 22.9706 34.3927 22.7641 34.7601 22.3965C35.094 22.0624 35.2948 21.62 35.3283 21.1518L35.3333 21.0106V14.9299C35.3335 14.4103 35.1272 13.9119 34.7599 13.5445C34.4259 13.2105 33.9838 13.0095 33.5158 12.9757L33.3747 12.9706H22.6248ZM26.4645 14.5166L26.513 14.5425L31.0257 17.4298C31.212 17.549 31.2289 17.8073 31.0764 17.9518L31.0256 17.9914L26.5129 20.8774C26.3069 21.0092 26.0412 20.8812 26.0043 20.6514L26 20.5966V14.8233C26 14.5991 26.2109 14.4503 26.4105 14.4985L26.4645 14.5166ZM26.6667 15.4326V19.9873L30.2267 17.71L26.6667 15.4326Z" fill="#C9CCCF"/>
</g>
</g>
<defs>
<clipPath id="clip0_2370_49959">
<rect width="16" height="16" fill="white" transform="translate(20 10.304)"/>
</clipPath>
<clipPath id="clip1_2370_49959">
<rect width="16" height="16" fill="white" transform="translate(20 10.304)"/>
</clipPath>
</defs>
</svg>
