<svg width="56" height="37" viewBox="0 0 56 37" fill="none" xmlns="http://www.w3.org/2000/svg">
<g clip-path="url(#clip0_2388_2047)">
<g clip-path="url(#clip1_2388_2047)">
<path fill-rule="evenodd" clip-rule="evenodd" d="M24.3327 15.8614C24.4963 15.8614 24.6324 15.9793 24.6606 16.1348L24.666 16.1947V24.8614C24.666 25.025 24.5481 25.1611 24.3926 25.1893L24.3327 25.1947H20.9993C20.8357 25.1947 20.6996 25.0768 20.6714 24.9213L20.666 24.8614V16.1947C20.666 16.0311 20.7839 15.895 20.9394 15.8667L20.9993 15.8614H24.3327ZM31.6593 15.8547C33.8614 15.8547 35.2691 17.5017 35.3306 20.2366L35.3327 20.4247V24.8614C35.3327 25.025 35.2148 25.1611 35.0593 25.1893L34.9993 25.1947H31.666C31.5024 25.1947 31.3663 25.0768 31.3381 24.9213L31.3327 24.8614V20.1947C31.3327 19.6424 30.885 19.1947 30.3327 19.1947C29.8129 19.1947 29.3857 19.5913 29.3373 20.0984L29.3327 20.1947V24.8614C29.3327 25.025 29.2148 25.1611 29.0593 25.1893L28.9993 25.1947H25.666C25.5024 25.1947 25.3663 25.0768 25.3381 24.9213L25.3327 24.8614V16.1947C25.3327 16.0311 25.4506 15.895 25.6061 15.8667L25.666 15.8614H28.9993C29.163 15.8614 29.2991 15.9793 29.3273 16.1348L29.3327 16.1947V16.532L29.4232 16.4772C29.979 16.1515 30.5991 15.947 31.2425 15.8793L31.4578 15.8618L31.6593 15.8547ZM23.9993 16.528H21.3327V24.528H23.9993V16.528ZM31.664 16.5213C30.7659 16.5338 29.9001 16.8583 29.2149 17.439C29.0127 17.6103 28.7098 17.4876 28.6703 17.2397L28.666 17.1847V16.5274H25.9993V24.528H28.666V20.1947C28.666 19.3479 29.2976 18.6485 30.1154 18.5421L30.2231 18.5316L30.3327 18.528C31.2163 18.528 31.9394 19.2157 31.9958 20.0851L31.9993 20.1947V24.528H34.666V20.4247C34.666 18.0472 33.6259 16.6659 31.9355 16.5321L31.797 16.524L31.664 16.5213ZM22.666 11.1947C23.1964 11.1947 23.7052 11.4054 24.0802 11.7805C24.4553 12.1556 24.666 12.6643 24.666 13.1947C24.666 14.2993 23.7706 15.1947 22.666 15.1947C21.5614 15.1947 20.666 14.2993 20.666 13.1947C20.666 12.0901 21.5614 11.1947 22.666 11.1947ZM22.666 11.8614C21.9296 11.8614 21.3327 12.4583 21.3327 13.1947C21.3327 13.9311 21.9296 14.528 22.666 14.528C23.4024 14.528 23.9993 13.9311 23.9993 13.1947C23.9993 12.8411 23.8589 12.5019 23.6088 12.2519C23.3588 12.0018 23.0196 11.8614 22.666 11.8614Z" fill="#C9CCCF"/>
</g>
</g>
<defs>
<clipPath id="clip0_2388_2047">
<rect width="16" height="16" fill="white" transform="translate(20 10.5281)"/>
</clipPath>
<clipPath id="clip1_2388_2047">
<rect width="16" height="16" fill="white" transform="translate(20 10.5281)"/>
</clipPath>
</defs>
</svg>
