<svg width="56" height="37" viewBox="0 0 56 37" fill="none" xmlns="http://www.w3.org/2000/svg">
<g clip-path="url(#clip0_2388_6947)">
<g clip-path="url(#clip1_2388_6947)">
<path fill-rule="evenodd" clip-rule="evenodd" d="M24.3327 16.0293C24.4963 16.0293 24.6324 16.1472 24.6606 16.3027L24.666 16.3627V25.0293C24.666 25.193 24.5481 25.3291 24.3926 25.3573L24.3327 25.3627H20.9993C20.8357 25.3627 20.6996 25.2447 20.6714 25.0892L20.666 25.0293V16.3627C20.666 16.199 20.7839 16.0629 20.9394 16.0347L20.9993 16.0293H24.3327ZM31.6593 16.0227C33.8614 16.0227 35.2691 17.6696 35.3306 20.4045L35.3327 20.5927V25.0293C35.3327 25.193 35.2148 25.3291 35.0593 25.3573L34.9993 25.3627H31.666C31.5024 25.3627 31.3663 25.2447 31.3381 25.0892L31.3327 25.0293V20.3627C31.3327 19.8104 30.885 19.3627 30.3327 19.3627C29.8129 19.3627 29.3857 19.7592 29.3373 20.2663L29.3327 20.3627V25.0293C29.3327 25.193 29.2148 25.3291 29.0593 25.3573L28.9993 25.3627H25.666C25.5024 25.3627 25.3663 25.2447 25.3381 25.0892L25.3327 25.0293V16.3627C25.3327 16.199 25.4506 16.0629 25.6061 16.0347L25.666 16.0293H28.9993C29.163 16.0293 29.2991 16.1472 29.3273 16.3027L29.3327 16.3627V16.7L29.4232 16.6452C29.979 16.3194 30.5991 16.115 31.2425 16.0472L31.4578 16.0297L31.6593 16.0227ZM23.9993 16.696H21.3327V24.696H23.9993V16.696ZM31.664 16.6893C30.7659 16.7018 29.9001 17.0262 29.2149 17.6069C29.0127 17.7783 28.7098 17.6556 28.6703 17.4076L28.666 17.3527V16.6953H25.9993V24.696H28.666V20.3627C28.666 19.5158 29.2976 18.8165 30.1154 18.71L30.2231 18.6995L30.3327 18.696C31.2163 18.696 31.9394 19.3837 31.9958 20.2531L31.9993 20.3627V24.696H34.666V20.5927C34.666 18.2151 33.6259 16.8339 31.9355 16.7L31.797 16.6919L31.664 16.6893ZM22.666 11.3627C23.1964 11.3627 23.7052 11.5734 24.0802 11.9484C24.4553 12.3235 24.666 12.8322 24.666 13.3627C24.666 14.4672 23.7706 15.3627 22.666 15.3627C21.5614 15.3627 20.666 14.4672 20.666 13.3627C20.666 12.2581 21.5614 11.3627 22.666 11.3627ZM22.666 12.0293C21.9296 12.0293 21.3327 12.6263 21.3327 13.3627C21.3327 14.099 21.9296 14.696 22.666 14.696C23.4024 14.696 23.9993 14.099 23.9993 13.3627C23.9993 13.009 23.8589 12.6699 23.6088 12.4198C23.3588 12.1698 23.0196 12.0293 22.666 12.0293Z" fill="#C9CCCF"/>
</g>
</g>
<defs>
<clipPath id="clip0_2388_6947">
<rect width="16" height="16" fill="white" transform="translate(20 10.696)"/>
</clipPath>
<clipPath id="clip1_2388_6947">
<rect width="16" height="16" fill="white" transform="translate(20 10.696)"/>
</clipPath>
</defs>
</svg>
