<svg width="56" height="37" viewBox="0 0 56 37" fill="none" xmlns="http://www.w3.org/2000/svg">
<g clip-path="url(#clip0_2388_2022)">
<g clip-path="url(#clip1_2388_2022)">
<path fill-rule="evenodd" clip-rule="evenodd" d="M28.9188 11.5281L28.7456 11.531C26.6997 11.601 25.7933 12.9194 25.7933 14.6759L25.7927 15.5854L24.3333 15.586C24.1492 15.586 24 15.7353 24 15.9194V18.2382L24.0054 18.2981C24.0336 18.4536 24.1697 18.5716 24.3333 18.5716L25.7927 18.5714L25.7933 25.1947C25.7933 25.3788 25.9425 25.5281 26.1266 25.5281H29.1154L29.1753 25.5227C29.3308 25.4945 29.4488 25.3584 29.4488 25.1947L29.4487 18.5714L31.4174 18.5716C31.5877 18.5716 31.7306 18.4432 31.7488 18.2738L31.9981 15.955L31.9993 15.8968C31.988 15.7253 31.845 15.586 31.6667 15.586L29.4487 15.5854L29.4488 14.8179C29.4366 14.7071 29.4581 14.6409 29.5055 14.5909C29.5553 14.5385 29.6283 14.5095 29.7042 14.5132L31.5052 14.5194C31.6898 14.5201 31.8398 14.3706 31.8398 14.186V11.8614C31.8398 11.6773 31.6906 11.5281 31.5065 11.5281H28.9188ZM31.1727 12.1947V13.8507L29.721 13.8469C29.4676 13.8342 29.2059 13.9381 29.0219 14.1321C28.8355 14.3285 28.7483 14.5969 28.7852 14.8636L28.7821 15.9194L28.7875 15.9793C28.8157 16.1348 28.9518 16.2527 29.1154 16.2527L31.2953 16.2521L31.1173 17.9047L29.1154 17.9049L29.0555 17.9103C28.9 17.9385 28.7821 18.0746 28.7821 18.2382L28.782 24.8614H26.4593L26.4599 18.2382L26.4546 18.1783C26.4264 18.0228 26.2903 17.9049 26.1266 17.9049L24.6667 17.9047V16.2521L26.1266 16.2527C26.3107 16.2527 26.4599 16.1035 26.4599 15.9194V14.6759C26.4599 13.1998 27.1768 12.1947 28.9188 12.1947H31.1727Z" fill="#C9CCCF"/>
</g>
</g>
<defs>
<clipPath id="clip0_2388_2022">
<rect width="16" height="16" fill="white" transform="translate(20 10.5281)"/>
</clipPath>
<clipPath id="clip1_2388_2022">
<rect width="16" height="16" fill="white" transform="translate(20 10.5281)"/>
</clipPath>
</defs>
</svg>
