<svg width="56" height="37" viewBox="0 0 56 37" fill="none" xmlns="http://www.w3.org/2000/svg">
<g clip-path="url(#clip0_2388_6240)">
<g clip-path="url(#clip1_2388_6240)">
<path fill-rule="evenodd" clip-rule="evenodd" d="M24.3332 15.8612C24.4968 15.8612 24.6329 15.9792 24.6611 16.1347L24.6665 16.1946V24.8612C24.6665 25.0249 24.5486 25.161 24.3931 25.1892L24.3332 25.1946H20.9998C20.8362 25.1946 20.7001 25.0767 20.6719 24.9212L20.6665 24.8612V16.1946C20.6665 16.0309 20.7844 15.8948 20.9399 15.8666L20.9998 15.8612H24.3332ZM31.6598 15.8546C33.8619 15.8546 35.2696 17.5015 35.3311 20.2364L35.3332 20.4246V24.8612C35.3332 25.0249 35.2153 25.161 35.0598 25.1892L34.9998 25.1946H31.6665C31.5029 25.1946 31.3668 25.0767 31.3385 24.9212L31.3332 24.8612V20.1946C31.3332 19.6423 30.8855 19.1946 30.3332 19.1946C29.8134 19.1946 29.3862 19.5912 29.3377 20.0983L29.3332 20.1946V24.8612C29.3332 25.0249 29.2153 25.161 29.0598 25.1892L28.9998 25.1946H25.6665C25.5029 25.1946 25.3668 25.0767 25.3385 24.9212L25.3332 24.8612V16.1946C25.3332 16.0309 25.4511 15.8948 25.6066 15.8666L25.6665 15.8612H28.9998C29.1635 15.8612 29.2996 15.9792 29.3278 16.1347L29.3332 16.1946V16.5319L29.4237 16.4771C29.9795 16.1514 30.5996 15.9469 31.243 15.8791L31.4583 15.8616L31.6598 15.8546ZM23.9998 16.5279H21.3332V24.5279H23.9998V16.5279ZM31.6645 16.5212C30.7664 16.5337 29.9006 16.8581 29.2154 17.4389C29.0132 17.6102 28.7103 17.4875 28.6708 17.2396L28.6665 17.1846V16.5272H25.9998V24.5279H28.6665V20.1946C28.6665 19.3477 29.2981 18.6484 30.1159 18.5419L30.2236 18.5315L30.3332 18.5279C31.2168 18.5279 31.9399 19.2156 31.9963 20.085L31.9998 20.1946V24.5279H34.6665V20.4246C34.6665 18.047 33.6263 16.6658 31.9359 16.532L31.7975 16.5239L31.6645 16.5212ZM22.6665 11.1946C23.1969 11.1946 23.7056 11.4053 24.0807 11.7804C24.4558 12.1554 24.6665 12.6641 24.6665 13.1946C24.6665 14.2991 23.7711 15.1946 22.6665 15.1946C21.5619 15.1946 20.6665 14.2991 20.6665 13.1946C20.6665 12.09 21.5619 11.1946 22.6665 11.1946ZM22.6665 11.8612C21.9301 11.8612 21.3332 12.4582 21.3332 13.1946C21.3332 13.931 21.9301 14.5279 22.6665 14.5279C23.4029 14.5279 23.9998 13.931 23.9998 13.1946C23.9998 12.841 23.8594 12.5018 23.6093 12.2518C23.3593 12.0017 23.0201 11.8612 22.6665 11.8612Z" fill="#C9CCCF"/>
</g>
</g>
<defs>
<clipPath id="clip0_2388_6240">
<rect width="16" height="16" fill="white" transform="translate(20 10.5278)"/>
</clipPath>
<clipPath id="clip1_2388_6240">
<rect width="16" height="16" fill="white" transform="translate(20 10.5278)"/>
</clipPath>
</defs>
</svg>
