<svg width="56" height="37" viewBox="0 0 56 37" fill="none" xmlns="http://www.w3.org/2000/svg">
<g clip-path="url(#clip0_2388_11894)">
<g clip-path="url(#clip1_2388_11894)">
<path fill-rule="evenodd" clip-rule="evenodd" d="M24.3333 15.9013C24.4969 15.9013 24.633 16.0192 24.6613 16.1747L24.6666 16.2346V24.9013C24.6666 25.0649 24.5487 25.201 24.3932 25.2292L24.3333 25.2346H21C20.8363 25.2346 20.7002 25.1167 20.672 24.9612L20.6666 24.9013V16.2346C20.6666 16.071 20.7845 15.9349 20.94 15.9067L21 15.9013H24.3333ZM31.66 15.8946C33.862 15.8946 35.2697 17.5416 35.3312 20.2765L35.3333 20.4646V24.9013C35.3333 25.0649 35.2154 25.201 35.0599 25.2292L35 25.2346H31.6666C31.503 25.2346 31.3669 25.1167 31.3387 24.9612L31.3333 24.9013V20.2346C31.3333 19.6823 30.8856 19.2346 30.3333 19.2346C29.8135 19.2346 29.3863 19.6312 29.3379 20.1383L29.3333 20.2346V24.9013C29.3333 25.0649 29.2154 25.201 29.0599 25.2292L29 25.2346H25.6666C25.503 25.2346 25.3669 25.1167 25.3387 24.9612L25.3333 24.9013V16.2346C25.3333 16.071 25.4512 15.9349 25.6067 15.9067L25.6666 15.9013H29C29.1636 15.9013 29.2997 16.0192 29.3279 16.1747L29.3333 16.2346V16.572L29.4238 16.5171C29.9796 16.1914 30.5997 15.9869 31.2431 15.9192L31.4584 15.9017L31.66 15.8946ZM24 16.568H21.3333V24.568H24V16.568ZM31.6646 16.5613C30.7665 16.5738 29.9007 16.8982 29.2155 17.4789C29.0133 17.6502 28.7104 17.5276 28.6709 17.2796L28.6666 17.2246V16.5673H26V24.568H28.6666V20.2346C28.6666 19.3878 29.2982 18.6885 30.116 18.582L30.2237 18.5715L30.3333 18.568C31.2169 18.568 31.94 19.2556 31.9964 20.125L32 20.2346V24.568H34.6666V20.4646C34.6666 18.0871 33.6265 16.7059 31.9361 16.572L31.7976 16.5639L31.6646 16.5613ZM22.6666 11.2346C23.1971 11.2346 23.7058 11.4453 24.0808 11.8204C24.4559 12.1955 24.6666 12.7042 24.6666 13.2346C24.6666 14.3392 23.7712 15.2346 22.6666 15.2346C21.5621 15.2346 20.6666 14.3392 20.6666 13.2346C20.6666 12.13 21.5621 11.2346 22.6666 11.2346ZM22.6666 11.9013C21.9302 11.9013 21.3333 12.4982 21.3333 13.2346C21.3333 13.971 21.9302 14.568 22.6666 14.568C23.403 14.568 24 13.971 24 13.2346C24 12.881 23.8595 12.5419 23.6094 12.2918C23.3594 12.0418 23.0202 11.9013 22.6666 11.9013Z" fill="#C9CCCF"/>
</g>
</g>
<defs>
<clipPath id="clip0_2388_11894">
<rect width="16" height="16" fill="white" transform="translate(20 10.5679)"/>
</clipPath>
<clipPath id="clip1_2388_11894">
<rect width="16" height="16" fill="white" transform="translate(20 10.5679)"/>
</clipPath>
</defs>
</svg>
