<svg width="56" height="37" viewBox="0 0 56 37" fill="none" xmlns="http://www.w3.org/2000/svg">
<g clip-path="url(#clip0_2388_5762)">
<g clip-path="url(#clip1_2388_5762)">
<path fill-rule="evenodd" clip-rule="evenodd" d="M24.3332 15.5574C24.4968 15.5574 24.6329 15.6753 24.6611 15.8308L24.6665 15.8907V24.5574C24.6665 24.7211 24.5486 24.8572 24.3931 24.8854L24.3332 24.8907H20.9998C20.8362 24.8907 20.7001 24.7728 20.6719 24.6173L20.6665 24.5574V15.8907C20.6665 15.7271 20.7844 15.591 20.9399 15.5628L20.9998 15.5574H24.3332ZM31.6598 15.5507C33.8619 15.5507 35.2696 17.1977 35.3311 19.9326L35.3332 20.1207V24.5574C35.3332 24.7211 35.2153 24.8572 35.0598 24.8854L34.9998 24.8907H31.6665C31.5029 24.8907 31.3668 24.7728 31.3385 24.6173L31.3332 24.5574V19.8907C31.3332 19.3385 30.8855 18.8907 30.3332 18.8907C29.8134 18.8907 29.3862 19.2873 29.3377 19.7944L29.3332 19.8907V24.5574C29.3332 24.7211 29.2153 24.8572 29.0598 24.8854L28.9998 24.8907H25.6665C25.5029 24.8907 25.3668 24.7728 25.3385 24.6173L25.3332 24.5574V15.8907C25.3332 15.7271 25.4511 15.591 25.6066 15.5628L25.6665 15.5574H28.9998C29.1635 15.5574 29.2996 15.6753 29.3278 15.8308L29.3332 15.8907V16.2281L29.4237 16.1733C29.9795 15.8475 30.5996 15.6431 31.243 15.5753L31.4583 15.5578L31.6598 15.5507ZM23.9998 16.2241H21.3332V24.2241H23.9998V16.2241ZM31.6645 16.2174C30.7664 16.2299 29.9006 16.5543 29.2154 17.135C29.0132 17.3064 28.7103 17.1837 28.6708 16.9357L28.6665 16.8807V16.2234H25.9998V24.2241H28.6665V19.8907C28.6665 19.0439 29.2981 18.3446 30.1159 18.2381L30.2236 18.2276L30.3332 18.2241C31.2168 18.2241 31.9399 18.9118 31.9963 19.7812L31.9998 19.8907V24.2241H34.6665V20.1207C34.6665 17.7432 33.6263 16.362 31.9359 16.2281L31.7975 16.22L31.6645 16.2174ZM22.6665 10.8907C23.1969 10.8907 23.7056 11.1015 24.0807 11.4765C24.4558 11.8516 24.6665 12.3603 24.6665 12.8907C24.6665 13.9953 23.7711 14.8907 22.6665 14.8907C21.5619 14.8907 20.6665 13.9953 20.6665 12.8907C20.6665 11.7862 21.5619 10.8907 22.6665 10.8907ZM22.6665 11.5574C21.9301 11.5574 21.3332 12.1544 21.3332 12.8907C21.3332 13.6271 21.9301 14.2241 22.6665 14.2241C23.4029 14.2241 23.9998 13.6271 23.9998 12.8907C23.9998 12.5371 23.8594 12.198 23.6093 11.9479C23.3593 11.6979 23.0201 11.5574 22.6665 11.5574Z" fill="#C9CCCF"/>
</g>
</g>
<defs>
<clipPath id="clip0_2388_5762">
<rect width="16" height="16" fill="white" transform="translate(20 10.2241)"/>
</clipPath>
<clipPath id="clip1_2388_5762">
<rect width="16" height="16" fill="white" transform="translate(20 10.2241)"/>
</clipPath>
</defs>
</svg>
