<svg width="56" height="37" viewBox="0 0 56 37" fill="none" xmlns="http://www.w3.org/2000/svg">
<g clip-path="url(#clip0_2388_2794)">
<g clip-path="url(#clip1_2388_2794)">
<path fill-rule="evenodd" clip-rule="evenodd" d="M33.3747 12.3281C34.0711 12.3281 34.739 12.6048 35.2313 13.0973C35.6885 13.5547 35.9596 14.1633 35.9958 14.8054L36 14.9541V21.0346C36.0004 21.7311 35.724 22.3993 35.2316 22.892C34.7744 23.3495 34.1657 23.6208 33.5234 23.6572L33.3747 23.6615H22.6246C21.9282 23.6613 21.2604 23.3844 20.7681 22.8917C20.3111 22.4342 20.0402 21.8256 20.0041 21.1835L20 21.0348V14.9542C19.9998 14.2579 20.2762 13.5901 20.7684 13.0976C21.2254 12.6403 21.8338 12.369 22.4759 12.3324L22.6246 12.3281H33.3747ZM22.6248 12.9948C22.1053 12.9949 21.6072 13.2014 21.2399 13.5689C20.9061 13.9029 20.7053 14.345 20.6717 14.813L20.6667 14.9541V21.035C20.6664 21.5546 20.8725 22.053 21.2397 22.4205C21.5736 22.7546 22.0157 22.9557 22.4836 22.9897L22.6247 22.9948H33.3747C33.8943 22.9948 34.3927 22.7883 34.7601 22.4207C35.094 22.0866 35.2948 21.6442 35.3283 21.176L35.3333 21.0348V14.954C35.3335 14.4345 35.1272 13.9361 34.7599 13.5687C34.4259 13.2346 33.9838 13.0337 33.5158 12.9999L33.3747 12.9948H22.6248ZM26.4645 14.5408L26.513 14.5667L31.0257 17.454C31.212 17.5732 31.2289 17.8315 31.0764 17.9759L31.0256 18.0156L26.5129 20.9016C26.3069 21.0334 26.0412 20.9054 26.0043 20.6756L26 20.6208V14.8475C26 14.6233 26.2109 14.4744 26.4105 14.5227L26.4645 14.5408ZM26.6667 15.4568V20.0115L30.2267 17.7341L26.6667 15.4568Z" fill="#C9CCCF"/>
</g>
</g>
<defs>
<clipPath id="clip0_2388_2794">
<rect width="16" height="16" fill="white" transform="translate(20 10.3281)"/>
</clipPath>
<clipPath id="clip1_2388_2794">
<rect width="16" height="16" fill="white" transform="translate(20 10.3281)"/>
</clipPath>
</defs>
</svg>
