<svg width="56" height="37" viewBox="0 0 56 37" fill="none" xmlns="http://www.w3.org/2000/svg">
<g clip-path="url(#clip0_2388_4805)">
<g clip-path="url(#clip1_2388_4805)">
<path fill-rule="evenodd" clip-rule="evenodd" d="M24.3333 16.0772C24.4969 16.0772 24.633 16.1951 24.6613 16.3506L24.6666 16.4105V25.0772C24.6666 25.2408 24.5487 25.3769 24.3932 25.4052L24.3333 25.4105H21C20.8363 25.4105 20.7002 25.2926 20.672 25.1371L20.6666 25.0772V16.4105C20.6666 16.2469 20.7845 16.1108 20.94 16.0826L21 16.0772H24.3333ZM31.66 16.0705C33.862 16.0705 35.2697 17.7175 35.3312 20.4524L35.3333 20.6405V25.0772C35.3333 25.2408 35.2154 25.3769 35.0599 25.4052L35 25.4105H31.6666C31.503 25.4105 31.3669 25.2926 31.3387 25.1371L31.3333 25.0772V20.4105C31.3333 19.8582 30.8856 19.4105 30.3333 19.4105C29.8135 19.4105 29.3863 19.8071 29.3379 20.3142L29.3333 20.4105V25.0772C29.3333 25.2408 29.2154 25.3769 29.0599 25.4052L29 25.4105H25.6666C25.503 25.4105 25.3669 25.2926 25.3387 25.1371L25.3333 25.0772V16.4105C25.3333 16.2469 25.4512 16.1108 25.6067 16.0826L25.6666 16.0772H29C29.1636 16.0772 29.2997 16.1951 29.3279 16.3506L29.3333 16.4105V16.7479L29.4238 16.693C29.9796 16.3673 30.5997 16.1628 31.2431 16.0951L31.4584 16.0776L31.66 16.0705ZM24 16.7439H21.3333V24.7439H24V16.7439ZM31.6646 16.7372C30.7665 16.7497 29.9007 17.0741 29.2155 17.6548C29.0133 17.8261 28.7104 17.7035 28.6709 17.4555L28.6666 17.4005V16.7432H26V24.7439H28.6666V20.4105C28.6666 19.5637 29.2982 18.8644 30.116 18.7579L30.2237 18.7474L30.3333 18.7439C31.2169 18.7439 31.94 19.4315 31.9964 20.3009L32 20.4105V24.7439H34.6666V20.6405C34.6666 18.263 33.6265 16.8818 31.9361 16.7479L31.7976 16.7398L31.6646 16.7372ZM22.6666 11.4105C23.1971 11.4105 23.7058 11.6212 24.0808 11.9963C24.4559 12.3714 24.6666 12.8801 24.6666 13.4105C24.6666 14.5151 23.7712 15.4105 22.6666 15.4105C21.5621 15.4105 20.6666 14.5151 20.6666 13.4105C20.6666 12.306 21.5621 11.4105 22.6666 11.4105ZM22.6666 12.0772C21.9302 12.0772 21.3333 12.6741 21.3333 13.4105C21.3333 14.1469 21.9302 14.7439 22.6666 14.7439C23.403 14.7439 24 14.1469 24 13.4105C24 13.0569 23.8595 12.7178 23.6094 12.4677C23.3594 12.2177 23.0202 12.0772 22.6666 12.0772Z" fill="#C9CCCF"/>
</g>
</g>
<defs>
<clipPath id="clip0_2388_4805">
<rect width="16" height="16" fill="white" transform="translate(20 10.7439)"/>
</clipPath>
<clipPath id="clip1_2388_4805">
<rect width="16" height="16" fill="white" transform="translate(20 10.7439)"/>
</clipPath>
</defs>
</svg>
