<svg width="56" height="37" viewBox="0 0 56 37" fill="none" xmlns="http://www.w3.org/2000/svg">
<g clip-path="url(#clip0_2388_1469)">
<g clip-path="url(#clip1_2388_1469)">
<path fill-rule="evenodd" clip-rule="evenodd" d="M24.3327 15.3573C24.4963 15.3573 24.6324 15.4752 24.6606 15.6307L24.666 15.6907V24.3573C24.666 24.521 24.5481 24.6571 24.3926 24.6853L24.3327 24.6907H20.9993C20.8357 24.6907 20.6996 24.5727 20.6714 24.4172L20.666 24.3573V15.6907C20.666 15.527 20.7839 15.3909 20.9394 15.3627L20.9993 15.3573H24.3327ZM31.6593 15.3507C33.8614 15.3507 35.2691 16.9976 35.3306 19.7325L35.3327 19.9207V24.3573C35.3327 24.521 35.2148 24.6571 35.0593 24.6853L34.9993 24.6907H31.666C31.5024 24.6907 31.3663 24.5727 31.3381 24.4172L31.3327 24.3573V19.6907C31.3327 19.1384 30.885 18.6907 30.3327 18.6907C29.8129 18.6907 29.3857 19.0872 29.3373 19.5943L29.3327 19.6907V24.3573C29.3327 24.521 29.2148 24.6571 29.0593 24.6853L28.9993 24.6907H25.666C25.5024 24.6907 25.3663 24.5727 25.3381 24.4172L25.3327 24.3573V15.6907C25.3327 15.527 25.4506 15.3909 25.6061 15.3627L25.666 15.3573H28.9993C29.163 15.3573 29.2991 15.4752 29.3273 15.6307L29.3327 15.6907V16.028L29.4232 15.9732C29.979 15.6474 30.5991 15.443 31.2425 15.3752L31.4578 15.3577L31.6593 15.3507ZM23.9993 16.024H21.3327V24.024H23.9993V16.024ZM31.664 16.0173C30.7659 16.0298 29.9001 16.3542 29.2149 16.9349C29.0127 17.1063 28.7098 16.9836 28.6703 16.7356L28.666 16.6807V16.0233H25.9993V24.024H28.666V19.6907C28.666 18.8438 29.2976 18.1445 30.1154 18.038L30.2231 18.0275L30.3327 18.024C31.2163 18.024 31.9394 18.7117 31.9958 19.5811L31.9993 19.6907V24.024H34.666V19.9207C34.666 17.5431 33.6259 16.1619 31.9355 16.0281L31.797 16.0199L31.664 16.0173ZM22.666 10.6907C23.1964 10.6907 23.7052 10.9014 24.0802 11.2764C24.4553 11.6515 24.666 12.1602 24.666 12.6907C24.666 13.7952 23.7706 14.6907 22.666 14.6907C21.5614 14.6907 20.666 13.7952 20.666 12.6907C20.666 11.5861 21.5614 10.6907 22.666 10.6907ZM22.666 11.3573C21.9296 11.3573 21.3327 11.9543 21.3327 12.6907C21.3327 13.427 21.9296 14.024 22.666 14.024C23.4024 14.024 23.9993 13.427 23.9993 12.6907C23.9993 12.337 23.8589 11.9979 23.6088 11.7478C23.3588 11.4978 23.0196 11.3573 22.666 11.3573Z" fill="#C9CCCF"/>
</g>
</g>
<defs>
<clipPath id="clip0_2388_1469">
<rect width="16" height="16" fill="white" transform="translate(20 10.024)"/>
</clipPath>
<clipPath id="clip1_2388_1469">
<rect width="16" height="16" fill="white" transform="translate(20 10.024)"/>
</clipPath>
</defs>
</svg>
