<svg width="56" height="37" viewBox="0 0 56 37" fill="none" xmlns="http://www.w3.org/2000/svg">
<g clip-path="url(#clip0_2379_672)">
<g clip-path="url(#clip1_2379_672)">
<path fill-rule="evenodd" clip-rule="evenodd" d="M33.3747 12.5278C34.0711 12.5278 34.739 12.8045 35.2313 13.297C35.6885 13.7544 35.9596 14.363 35.9958 15.0051L36 15.1538V21.2343C36.0004 21.9309 35.724 22.599 35.2316 23.0917C34.7744 23.5492 34.1657 23.8205 33.5234 23.857L33.3747 23.8612H22.6246C21.9282 23.861 21.2604 23.5841 20.7681 23.0914C20.3111 22.6339 20.0402 22.0253 20.0041 21.3832L20 21.2345V15.1539C19.9998 14.4576 20.2762 13.7898 20.7684 13.2973C21.2254 12.84 21.8338 12.5687 22.4759 12.5321L22.6246 12.5278H33.3747ZM22.6248 13.1945C22.1053 13.1946 21.6072 13.4012 21.2399 13.7686C20.9061 14.1026 20.7053 14.5448 20.6717 15.0127L20.6667 15.1538V21.2347C20.6664 21.7543 20.8725 22.2527 21.2397 22.6202C21.5736 22.9544 22.0157 23.1555 22.4836 23.1894L22.6247 23.1945H33.3747C33.8943 23.1945 34.3927 22.988 34.7601 22.6204C35.094 22.2863 35.2948 21.8439 35.3283 21.3757L35.3333 21.2345V15.1537C35.3335 14.6342 35.1272 14.1358 34.7599 13.7684C34.4259 13.4343 33.9838 13.2334 33.5158 13.1996L33.3747 13.1945H22.6248ZM26.4645 14.7405L26.513 14.7664L31.0257 17.6537C31.212 17.7729 31.2289 18.0312 31.0764 18.1756L31.0256 18.2153L26.5129 21.1013C26.3069 21.2331 26.0412 21.1051 26.0043 20.8753L26 20.8205V15.0472C26 14.823 26.2109 14.6742 26.4105 14.7224L26.4645 14.7405ZM26.6667 15.6565V20.2112L30.2267 17.9338L26.6667 15.6565Z" fill="#C9CCCF"/>
</g>
</g>
<defs>
<clipPath id="clip0_2379_672">
<rect width="16" height="16" fill="white" transform="translate(20 10.5278)"/>
</clipPath>
<clipPath id="clip1_2379_672">
<rect width="16" height="16" fill="white" transform="translate(20 10.5278)"/>
</clipPath>
</defs>
</svg>
