<svg width="56" height="37" viewBox="0 0 56 37" fill="none" xmlns="http://www.w3.org/2000/svg">
<g clip-path="url(#clip0_2388_12270)">
<g clip-path="url(#clip1_2388_12270)">
<path fill-rule="evenodd" clip-rule="evenodd" d="M30.6667 11.7841C33.0599 11.7841 35 13.7242 35 16.1175V21.4508C35 23.844 33.0599 25.7841 30.6667 25.7841H25.3333C22.9401 25.7841 21 23.844 21 21.4508V16.1175C21 13.7242 22.9401 11.7841 25.3333 11.7841H30.6667ZM30.6667 12.4508H25.3333C23.3083 12.4508 21.6667 14.0924 21.6667 16.1175V21.4508C21.6667 23.4758 23.3083 25.1175 25.3333 25.1175H30.6667C32.6917 25.1175 34.3333 23.4758 34.3333 21.4508V16.1175C34.3333 14.0924 32.6917 12.4508 30.6667 12.4508ZM28 15.1175C30.025 15.1175 31.6667 16.7591 31.6667 18.7841C31.6667 20.8092 30.025 22.4508 28 22.4508C25.975 22.4508 24.3333 20.8092 24.3333 18.7841C24.3333 16.7591 25.975 15.1175 28 15.1175ZM28 15.7841C26.3431 15.7841 25 17.1273 25 18.7841C25 20.441 26.3431 21.7841 28 21.7841C29.6569 21.7841 31 20.441 31 18.7841C31 17.1273 29.6569 15.7841 28 15.7841ZM32 13.4508C32.7364 13.4508 33.3333 14.0477 33.3333 14.7841C33.3333 15.5205 32.7364 16.1175 32 16.1175C31.2636 16.1175 30.6667 15.5205 30.6667 14.7841C30.6667 14.0477 31.2636 13.4508 32 13.4508ZM32 14.1175C31.6318 14.1175 31.3333 14.4159 31.3333 14.7841C31.3333 15.1523 31.6318 15.4508 32 15.4508C32.3682 15.4508 32.6667 15.1523 32.6667 14.7841C32.6667 14.4159 32.3682 14.1175 32 14.1175Z" fill="#C9CCCF"/>
</g>
</g>
<defs>
<clipPath id="clip0_2388_12270">
<rect width="16" height="16" fill="white" transform="translate(20 10.7841)"/>
</clipPath>
<clipPath id="clip1_2388_12270">
<rect width="16" height="16" fill="white" transform="translate(20 10.7841)"/>
</clipPath>
</defs>
</svg>
