<svg width="56" height="37" viewBox="0 0 56 37" fill="none" xmlns="http://www.w3.org/2000/svg">
<g clip-path="url(#clip0_2388_8487)">
<g clip-path="url(#clip1_2388_8487)">
<path fill-rule="evenodd" clip-rule="evenodd" d="M24.3334 15.5574C24.4971 15.5574 24.6332 15.6753 24.6614 15.8308L24.6667 15.8907V24.5574C24.6667 24.7211 24.5488 24.8572 24.3933 24.8854L24.3334 24.8907H21.0001C20.8364 24.8907 20.7003 24.7728 20.6721 24.6173L20.6667 24.5574V15.8907C20.6667 15.7271 20.7847 15.591 20.9402 15.5628L21.0001 15.5574H24.3334ZM31.6601 15.5507C33.8621 15.5507 35.2698 17.1977 35.3313 19.9326L35.3334 20.1207V24.5574C35.3334 24.7211 35.2155 24.8572 35.06 24.8854L35.0001 24.8907H31.6667C31.5031 24.8907 31.367 24.7728 31.3388 24.6173L31.3334 24.5574V19.8907C31.3334 19.3385 30.8857 18.8907 30.3334 18.8907C29.8136 18.8907 29.3864 19.2873 29.338 19.7944L29.3334 19.8907V24.5574C29.3334 24.7211 29.2155 24.8572 29.06 24.8854L29.0001 24.8907H25.6667C25.5031 24.8907 25.367 24.7728 25.3388 24.6173L25.3334 24.5574V15.8907C25.3334 15.7271 25.4513 15.591 25.6068 15.5628L25.6667 15.5574H29.0001C29.1637 15.5574 29.2998 15.6753 29.328 15.8308L29.3334 15.8907V16.2281L29.4239 16.1733C29.9797 15.8475 30.5999 15.6431 31.2433 15.5753L31.4585 15.5578L31.6601 15.5507ZM24.0001 16.2241H21.3334V24.2241H24.0001V16.2241ZM31.6647 16.2174C30.7666 16.2299 29.9008 16.5543 29.2156 17.135C29.0135 17.3064 28.7105 17.1837 28.671 16.9357L28.6667 16.8807V16.2234H26.0001V24.2241H28.6667V19.8907C28.6667 19.0439 29.2983 18.3446 30.1161 18.2381L30.2238 18.2276L30.3334 18.2241C31.2171 18.2241 31.9401 18.9118 31.9965 19.7812L32.0001 19.8907V24.2241H34.6667V20.1207C34.6667 17.7432 33.6266 16.362 31.9362 16.2281L31.7977 16.22L31.6647 16.2174ZM22.6667 10.8907C23.1972 10.8907 23.7059 11.1015 24.081 11.4765C24.456 11.8516 24.6667 12.3603 24.6667 12.8907C24.6667 13.9953 23.7713 14.8907 22.6667 14.8907C21.5622 14.8907 20.6667 13.9953 20.6667 12.8907C20.6667 11.7862 21.5622 10.8907 22.6667 10.8907ZM22.6667 11.5574C21.9304 11.5574 21.3334 12.1544 21.3334 12.8907C21.3334 13.6271 21.9304 14.2241 22.6667 14.2241C23.4031 14.2241 24.0001 13.6271 24.0001 12.8907C24.0001 12.5371 23.8596 12.198 23.6096 11.9479C23.3595 11.6979 23.0204 11.5574 22.6667 11.5574Z" fill="#C9CCCF"/>
</g>
</g>
<defs>
<clipPath id="clip0_2388_8487">
<rect width="16" height="16" fill="white" transform="translate(20 10.2241)"/>
</clipPath>
<clipPath id="clip1_2388_8487">
<rect width="16" height="16" fill="white" transform="translate(20 10.2241)"/>
</clipPath>
</defs>
</svg>
