<svg width="56" height="37" viewBox="0 0 56 37" fill="none" xmlns="http://www.w3.org/2000/svg">
<g clip-path="url(#clip0_2388_14001)">
<g clip-path="url(#clip1_2388_14001)">
<path fill-rule="evenodd" clip-rule="evenodd" d="M24.3332 15.8614C24.4968 15.8614 24.6329 15.9793 24.6611 16.1348L24.6665 16.1948V24.8614C24.6665 25.0251 24.5486 25.1612 24.3931 25.1894L24.3332 25.1948H20.9998C20.8362 25.1948 20.7001 25.0768 20.6719 24.9213L20.6665 24.8614V16.1948C20.6665 16.0311 20.7844 15.895 20.9399 15.8668L20.9998 15.8614H24.3332ZM31.6598 15.8548C33.8619 15.8548 35.2696 17.5017 35.3311 20.2366L35.3332 20.4248V24.8614C35.3332 25.0251 35.2153 25.1612 35.0598 25.1894L34.9998 25.1948H31.6665C31.5029 25.1948 31.3668 25.0768 31.3385 24.9213L31.3332 24.8614V20.1948C31.3332 19.6425 30.8855 19.1948 30.3332 19.1948C29.8134 19.1948 29.3862 19.5914 29.3377 20.0985L29.3332 20.1948V24.8614C29.3332 25.0251 29.2153 25.1612 29.0598 25.1894L28.9998 25.1948H25.6665C25.5029 25.1948 25.3668 25.0768 25.3385 24.9213L25.3332 24.8614V16.1948C25.3332 16.0311 25.4511 15.895 25.6066 15.8668L25.6665 15.8614H28.9998C29.1635 15.8614 29.2996 15.9793 29.3278 16.1348L29.3332 16.1948V16.5321L29.4237 16.4773C29.9795 16.1515 30.5996 15.9471 31.243 15.8793L31.4583 15.8618L31.6598 15.8548ZM23.9998 16.5281H21.3332V24.5281H23.9998V16.5281ZM31.6645 16.5214C30.7664 16.5339 29.9006 16.8583 29.2154 17.4391C29.0132 17.6104 28.7103 17.4877 28.6708 17.2398L28.6665 17.1848V16.5274H25.9998V24.5281H28.6665V20.1948C28.6665 19.3479 29.2981 18.6486 30.1159 18.5421L30.2236 18.5316L30.3332 18.5281C31.2168 18.5281 31.9399 19.2158 31.9963 20.0852L31.9998 20.1948V24.5281H34.6665V20.4248C34.6665 18.0472 33.6263 16.666 31.9359 16.5322L31.7975 16.524L31.6645 16.5214ZM22.6665 11.1948C23.1969 11.1948 23.7056 11.4055 24.0807 11.7805C24.4558 12.1556 24.6665 12.6643 24.6665 13.1948C24.6665 14.2993 23.7711 15.1948 22.6665 15.1948C21.5619 15.1948 20.6665 14.2993 20.6665 13.1948C20.6665 12.0902 21.5619 11.1948 22.6665 11.1948ZM22.6665 11.8614C21.9301 11.8614 21.3332 12.4584 21.3332 13.1948C21.3332 13.9311 21.9301 14.5281 22.6665 14.5281C23.4029 14.5281 23.9998 13.9311 23.9998 13.1948C23.9998 12.8411 23.8594 12.502 23.6093 12.252C23.3593 12.0019 23.0201 11.8614 22.6665 11.8614Z" fill="#C9CCCF"/>
</g>
</g>
<defs>
<clipPath id="clip0_2388_14001">
<rect width="16" height="16" fill="white" transform="translate(20 10.5281)"/>
</clipPath>
<clipPath id="clip1_2388_14001">
<rect width="16" height="16" fill="white" transform="translate(20 10.5281)"/>
</clipPath>
</defs>
</svg>
