<svg width="56" height="37" viewBox="0 0 56 37" fill="none" xmlns="http://www.w3.org/2000/svg">
<g clip-path="url(#clip0_2370_49972)">
<g clip-path="url(#clip1_2370_49972)">
<path fill-rule="evenodd" clip-rule="evenodd" d="M30.6667 11.304C33.0599 11.304 35 13.2441 35 15.6373V20.9706C35 23.3639 33.0599 25.304 30.6667 25.304H25.3333C22.9401 25.304 21 23.3639 21 20.9706V15.6373C21 13.2441 22.9401 11.304 25.3333 11.304H30.6667ZM30.6667 11.9706H25.3333C23.3083 11.9706 21.6667 13.6122 21.6667 15.6373V20.9706C21.6667 22.9957 23.3083 24.6373 25.3333 24.6373H30.6667C32.6917 24.6373 34.3333 22.9957 34.3333 20.9706V15.6373C34.3333 13.6122 32.6917 11.9706 30.6667 11.9706ZM28 14.6373C30.025 14.6373 31.6667 16.2789 31.6667 18.304C31.6667 20.329 30.025 21.9706 28 21.9706C25.975 21.9706 24.3333 20.329 24.3333 18.304C24.3333 16.2789 25.975 14.6373 28 14.6373ZM28 15.304C26.3431 15.304 25 16.6471 25 18.304C25 19.9608 26.3431 21.304 28 21.304C29.6569 21.304 31 19.9608 31 18.304C31 16.6471 29.6569 15.304 28 15.304ZM32 12.9706C32.7364 12.9706 33.3333 13.5676 33.3333 14.304C33.3333 15.0403 32.7364 15.6373 32 15.6373C31.2636 15.6373 30.6667 15.0403 30.6667 14.304C30.6667 13.5676 31.2636 12.9706 32 12.9706ZM32 13.6373C31.6318 13.6373 31.3333 13.9358 31.3333 14.304C31.3333 14.6721 31.6318 14.9706 32 14.9706C32.3682 14.9706 32.6667 14.6721 32.6667 14.304C32.6667 13.9358 32.3682 13.6373 32 13.6373Z" fill="#C9CCCF"/>
</g>
</g>
<defs>
<clipPath id="clip0_2370_49972">
<rect width="16" height="16" fill="white" transform="translate(20 10.304)"/>
</clipPath>
<clipPath id="clip1_2370_49972">
<rect width="16" height="16" fill="white" transform="translate(20 10.304)"/>
</clipPath>
</defs>
</svg>
