<svg width="56" height="37" viewBox="0 0 56 37" fill="none" xmlns="http://www.w3.org/2000/svg">
<g clip-path="url(#clip0_2379_3501)">
<g clip-path="url(#clip1_2379_3501)">
<path fill-rule="evenodd" clip-rule="evenodd" d="M24.3337 15.8612C24.4973 15.8612 24.6334 15.9792 24.6616 16.1347L24.667 16.1946V24.8612C24.667 25.0249 24.5491 25.161 24.3936 25.1892L24.3337 25.1946H21.0003C20.8367 25.1946 20.7006 25.0767 20.6724 24.9212L20.667 24.8612V16.1946C20.667 16.0309 20.7849 15.8948 20.9404 15.8666L21.0003 15.8612H24.3337ZM31.6603 15.8546C33.8624 15.8546 35.2701 17.5015 35.3316 20.2364L35.3337 20.4246V24.8612C35.3337 25.0249 35.2157 25.161 35.0602 25.1892L35.0003 25.1946H31.667C31.5034 25.1946 31.3673 25.0767 31.339 24.9212L31.3337 24.8612V20.1946C31.3337 19.6423 30.8859 19.1946 30.3337 19.1946C29.8139 19.1946 29.3867 19.5912 29.3382 20.0983L29.3337 20.1946V24.8612C29.3337 25.0249 29.2157 25.161 29.0602 25.1892L29.0003 25.1946H25.667C25.5034 25.1946 25.3673 25.0767 25.339 24.9212L25.3337 24.8612V16.1946C25.3337 16.0309 25.4516 15.8948 25.6071 15.8666L25.667 15.8612H29.0003C29.164 15.8612 29.3001 15.9792 29.3283 16.1347L29.3337 16.1946V16.5319L29.4242 16.4771C29.9799 16.1514 30.6001 15.9469 31.2435 15.8791L31.4588 15.8616L31.6603 15.8546ZM24.0003 16.5279H21.3337V24.5279H24.0003V16.5279ZM31.665 16.5212C30.7669 16.5337 29.901 16.8581 29.2158 17.4389C29.0137 17.6102 28.7108 17.4875 28.6713 17.2396L28.667 17.1846V16.5272H26.0003V24.5279H28.667V20.1946C28.667 19.3477 29.2986 18.6484 30.1164 18.5419L30.2241 18.5315L30.3337 18.5279C31.2173 18.5279 31.9404 19.2156 31.9968 20.085L32.0003 20.1946V24.5279H34.667V20.4246C34.667 18.047 33.6268 16.6658 31.9364 16.532L31.7979 16.5239L31.665 16.5212ZM22.667 11.1946C23.1974 11.1946 23.7061 11.4053 24.0812 11.7804C24.4563 12.1554 24.667 12.6641 24.667 13.1946C24.667 14.2991 23.7716 15.1946 22.667 15.1946C21.5624 15.1946 20.667 14.2991 20.667 13.1946C20.667 12.09 21.5624 11.1946 22.667 11.1946ZM22.667 11.8612C21.9306 11.8612 21.3337 12.4582 21.3337 13.1946C21.3337 13.931 21.9306 14.5279 22.667 14.5279C23.4034 14.5279 24.0003 13.931 24.0003 13.1946C24.0003 12.841 23.8598 12.5018 23.6098 12.2518C23.3598 12.0017 23.0206 11.8612 22.667 11.8612Z" fill="#C9CCCF"/>
</g>
</g>
<defs>
<clipPath id="clip0_2379_3501">
<rect width="16" height="16" fill="white" transform="translate(20 10.5278)"/>
</clipPath>
<clipPath id="clip1_2379_3501">
<rect width="16" height="16" fill="white" transform="translate(20 10.5278)"/>
</clipPath>
</defs>
</svg>
