<svg width="56" height="37" viewBox="0 0 56 37" fill="none" xmlns="http://www.w3.org/2000/svg">
<g clip-path="url(#clip0_2388_6253)">
<g clip-path="url(#clip1_2388_6253)">
<path fill-rule="evenodd" clip-rule="evenodd" d="M30.6667 11.5278C33.0599 11.5278 35 13.4679 35 15.8612V21.1945C35 23.5877 33.0599 25.5278 30.6667 25.5278H25.3333C22.9401 25.5278 21 23.5877 21 21.1945V15.8612C21 13.4679 22.9401 11.5278 25.3333 11.5278H30.6667ZM30.6667 12.1945H25.3333C23.3083 12.1945 21.6667 13.8361 21.6667 15.8612V21.1945C21.6667 23.2195 23.3083 24.8612 25.3333 24.8612H30.6667C32.6917 24.8612 34.3333 23.2195 34.3333 21.1945V15.8612C34.3333 13.8361 32.6917 12.1945 30.6667 12.1945ZM28 14.8612C30.025 14.8612 31.6667 16.5028 31.6667 18.5278C31.6667 20.5529 30.025 22.1945 28 22.1945C25.975 22.1945 24.3333 20.5529 24.3333 18.5278C24.3333 16.5028 25.975 14.8612 28 14.8612ZM28 15.5278C26.3431 15.5278 25 16.871 25 18.5278C25 20.1847 26.3431 21.5278 28 21.5278C29.6569 21.5278 31 20.1847 31 18.5278C31 16.871 29.6569 15.5278 28 15.5278ZM32 13.1945C32.7364 13.1945 33.3333 13.7915 33.3333 14.5278C33.3333 15.2642 32.7364 15.8612 32 15.8612C31.2636 15.8612 30.6667 15.2642 30.6667 14.5278C30.6667 13.7915 31.2636 13.1945 32 13.1945ZM32 13.8612C31.6318 13.8612 31.3333 14.1596 31.3333 14.5278C31.3333 14.896 31.6318 15.1945 32 15.1945C32.3682 15.1945 32.6667 14.896 32.6667 14.5278C32.6667 14.1596 32.3682 13.8612 32 13.8612Z" fill="#C9CCCF"/>
</g>
</g>
<defs>
<clipPath id="clip0_2388_6253">
<rect width="16" height="16" fill="white" transform="translate(20 10.5278)"/>
</clipPath>
<clipPath id="clip1_2388_6253">
<rect width="16" height="16" fill="white" transform="translate(20 10.5278)"/>
</clipPath>
</defs>
</svg>
