<svg width="56" height="37" viewBox="0 0 56 37" fill="none" xmlns="http://www.w3.org/2000/svg">
<g clip-path="url(#clip0_2388_14514)">
<g clip-path="url(#clip1_2388_14514)">
<path fill-rule="evenodd" clip-rule="evenodd" d="M24.3337 15.901C24.4973 15.901 24.6334 16.019 24.6616 16.1745L24.667 16.2344V24.901C24.667 25.0647 24.5491 25.2008 24.3936 25.229L24.3337 25.2344H21.0003C20.8367 25.2344 20.7006 25.1165 20.6724 24.961L20.667 24.901V16.2344C20.667 16.0707 20.7849 15.9346 20.9404 15.9064L21.0003 15.901H24.3337ZM31.6603 15.8944C33.8624 15.8944 35.2701 17.5413 35.3316 20.2762L35.3337 20.4644V24.901C35.3337 25.0647 35.2157 25.2008 35.0602 25.229L35.0003 25.2344H31.667C31.5034 25.2344 31.3673 25.1165 31.339 24.961L31.3337 24.901V20.2344C31.3337 19.6821 30.8859 19.2344 30.3337 19.2344C29.8139 19.2344 29.3867 19.631 29.3382 20.1381L29.3337 20.2344V24.901C29.3337 25.0647 29.2157 25.2008 29.0602 25.229L29.0003 25.2344H25.667C25.5034 25.2344 25.3673 25.1165 25.339 24.961L25.3337 24.901V16.2344C25.3337 16.0707 25.4516 15.9346 25.6071 15.9064L25.667 15.901H29.0003C29.164 15.901 29.3001 16.019 29.3283 16.1745L29.3337 16.2344V16.5717L29.4242 16.5169C29.9799 16.1912 30.6001 15.9867 31.2435 15.9189L31.4588 15.9014L31.6603 15.8944ZM24.0003 16.5677H21.3337V24.5677H24.0003V16.5677ZM31.665 16.561C30.7669 16.5735 29.901 16.8979 29.2158 17.4787C29.0137 17.65 28.7108 17.5273 28.6713 17.2794L28.667 17.2244V16.567H26.0003V24.5677H28.667V20.2344C28.667 19.3875 29.2986 18.6882 30.1164 18.5817L30.2241 18.5713L30.3337 18.5677C31.2173 18.5677 31.9404 19.2554 31.9968 20.1248L32.0003 20.2344V24.5677H34.667V20.4644C34.667 18.0868 33.6268 16.7056 31.9364 16.5718L31.7979 16.5637L31.665 16.561ZM22.667 11.2344C23.1974 11.2344 23.7061 11.4451 24.0812 11.8202C24.4563 12.1952 24.667 12.7039 24.667 13.2344C24.667 14.3389 23.7716 15.2344 22.667 15.2344C21.5624 15.2344 20.667 14.3389 20.667 13.2344C20.667 12.1298 21.5624 11.2344 22.667 11.2344ZM22.667 11.901C21.9306 11.901 21.3337 12.498 21.3337 13.2344C21.3337 13.9708 21.9306 14.5677 22.667 14.5677C23.4034 14.5677 24.0003 13.9708 24.0003 13.2344C24.0003 12.8808 23.8598 12.5416 23.6098 12.2916C23.3598 12.0415 23.0206 11.901 22.667 11.901Z" fill="#C9CCCF"/>
</g>
</g>
<defs>
<clipPath id="clip0_2388_14514">
<rect width="16" height="16" fill="white" transform="translate(20 10.5679)"/>
</clipPath>
<clipPath id="clip1_2388_14514">
<rect width="16" height="16" fill="white" transform="translate(20 10.5679)"/>
</clipPath>
</defs>
</svg>
