<svg width="56" height="37" viewBox="0 0 56 37" fill="none" xmlns="http://www.w3.org/2000/svg">
<g clip-path="url(#clip0_2388_448)">
<g clip-path="url(#clip1_2388_448)">
<path fill-rule="evenodd" clip-rule="evenodd" d="M24.3327 15.8614C24.4963 15.8614 24.6324 15.9793 24.6606 16.1348L24.666 16.1948V24.8614C24.666 25.0251 24.5481 25.1612 24.3926 25.1894L24.3327 25.1948H20.9993C20.8357 25.1948 20.6996 25.0768 20.6714 24.9213L20.666 24.8614V16.1948C20.666 16.0311 20.7839 15.895 20.9394 15.8668L20.9993 15.8614H24.3327ZM31.6593 15.8548C33.8614 15.8548 35.2691 17.5017 35.3306 20.2366L35.3327 20.4248V24.8614C35.3327 25.0251 35.2148 25.1612 35.0593 25.1894L34.9993 25.1948H31.666C31.5024 25.1948 31.3663 25.0768 31.3381 24.9213L31.3327 24.8614V20.1948C31.3327 19.6425 30.885 19.1948 30.3327 19.1948C29.8129 19.1948 29.3857 19.5914 29.3373 20.0985L29.3327 20.1948V24.8614C29.3327 25.0251 29.2148 25.1612 29.0593 25.1894L28.9993 25.1948H25.666C25.5024 25.1948 25.3663 25.0768 25.3381 24.9213L25.3327 24.8614V16.1948C25.3327 16.0311 25.4506 15.895 25.6061 15.8668L25.666 15.8614H28.9993C29.163 15.8614 29.2991 15.9793 29.3273 16.1348L29.3327 16.1948V16.5321L29.4232 16.4773C29.979 16.1515 30.5991 15.9471 31.2425 15.8793L31.4578 15.8618L31.6593 15.8548ZM23.9993 16.5281H21.3327V24.5281H23.9993V16.5281ZM31.664 16.5214C30.7659 16.5339 29.9001 16.8583 29.2149 17.4391C29.0127 17.6104 28.7098 17.4877 28.6703 17.2398L28.666 17.1848V16.5274H25.9993V24.5281H28.666V20.1948C28.666 19.3479 29.2976 18.6486 30.1154 18.5421L30.2231 18.5316L30.3327 18.5281C31.2163 18.5281 31.9394 19.2158 31.9958 20.0852L31.9993 20.1948V24.5281H34.666V20.4248C34.666 18.0472 33.6259 16.666 31.9355 16.5322L31.797 16.524L31.664 16.5214ZM22.666 11.1948C23.1964 11.1948 23.7052 11.4055 24.0802 11.7805C24.4553 12.1556 24.666 12.6643 24.666 13.1948C24.666 14.2993 23.7706 15.1948 22.666 15.1948C21.5614 15.1948 20.666 14.2993 20.666 13.1948C20.666 12.0902 21.5614 11.1948 22.666 11.1948ZM22.666 11.8614C21.9296 11.8614 21.3327 12.4584 21.3327 13.1948C21.3327 13.9311 21.9296 14.5281 22.666 14.5281C23.4024 14.5281 23.9993 13.9311 23.9993 13.1948C23.9993 12.8411 23.8589 12.502 23.6088 12.252C23.3588 12.0019 23.0196 11.8614 22.666 11.8614Z" fill="#C9CCCF"/>
</g>
</g>
<defs>
<clipPath id="clip0_2388_448">
<rect width="16" height="16" fill="white" transform="translate(20 10.5281)"/>
</clipPath>
<clipPath id="clip1_2388_448">
<rect width="16" height="16" fill="white" transform="translate(20 10.5281)"/>
</clipPath>
</defs>
</svg>
