<svg width="56" height="37" viewBox="0 0 56 37" fill="none" xmlns="http://www.w3.org/2000/svg">
<g clip-path="url(#clip0_2388_6922)">
<g clip-path="url(#clip1_2388_6922)">
<path fill-rule="evenodd" clip-rule="evenodd" d="M28.9188 11.696L28.7456 11.6989C26.6997 11.7689 25.7933 13.0873 25.7933 14.8438L25.7927 15.7533L24.3333 15.754C24.1492 15.754 24 15.9032 24 16.0873V18.4061L24.0054 18.466C24.0336 18.6215 24.1697 18.7395 24.3333 18.7395L25.7927 18.7393L25.7933 25.3627C25.7933 25.5467 25.9425 25.696 26.1266 25.696H29.1154L29.1753 25.6906C29.3308 25.6624 29.4488 25.5263 29.4488 25.3627L29.4487 18.7393L31.4174 18.7395C31.5877 18.7395 31.7306 18.6111 31.7488 18.4418L31.9981 16.1229L31.9993 16.0647C31.988 15.8932 31.845 15.754 31.6667 15.754L29.4487 15.7533L29.4488 14.9858C29.4366 14.875 29.4581 14.8088 29.5055 14.7588C29.5553 14.7064 29.6283 14.6774 29.7042 14.6811L31.5052 14.6873C31.6898 14.688 31.8398 14.5385 31.8398 14.354V12.0293C31.8398 11.8452 31.6906 11.696 31.5065 11.696H28.9188ZM31.1727 12.3627V14.0187L29.721 14.0148C29.4676 14.0022 29.2059 14.106 29.0219 14.3C28.8355 14.4964 28.7483 14.7648 28.7852 15.0315L28.7821 16.0873L28.7875 16.1472C28.8157 16.3027 28.9518 16.4206 29.1154 16.4206L31.2953 16.42L31.1173 18.0727L29.1154 18.0728L29.0555 18.0782C28.9 18.1064 28.7821 18.2425 28.7821 18.4061L28.782 25.0293H26.4593L26.4599 18.4061L26.4546 18.3462C26.4264 18.1907 26.2903 18.0728 26.1266 18.0728L24.6667 18.0727V16.42L26.1266 16.4206C26.3107 16.4206 26.4599 16.2714 26.4599 16.0873V14.8438C26.4599 13.3677 27.1768 12.3627 28.9188 12.3627H31.1727Z" fill="#C9CCCF"/>
</g>
</g>
<defs>
<clipPath id="clip0_2388_6922">
<rect width="16" height="16" fill="white" transform="translate(20 10.696)"/>
</clipPath>
<clipPath id="clip1_2388_6922">
<rect width="16" height="16" fill="white" transform="translate(20 10.696)"/>
</clipPath>
</defs>
</svg>
