<svg width="56" height="37" viewBox="0 0 56 37" fill="none" xmlns="http://www.w3.org/2000/svg">
<g clip-path="url(#clip0_2388_1482)">
<g clip-path="url(#clip1_2388_1482)">
<path fill-rule="evenodd" clip-rule="evenodd" d="M30.6667 11.024C33.0599 11.024 35 12.9641 35 15.3573V20.6907C35 23.0839 33.0599 25.024 30.6667 25.024H25.3333C22.9401 25.024 21 23.0839 21 20.6907V15.3573C21 12.9641 22.9401 11.024 25.3333 11.024H30.6667ZM30.6667 11.6907H25.3333C23.3083 11.6907 21.6667 13.3323 21.6667 15.3573V20.6907C21.6667 22.7157 23.3083 24.3573 25.3333 24.3573H30.6667C32.6917 24.3573 34.3333 22.7157 34.3333 20.6907V15.3573C34.3333 13.3323 32.6917 11.6907 30.6667 11.6907ZM28 14.3573C30.025 14.3573 31.6667 15.9989 31.6667 18.024C31.6667 20.049 30.025 21.6907 28 21.6907C25.975 21.6907 24.3333 20.049 24.3333 18.024C24.3333 15.9989 25.975 14.3573 28 14.3573ZM28 15.024C26.3431 15.024 25 16.3671 25 18.024C25 19.6808 26.3431 21.024 28 21.024C29.6569 21.024 31 19.6808 31 18.024C31 16.3671 29.6569 15.024 28 15.024ZM32 12.6907C32.7364 12.6907 33.3333 13.2876 33.3333 14.024C33.3333 14.7604 32.7364 15.3573 32 15.3573C31.2636 15.3573 30.6667 14.7604 30.6667 14.024C30.6667 13.2876 31.2636 12.6907 32 12.6907ZM32 13.3573C31.6318 13.3573 31.3333 13.6558 31.3333 14.024C31.3333 14.3922 31.6318 14.6907 32 14.6907C32.3682 14.6907 32.6667 14.3922 32.6667 14.024C32.6667 13.6558 32.3682 13.3573 32 13.3573Z" fill="#C9CCCF"/>
</g>
</g>
<defs>
<clipPath id="clip0_2388_1482">
<rect width="16" height="16" fill="white" transform="translate(20 10.024)"/>
</clipPath>
<clipPath id="clip1_2388_1482">
<rect width="16" height="16" fill="white" transform="translate(20 10.024)"/>
</clipPath>
</defs>
</svg>
