<svg width="56" height="37" viewBox="0 0 56 37" fill="none" xmlns="http://www.w3.org/2000/svg">
<g clip-path="url(#clip0_2388_10924)">
<g clip-path="url(#clip1_2388_10924)">
<path fill-rule="evenodd" clip-rule="evenodd" d="M28.9188 11.224L28.7456 11.2269C26.6997 11.2969 25.7933 12.6153 25.7933 14.3718L25.7927 15.2813L24.3333 15.282C24.1492 15.282 24 15.4312 24 15.6153V17.9341L24.0054 17.9941C24.0336 18.1496 24.1697 18.2675 24.3333 18.2675L25.7927 18.2673L25.7933 24.8907C25.7933 25.0748 25.9425 25.224 26.1266 25.224H29.1154L29.1753 25.2186C29.3308 25.1904 29.4488 25.0543 29.4488 24.8907L29.4487 18.2673L31.4174 18.2675C31.5877 18.2675 31.7306 18.1391 31.7488 17.9698L31.9981 15.6509L31.9993 15.5927C31.988 15.4212 31.845 15.282 31.6667 15.282L29.4487 15.2813L29.4488 14.5139C29.4366 14.403 29.4581 14.3369 29.5055 14.2868C29.5553 14.2344 29.6283 14.2054 29.7042 14.2091L31.5052 14.2153C31.6898 14.216 31.8398 14.0666 31.8398 13.882V11.5573C31.8398 11.3732 31.6906 11.224 31.5065 11.224H28.9188ZM31.1727 11.8907V13.5467L29.721 13.5428C29.4676 13.5302 29.2059 13.634 29.0219 13.828C28.8355 14.0245 28.7483 14.2928 28.7852 14.5595L28.7821 15.6153L28.7875 15.6752C28.8157 15.8307 28.9518 15.9486 29.1154 15.9486L31.2953 15.948L31.1173 17.6007L29.1154 17.6008L29.0555 17.6062C28.9 17.6344 28.7821 17.7705 28.7821 17.9341L28.782 24.5573H26.4593L26.4599 17.9341L26.4546 17.8742C26.4264 17.7187 26.2903 17.6008 26.1266 17.6008L24.6667 17.6007V15.948L26.1266 15.9486C26.3107 15.9486 26.4599 15.7994 26.4599 15.6153V14.3718C26.4599 12.8957 27.1768 11.8907 28.9188 11.8907H31.1727Z" fill="#C9CCCF"/>
</g>
</g>
<defs>
<clipPath id="clip0_2388_10924">
<rect width="16" height="16" fill="white" transform="translate(20 10.224)"/>
</clipPath>
<clipPath id="clip1_2388_10924">
<rect width="16" height="16" fill="white" transform="translate(20 10.224)"/>
</clipPath>
</defs>
</svg>
