<svg width="56" height="37" viewBox="0 0 56 37" fill="none" xmlns="http://www.w3.org/2000/svg">
<g clip-path="url(#clip0_2388_10279)">
<g clip-path="url(#clip1_2388_10279)">
<path fill-rule="evenodd" clip-rule="evenodd" d="M30.6667 11.0881C33.0599 11.0881 35 13.0282 35 15.4215V20.7548C35 23.148 33.0599 25.0881 30.6667 25.0881H25.3333C22.9401 25.0881 21 23.148 21 20.7548V15.4215C21 13.0282 22.9401 11.0881 25.3333 11.0881H30.6667ZM30.6667 11.7548H25.3333C23.3083 11.7548 21.6667 13.3964 21.6667 15.4215V20.7548C21.6667 22.7798 23.3083 24.4215 25.3333 24.4215H30.6667C32.6917 24.4215 34.3333 22.7798 34.3333 20.7548V15.4215C34.3333 13.3964 32.6917 11.7548 30.6667 11.7548ZM28 14.4215C30.025 14.4215 31.6667 16.0631 31.6667 18.0881C31.6667 20.1132 30.025 21.7548 28 21.7548C25.975 21.7548 24.3333 20.1132 24.3333 18.0881C24.3333 16.0631 25.975 14.4215 28 14.4215ZM28 15.0881C26.3431 15.0881 25 16.4313 25 18.0881C25 19.745 26.3431 21.0881 28 21.0881C29.6569 21.0881 31 19.745 31 18.0881C31 16.4313 29.6569 15.0881 28 15.0881ZM32 12.7548C32.7364 12.7548 33.3333 13.3518 33.3333 14.0881C33.3333 14.8245 32.7364 15.4215 32 15.4215C31.2636 15.4215 30.6667 14.8245 30.6667 14.0881C30.6667 13.3518 31.2636 12.7548 32 12.7548ZM32 13.4215C31.6318 13.4215 31.3333 13.7199 31.3333 14.0881C31.3333 14.4563 31.6318 14.7548 32 14.7548C32.3682 14.7548 32.6667 14.4563 32.6667 14.0881C32.6667 13.7199 32.3682 13.4215 32 13.4215Z" fill="#C9CCCF"/>
</g>
</g>
<defs>
<clipPath id="clip0_2388_10279">
<rect width="16" height="16" fill="white" transform="translate(20 10.0881)"/>
</clipPath>
<clipPath id="clip1_2388_10279">
<rect width="16" height="16" fill="white" transform="translate(20 10.0881)"/>
</clipPath>
</defs>
</svg>
