<svg width="56" height="37" viewBox="0 0 56 37" fill="none" xmlns="http://www.w3.org/2000/svg">
<g clip-path="url(#clip0_2388_5961)">
<g clip-path="url(#clip1_2388_5961)">
<path fill-rule="evenodd" clip-rule="evenodd" d="M30.6667 11.614C33.0599 11.614 35 13.5541 35 15.9473V21.2807C35 23.6739 33.0599 25.614 30.6667 25.614H25.3333C22.9401 25.614 21 23.6739 21 21.2807V15.9473C21 13.5541 22.9401 11.614 25.3333 11.614H30.6667ZM30.6667 12.2807H25.3333C23.3083 12.2807 21.6667 13.9223 21.6667 15.9473V21.2807C21.6667 23.3057 23.3083 24.9473 25.3333 24.9473H30.6667C32.6917 24.9473 34.3333 23.3057 34.3333 21.2807V15.9473C34.3333 13.9223 32.6917 12.2807 30.6667 12.2807ZM28 14.9473C30.025 14.9473 31.6667 16.589 31.6667 18.614C31.6667 20.6391 30.025 22.2807 28 22.2807C25.975 22.2807 24.3333 20.6391 24.3333 18.614C24.3333 16.589 25.975 14.9473 28 14.9473ZM28 15.614C26.3431 15.614 25 16.9572 25 18.614C25 20.2709 26.3431 21.614 28 21.614C29.6569 21.614 31 20.2709 31 18.614C31 16.9572 29.6569 15.614 28 15.614ZM32 13.2807C32.7364 13.2807 33.3333 13.8776 33.3333 14.614C33.3333 15.3504 32.7364 15.9473 32 15.9473C31.2636 15.9473 30.6667 15.3504 30.6667 14.614C30.6667 13.8776 31.2636 13.2807 32 13.2807ZM32 13.9473C31.6318 13.9473 31.3333 14.2458 31.3333 14.614C31.3333 14.9822 31.6318 15.2807 32 15.2807C32.3682 15.2807 32.6667 14.9822 32.6667 14.614C32.6667 14.2458 32.3682 13.9473 32 13.9473Z" fill="#C9CCCF"/>
</g>
</g>
<defs>
<clipPath id="clip0_2388_5961">
<rect width="16" height="16" fill="white" transform="translate(20 10.614)"/>
</clipPath>
<clipPath id="clip1_2388_5961">
<rect width="16" height="16" fill="white" transform="translate(20 10.614)"/>
</clipPath>
</defs>
</svg>
