<svg width="56" height="37" viewBox="0 0 56 37" fill="none" xmlns="http://www.w3.org/2000/svg">
<g clip-path="url(#clip0_2388_3781)">
<g clip-path="url(#clip1_2388_3781)">
<path fill-rule="evenodd" clip-rule="evenodd" d="M24.3337 15.8614C24.4973 15.8614 24.6334 15.9793 24.6616 16.1348L24.667 16.1947V24.8614C24.667 25.025 24.5491 25.1611 24.3936 25.1893L24.3337 25.1947H21.0003C20.8367 25.1947 20.7006 25.0768 20.6724 24.9213L20.667 24.8614V16.1947C20.667 16.0311 20.7849 15.895 20.9404 15.8667L21.0003 15.8614H24.3337ZM31.6603 15.8547C33.8624 15.8547 35.2701 17.5017 35.3316 20.2366L35.3337 20.4247V24.8614C35.3337 25.025 35.2157 25.1611 35.0602 25.1893L35.0003 25.1947H31.667C31.5034 25.1947 31.3673 25.0768 31.339 24.9213L31.3337 24.8614V20.1947C31.3337 19.6424 30.8859 19.1947 30.3337 19.1947C29.8139 19.1947 29.3867 19.5913 29.3382 20.0984L29.3337 20.1947V24.8614C29.3337 25.025 29.2157 25.1611 29.0602 25.1893L29.0003 25.1947H25.667C25.5034 25.1947 25.3673 25.0768 25.339 24.9213L25.3337 24.8614V16.1947C25.3337 16.0311 25.4516 15.895 25.6071 15.8667L25.667 15.8614H29.0003C29.164 15.8614 29.3001 15.9793 29.3283 16.1348L29.3337 16.1947V16.532L29.4242 16.4772C29.9799 16.1515 30.6001 15.947 31.2435 15.8793L31.4588 15.8618L31.6603 15.8547ZM24.0003 16.528H21.3337V24.528H24.0003V16.528ZM31.665 16.5213C30.7669 16.5338 29.901 16.8583 29.2158 17.439C29.0137 17.6103 28.7108 17.4876 28.6713 17.2397L28.667 17.1847V16.5274H26.0003V24.528H28.667V20.1947C28.667 19.3479 29.2986 18.6485 30.1164 18.5421L30.2241 18.5316L30.3337 18.528C31.2173 18.528 31.9404 19.2157 31.9968 20.0851L32.0003 20.1947V24.528H34.667V20.4247C34.667 18.0472 33.6268 16.6659 31.9364 16.5321L31.7979 16.524L31.665 16.5213ZM22.667 11.1947C23.1974 11.1947 23.7061 11.4054 24.0812 11.7805C24.4563 12.1556 24.667 12.6643 24.667 13.1947C24.667 14.2993 23.7716 15.1947 22.667 15.1947C21.5624 15.1947 20.667 14.2993 20.667 13.1947C20.667 12.0901 21.5624 11.1947 22.667 11.1947ZM22.667 11.8614C21.9306 11.8614 21.3337 12.4583 21.3337 13.1947C21.3337 13.9311 21.9306 14.528 22.667 14.528C23.4034 14.528 24.0003 13.9311 24.0003 13.1947C24.0003 12.8411 23.8598 12.5019 23.6098 12.2519C23.3598 12.0018 23.0206 11.8614 22.667 11.8614Z" fill="#C9CCCF"/>
</g>
</g>
<defs>
<clipPath id="clip0_2388_3781">
<rect width="16" height="16" fill="white" transform="translate(20 10.528)"/>
</clipPath>
<clipPath id="clip1_2388_3781">
<rect width="16" height="16" fill="white" transform="translate(20 10.528)"/>
</clipPath>
</defs>
</svg>
