<svg width="56" height="37" viewBox="0 0 56 37" fill="none" xmlns="http://www.w3.org/2000/svg">
<g clip-path="url(#clip0_2388_4780)">
<g clip-path="url(#clip1_2388_4780)">
<path fill-rule="evenodd" clip-rule="evenodd" d="M28.9188 11.7439L28.7456 11.7468C26.6997 11.8168 25.7933 13.1352 25.7933 14.8917L25.7927 15.8012L24.3333 15.8019C24.1492 15.8019 24 15.9511 24 16.1352V18.454L24.0054 18.514C24.0336 18.6695 24.1697 18.7874 24.3333 18.7874L25.7927 18.7872L25.7933 25.4106C25.7933 25.5947 25.9425 25.7439 26.1266 25.7439H29.1154L29.1753 25.7385C29.3308 25.7103 29.4488 25.5742 29.4488 25.4106L29.4487 18.7872L31.4174 18.7874C31.5877 18.7874 31.7306 18.659 31.7488 18.4897L31.9981 16.1708L31.9993 16.1126C31.988 15.9411 31.845 15.8019 31.6667 15.8019L29.4487 15.8012L29.4488 15.0338C29.4366 14.9229 29.4581 14.8568 29.5055 14.8067C29.5553 14.7543 29.6283 14.7253 29.7042 14.729L31.5052 14.7352C31.6898 14.7359 31.8398 14.5864 31.8398 14.4019V12.0772C31.8398 11.8931 31.6906 11.7439 31.5065 11.7439H28.9188ZM31.1727 12.4106V14.0666L29.721 14.0627C29.4676 14.0501 29.2059 14.1539 29.0219 14.3479C28.8355 14.5444 28.7483 14.8127 28.7852 15.0794L28.7821 16.1352L28.7875 16.1951C28.8157 16.3506 28.9518 16.4685 29.1154 16.4685L31.2953 16.4679L31.1173 18.1206L29.1154 18.1207L29.0555 18.1261C28.9 18.1543 28.7821 18.2904 28.7821 18.454L28.782 25.0772H26.4593L26.4599 18.454L26.4546 18.3941C26.4264 18.2386 26.2903 18.1207 26.1266 18.1207L24.6667 18.1206V16.4679L26.1266 16.4685C26.3107 16.4685 26.4599 16.3193 26.4599 16.1352V14.8917C26.4599 13.4156 27.1768 12.4106 28.9188 12.4106H31.1727Z" fill="#C9CCCF"/>
</g>
</g>
<defs>
<clipPath id="clip0_2388_4780">
<rect width="16" height="16" fill="white" transform="translate(20 10.7439)"/>
</clipPath>
<clipPath id="clip1_2388_4780">
<rect width="16" height="16" fill="white" transform="translate(20 10.7439)"/>
</clipPath>
</defs>
</svg>
