<svg width="56" height="37" viewBox="0 0 56 37" fill="none" xmlns="http://www.w3.org/2000/svg">
<g clip-path="url(#clip0_2388_6934)">
<g clip-path="url(#clip1_2388_6934)">
<path fill-rule="evenodd" clip-rule="evenodd" d="M33.3747 12.696C34.0711 12.696 34.739 12.9727 35.2313 13.4652C35.6885 13.9225 35.9596 14.5311 35.9958 15.1733L36 15.322V21.4025C36.0004 22.099 35.724 22.7672 35.2316 23.2598C34.7744 23.7173 34.1657 23.9887 33.5234 24.0251L33.3747 24.0293H22.6246C21.9282 24.0291 21.2604 23.7522 20.7681 23.2596C20.3111 22.8021 20.0402 22.1934 20.0041 21.5514L20 21.4026V15.3221C19.9998 14.6258 20.2762 13.958 20.7684 13.4655C21.2254 13.0082 21.8338 12.7368 22.4759 12.7002L22.6246 12.696H33.3747ZM22.6248 13.3627C22.1053 13.3628 21.6072 13.5693 21.2399 13.9367C20.9061 14.2708 20.7053 14.7129 20.6717 15.1809L20.6667 15.322V21.4028C20.6664 21.9224 20.8725 22.4208 21.2397 22.7884C21.5736 23.1225 22.0157 23.3236 22.4836 23.3575L22.6247 23.3626H33.3747C33.8943 23.3626 34.3927 23.1561 34.7601 22.7886C35.094 22.4544 35.2948 22.0121 35.3283 21.5438L35.3333 21.4026V15.3219C35.3335 14.8023 35.1272 14.304 34.7599 13.9365C34.4259 13.6025 33.9838 13.4015 33.5158 13.3677L33.3747 13.3627H22.6248ZM26.4645 14.9087L26.513 14.9345L31.0257 17.8219C31.212 17.9411 31.2289 18.1993 31.0764 18.3438L31.0256 18.3835L26.5129 21.2695C26.3069 21.4012 26.0412 21.2732 26.0043 21.0434L26 20.9887V15.2153C26 14.9911 26.2109 14.8423 26.4105 14.8905L26.4645 14.9087ZM26.6667 15.8247V20.3793L30.2267 18.102L26.6667 15.8247Z" fill="#C9CCCF"/>
</g>
</g>
<defs>
<clipPath id="clip0_2388_6934">
<rect width="16" height="16" fill="white" transform="translate(20 10.696)"/>
</clipPath>
<clipPath id="clip1_2388_6934">
<rect width="16" height="16" fill="white" transform="translate(20 10.696)"/>
</clipPath>
</defs>
</svg>
