<svg width="56" height="37" viewBox="0 0 56 37" fill="none" xmlns="http://www.w3.org/2000/svg">
<g clip-path="url(#clip0_2388_6960)">
<g clip-path="url(#clip1_2388_6960)">
<path fill-rule="evenodd" clip-rule="evenodd" d="M30.6667 11.696C33.0599 11.696 35 13.6361 35 16.0293V21.3627C35 23.7559 33.0599 25.696 30.6667 25.696H25.3333C22.9401 25.696 21 23.7559 21 21.3627V16.0293C21 13.6361 22.9401 11.696 25.3333 11.696H30.6667ZM30.6667 12.3627H25.3333C23.3083 12.3627 21.6667 14.0043 21.6667 16.0293V21.3627C21.6667 23.3877 23.3083 25.0293 25.3333 25.0293H30.6667C32.6917 25.0293 34.3333 23.3877 34.3333 21.3627V16.0293C34.3333 14.0043 32.6917 12.3627 30.6667 12.3627ZM28 15.0293C30.025 15.0293 31.6667 16.6709 31.6667 18.696C31.6667 20.721 30.025 22.3627 28 22.3627C25.975 22.3627 24.3333 20.721 24.3333 18.696C24.3333 16.6709 25.975 15.0293 28 15.0293ZM28 15.696C26.3431 15.696 25 17.0391 25 18.696C25 20.3528 26.3431 21.696 28 21.696C29.6569 21.696 31 20.3528 31 18.696C31 17.0391 29.6569 15.696 28 15.696ZM32 13.3627C32.7364 13.3627 33.3333 13.9596 33.3333 14.696C33.3333 15.4324 32.7364 16.0293 32 16.0293C31.2636 16.0293 30.6667 15.4324 30.6667 14.696C30.6667 13.9596 31.2636 13.3627 32 13.3627ZM32 14.0293C31.6318 14.0293 31.3333 14.3278 31.3333 14.696C31.3333 15.0642 31.6318 15.3627 32 15.3627C32.3682 15.3627 32.6667 15.0642 32.6667 14.696C32.6667 14.3278 32.3682 14.0293 32 14.0293Z" fill="#C9CCCF"/>
</g>
</g>
<defs>
<clipPath id="clip0_2388_6960">
<rect width="16" height="16" fill="white" transform="translate(20 10.696)"/>
</clipPath>
<clipPath id="clip1_2388_6960">
<rect width="16" height="16" fill="white" transform="translate(20 10.696)"/>
</clipPath>
</defs>
</svg>
