<svg width="56" height="37" viewBox="0 0 56 37" fill="none" xmlns="http://www.w3.org/2000/svg">
<g clip-path="url(#clip0_2388_7657)">
<g clip-path="url(#clip1_2388_7657)">
<path fill-rule="evenodd" clip-rule="evenodd" d="M28.9188 11.5278L28.7456 11.5308C26.6997 11.6007 25.7933 12.9192 25.7933 14.6757L25.7927 15.5852L24.3333 15.5858C24.1492 15.5858 24 15.735 24 15.9191V18.238L24.0054 18.2979C24.0336 18.4534 24.1697 18.5713 24.3333 18.5713L25.7927 18.5712L25.7933 25.1945C25.7933 25.3786 25.9425 25.5278 26.1266 25.5278H29.1154L29.1753 25.5225C29.3308 25.4942 29.4488 25.3581 29.4488 25.1945L29.4487 18.5712L31.4174 18.5713C31.5877 18.5713 31.7306 18.4429 31.7488 18.2736L31.9981 15.9548L31.9993 15.8965C31.988 15.725 31.845 15.5858 31.6667 15.5858L29.4487 15.5852L29.4488 14.8177C29.4366 14.7068 29.4581 14.6407 29.5055 14.5907C29.5553 14.5382 29.6283 14.5093 29.7042 14.5129L31.5052 14.5191C31.6898 14.5198 31.8398 14.3704 31.8398 14.1858V11.8612C31.8398 11.6771 31.6906 11.5278 31.5065 11.5278H28.9188ZM31.1727 12.1945V13.8505L29.721 13.8467C29.4676 13.834 29.2059 13.9379 29.0219 14.1319C28.8355 14.3283 28.7483 14.5966 28.7852 14.8634L28.7821 15.9191L28.7875 15.9791C28.8157 16.1346 28.9518 16.2525 29.1154 16.2525L31.2953 16.2518L31.1173 17.9045L29.1154 17.9046L29.0555 17.91C28.9 17.9382 28.7821 18.0743 28.7821 18.238L28.782 24.8612H26.4593L26.4599 18.238L26.4546 18.1781C26.4264 18.0226 26.2903 17.9046 26.1266 17.9046L24.6667 17.9045V16.2518L26.1266 16.2525C26.3107 16.2525 26.4599 16.1032 26.4599 15.9191V14.6757C26.4599 13.1996 27.1768 12.1945 28.9188 12.1945H31.1727Z" fill="#C9CCCF"/>
</g>
</g>
<defs>
<clipPath id="clip0_2388_7657">
<rect width="16" height="16" fill="white" transform="translate(20 10.5278)"/>
</clipPath>
<clipPath id="clip1_2388_7657">
<rect width="16" height="16" fill="white" transform="translate(20 10.5278)"/>
</clipPath>
</defs>
</svg>
