<svg width="56" height="37" viewBox="0 0 56 37" fill="none" xmlns="http://www.w3.org/2000/svg">
<g clip-path="url(#clip0_2388_5935)">
<g clip-path="url(#clip1_2388_5935)">
<path fill-rule="evenodd" clip-rule="evenodd" d="M33.3747 12.614C34.0711 12.614 34.739 12.8907 35.2313 13.3832C35.6885 13.8406 35.9596 14.4492 35.9958 15.0913L36 15.24V21.3205C36.0004 22.017 35.724 22.6852 35.2316 23.1779C34.7744 23.6353 34.1657 23.9067 33.5234 23.9431L33.3747 23.9473H22.6246C21.9282 23.9471 21.2604 23.6702 20.7681 23.1776C20.3111 22.7201 20.0402 22.1114 20.0041 21.4694L20 21.3207V15.2401C19.9998 14.5438 20.2762 13.876 20.7684 13.3835C21.2254 12.9262 21.8338 12.6549 22.4759 12.6183L22.6246 12.614H33.3747ZM22.6248 13.2807C22.1053 13.2808 21.6072 13.4873 21.2399 13.8548C20.9061 14.1888 20.7053 14.6309 20.6717 15.0989L20.6667 15.24V21.3209C20.6664 21.8404 20.8725 22.3388 21.2397 22.7064C21.5736 23.0405 22.0157 23.2416 22.4836 23.2756L22.6247 23.2807H33.3747C33.8943 23.2807 34.3927 23.0742 34.7601 22.7066C35.094 22.3724 35.2948 21.9301 35.3283 21.4618L35.3333 21.3207V15.2399C35.3335 14.7203 35.1272 14.222 34.7599 13.8546C34.4259 13.5205 33.9838 13.3195 33.5158 13.2858L33.3747 13.2807H22.6248ZM26.4645 14.8267L26.513 14.8526L31.0257 17.7399C31.212 17.8591 31.2289 18.1174 31.0764 18.2618L31.0256 18.3015L26.5129 21.1875C26.3069 21.3193 26.0412 21.1913 26.0043 20.9615L26 20.9067V15.1333C26 14.9091 26.2109 14.7603 26.4105 14.8086L26.4645 14.8267ZM26.6667 15.7427V20.2973L30.2267 18.02L26.6667 15.7427Z" fill="#C9CCCF"/>
</g>
</g>
<defs>
<clipPath id="clip0_2388_5935">
<rect width="16" height="16" fill="white" transform="translate(20 10.614)"/>
</clipPath>
<clipPath id="clip1_2388_5935">
<rect width="16" height="16" fill="white" transform="translate(20 10.614)"/>
</clipPath>
</defs>
</svg>
