<svg width="56" height="37" viewBox="0 0 56 37" fill="none" xmlns="http://www.w3.org/2000/svg">
<g clip-path="url(#clip0_2388_8976)">
<g clip-path="url(#clip1_2388_8976)">
<path fill-rule="evenodd" clip-rule="evenodd" d="M30.6667 11.224C33.0599 11.224 35 13.1641 35 15.5573V20.8907C35 23.2839 33.0599 25.224 30.6667 25.224H25.3333C22.9401 25.224 21 23.2839 21 20.8907V15.5573C21 13.1641 22.9401 11.224 25.3333 11.224H30.6667ZM30.6667 11.8907H25.3333C23.3083 11.8907 21.6667 13.5323 21.6667 15.5573V20.8907C21.6667 22.9157 23.3083 24.5573 25.3333 24.5573H30.6667C32.6917 24.5573 34.3333 22.9157 34.3333 20.8907V15.5573C34.3333 13.5323 32.6917 11.8907 30.6667 11.8907ZM28 14.5573C30.025 14.5573 31.6667 16.199 31.6667 18.224C31.6667 20.249 30.025 21.8907 28 21.8907C25.975 21.8907 24.3333 20.249 24.3333 18.224C24.3333 16.199 25.975 14.5573 28 14.5573ZM28 15.224C26.3431 15.224 25 16.5671 25 18.224C25 19.8809 26.3431 21.224 28 21.224C29.6569 21.224 31 19.8809 31 18.224C31 16.5671 29.6569 15.224 28 15.224ZM32 12.8907C32.7364 12.8907 33.3333 13.4876 33.3333 14.224C33.3333 14.9604 32.7364 15.5573 32 15.5573C31.2636 15.5573 30.6667 14.9604 30.6667 14.224C30.6667 13.4876 31.2636 12.8907 32 12.8907ZM32 13.5573C31.6318 13.5573 31.3333 13.8558 31.3333 14.224C31.3333 14.5922 31.6318 14.8907 32 14.8907C32.3682 14.8907 32.6667 14.5922 32.6667 14.224C32.6667 13.8558 32.3682 13.5573 32 13.5573Z" fill="#C9CCCF"/>
</g>
</g>
<defs>
<clipPath id="clip0_2388_8976">
<rect width="16" height="16" fill="white" transform="translate(20 10.224)"/>
</clipPath>
<clipPath id="clip1_2388_8976">
<rect width="16" height="16" fill="white" transform="translate(20 10.224)"/>
</clipPath>
</defs>
</svg>
