<svg width="56" height="37" viewBox="0 0 56 37" fill="none" xmlns="http://www.w3.org/2000/svg">
<g clip-path="url(#clip0_2388_978)">
<g clip-path="url(#clip1_2388_978)">
<path fill-rule="evenodd" clip-rule="evenodd" d="M24.3327 15.4614C24.4963 15.4614 24.6324 15.5793 24.6606 15.7348L24.666 15.7947V24.4614C24.666 24.625 24.5481 24.7611 24.3926 24.7894L24.3327 24.7947H20.9993C20.8357 24.7947 20.6996 24.6768 20.6714 24.5213L20.666 24.4614V15.7947C20.666 15.6311 20.7839 15.495 20.9394 15.4668L20.9993 15.4614H24.3327ZM31.6593 15.4547C33.8614 15.4547 35.2691 17.1017 35.3306 19.8366L35.3327 20.0247V24.4614C35.3327 24.625 35.2148 24.7611 35.0593 24.7894L34.9993 24.7947H31.666C31.5024 24.7947 31.3663 24.6768 31.3381 24.5213L31.3327 24.4614V19.7947C31.3327 19.2424 30.885 18.7947 30.3327 18.7947C29.8129 18.7947 29.3857 19.1913 29.3373 19.6984L29.3327 19.7947V24.4614C29.3327 24.625 29.2148 24.7611 29.0593 24.7894L28.9993 24.7947H25.666C25.5024 24.7947 25.3663 24.6768 25.3381 24.5213L25.3327 24.4614V15.7947C25.3327 15.6311 25.4506 15.495 25.6061 15.4668L25.666 15.4614H28.9993C29.163 15.4614 29.2991 15.5793 29.3273 15.7348L29.3327 15.7947V16.1321L29.4232 16.0772C29.979 15.7515 30.5991 15.547 31.2425 15.4793L31.4578 15.4618L31.6593 15.4547ZM23.9993 16.1281H21.3327V24.1281H23.9993V16.1281ZM31.664 16.1214C30.7659 16.1339 29.9001 16.4583 29.2149 17.039C29.0127 17.2103 28.7098 17.0877 28.6703 16.8397L28.666 16.7847V16.1274H25.9993V24.1281H28.666V19.7947C28.666 18.9479 29.2976 18.2486 30.1154 18.1421L30.2231 18.1316L30.3327 18.1281C31.2163 18.1281 31.9394 18.8157 31.9958 19.6851L31.9993 19.7947V24.1281H34.666V20.0247C34.666 17.6472 33.6259 16.266 31.9355 16.1321L31.797 16.124L31.664 16.1214ZM22.666 10.7947C23.1964 10.7947 23.7052 11.0054 24.0802 11.3805C24.4553 11.7556 24.666 12.2643 24.666 12.7947C24.666 13.8993 23.7706 14.7947 22.666 14.7947C21.5614 14.7947 20.666 13.8993 20.666 12.7947C20.666 11.6902 21.5614 10.7947 22.666 10.7947ZM22.666 11.4614C21.9296 11.4614 21.3327 12.0583 21.3327 12.7947C21.3327 13.5311 21.9296 14.1281 22.666 14.1281C23.4024 14.1281 23.9993 13.5311 23.9993 12.7947C23.9993 12.4411 23.8589 12.102 23.6088 11.8519C23.3588 11.6019 23.0196 11.4614 22.666 11.4614Z" fill="#C9CCCF"/>
</g>
</g>
<defs>
<clipPath id="clip0_2388_978">
<rect width="16" height="16" fill="white" transform="translate(20 10.1281)"/>
</clipPath>
<clipPath id="clip1_2388_978">
<rect width="16" height="16" fill="white" transform="translate(20 10.1281)"/>
</clipPath>
</defs>
</svg>
