<svg width="56" height="37" viewBox="0 0 56 37" fill="none" xmlns="http://www.w3.org/2000/svg">
<g clip-path="url(#clip0_2388_991)">
<g clip-path="url(#clip1_2388_991)">
<path fill-rule="evenodd" clip-rule="evenodd" d="M30.6667 11.1281C33.0599 11.1281 35 13.0682 35 15.4614V20.7947C35 23.188 33.0599 25.1281 30.6667 25.1281H25.3333C22.9401 25.1281 21 23.188 21 20.7947V15.4614C21 13.0682 22.9401 11.1281 25.3333 11.1281H30.6667ZM30.6667 11.7947H25.3333C23.3083 11.7947 21.6667 13.4363 21.6667 15.4614V20.7947C21.6667 22.8198 23.3083 24.4614 25.3333 24.4614H30.6667C32.6917 24.4614 34.3333 22.8198 34.3333 20.7947V15.4614C34.3333 13.4363 32.6917 11.7947 30.6667 11.7947ZM28 14.4614C30.025 14.4614 31.6667 16.103 31.6667 18.1281C31.6667 20.1531 30.025 21.7947 28 21.7947C25.975 21.7947 24.3333 20.1531 24.3333 18.1281C24.3333 16.103 25.975 14.4614 28 14.4614ZM28 15.1281C26.3431 15.1281 25 16.4712 25 18.1281C25 19.7849 26.3431 21.1281 28 21.1281C29.6569 21.1281 31 19.7849 31 18.1281C31 16.4712 29.6569 15.1281 28 15.1281ZM32 12.7947C32.7364 12.7947 33.3333 13.3917 33.3333 14.1281C33.3333 14.8644 32.7364 15.4614 32 15.4614C31.2636 15.4614 30.6667 14.8644 30.6667 14.1281C30.6667 13.3917 31.2636 12.7947 32 12.7947ZM32 13.4614C31.6318 13.4614 31.3333 13.7599 31.3333 14.1281C31.3333 14.4962 31.6318 14.7947 32 14.7947C32.3682 14.7947 32.6667 14.4962 32.6667 14.1281C32.6667 13.7599 32.3682 13.4614 32 13.4614Z" fill="#C9CCCF"/>
</g>
</g>
<defs>
<clipPath id="clip0_2388_991">
<rect width="16" height="16" fill="white" transform="translate(20 10.1281)"/>
</clipPath>
<clipPath id="clip1_2388_991">
<rect width="16" height="16" fill="white" transform="translate(20 10.1281)"/>
</clipPath>
</defs>
</svg>
