<svg width="56" height="37" viewBox="0 0 56 37" fill="none" xmlns="http://www.w3.org/2000/svg">
<g clip-path="url(#clip0_2388_953)">
<g clip-path="url(#clip1_2388_953)">
<path fill-rule="evenodd" clip-rule="evenodd" d="M28.9188 11.1281L28.7456 11.131C26.6997 11.201 25.7933 12.5194 25.7933 14.2759L25.7927 15.1854L24.3333 15.186C24.1492 15.186 24 15.3353 24 15.5194V17.8382L24.0054 17.8981C24.0336 18.0536 24.1697 18.1715 24.3333 18.1715L25.7927 18.1714L25.7933 24.7947C25.7933 24.9788 25.9425 25.1281 26.1266 25.1281H29.1154L29.1753 25.1227C29.3308 25.0945 29.4488 24.9584 29.4488 24.7947L29.4487 18.1714L31.4174 18.1715C31.5877 18.1715 31.7306 18.0432 31.7488 17.8738L31.9981 15.555L31.9993 15.4968C31.988 15.3253 31.845 15.186 31.6667 15.186L29.4487 15.1854L29.4488 14.4179C29.4366 14.3071 29.4581 14.2409 29.5055 14.1909C29.5553 14.1385 29.6283 14.1095 29.7042 14.1132L31.5052 14.1194C31.6898 14.12 31.8398 13.9706 31.8398 13.786V11.4614C31.8398 11.2773 31.6906 11.1281 31.5065 11.1281H28.9188ZM31.1727 11.7947V13.4507L29.721 13.4469C29.4676 13.4342 29.2059 13.5381 29.0219 13.7321C28.8355 13.9285 28.7483 14.1969 28.7852 14.4636L28.7821 15.5194L28.7875 15.5793C28.8157 15.7348 28.9518 15.8527 29.1154 15.8527L31.2953 15.8521L31.1173 17.5047L29.1154 17.5049L29.0555 17.5102C28.9 17.5385 28.7821 17.6746 28.7821 17.8382L28.782 24.4614H26.4593L26.4599 17.8382L26.4546 17.7783C26.4264 17.6228 26.2903 17.5049 26.1266 17.5049L24.6667 17.5047V15.8521L26.1266 15.8527C26.3107 15.8527 26.4599 15.7035 26.4599 15.5194V14.2759C26.4599 12.7998 27.1768 11.7947 28.9188 11.7947H31.1727Z" fill="#C9CCCF"/>
</g>
</g>
<defs>
<clipPath id="clip0_2388_953">
<rect width="16" height="16" fill="white" transform="translate(20 10.1281)"/>
</clipPath>
<clipPath id="clip1_2388_953">
<rect width="16" height="16" fill="white" transform="translate(20 10.1281)"/>
</clipPath>
</defs>
</svg>
