<svg width="56" height="37" viewBox="0 0 56 37" fill="none" xmlns="http://www.w3.org/2000/svg">
<g clip-path="url(#clip0_2388_2807)">
<g clip-path="url(#clip1_2388_2807)">
<path fill-rule="evenodd" clip-rule="evenodd" d="M24.3327 15.6615C24.4963 15.6615 24.6324 15.7794 24.6606 15.9349L24.666 15.9948V24.6615C24.666 24.8251 24.5481 24.9612 24.3926 24.9894L24.3327 24.9948H20.9993C20.8357 24.9948 20.6996 24.8769 20.6714 24.7214L20.666 24.6615V15.9948C20.666 15.8312 20.7839 15.6951 20.9394 15.6668L20.9993 15.6615H24.3327ZM31.6593 15.6548C33.8614 15.6548 35.2691 17.3018 35.3306 20.0367L35.3327 20.2248V24.6615C35.3327 24.8251 35.2148 24.9612 35.0593 24.9894L34.9993 24.9948H31.666C31.5024 24.9948 31.3663 24.8769 31.3381 24.7214L31.3327 24.6615V19.9948C31.3327 19.4425 30.885 18.9948 30.3327 18.9948C29.8129 18.9948 29.3857 19.3914 29.3373 19.8985L29.3327 19.9948V24.6615C29.3327 24.8251 29.2148 24.9612 29.0593 24.9894L28.9993 24.9948H25.666C25.5024 24.9948 25.3663 24.8769 25.3381 24.7214L25.3327 24.6615V15.9948C25.3327 15.8312 25.4506 15.6951 25.6061 15.6668L25.666 15.6615H28.9993C29.163 15.6615 29.2991 15.7794 29.3273 15.9349L29.3327 15.9948V16.3321L29.4232 16.2773C29.979 15.9516 30.5991 15.7471 31.2425 15.6794L31.4578 15.6619L31.6593 15.6548ZM23.9993 16.3281H21.3327V24.3281H23.9993V16.3281ZM31.664 16.3214C30.7659 16.334 29.9001 16.6584 29.2149 17.2391C29.0127 17.4104 28.7098 17.2878 28.6703 17.0398L28.666 16.9848V16.3275H25.9993V24.3281H28.666V19.9948C28.666 19.148 29.2976 18.4487 30.1154 18.3422L30.2231 18.3317L30.3327 18.3281C31.2163 18.3281 31.9394 19.0158 31.9958 19.8852L31.9993 19.9948V24.3281H34.666V20.2248C34.666 17.8473 33.6259 16.466 31.9355 16.3322L31.797 16.3241L31.664 16.3214ZM22.666 10.9948C23.1964 10.9948 23.7052 11.2055 24.0802 11.5806C24.4553 11.9557 24.666 12.4644 24.666 12.9948C24.666 14.0994 23.7706 14.9948 22.666 14.9948C21.5614 14.9948 20.666 14.0994 20.666 12.9948C20.666 11.8902 21.5614 10.9948 22.666 10.9948ZM22.666 11.6615C21.9296 11.6615 21.3327 12.2584 21.3327 12.9948C21.3327 13.7312 21.9296 14.3281 22.666 14.3281C23.4024 14.3281 23.9993 13.7312 23.9993 12.9948C23.9993 12.6412 23.8589 12.3021 23.6088 12.052C23.3588 11.802 23.0196 11.6615 22.666 11.6615Z" fill="#C9CCCF"/>
</g>
</g>
<defs>
<clipPath id="clip0_2388_2807">
<rect width="16" height="16" fill="white" transform="translate(20 10.3281)"/>
</clipPath>
<clipPath id="clip1_2388_2807">
<rect width="16" height="16" fill="white" transform="translate(20 10.3281)"/>
</clipPath>
</defs>
</svg>
