<svg width="56" height="37" viewBox="0 0 56 37" fill="none" xmlns="http://www.w3.org/2000/svg">
<g clip-path="url(#clip0_2388_12257)">
<g clip-path="url(#clip1_2388_12257)">
<path fill-rule="evenodd" clip-rule="evenodd" d="M24.3333 16.1175C24.497 16.1175 24.6331 16.2354 24.6613 16.3909L24.6667 16.4508V25.1175C24.6667 25.2811 24.5488 25.4172 24.3933 25.4454L24.3333 25.4508H21C20.8364 25.4508 20.7003 25.3329 20.672 25.1774L20.6667 25.1175V16.4508C20.6667 16.2872 20.7846 16.1511 20.9401 16.1228L21 16.1175H24.3333ZM31.66 16.1108C33.8621 16.1108 35.2698 17.7578 35.3312 20.4927L35.3333 20.6808V25.1175C35.3333 25.2811 35.2154 25.4172 35.0599 25.4454L35 25.4508H31.6667C31.503 25.4508 31.3669 25.3329 31.3387 25.1774L31.3333 25.1175V20.4508C31.3333 19.8985 30.8856 19.4508 30.3333 19.4508C29.8135 19.4508 29.3864 19.8474 29.3379 20.3545L29.3333 20.4508V25.1175C29.3333 25.2811 29.2154 25.4172 29.0599 25.4454L29 25.4508H25.6667C25.503 25.4508 25.3669 25.3329 25.3387 25.1774L25.3333 25.1175V16.4508C25.3333 16.2872 25.4513 16.1511 25.6068 16.1228L25.6667 16.1175H29C29.1636 16.1175 29.2997 16.2354 29.328 16.3909L29.3333 16.4508V16.7881L29.4239 16.7333C29.9796 16.4076 30.5998 16.2031 31.2432 16.1354L31.4585 16.1179L31.66 16.1108ZM24 16.7841H21.3333V24.7841H24V16.7841ZM31.6646 16.7774C30.7665 16.7899 29.9007 17.1144 29.2155 17.6951C29.0134 17.8664 28.7105 17.7437 28.671 17.4958L28.6667 17.4408V16.7835H26V24.7841H28.6667V20.4508C28.6667 19.604 29.2982 18.9046 30.1161 18.7982L30.2238 18.7877L30.3333 18.7841C31.217 18.7841 31.94 19.4718 31.9965 20.3412L32 20.4508V24.7841H34.6667V20.6808C34.6667 18.3033 33.6265 16.922 31.9361 16.7882L31.7976 16.7801L31.6646 16.7774ZM22.6667 11.4508C23.1971 11.4508 23.7058 11.6615 24.0809 12.0366C24.456 12.4117 24.6667 12.9204 24.6667 13.4508C24.6667 14.5554 23.7712 15.4508 22.6667 15.4508C21.5621 15.4508 20.6667 14.5554 20.6667 13.4508C20.6667 12.3462 21.5621 11.4508 22.6667 11.4508ZM22.6667 12.1175C21.9303 12.1175 21.3333 12.7144 21.3333 13.4508C21.3333 14.1872 21.9303 14.7841 22.6667 14.7841C23.4031 14.7841 24 14.1872 24 13.4508C24 13.0972 23.8595 12.758 23.6095 12.508C23.3594 12.2579 23.0203 12.1175 22.6667 12.1175Z" fill="#C9CCCF"/>
</g>
</g>
<defs>
<clipPath id="clip0_2388_12257">
<rect width="16" height="16" fill="white" transform="translate(20 10.7841)"/>
</clipPath>
<clipPath id="clip1_2388_12257">
<rect width="16" height="16" fill="white" transform="translate(20 10.7841)"/>
</clipPath>
</defs>
</svg>
