<svg width="56" height="37" viewBox="0 0 56 37" fill="none" xmlns="http://www.w3.org/2000/svg">
<g clip-path="url(#clip0_2388_5775)">
<g clip-path="url(#clip1_2388_5775)">
<path fill-rule="evenodd" clip-rule="evenodd" d="M30.6667 11.2241C33.0599 11.2241 35 13.1642 35 15.5575V20.8908C35 23.284 33.0599 25.2241 30.6667 25.2241H25.3333C22.9401 25.2241 21 23.284 21 20.8908V15.5575C21 13.1642 22.9401 11.2241 25.3333 11.2241H30.6667ZM30.6667 11.8908H25.3333C23.3083 11.8908 21.6667 13.5324 21.6667 15.5575V20.8908C21.6667 22.9158 23.3083 24.5575 25.3333 24.5575H30.6667C32.6917 24.5575 34.3333 22.9158 34.3333 20.8908V15.5575C34.3333 13.5324 32.6917 11.8908 30.6667 11.8908ZM28 14.5575C30.025 14.5575 31.6667 16.1991 31.6667 18.2241C31.6667 20.2492 30.025 21.8908 28 21.8908C25.975 21.8908 24.3333 20.2492 24.3333 18.2241C24.3333 16.1991 25.975 14.5575 28 14.5575ZM28 15.2241C26.3431 15.2241 25 16.5673 25 18.2241C25 19.881 26.3431 21.2241 28 21.2241C29.6569 21.2241 31 19.881 31 18.2241C31 16.5673 29.6569 15.2241 28 15.2241ZM32 12.8908C32.7364 12.8908 33.3333 13.4877 33.3333 14.2241C33.3333 14.9605 32.7364 15.5575 32 15.5575C31.2636 15.5575 30.6667 14.9605 30.6667 14.2241C30.6667 13.4877 31.2636 12.8908 32 12.8908ZM32 13.5575C31.6318 13.5575 31.3333 13.8559 31.3333 14.2241C31.3333 14.5923 31.6318 14.8908 32 14.8908C32.3682 14.8908 32.6667 14.5923 32.6667 14.2241C32.6667 13.8559 32.3682 13.5575 32 13.5575Z" fill="#C9CCCF"/>
</g>
</g>
<defs>
<clipPath id="clip0_2388_5775">
<rect width="16" height="16" fill="white" transform="translate(20 10.2241)"/>
</clipPath>
<clipPath id="clip1_2388_5775">
<rect width="16" height="16" fill="white" transform="translate(20 10.2241)"/>
</clipPath>
</defs>
</svg>
