<svg width="56" height="37" viewBox="0 0 56 37" fill="none" xmlns="http://www.w3.org/2000/svg">
<g clip-path="url(#clip0_2388_10241)">
<g clip-path="url(#clip1_2388_10241)">
<path fill-rule="evenodd" clip-rule="evenodd" d="M28.9188 11.0881L28.7456 11.0911C26.6997 11.161 25.7933 12.4795 25.7933 14.236L25.7927 15.1455L24.3333 15.1461C24.1492 15.1461 24 15.2953 24 15.4794V17.7983L24.0054 17.8582C24.0336 18.0137 24.1697 18.1316 24.3333 18.1316L25.7927 18.1315L25.7933 24.7548C25.7933 24.9389 25.9425 25.0881 26.1266 25.0881H29.1154L29.1753 25.0828C29.3308 25.0545 29.4488 24.9184 29.4488 24.7548L29.4487 18.1315L31.4174 18.1316C31.5877 18.1316 31.7306 18.0032 31.7488 17.8339L31.9981 15.5151L31.9993 15.4568C31.988 15.2853 31.845 15.1461 31.6667 15.1461L29.4487 15.1455L29.4488 14.378C29.4366 14.2671 29.4581 14.201 29.5055 14.151C29.5553 14.0985 29.6283 14.0696 29.7042 14.0732L31.5052 14.0794C31.6898 14.0801 31.8398 13.9307 31.8398 13.7461V11.4215C31.8398 11.2374 31.6906 11.0881 31.5065 11.0881H28.9188ZM31.1727 11.7548V13.4108L29.721 13.407C29.4676 13.3943 29.2059 13.4982 29.0219 13.6922C28.8355 13.8886 28.7483 14.157 28.7852 14.4237L28.7821 15.4794L28.7875 15.5394C28.8157 15.6949 28.9518 15.8128 29.1154 15.8128L31.2953 15.8121L31.1173 17.4648L29.1154 17.4649L29.0555 17.4703C28.9 17.4985 28.7821 17.6346 28.7821 17.7983L28.782 24.4215H26.4593L26.4599 17.7983L26.4546 17.7384C26.4264 17.5829 26.2903 17.4649 26.1266 17.4649L24.6667 17.4648V15.8121L26.1266 15.8128C26.3107 15.8128 26.4599 15.6635 26.4599 15.4794V14.236C26.4599 12.7599 27.1768 11.7548 28.9188 11.7548H31.1727Z" fill="#C9CCCF"/>
</g>
</g>
<defs>
<clipPath id="clip0_2388_10241">
<rect width="16" height="16" fill="white" transform="translate(20 10.0881)"/>
</clipPath>
<clipPath id="clip1_2388_10241">
<rect width="16" height="16" fill="white" transform="translate(20 10.0881)"/>
</clipPath>
</defs>
</svg>
