<svg width="56" height="37" viewBox="0 0 56 37" fill="none" xmlns="http://www.w3.org/2000/svg">
<g clip-path="url(#clip0_2388_10253)">
<g clip-path="url(#clip1_2388_10253)">
<path fill-rule="evenodd" clip-rule="evenodd" d="M33.3747 12.0881C34.0711 12.0881 34.739 12.3648 35.2313 12.8573C35.6885 13.3147 35.9596 13.9233 35.9958 14.5654L36 14.7141V20.7946C36.0004 21.4912 35.724 22.1593 35.2316 22.652C34.7744 23.1095 34.1657 23.3808 33.5234 23.4173L33.3747 23.4215H22.6246C21.9282 23.4213 21.2604 23.1444 20.7681 22.6517C20.3111 22.1943 20.0402 21.5856 20.0041 20.9435L20 20.7948V14.7142C19.9998 14.0179 20.2762 13.3501 20.7684 12.8576C21.2254 12.4003 21.8338 12.129 22.4759 12.0924L22.6246 12.0881H33.3747ZM22.6248 12.7548C22.1053 12.755 21.6072 12.9615 21.2399 13.3289C20.9061 13.6629 20.7053 14.1051 20.6717 14.573L20.6667 14.7141V20.795C20.6664 21.3146 20.8725 21.813 21.2397 22.1805C21.5736 22.5147 22.0157 22.7158 22.4836 22.7497L22.6247 22.7548H33.3747C33.8943 22.7548 34.3927 22.5483 34.7601 22.1807C35.094 21.8466 35.2948 21.4042 35.3283 20.936L35.3333 20.7948V14.714C35.3335 14.1945 35.1272 13.6961 34.7599 13.3287C34.4259 12.9946 33.9838 12.7937 33.5158 12.7599L33.3747 12.7548H22.6248ZM26.4645 14.3008L26.513 14.3267L31.0257 17.214C31.212 17.3332 31.2289 17.5915 31.0764 17.7359L31.0256 17.7756L26.5129 20.6616C26.3069 20.7934 26.0412 20.6654 26.0043 20.4356L26 20.3808V14.6075C26 14.3833 26.2109 14.2345 26.4105 14.2827L26.4645 14.3008ZM26.6667 15.2168V19.7715L30.2267 17.4941L26.6667 15.2168Z" fill="#C9CCCF"/>
</g>
</g>
<defs>
<clipPath id="clip0_2388_10253">
<rect width="16" height="16" fill="white" transform="translate(20 10.0881)"/>
</clipPath>
<clipPath id="clip1_2388_10253">
<rect width="16" height="16" fill="white" transform="translate(20 10.0881)"/>
</clipPath>
</defs>
</svg>
