<svg width="56" height="37" viewBox="0 0 56 37" fill="none" xmlns="http://www.w3.org/2000/svg">
<g clip-path="url(#clip0_2370_49985)">
<g clip-path="url(#clip1_2370_49985)">
<path fill-rule="evenodd" clip-rule="evenodd" d="M24.3332 15.6374C24.4968 15.6374 24.6329 15.7553 24.6611 15.9108L24.6665 15.9707V24.6374C24.6665 24.801 24.5486 24.9371 24.3931 24.9653L24.3332 24.9707H20.9998C20.8362 24.9707 20.7001 24.8528 20.6719 24.6973L20.6665 24.6374V15.9707C20.6665 15.8071 20.7844 15.671 20.9399 15.6427L20.9998 15.6374H24.3332ZM31.6598 15.6307C33.8619 15.6307 35.2696 17.2777 35.3311 20.0126L35.3332 20.2007V24.6374C35.3332 24.801 35.2153 24.9371 35.0598 24.9653L34.9998 24.9707H31.6665C31.5029 24.9707 31.3668 24.8528 31.3385 24.6973L31.3332 24.6374V19.9707C31.3332 19.4184 30.8855 18.9707 30.3332 18.9707C29.8134 18.9707 29.3862 19.3673 29.3377 19.8744L29.3332 19.9707V24.6374C29.3332 24.801 29.2153 24.9371 29.0598 24.9653L28.9998 24.9707H25.6665C25.5029 24.9707 25.3668 24.8528 25.3385 24.6973L25.3332 24.6374V15.9707C25.3332 15.8071 25.4511 15.671 25.6066 15.6427L25.6665 15.6374H28.9998C29.1635 15.6374 29.2996 15.7553 29.3278 15.9108L29.3332 15.9707V16.308L29.4237 16.2532C29.9795 15.9275 30.5996 15.723 31.243 15.6553L31.4583 15.6378L31.6598 15.6307ZM23.9998 16.304H21.3332V24.304H23.9998V16.304ZM31.6645 16.2973C30.7664 16.3098 29.9006 16.6343 29.2154 17.215C29.0132 17.3863 28.7103 17.2636 28.6708 17.0157L28.6665 16.9607V16.3034H25.9998V24.304H28.6665V19.9707C28.6665 19.1239 29.2981 18.4245 30.1159 18.3181L30.2236 18.3076L30.3332 18.304C31.2168 18.304 31.9399 18.9917 31.9963 19.8611L31.9998 19.9707V24.304H34.6665V20.2007C34.6665 17.8232 33.6263 16.4419 31.9359 16.3081L31.7975 16.3L31.6645 16.2973ZM22.6665 10.9707C23.1969 10.9707 23.7056 11.1814 24.0807 11.5565C24.4558 11.9316 24.6665 12.4403 24.6665 12.9707C24.6665 14.0753 23.7711 14.9707 22.6665 14.9707C21.5619 14.9707 20.6665 14.0753 20.6665 12.9707C20.6665 11.8661 21.5619 10.9707 22.6665 10.9707ZM22.6665 11.6374C21.9301 11.6374 21.3332 12.2343 21.3332 12.9707C21.3332 13.7071 21.9301 14.304 22.6665 14.304C23.4029 14.304 23.9998 13.7071 23.9998 12.9707C23.9998 12.6171 23.8594 12.2779 23.6093 12.0279C23.3593 11.7778 23.0201 11.6374 22.6665 11.6374Z" fill="#C9CCCF"/>
</g>
</g>
<defs>
<clipPath id="clip0_2370_49985">
<rect width="16" height="16" fill="white" transform="translate(20 10.304)"/>
</clipPath>
<clipPath id="clip1_2370_49985">
<rect width="16" height="16" fill="white" transform="translate(20 10.304)"/>
</clipPath>
</defs>
</svg>
