<svg width="56" height="37" viewBox="0 0 56 37" fill="none" xmlns="http://www.w3.org/2000/svg">
<g clip-path="url(#clip0_2388_9184)">
<g clip-path="url(#clip1_2388_9184)">
<path fill-rule="evenodd" clip-rule="evenodd" d="M28.9188 11.528L28.7456 11.5309C26.6997 11.6009 25.7933 12.9193 25.7933 14.6758L25.7927 15.5853L24.3333 15.5859C24.1492 15.5859 24 15.7352 24 15.9193V18.2381L24.0054 18.298C24.0336 18.4535 24.1697 18.5714 24.3333 18.5714L25.7927 18.5713L25.7933 25.1946C25.7933 25.3787 25.9425 25.528 26.1266 25.528H29.1154L29.1753 25.5226C29.3308 25.4944 29.4488 25.3583 29.4488 25.1946L29.4487 18.5713L31.4174 18.5714C31.5877 18.5714 31.7306 18.4431 31.7488 18.2737L31.9981 15.9549L31.9993 15.8967C31.988 15.7252 31.845 15.5859 31.6667 15.5859L29.4487 15.5853L29.4488 14.8178C29.4366 14.707 29.4581 14.6408 29.5055 14.5908C29.5553 14.5384 29.6283 14.5094 29.7042 14.5131L31.5052 14.5193C31.6898 14.5199 31.8398 14.3705 31.8398 14.1859V11.8613C31.8398 11.6772 31.6906 11.528 31.5065 11.528H28.9188ZM31.1727 12.1946V13.8506L29.721 13.8468C29.4676 13.8341 29.2059 13.938 29.0219 14.132C28.8355 14.3284 28.7483 14.5968 28.7852 14.8635L28.7821 15.9193L28.7875 15.9792C28.8157 16.1347 28.9518 16.2526 29.1154 16.2526L31.2953 16.252L31.1173 17.9046L29.1154 17.9048L29.0555 17.9101C28.9 17.9384 28.7821 18.0745 28.7821 18.2381L28.782 24.8613H26.4593L26.4599 18.2381L26.4546 18.1782C26.4264 18.0227 26.2903 17.9048 26.1266 17.9048L24.6667 17.9046V16.252L26.1266 16.2526C26.3107 16.2526 26.4599 16.1034 26.4599 15.9193V14.6758C26.4599 13.1997 27.1768 12.1946 28.9188 12.1946H31.1727Z" fill="#C9CCCF"/>
</g>
</g>
<defs>
<clipPath id="clip0_2388_9184">
<rect width="16" height="16" fill="white" transform="translate(20 10.528)"/>
</clipPath>
<clipPath id="clip1_2388_9184">
<rect width="16" height="16" fill="white" transform="translate(20 10.528)"/>
</clipPath>
</defs>
</svg>
