<svg width="56" height="37" viewBox="0 0 56 37" fill="none" xmlns="http://www.w3.org/2000/svg">
<g clip-path="url(#clip0_2388_7991)">
<g clip-path="url(#clip1_2388_7991)">
<path fill-rule="evenodd" clip-rule="evenodd" d="M24.3337 15.5574C24.4973 15.5574 24.6334 15.6753 24.6616 15.8308L24.667 15.8907V24.5574C24.667 24.7211 24.5491 24.8572 24.3936 24.8854L24.3337 24.8907H21.0003C20.8367 24.8907 20.7006 24.7728 20.6724 24.6173L20.667 24.5574V15.8907C20.667 15.7271 20.7849 15.591 20.9404 15.5628L21.0003 15.5574H24.3337ZM31.6603 15.5507C33.8624 15.5507 35.2701 17.1977 35.3316 19.9326L35.3337 20.1207V24.5574C35.3337 24.7211 35.2157 24.8572 35.0602 24.8854L35.0003 24.8907H31.667C31.5034 24.8907 31.3673 24.7728 31.339 24.6173L31.3337 24.5574V19.8907C31.3337 19.3385 30.8859 18.8907 30.3337 18.8907C29.8139 18.8907 29.3867 19.2873 29.3382 19.7944L29.3337 19.8907V24.5574C29.3337 24.7211 29.2157 24.8572 29.0602 24.8854L29.0003 24.8907H25.667C25.5034 24.8907 25.3673 24.7728 25.339 24.6173L25.3337 24.5574V15.8907C25.3337 15.7271 25.4516 15.591 25.6071 15.5628L25.667 15.5574H29.0003C29.164 15.5574 29.3001 15.6753 29.3283 15.8308L29.3337 15.8907V16.2281L29.4242 16.1733C29.9799 15.8475 30.6001 15.6431 31.2435 15.5753L31.4588 15.5578L31.6603 15.5507ZM24.0003 16.2241H21.3337V24.2241H24.0003V16.2241ZM31.665 16.2174C30.7669 16.2299 29.901 16.5543 29.2158 17.135C29.0137 17.3064 28.7108 17.1837 28.6713 16.9357L28.667 16.8807V16.2234H26.0003V24.2241H28.667V19.8907C28.667 19.0439 29.2986 18.3446 30.1164 18.2381L30.2241 18.2276L30.3337 18.2241C31.2173 18.2241 31.9404 18.9118 31.9968 19.7812L32.0003 19.8907V24.2241H34.667V20.1207C34.667 17.7432 33.6268 16.362 31.9364 16.2281L31.7979 16.22L31.665 16.2174ZM22.667 10.8907C23.1974 10.8907 23.7061 11.1015 24.0812 11.4765C24.4563 11.8516 24.667 12.3603 24.667 12.8907C24.667 13.9953 23.7716 14.8907 22.667 14.8907C21.5624 14.8907 20.667 13.9953 20.667 12.8907C20.667 11.7862 21.5624 10.8907 22.667 10.8907ZM22.667 11.5574C21.9306 11.5574 21.3337 12.1544 21.3337 12.8907C21.3337 13.6271 21.9306 14.2241 22.667 14.2241C23.4034 14.2241 24.0003 13.6271 24.0003 12.8907C24.0003 12.5371 23.8598 12.198 23.6098 11.9479C23.3598 11.6979 23.0206 11.5574 22.667 11.5574Z" fill="#C9CCCF"/>
</g>
</g>
<defs>
<clipPath id="clip0_2388_7991">
<rect width="16" height="16" fill="white" transform="translate(20 10.2241)"/>
</clipPath>
<clipPath id="clip1_2388_7991">
<rect width="16" height="16" fill="white" transform="translate(20 10.2241)"/>
</clipPath>
</defs>
</svg>
