<svg width="56" height="37" viewBox="0 0 56 37" fill="none" xmlns="http://www.w3.org/2000/svg">
<g clip-path="url(#clip0_2388_5923)">
<g clip-path="url(#clip1_2388_5923)">
<path fill-rule="evenodd" clip-rule="evenodd" d="M28.9188 11.614L28.7456 11.6169C26.6997 11.6869 25.7933 13.0054 25.7933 14.7618L25.7927 15.6713L24.3333 15.672C24.1492 15.672 24 15.8212 24 16.0053V18.3242L24.0054 18.3841C24.0336 18.5396 24.1697 18.6575 24.3333 18.6575L25.7927 18.6573L25.7933 25.2807C25.7933 25.4648 25.9425 25.614 26.1266 25.614H29.1154L29.1753 25.6086C29.3308 25.5804 29.4488 25.4443 29.4488 25.2807L29.4487 18.6573L31.4174 18.6575C31.5877 18.6575 31.7306 18.5291 31.7488 18.3598L31.9981 16.0409L31.9993 15.9827C31.988 15.8112 31.845 15.672 31.6667 15.672L29.4487 15.6713L29.4488 14.9039C29.4366 14.793 29.4581 14.7269 29.5055 14.6769C29.5553 14.6244 29.6283 14.5954 29.7042 14.5991L31.5052 14.6053C31.6898 14.606 31.8398 14.4566 31.8398 14.272V11.9473C31.8398 11.7633 31.6906 11.614 31.5065 11.614H28.9188ZM31.1727 12.2807V13.9367L29.721 13.9329C29.4676 13.9202 29.2059 14.0241 29.0219 14.218C28.8355 14.4145 28.7483 14.6828 28.7852 14.9495L28.7821 16.0053L28.7875 16.0652C28.8157 16.2207 28.9518 16.3387 29.1154 16.3387L31.2953 16.338L31.1173 17.9907L29.1154 17.9908L29.0555 17.9962C28.9 18.0244 28.7821 18.1605 28.7821 18.3242L28.782 24.9473H26.4593L26.4599 18.3242L26.4546 18.2642C26.4264 18.1087 26.2903 17.9908 26.1266 17.9908L24.6667 17.9907V16.338L26.1266 16.3387C26.3107 16.3387 26.4599 16.1894 26.4599 16.0053V14.7618C26.4599 13.2858 27.1768 12.2807 28.9188 12.2807H31.1727Z" fill="#C9CCCF"/>
</g>
</g>
<defs>
<clipPath id="clip0_2388_5923">
<rect width="16" height="16" fill="white" transform="translate(20 10.614)"/>
</clipPath>
<clipPath id="clip1_2388_5923">
<rect width="16" height="16" fill="white" transform="translate(20 10.614)"/>
</clipPath>
</defs>
</svg>
