<svg width="56" height="37" viewBox="0 0 56 37" fill="none" xmlns="http://www.w3.org/2000/svg">
<g clip-path="url(#clip0_2388_1444)">
<g clip-path="url(#clip1_2388_1444)">
<path fill-rule="evenodd" clip-rule="evenodd" d="M28.9188 11.024L28.7456 11.0269C26.6997 11.0969 25.7933 12.4153 25.7933 14.1718L25.7927 15.0813L24.3333 15.082C24.1492 15.082 24 15.2312 24 15.4153V17.7341L24.0054 17.794C24.0336 17.9495 24.1697 18.0675 24.3333 18.0675L25.7927 18.0673L25.7933 24.6907C25.7933 24.8747 25.9425 25.024 26.1266 25.024H29.1154L29.1753 25.0186C29.3308 24.9904 29.4488 24.8543 29.4488 24.6907L29.4487 18.0673L31.4174 18.0675C31.5877 18.0675 31.7306 17.9391 31.7488 17.7698L31.9981 15.4509L31.9993 15.3927C31.988 15.2212 31.845 15.082 31.6667 15.082L29.4487 15.0813L29.4488 14.3138C29.4366 14.203 29.4581 14.1368 29.5055 14.0868C29.5553 14.0344 29.6283 14.0054 29.7042 14.0091L31.5052 14.0153C31.6898 14.016 31.8398 13.8665 31.8398 13.682V11.3573C31.8398 11.1732 31.6906 11.024 31.5065 11.024H28.9188ZM31.1727 11.6907V13.3467L29.721 13.3428C29.4676 13.3302 29.2059 13.434 29.0219 13.628C28.8355 13.8244 28.7483 14.0928 28.7852 14.3595L28.7821 15.4153L28.7875 15.4752C28.8157 15.6307 28.9518 15.7486 29.1154 15.7486L31.2953 15.748L31.1173 17.4007L29.1154 17.4008L29.0555 17.4062C28.9 17.4344 28.7821 17.5705 28.7821 17.7341L28.782 24.3573H26.4593L26.4599 17.7341L26.4546 17.6742C26.4264 17.5187 26.2903 17.4008 26.1266 17.4008L24.6667 17.4007V15.748L26.1266 15.7486C26.3107 15.7486 26.4599 15.5994 26.4599 15.4153V14.1718C26.4599 12.6957 27.1768 11.6907 28.9188 11.6907H31.1727Z" fill="#C9CCCF"/>
</g>
</g>
<defs>
<clipPath id="clip0_2388_1444">
<rect width="16" height="16" fill="white" transform="translate(20 10.024)"/>
</clipPath>
<clipPath id="clip1_2388_1444">
<rect width="16" height="16" fill="white" transform="translate(20 10.024)"/>
</clipPath>
</defs>
</svg>
