<svg width="56" height="37" viewBox="0 0 56 37" fill="none" xmlns="http://www.w3.org/2000/svg">
<g clip-path="url(#clip0_2388_5267)">
<g clip-path="url(#clip1_2388_5267)">
<path fill-rule="evenodd" clip-rule="evenodd" d="M24.3332 15.5573C24.4968 15.5573 24.6329 15.6753 24.6611 15.8308L24.6665 15.8907V24.5573C24.6665 24.721 24.5486 24.8571 24.3931 24.8853L24.3332 24.8907H20.9998C20.8362 24.8907 20.7001 24.7728 20.6719 24.6173L20.6665 24.5573V15.8907C20.6665 15.727 20.7844 15.5909 20.9399 15.5627L20.9998 15.5573H24.3332ZM31.6598 15.5507C33.8619 15.5507 35.2696 17.1976 35.3311 19.9325L35.3332 20.1207V24.5573C35.3332 24.721 35.2153 24.8571 35.0598 24.8853L34.9998 24.8907H31.6665C31.5029 24.8907 31.3668 24.7728 31.3385 24.6173L31.3332 24.5573V19.8907C31.3332 19.3384 30.8855 18.8907 30.3332 18.8907C29.8134 18.8907 29.3862 19.2873 29.3377 19.7944L29.3332 19.8907V24.5573C29.3332 24.721 29.2153 24.8571 29.0598 24.8853L28.9998 24.8907H25.6665C25.5029 24.8907 25.3668 24.7728 25.3385 24.6173L25.3332 24.5573V15.8907C25.3332 15.727 25.4511 15.5909 25.6066 15.5627L25.6665 15.5573H28.9998C29.1635 15.5573 29.2996 15.6753 29.3278 15.8308L29.3332 15.8907V16.228L29.4237 16.1732C29.9795 15.8474 30.5996 15.643 31.243 15.5752L31.4583 15.5577L31.6598 15.5507ZM23.9998 16.224H21.3332V24.224H23.9998V16.224ZM31.6645 16.2173C30.7664 16.2298 29.9006 16.5542 29.2154 17.135C29.0132 17.3063 28.7103 17.1836 28.6708 16.9357L28.6665 16.8807V16.2233H25.9998V24.224H28.6665V19.8907C28.6665 19.0438 29.2981 18.3445 30.1159 18.238L30.2236 18.2275L30.3332 18.224C31.2168 18.224 31.9399 18.9117 31.9963 19.7811L31.9998 19.8907V24.224H34.6665V20.1207C34.6665 17.7431 33.6263 16.3619 31.9359 16.2281L31.7975 16.22L31.6645 16.2173ZM22.6665 10.8907C23.1969 10.8907 23.7056 11.1014 24.0807 11.4765C24.4558 11.8515 24.6665 12.3602 24.6665 12.8907C24.6665 13.9952 23.7711 14.8907 22.6665 14.8907C21.5619 14.8907 20.6665 13.9952 20.6665 12.8907C20.6665 11.7861 21.5619 10.8907 22.6665 10.8907ZM22.6665 11.5573C21.9301 11.5573 21.3332 12.1543 21.3332 12.8907C21.3332 13.627 21.9301 14.224 22.6665 14.224C23.4029 14.224 23.9998 13.627 23.9998 12.8907C23.9998 12.537 23.8594 12.1979 23.6093 11.9479C23.3593 11.6978 23.0201 11.5573 22.6665 11.5573Z" fill="#C9CCCF"/>
</g>
</g>
<defs>
<clipPath id="clip0_2388_5267">
<rect width="16" height="16" fill="white" transform="translate(20 10.224)"/>
</clipPath>
<clipPath id="clip1_2388_5267">
<rect width="16" height="16" fill="white" transform="translate(20 10.224)"/>
</clipPath>
</defs>
</svg>
