<svg width="25" height="25" viewBox="0 0 25 25" fill="none" xmlns="http://www.w3.org/2000/svg">
<g clip-path="url(#clip0_2388_6547)">
<g clip-path="url(#clip1_2388_6547)">
<g clip-path="url(#clip2_2388_6547)">
<path fill-rule="evenodd" clip-rule="evenodd" d="M12.667 0.459961C19.2944 0.459961 24.667 5.83254 24.667 12.46C24.667 19.0874 19.2944 24.46 12.667 24.46C6.03958 24.46 0.666992 19.0874 0.666992 12.46C0.666992 5.83254 6.03958 0.459961 12.667 0.459961ZM12.6943 6.95933C11.7466 6.93329 10.8331 7.31467 10.1852 8.00689C9.53738 8.69912 9.21723 9.63581 9.30807 10.6265C9.30807 12.83 9.73659 13.9101 10.778 15.0562C11.6283 15.9914 11.4256 18.3178 10.2251 18.76C8.56929 19.2619 6.97036 19.9336 5.45369 20.7641C7.38457 22.4435 9.90708 23.46 12.667 23.46C15.4421 23.46 17.9772 22.4323 19.9125 20.7368C18.4103 19.9188 16.8254 19.2553 15.1629 18.7506C13.9906 18.3178 13.7879 15.9914 14.638 15.0563C15.6809 13.9087 16.1081 12.8326 16.1103 10.5798C16.1989 9.63581 15.8788 8.69912 15.2309 8.00689C14.6329 7.36792 13.8085 6.9938 12.9182 6.96051L12.6943 6.95933ZM12.667 1.45996C6.59186 1.45996 1.66699 6.38483 1.66699 12.46C1.66699 15.3996 2.82011 18.0699 4.69869 20.0433L4.41626 20.201C6.15721 19.1915 8.00911 18.3868 9.90691 17.8125C10.3297 17.6564 10.4575 16.1902 10.038 15.7288C8.83134 14.4009 8.30807 13.0819 8.31027 10.6733C8.19485 9.4443 8.61165 8.2248 9.45514 7.32357C10.2424 6.48242 11.3309 5.99381 12.4534 5.95996H12.9404C14.0853 5.99381 15.1738 6.48242 15.961 7.32357C16.8045 8.2248 17.2213 9.4443 17.1081 10.6265C17.1081 13.0846 16.5861 14.3995 15.378 15.7289C14.9587 16.1902 15.0864 17.6564 15.4811 17.803C17.2839 18.3495 19.0219 19.0895 20.6647 20.0099C22.5255 18.0428 23.667 15.3847 23.667 12.46C23.667 6.38483 18.7421 1.45996 12.667 1.45996Z" fill="#000E14"/>
</g>
</g>
</g>
<defs>
<clipPath id="clip0_2388_6547">
<rect width="24" height="24" fill="white" transform="translate(0.666992 0.459961)"/>
</clipPath>
<clipPath id="clip1_2388_6547">
<rect width="24" height="24" fill="white" transform="translate(0.666992 0.459961)"/>
</clipPath>
<clipPath id="clip2_2388_6547">
<rect width="24" height="24" fill="white" transform="translate(0.666992 0.459961)"/>
</clipPath>
</defs>
</svg>
