<svg width="25" height="25" viewBox="0 0 25 25" fill="none" xmlns="http://www.w3.org/2000/svg">
<g clip-path="url(#clip0_2388_4347)">
<g clip-path="url(#clip1_2388_4347)">
<g clip-path="url(#clip2_2388_4347)">
<path fill-rule="evenodd" clip-rule="evenodd" d="M12.667 0.460022C19.2944 0.460022 24.667 5.8326 24.667 12.46C24.667 19.0874 19.2944 24.46 12.667 24.46C6.03958 24.46 0.666992 19.0874 0.666992 12.46C0.666992 5.8326 6.03958 0.460022 12.667 0.460022ZM12.6943 6.95939C11.7466 6.93335 10.8331 7.31473 10.1852 8.00696C9.53738 8.69918 9.21723 9.63587 9.30807 10.6266C9.30807 12.8301 9.73659 13.9102 10.778 15.0562C11.6283 15.9915 11.4256 18.3178 10.2251 18.7601C8.56929 19.262 6.97036 19.9337 5.45369 20.7641C7.38457 22.4436 9.90708 23.46 12.667 23.46C15.4421 23.46 17.9772 22.4324 19.9125 20.7369C18.4103 19.9188 16.8254 19.2554 15.1629 18.7506C13.9906 18.3178 13.7879 15.9915 14.638 15.0563C15.6809 13.9087 16.1081 12.8326 16.1103 10.5798C16.1989 9.63587 15.8788 8.69918 15.2309 8.00696C14.6329 7.36798 13.8085 6.99386 12.9182 6.96057L12.6943 6.95939ZM12.667 1.46002C6.59186 1.46002 1.66699 6.38489 1.66699 12.46C1.66699 15.3997 2.82011 18.07 4.69869 20.0433L4.41626 20.201C6.15721 19.1915 8.00911 18.3869 9.90691 17.8125C10.3297 17.6564 10.4575 16.1902 10.038 15.7288C8.83134 14.4009 8.30807 13.082 8.31027 10.6733C8.19485 9.44436 8.61165 8.22486 9.45514 7.32363C10.2424 6.48248 11.3309 5.99387 12.4534 5.96002H12.9404C14.0853 5.99387 15.1738 6.48248 15.961 7.32363C16.8045 8.22486 17.2213 9.44436 17.1081 10.6266C17.1081 13.0847 16.5861 14.3995 15.378 15.7289C14.9587 16.1902 15.0864 17.6564 15.4811 17.8031C17.2839 18.3496 19.0219 19.0896 20.6647 20.01C22.5255 18.0429 23.667 15.3848 23.667 12.46C23.667 6.38489 18.7421 1.46002 12.667 1.46002Z" fill="#000E14"/>
</g>
</g>
</g>
<defs>
<clipPath id="clip0_2388_4347">
<rect width="24" height="24" fill="white" transform="translate(0.666992 0.460022)"/>
</clipPath>
<clipPath id="clip1_2388_4347">
<rect width="24" height="24" fill="white" transform="translate(0.666992 0.460022)"/>
</clipPath>
<clipPath id="clip2_2388_4347">
<rect width="24" height="24" fill="white" transform="translate(0.666992 0.460022)"/>
</clipPath>
</defs>
</svg>
