<svg width="25" height="25" viewBox="0 0 25 25" fill="none" xmlns="http://www.w3.org/2000/svg">
<g clip-path="url(#clip0_2388_12949)">
<g clip-path="url(#clip1_2388_12949)">
<g clip-path="url(#clip2_2388_12949)">
<path fill-rule="evenodd" clip-rule="evenodd" d="M12.6667 0.460022C19.2942 0.460022 24.6667 5.8326 24.6667 12.46C24.6667 19.0874 19.2942 24.46 12.6667 24.46C6.03933 24.46 0.666748 19.0874 0.666748 12.46C0.666748 5.8326 6.03933 0.460022 12.6667 0.460022ZM12.6941 6.95939C11.7463 6.93335 10.8329 7.31473 10.185 8.00696C9.53713 8.69918 9.21699 9.63587 9.30783 10.6266C9.30783 12.8301 9.73634 13.9102 10.7778 15.0562C11.628 15.9915 11.4253 18.3178 10.2249 18.7601C8.56905 19.262 6.97011 19.9337 5.45345 20.7641C7.38432 22.4436 9.90684 23.46 12.6667 23.46C15.4419 23.46 17.977 22.4324 19.9122 20.7369C18.41 19.9188 16.8252 19.2554 15.1627 18.7506C13.9903 18.3178 13.7876 15.9915 14.6378 15.0563C15.6806 13.9087 16.1078 12.8326 16.11 10.5798C16.1987 9.63587 15.8785 8.69918 15.2307 8.00696C14.6326 7.36798 13.8083 6.99386 12.918 6.96057L12.6941 6.95939ZM12.6667 1.46002C6.59162 1.46002 1.66675 6.38489 1.66675 12.46C1.66675 15.3997 2.81986 18.07 4.69844 20.0433L4.41602 20.201C6.15697 19.1915 8.00887 18.3869 9.90667 17.8125C10.3295 17.6564 10.4572 16.1902 10.0378 15.7288C8.83109 14.4009 8.30783 13.082 8.31002 10.6733C8.1946 9.44436 8.61141 8.22486 9.45489 7.32363C10.2421 6.48248 11.3306 5.99387 12.4531 5.96002H12.9402C14.085 5.99387 15.1735 6.48248 15.9608 7.32363C16.8043 8.22486 17.2211 9.44436 17.1078 10.6266C17.1078 13.0847 16.5858 14.3995 15.3778 15.7289C14.9584 16.1902 15.0862 17.6564 15.4809 17.8031C17.2837 18.3496 19.0216 19.0896 20.6644 20.01C22.5253 18.0429 23.6667 15.3848 23.6667 12.46C23.6667 6.38489 18.7419 1.46002 12.6667 1.46002Z" fill="#000E14"/>
</g>
</g>
</g>
<defs>
<clipPath id="clip0_2388_12949">
<rect width="24" height="24" fill="white" transform="translate(0.666748 0.460022)"/>
</clipPath>
<clipPath id="clip1_2388_12949">
<rect width="24" height="24" fill="white" transform="translate(0.666748 0.460022)"/>
</clipPath>
<clipPath id="clip2_2388_12949">
<rect width="24" height="24" fill="white" transform="translate(0.666748 0.460022)"/>
</clipPath>
</defs>
</svg>
