<svg width="25" height="25" viewBox="0 0 25 25" fill="none" xmlns="http://www.w3.org/2000/svg">
<g clip-path="url(#clip0_2388_5480)">
<g clip-path="url(#clip1_2388_5480)">
<g clip-path="url(#clip2_2388_5480)">
<path fill-rule="evenodd" clip-rule="evenodd" d="M12.6665 0.460022C19.2939 0.460022 24.6665 5.8326 24.6665 12.46C24.6665 19.0874 19.2939 24.46 12.6665 24.46C6.03909 24.46 0.666504 19.0874 0.666504 12.46C0.666504 5.8326 6.03909 0.460022 12.6665 0.460022ZM12.6939 6.95939C11.7461 6.93335 10.8326 7.31473 10.1848 8.00696C9.53689 8.69918 9.21674 9.63587 9.30759 10.6266C9.30759 12.8301 9.7361 13.9102 10.7776 15.0562C11.6278 15.9915 11.4251 18.3178 10.2246 18.7601C8.5688 19.262 6.96987 19.9337 5.4532 20.7641C7.38408 22.4436 9.90659 23.46 12.6665 23.46C15.4416 23.46 17.9767 22.4324 19.912 20.7369C18.4098 19.9188 16.8249 19.2554 15.1624 18.7506C13.9901 18.3178 13.7874 15.9915 14.6375 15.0563C15.6804 13.9087 16.1076 12.8326 16.1098 10.5798C16.1984 9.63587 15.8783 8.69918 15.2304 8.00696C14.6324 7.36798 13.808 6.99386 12.9177 6.96057L12.6939 6.95939ZM12.6665 1.46002C6.59137 1.46002 1.6665 6.38489 1.6665 12.46C1.6665 15.3997 2.81962 18.07 4.6982 20.0433L4.41578 20.201C6.15672 19.1915 8.00863 18.3869 9.90642 17.8125C10.3292 17.6564 10.457 16.1902 10.0375 15.7288C8.83085 14.4009 8.30759 13.082 8.30978 10.6733C8.19436 9.44436 8.61116 8.22486 9.45465 7.32363C10.2419 6.48248 11.3304 5.99387 12.4529 5.96002H12.94C14.0848 5.99387 15.1733 6.48248 15.9605 7.32363C16.804 8.22486 17.2208 9.44436 17.1076 10.6266C17.1076 13.0847 16.5856 14.3995 15.3776 15.7289C14.9582 16.1902 15.0859 17.6564 15.4806 17.8031C17.2834 18.3496 19.0214 19.0896 20.6642 20.01C22.5251 18.0429 23.6665 15.3848 23.6665 12.46C23.6665 6.38489 18.7416 1.46002 12.6665 1.46002Z" fill="#000E14"/>
</g>
</g>
</g>
<defs>
<clipPath id="clip0_2388_5480">
<rect width="24" height="24" fill="white" transform="translate(0.666504 0.460022)"/>
</clipPath>
<clipPath id="clip1_2388_5480">
<rect width="24" height="24" fill="white" transform="translate(0.666504 0.460022)"/>
</clipPath>
<clipPath id="clip2_2388_5480">
<rect width="24" height="24" fill="white" transform="translate(0.666504 0.460022)"/>
</clipPath>
</defs>
</svg>
