<svg width="25" height="25" viewBox="0 0 25 25" fill="none" xmlns="http://www.w3.org/2000/svg">
<g clip-path="url(#clip0_2388_12046)">
<g clip-path="url(#clip1_2388_12046)">
<g clip-path="url(#clip2_2388_12046)">
<path fill-rule="evenodd" clip-rule="evenodd" d="M12.6667 0.460022C19.2941 0.460022 24.6667 5.8326 24.6667 12.46C24.6667 19.0874 19.2941 24.46 12.6667 24.46C6.03927 24.46 0.666687 19.0874 0.666687 12.46C0.666687 5.8326 6.03927 0.460022 12.6667 0.460022ZM12.694 6.95939C11.7463 6.93335 10.8328 7.31473 10.1849 8.00696C9.53707 8.69918 9.21693 9.63587 9.30777 10.6266C9.30777 12.8301 9.73628 13.9102 10.7777 15.0562C11.628 15.9915 11.4253 18.3178 10.2248 18.7601C8.56899 19.262 6.97005 19.9337 5.45339 20.7641C7.38426 22.4436 9.90677 23.46 12.6667 23.46C15.4418 23.46 17.9769 22.4324 19.9122 20.7369C18.41 19.9188 16.8251 19.2554 15.1626 18.7506C13.9903 18.3178 13.7876 15.9915 14.6377 15.0563C15.6806 13.9087 16.1078 12.8326 16.11 10.5798C16.1986 9.63587 15.8785 8.69918 15.2306 8.00696C14.6326 7.36798 13.8082 6.99386 12.9179 6.96057L12.694 6.95939ZM12.6667 1.46002C6.59155 1.46002 1.66669 6.38489 1.66669 12.46C1.66669 15.3997 2.8198 18.07 4.69838 20.0433L4.41596 20.201C6.15691 19.1915 8.00881 18.3869 9.90661 17.8125C10.3294 17.6564 10.4572 16.1902 10.0377 15.7288C8.83103 14.4009 8.30777 13.082 8.30996 10.6733C8.19454 9.44436 8.61135 8.22486 9.45483 7.32363C10.2421 6.48248 11.3306 5.99387 12.4531 5.96002H12.9401C14.085 5.99387 15.1735 6.48248 15.9607 7.32363C16.8042 8.22486 17.221 9.44436 17.1078 10.6266C17.1078 13.0847 16.5858 14.3995 15.3777 15.7289C14.9584 16.1902 15.0861 17.6564 15.4808 17.8031C17.2836 18.3496 19.0216 19.0896 20.6643 20.01C22.5252 18.0429 23.6667 15.3848 23.6667 12.46C23.6667 6.38489 18.7418 1.46002 12.6667 1.46002Z" fill="#000E14"/>
</g>
</g>
</g>
<defs>
<clipPath id="clip0_2388_12046">
<rect width="24" height="24" fill="white" transform="translate(0.666687 0.460022)"/>
</clipPath>
<clipPath id="clip1_2388_12046">
<rect width="24" height="24" fill="white" transform="translate(0.666687 0.460022)"/>
</clipPath>
<clipPath id="clip2_2388_12046">
<rect width="24" height="24" fill="white" transform="translate(0.666687 0.460022)"/>
</clipPath>
</defs>
</svg>
