<svg width="24" height="25" viewBox="0 0 24 25" fill="none" xmlns="http://www.w3.org/2000/svg">
<g clip-path="url(#clip0_2370_212955)">
<g clip-path="url(#clip1_2370_212955)">
<g clip-path="url(#clip2_2370_212955)">
<path fill-rule="evenodd" clip-rule="evenodd" d="M23 6.41998C23.2455 6.41998 23.4496 6.59686 23.4919 6.83011L23.5 6.91998V10.92C23.5 11.125 23.3754 11.306 23.191 11.3821L23.1085 11.4081L14.498 13.321L14.5 13.42C14.5 17.2054 11.4952 20.2891 7.74065 20.4159L7.5 20.42C3.63401 20.42 0.5 17.286 0.5 13.42C0.5 9.7219 3.36768 6.6936 7.00061 6.43752L7 6.41998H23ZM7.5 7.41998C4.18629 7.41998 1.5 10.1063 1.5 13.42C1.5 16.7337 4.18629 19.42 7.5 19.42C10.8137 19.42 13.5 16.7337 13.5 13.42C13.5 10.1063 10.8137 7.41998 7.5 7.41998ZM7.5 9.41998C9.70914 9.41998 11.5 11.2108 11.5 13.42C11.5 15.6291 9.70914 17.42 7.5 17.42C5.29086 17.42 3.5 15.6291 3.5 13.42C3.5 11.2108 5.29086 9.41998 7.5 9.41998ZM7.5 10.42C5.84315 10.42 4.5 11.7631 4.5 13.42C4.5 15.0768 5.84315 16.42 7.5 16.42C9.15685 16.42 10.5 15.0768 10.5 13.42C10.5 11.7631 9.15685 10.42 7.5 10.42ZM22.5 7.41998H17.206L15.2071 9.41998L13.2451 9.41965C13.8361 10.2669 14.2446 11.2511 14.4133 12.315L22.5 10.518V7.41998ZM15.792 7.41998L11.1077 7.42004C11.5765 7.70255 12.0095 8.03846 12.3983 8.41936L14.792 8.41998L15.792 7.41998Z" fill="#000E14"/>
</g>
</g>
</g>
<defs>
<clipPath id="clip0_2370_212955">
<rect width="24" height="24" fill="white" transform="translate(0 0.919983)"/>
</clipPath>
<clipPath id="clip1_2370_212955">
<rect width="24" height="24" fill="white" transform="translate(0 0.919983)"/>
</clipPath>
<clipPath id="clip2_2370_212955">
<rect width="24" height="24" fill="white" transform="translate(0 0.919983)"/>
</clipPath>
</defs>
</svg>
