<svg width="21" height="15" viewBox="0 0 21 15" fill="none" xmlns="http://www.w3.org/2000/svg">
<path fill-rule="evenodd" clip-rule="evenodd" d="M20.4707 8.56873V9.15488L11.298 13.4447V12.8586L20.4707 8.56873ZM9.58447 11.9123L11.0605 12.8568V13.4322L9.58447 12.4829V11.9123ZM0.48999 8.52402L6.81098 12.6493V13.2354L0.48999 9.09262V8.52402ZM8.90629 11.8976V12.4565L7.16013 13.2354V12.6765L8.90629 11.8976ZM20.4707 7.15698V7.74312L11.298 12.033V11.4468L20.4707 7.15698ZM9.58447 10.5026L11.0605 11.448V12.0234L9.58447 11.0741V10.5026ZM0.48999 7.04222L6.81098 11.1665V11.7536L0.48999 7.60984V7.04222ZM8.90629 10.4158V10.9747L7.16013 11.7536V11.1938L8.90629 10.4158ZM9.93574 0.753342L11.569 1.83116L13.5872 0.905235L20.38 4.315L18.2546 5.23216L20.49 6.31177L11.2807 10.5286L9.24604 9.15383L6.86605 10.2725L0.526789 6.1113L2.94247 5.15811L1.17121 4.0988L9.93574 0.753342ZM11.3884 2.8487L5.32125 5.32368L9.31724 7.68866L15.5484 5.06663L11.3884 2.8487ZM20.489 4.98678V5.54566L20.0162 5.75693L19.4277 5.45998L20.489 4.98678ZM1.17116 4.63631L2.0674 5.18057L1.45962 5.4347L1.1673 5.27112L1.17116 4.63631Z" fill="black"/>
</svg>
