<svg width="20" height="14" viewBox="0 0 20 14" fill="none" xmlns="http://www.w3.org/2000/svg">
<path fill-rule="evenodd" clip-rule="evenodd" d="M19.9808 8.06872V8.65487L10.808 12.9447V12.3586L19.9808 8.06872ZM9.09447 11.4123L10.5705 12.3568V12.9322L9.09447 11.9829V11.4123ZM0 8.024L6.32099 12.1493V12.7353L0 8.5926V8.024ZM8.4163 11.3976V11.9565L6.67014 12.7353V12.1765L8.4163 11.3976ZM19.9808 6.65697V7.2431L10.808 11.533V10.9468L19.9808 6.65697ZM9.09447 10.0026L10.5705 10.948V11.5234L9.09447 10.5741V10.0026ZM0 6.5422L6.32099 10.6665V11.2536L0 7.10983V6.5422ZM8.4163 9.91583V10.4747L6.67014 11.2536V10.6938L8.4163 9.91583ZM9.44575 0.253326L11.079 1.33114L13.0972 0.40522L19.89 3.81498L17.7646 4.73214L20 5.81175L10.7907 10.0286L8.75605 8.65382L6.37606 9.77253L0.0367987 5.61128L2.45248 4.65809L0.681221 3.59878L9.44575 0.253326ZM10.8984 2.34868L4.83126 4.82367L8.82725 7.18864L15.0584 4.56662L10.8984 2.34868ZM19.999 4.48677V5.04564L19.5263 5.25692L18.9377 4.95997L19.999 4.48677ZM0.681173 4.13629L1.57741 4.68055L0.969627 4.93468L0.677312 4.7711L0.681173 4.13629Z" fill="black"/>
</svg>
